<?xml version="1.0" encoding="UTF-8" standalone="no"?>
<!-- Created with Inkscape (http://www.inkscape.org/) -->

<svg
   xmlns:dc="http://purl.org/dc/elements/1.1/"
   xmlns:cc="http://creativecommons.org/ns#"
   xmlns:rdf="http://www.w3.org/1999/02/22-rdf-syntax-ns#"
   xmlns:svg="http://www.w3.org/2000/svg"
   xmlns="http://www.w3.org/2000/svg"
   xmlns:sodipodi="http://sodipodi.sourceforge.net/DTD/sodipodi-0.dtd"
   xmlns:inkscape="http://www.inkscape.org/namespaces/inkscape"
   width="64"
   height="64"
   id="svg7002"
   version="1.1"
   inkscape:version="0.48.2 r9819"
   sodipodi:docname="abomination-injured.svg"
   inkscape:export-filename="/Users/e0/Dropbox/Iamagamer2013/art/abomination-injured.png"
   inkscape:export-xdpi="90"
   inkscape:export-ydpi="90">
  <defs
     id="defs7004" />
  <sodipodi:namedview
     id="base"
     pagecolor="#ffffff"
     bordercolor="#666666"
     borderopacity="1.0"
     inkscape:pageopacity="0.0"
     inkscape:pageshadow="2"
     inkscape:zoom="7.9195959"
     inkscape:cx="45.422054"
     inkscape:cy="32.21024"
     inkscape:document-units="px"
     inkscape:current-layer="layer1"
     showgrid="false"
     inkscape:window-width="1217"
     inkscape:window-height="731"
     inkscape:window-x="20"
     inkscape:window-y="20"
     inkscape:window-maximized="0" />
  <metadata
     id="metadata7007">
    <rdf:RDF>
      <cc:Work
         rdf:about="">
        <dc:format>image/svg+xml</dc:format>
        <dc:type
           rdf:resource="http://purl.org/dc/dcmitype/StillImage" />
        <dc:title></dc:title>
      </cc:Work>
    </rdf:RDF>
  </metadata>
  <g
     inkscape:label="Layer 1"
     inkscape:groupmode="layer"
     id="layer1"
     transform="translate(0,-988.36218)">
    <path
       style="fill:#000000;stroke:none;stroke-width:1px;stroke-linecap:butt;stroke-linejoin:miter;stroke-opacity:1"
       d="M 38.84375 7.90625 C 35.245081 8.0009518 31.314246 8.5574237 28.03125 9.0625 C 28.03125 9.0625 22.348034 10.594542 18.8125 13.625 C 15.276966 16.655457 16.806155 21.708121 17.4375 25.875 C 18.068846 30.04188 22.346288 32.69083 22.09375 35.46875 C 21.841212 38.246669 19.446384 44.677348 18.5625 45.6875 C 17.678617 46.697653 14.261422 46.076459 13.125 44.6875 C 11.988578 43.29854 14.88896 38.378015 13.5 34.96875 C 12.111041 31.559485 10.469227 30.036327 7.3125 29.53125 C 4.1557733 29.026174 1.78125 31.4375 1.78125 31.4375 C 1.78125 31.4375 4.0333114 31.557423 6.9375 32.0625 C 9.8416885 32.567576 12.365324 37.370717 10.21875 40.90625 C 8.0721754 44.441784 7.1971758 48.472081 9.34375 51.25 C 11.490324 54.02792 20.596288 51.613578 20.34375 52.75 C 20.091212 53.886422 15.158788 57.313292 14.90625 60.34375 C 14.653712 63.374208 21.47668 60.452729 26.90625 58.9375 C 32.33582 57.422271 34.597557 55.151174 34.21875 55.65625 C 33.839942 56.161327 32.464943 59.32979 32.84375 60.71875 C 33.222557 62.10771 38.888483 62.119924 40.65625 62.625 C 42.424017 63.130077 44.956059 61.228902 46.21875 60.21875 C 47.481441 59.208597 44.6875 56.03125 44.6875 56.03125 C 44.6875 56.03125 48.866116 58.57979 49.75 59.96875 C 50.633883 61.35771 56.560755 61.481441 59.84375 60.21875 C 63.126746 58.956059 58.716689 56.031727 55.8125 52.875 C 52.908312 49.718273 56.3125 48.209074 56.3125 46.0625 C 56.3125 43.915926 53.165134 38.862786 52.28125 36.96875 C 51.397367 35.074714 51.25 33.4375 51.25 33.4375 C 51.25 33.4375 51.76729 34.714943 53.15625 35.09375 C 54.54521 35.472558 54.686231 32.57186 54.8125 28.53125 C 54.938769 24.49064 51.381822 12.340419 47.59375 9.5625 C 45.699714 8.1735403 42.442419 7.8115482 38.84375 7.90625 z M 30.3125 34.71875 C 30.3125 34.71875 30.673541 34.713674 32.0625 35.21875 C 33.10422 35.597558 33.166432 36.312956 33.125 36.65625 C 33.213043 36.19014 33.599381 34.488895 34.59375 35.59375 C 35.730171 36.85644 34.588674 39.137214 35.09375 41.03125 C 35.598826 42.925287 36.501269 43.924809 36.375 45.1875 C 36.248731 46.45019 34.983979 46.567576 33.46875 46.0625 C 32.995241 45.904664 32.789961 45.581589 32.71875 45.21875 C 32.570707 45.579676 32.359668 45.927478 32.0625 46.1875 C 31.052348 47.071384 30.038864 43.677824 29.28125 41.53125 C 28.523636 39.384676 29.681154 36.233979 30.3125 34.71875 z M 47.75 34.75 C 47.837118 34.732613 47.897724 34.803022 47.96875 34.96875 C 48.347557 35.852634 50.128807 40.894828 49.75 42.03125 C 49.371193 43.167672 49.757614 45.9375 49 45.9375 C 48.242385 45.9375 46.96875 44.6875 46.96875 44.6875 C 46.96875 44.6875 45.712405 37.475096 46.34375 36.84375 C 46.856719 36.330782 47.372488 34.825342 47.75 34.75 z M 38.625 35.3125 C 39.769468 35.340245 39.78125 37.21875 39.78125 37.21875 C 39.78125 37.21875 41.149904 35.592481 41.78125 35.71875 C 42.412595 35.845019 43.06123 37.723827 43.1875 37.21875 C 43.313769 36.713674 43.553617 35.34375 44.4375 35.34375 C 45.321384 35.34375 44.692576 45.047272 44.1875 46.5625 C 43.682424 48.077729 42.692576 44.802825 42.1875 42.65625 C 41.682424 40.509676 41.792672 44.421002 40.65625 46.0625 C 39.519829 47.703998 39.261421 45.822652 38.125 44.8125 C 36.988578 43.802347 37.252538 38.858979 37 37.34375 C 36.747462 35.828522 36.98604 35.596289 38.375 35.34375 C 38.46181 35.327966 38.548702 35.31065 38.625 35.3125 z "
       transform="translate(0,988.36218)"
       id="path7018" />
    <path
       style="fill:#000000;stroke:none"
       d="m 42.426407,1003.2435 c 0,0 8.207489,5.5559 10.985409,3.9144 2.777919,-1.6415 4.545686,-5.0508 1.767767,-6.6923 -2.77792,-1.6415 -4.99551,-3.06837 -3.914341,-4.79824 1.26269,-2.0203 6.313453,-2.77791 6.313453,-2.77791 0,0 -3.409265,2.27284 -3.409265,3.91434 0,1.6415 6.692261,4.29311 6.060915,6.81851 -0.631345,2.5254 -3.50019,3.4308 -5.42957,6.566 -2.020305,3.283 -6.439722,2.1466 -6.439722,2.1466 z"
       id="path7020"
       inkscape:connector-curvature="0"
       sodipodi:nodetypes="cssscssscc" />
    <path
       style="fill:#ffffff;stroke:none;stroke-width:1px;stroke-linecap:butt;stroke-linejoin:miter;stroke-opacity:1"
       d="m 27.779195,25.866741 c 0,0 -3.156727,-4.924493 0.126269,-5.682108 3.282996,-0.757614 7.702413,-0.505076 7.071068,2.146574 -0.631345,2.651651 -0.126269,5.050763 -0.252538,6.187185 -0.126269,1.136421 0.505076,2.65165 -0.757614,2.777919 -1.262691,0.126269 -0.757615,-4.04061 -1.767767,-4.419417 -1.010153,-0.378807 0.126269,0.757614 -1.136422,1.894036 -1.262691,1.136421 -0.883884,-1.515229 -2.272843,-1.262691 -1.38896,0.252538 -1.010153,-1.641498 -1.010153,-1.641498 z"
       id="path10416"
       inkscape:connector-curvature="0"
       transform="translate(0,988.36218)" />
    <path
       style="fill:#ffffff;stroke:none;stroke-width:1px;stroke-linecap:butt;stroke-linejoin:miter;stroke-opacity:1"
       d="m 40.65864,22.583745 c -0.378807,-1.26269 -0.126269,-3.788072 1.641498,-4.293148 1.767767,-0.505076 5.050763,0.883884 5.050763,1.767767 0,0.883884 1.262691,2.020305 0.126269,3.661803 -1.136422,1.641498 -1.136422,2.272843 -2.651651,2.65165 -1.515228,0.378808 -4.293148,-1.010152 -4.293148,-2.399112 0,-1.38896 0.126269,-1.38896 0.126269,-1.38896 z"
       id="path10418"
       inkscape:connector-curvature="0"
       transform="translate(0,988.36218)" />
  </g>
</svg>
