<?xml version="1.0" encoding="UTF-8" standalone="no"?>
<!-- Created with Inkscape (http://www.inkscape.org/) -->

<svg
   xmlns:dc="http://purl.org/dc/elements/1.1/"
   xmlns:cc="http://creativecommons.org/ns#"
   xmlns:rdf="http://www.w3.org/1999/02/22-rdf-syntax-ns#"
   xmlns:svg="http://www.w3.org/2000/svg"
   xmlns="http://www.w3.org/2000/svg"
   xmlns:sodipodi="http://sodipodi.sourceforge.net/DTD/sodipodi-0.dtd"
   xmlns:inkscape="http://www.inkscape.org/namespaces/inkscape"
   width="64"
   height="64"
   id="svg7002"
   version="1.1"
   inkscape:version="0.48.2 r9819"
   sodipodi:docname="abomination-angry.svg"
   inkscape:export-filename="/Users/e0/Dropbox/Iamagamer2013/art/abomination-angry.png"
   inkscape:export-xdpi="90"
   inkscape:export-ydpi="90">
  <defs
     id="defs7004" />
  <sodipodi:namedview
     id="base"
     pagecolor="#ffffff"
     bordercolor="#666666"
     borderopacity="1.0"
     inkscape:pageopacity="0.0"
     inkscape:pageshadow="2"
     inkscape:zoom="7.9195959"
     inkscape:cx="45.422054"
     inkscape:cy="32.21024"
     inkscape:document-units="px"
     inkscape:current-layer="layer1"
     showgrid="false"
     inkscape:window-width="1217"
     inkscape:window-height="731"
     inkscape:window-x="20"
     inkscape:window-y="20"
     inkscape:window-maximized="0"
     showguides="true"
     inkscape:guide-bbox="true" />
  <metadata
     id="metadata7007">
    <rdf:RDF>
      <cc:Work
         rdf:about="">
        <dc:format>image/svg+xml</dc:format>
        <dc:type
           rdf:resource="http://purl.org/dc/dcmitype/StillImage" />
        <dc:title></dc:title>
      </cc:Work>
    </rdf:RDF>
  </metadata>
  <g
     inkscape:label="Layer 1"
     inkscape:groupmode="layer"
     id="layer1"
     transform="translate(0,-988.36218)">
    <path
       style="fill:#000000;stroke:none"
       d="m 41.4954,1000.0565 c -3.598669,0.095 -7.529504,0.6512 -10.8125,1.1563 0,0 -5.683216,1.532 -9.21875,4.5625 -3.535534,3.0304 -4.657995,4.295 -4.02665,8.4619 0.631346,4.1669 4.908788,6.8158 4.65625,9.5937 -0.252538,2.7779 -2.647366,9.2086 -3.53125,10.2188 -0.883883,1.0101 -3.290925,2.5355 -4.427347,1.1466 -1.136422,-1.389 2.016498,-1.5113 0.627538,-4.9206 -1.388959,-3.4092 -3.157042,-2.5333 -6.3137694,-3.0384 -3.1567267,-0.505 -5.53125,1.9063 -5.53125,1.9063 0,0 2.2520614,0.1199 5.15625,0.625 2.9041884,0.5051 2.9024424,0.6363 0.7558686,4.1718 -2.1465746,3.5356 -1.6326144,2.8939 0.5139598,5.6718 2.146574,2.7779 11.252538,0.3636 11,1.5 -0.252538,1.1364 -5.184962,4.5633 -5.4375,7.5937 -0.252538,3.0305 6.57043,0.109 12,-1.4062 5.42957,-1.5152 7.691307,-3.7863 7.3125,-3.2813 -0.378808,0.5051 -1.753807,3.6736 -1.375,5.0625 0.378807,1.389 6.044733,1.4012 7.8125,1.9063 1.767767,0.5051 4.299809,-1.3961 5.5625,-2.4063 1.262691,-1.0101 -1.53125,-4.1875 -1.53125,-4.1875 0,0 4.178616,2.5486 5.0625,3.9375 0.883883,1.389 6.810755,1.5127 10.09375,0.25 3.282996,-1.2627 -1.127061,-4.187 -4.03125,-7.3437 -2.904188,-3.1567 0.5,-4.6659 0.5,-6.8125 0,-2.1466 -3.147366,-7.1997 -4.03125,-9.0938 -0.883883,-1.894 -1.03125,-3.5312 -1.03125,-3.5312 0,0 0.896097,-0.3641 2.285057,0.015 1.38896,0.3788 0.141021,-5.5524 0.26729,-9.593 0.126269,-4.0406 -0.526489,-6.5943 -3.556947,-10.5086 -1.437835,-1.85725 -5.151331,-1.751 -8.75,-1.6563 z"
       id="path7018"
       inkscape:connector-curvature="0"
       sodipodi:nodetypes="scssssssscsssssssssscssssscssss" />
    <path
       sodipodi:type="arc"
       style="fill:#ffffff;fill-opacity:1;stroke:none"
       id="path7055"
       sodipodi:cx="31.31473"
       sodipodi:cy="28.8972"
       sodipodi:rx="1.5152289"
       sodipodi:ry="1.5152289"
       d="m 32.829959,28.8972 a 1.5152289,1.5152289 0 1 1 -3.030458,0 1.5152289,1.5152289 0 1 1 3.030458,0 z"
       transform="translate(0,988.36218)" />
    <path
       sodipodi:type="arc"
       style="fill:#ffffff;fill-opacity:1;stroke:none"
       id="path7057"
       sodipodi:cx="44.194176"
       sodipodi:cy="27.381969"
       sodipodi:rx="1.5152289"
       sodipodi:ry="1.5152289"
       d="m 45.709405,27.381969 a 1.5152289,1.5152289 0 1 1 -3.030458,0 1.5152289,1.5152289 0 1 1 3.030458,0 z"
       transform="translate(0,988.36218)" />
  </g>
</svg>
