<?xml version="1.0" encoding="UTF-8" standalone="no"?>
<!-- Created with Inkscape (http://www.inkscape.org/) -->

<svg
   xmlns:dc="http://purl.org/dc/elements/1.1/"
   xmlns:cc="http://creativecommons.org/ns#"
   xmlns:rdf="http://www.w3.org/1999/02/22-rdf-syntax-ns#"
   xmlns:svg="http://www.w3.org/2000/svg"
   xmlns="http://www.w3.org/2000/svg"
   xmlns:sodipodi="http://sodipodi.sourceforge.net/DTD/sodipodi-0.dtd"
   xmlns:inkscape="http://www.inkscape.org/namespaces/inkscape"
   width="64"
   height="64"
   id="svg7002"
   version="1.1"
   inkscape:version="0.48.2 r9819"
   sodipodi:docname="abomination-dead.svg"
   inkscape:export-filename="/Users/e0/Dropbox/Iamagamer2013/art/abomination-dead.png"
   inkscape:export-xdpi="90"
   inkscape:export-ydpi="90">
  <defs
     id="defs7004" />
  <sodipodi:namedview
     id="base"
     pagecolor="#ffffff"
     bordercolor="#666666"
     borderopacity="1.0"
     inkscape:pageopacity="0.0"
     inkscape:pageshadow="2"
     inkscape:zoom="7.9195959"
     inkscape:cx="45.422054"
     inkscape:cy="32.21024"
     inkscape:document-units="px"
     inkscape:current-layer="layer1"
     showgrid="false"
     inkscape:window-width="1217"
     inkscape:window-height="731"
     inkscape:window-x="20"
     inkscape:window-y="20"
     inkscape:window-maximized="0"
     showguides="true"
     inkscape:guide-bbox="true" />
  <metadata
     id="metadata7007">
    <rdf:RDF>
      <cc:Work
         rdf:about="">
        <dc:format>image/svg+xml</dc:format>
        <dc:type
           rdf:resource="http://purl.org/dc/dcmitype/StillImage" />
        <dc:title></dc:title>
      </cc:Work>
    </rdf:RDF>
  </metadata>
  <g
     inkscape:label="Layer 1"
     inkscape:groupmode="layer"
     id="layer1"
     transform="translate(0,-988.36218)">
    <path
       style="fill:#000000;stroke:none;stroke-width:1px;stroke-linecap:butt;stroke-linejoin:miter;stroke-opacity:1"
       d="M 38.5 33.875 C 30.657507 34.011134 20.382933 35.336135 13.375 36.09375 C 13.375 36.09375 9.7192267 37.117385 6.5625 37.875 C 3.4057732 38.632614 2.5363263 40.252061 2.03125 43.15625 C 1.5261737 46.060438 7.435754 46.186231 10.71875 46.3125 C 14.001746 46.438769 13.880553 47.825983 10.21875 49.59375 C 6.5569466 51.361517 4.282519 52.391021 4.15625 53.90625 C 4.0299809 55.421478 6.1890844 57.816308 12.25 57.4375 C 18.310915 57.058693 19.960659 57.817577 23.875 57.3125 C 27.789341 56.807424 40.042195 58.1875 42.0625 58.1875 C 44.082805 58.1875 45.34375 56.665133 45.34375 55.78125 C 45.34375 54.897366 38.375793 53.910058 41.40625 53.53125 C 44.436708 53.152443 50.8842 53.153712 56.1875 53.40625 C 61.490801 53.658788 59.853425 51.494131 62 48.96875 C 64.146574 46.443368 61.862787 43.411803 59.96875 39.75 C 58.074714 36.088197 52.793625 35.323921 45.34375 34.1875 C 43.481281 33.903394 41.114164 33.829622 38.5 33.875 z M 52.0625 43.40625 C 52.297282 43.407617 52.55901 43.490475 52.90625 43.6875 C 54.295209 44.4756 57.955267 45.59335 56.1875 46.03125 C 54.419733 46.46905 53.924017 45.69335 52.15625 46.21875 C 50.388483 46.74415 52.891975 48.05665 48.09375 47.53125 C 43.295525 47.00575 40.67021 47 39.28125 47.4375 C 37.89229 47.8753 37.625 47.96875 37.625 47.96875 C 34.97335 47.88075 29.788388 45.3379 32.1875 44.8125 C 34.586613 44.2871 36.621985 45.16855 40.03125 44.90625 C 43.440514 44.64355 46.332328 43.3121 47.46875 43.75 C 48.605171 44.1878 49.239848 45.3255 50.25 44.625 C 51.007615 44.09955 51.358155 43.402148 52.0625 43.40625 z "
       transform="translate(0,988.36218)"
       id="path7097" />
    <path
       sodipodi:type="arc"
       style="fill:#ffffff;fill-opacity:1;stroke:none"
       id="path7099"
       sodipodi:cx="18.877226"
       sodipodi:cy="41.902912"
       sodipodi:rx="2.841054"
       sodipodi:ry="1.1364216"
       d="m 21.71828,41.902912 a 2.841054,1.1364216 0 1 1 -5.682108,0 2.841054,1.1364216 0 1 1 5.682108,0 z"
       transform="translate(0.37880721,987.35203)" />
    <path
       sodipodi:type="arc"
       style="fill:#ffffff;fill-opacity:1;stroke:none"
       id="path7101"
       sodipodi:cx="37.943855"
       sodipodi:cy="39.566936"
       sodipodi:rx="2.9673231"
       sodipodi:ry="0.82074893"
       d="m 40.911178,39.566936 a 2.9673231,0.82074893 0 1 1 -5.934646,0 2.9673231,0.82074893 0 1 1 5.934646,0 z"
       transform="translate(0.75761441,987.60457)" />
  </g>
</svg>
