<?xml version="1.0" encoding="UTF-8" standalone="no"?>
<!-- Created with Inkscape (http://www.inkscape.org/) -->

<svg
   xmlns:dc="http://purl.org/dc/elements/1.1/"
   xmlns:cc="http://creativecommons.org/ns#"
   xmlns:rdf="http://www.w3.org/1999/02/22-rdf-syntax-ns#"
   xmlns:svg="http://www.w3.org/2000/svg"
   xmlns="http://www.w3.org/2000/svg"
   xmlns:sodipodi="http://sodipodi.sourceforge.net/DTD/sodipodi-0.dtd"
   xmlns:inkscape="http://www.inkscape.org/namespaces/inkscape"
   width="64"
   height="64"
   id="svg7002"
   version="1.1"
   inkscape:version="0.48.2 r9819"
   sodipodi:docname="New document 30">
  <defs
     id="defs7004" />
  <sodipodi:namedview
     id="base"
     pagecolor="#ffffff"
     bordercolor="#666666"
     borderopacity="1.0"
     inkscape:pageopacity="0.0"
     inkscape:pageshadow="2"
     inkscape:zoom="7.9195959"
     inkscape:cx="45.422054"
     inkscape:cy="32.21024"
     inkscape:document-units="px"
     inkscape:current-layer="layer1"
     showgrid="false"
     inkscape:window-width="1217"
     inkscape:window-height="731"
     inkscape:window-x="20"
     inkscape:window-y="20"
     inkscape:window-maximized="0" />
  <metadata
     id="metadata7007">
    <rdf:RDF>
      <cc:Work
         rdf:about="">
        <dc:format>image/svg+xml</dc:format>
        <dc:type
           rdf:resource="http://purl.org/dc/dcmitype/StillImage" />
        <dc:title></dc:title>
      </cc:Work>
    </rdf:RDF>
  </metadata>
  <g
     inkscape:label="Layer 1"
     inkscape:groupmode="layer"
     id="layer1"
     transform="translate(0,-988.36218)">
    <path
       style="fill:#000000;stroke:none;stroke-width:1px;stroke-linecap:butt;stroke-linejoin:miter;stroke-opacity:1"
       d="m 28.031733,9.0729553 c 6.565992,-1.0101526 15.783634,-2.2728433 19.571706,0.5050762 3.788072,2.7779195 7.323606,14.8997505 7.197337,18.9403605 -0.126269,4.04061 -0.252538,6.944799 -1.641498,6.565991 -1.38896,-0.378807 -1.894036,-1.641498 -1.894036,-1.641498 0,0 0.126269,1.641498 1.010152,3.535534 0.883884,1.894036 4.04061,6.944799 4.04061,9.091373 0,2.146574 -3.409264,3.661803 -0.505076,6.81853 2.904189,3.156727 7.323606,6.060915 4.04061,7.323606 -3.282995,1.262691 -9.217642,1.136422 -10.101525,-0.252538 -0.883884,-1.38896 -5.050763,-3.914341 -5.050763,-3.914341 0,0 2.77792,3.156726 1.515229,4.166879 -1.262691,1.010152 -3.788072,2.904189 -5.555839,2.399112 -1.767767,-0.505076 -7.449875,-0.505076 -7.828682,-1.894036 -0.378807,-1.38896 1.010152,-4.545686 1.38896,-5.050763 0.378807,-0.505076 -1.894036,1.767767 -7.323606,3.282996 -5.42957,1.515229 -12.2481,4.419418 -11.995562,1.38896 0.252538,-3.030458 5.177032,-6.439722 5.42957,-7.576144 C 20.581858,51.625631 11.490485,54.024744 9.3439111,51.246824 7.1973369,48.468905 8.0812204,44.428294 10.227795,40.89276 12.374369,37.357227 9.8489873,32.559002 6.9447988,32.053926 4.0406102,31.548849 1.767767,31.42258 1.767767,31.42258 c 0,0 2.3991123,-2.399112 5.555839,-1.894036 3.156727,0.505077 4.798225,2.020305 6.187184,5.42957 1.38896,3.409265 -1.515229,8.333759 -0.378807,9.722719 1.136422,1.388959 4.545687,2.020305 5.42957,1.010152 0.883884,-1.010152 3.282996,-7.449875 3.535534,-10.227794 0.252538,-2.77792 -4.04061,-5.42957 -4.671956,-9.59645 -0.631345,-4.166879 -2.146574,-9.217642 1.38896,-12.248099 3.535534,-3.030458 9.217642,-4.5456867 9.217642,-4.5456867 z"
       id="path7018"
       inkscape:connector-curvature="0"
       transform="translate(0,988.36218)" />
    <path
       style="fill:#000000;stroke:none"
       d="m 42.426407,1003.2435 c 0,0 8.207489,5.5559 10.985409,3.9144 2.777919,-1.6415 4.545686,-5.0508 1.767767,-6.6923 -2.77792,-1.6415 -4.99551,-3.06837 -3.914341,-4.79824 1.26269,-2.0203 6.313453,-2.77791 6.313453,-2.77791 0,0 -3.409265,2.27284 -3.409265,3.91434 0,1.6415 6.692261,4.29311 6.060915,6.81851 -0.631345,2.5254 -3.50019,3.4308 -5.42957,6.566 -2.020305,3.283 -6.439722,2.1466 -6.439722,2.1466 z"
       id="path7020"
       inkscape:connector-curvature="0"
       sodipodi:nodetypes="cssscssscc" />
  </g>
</svg>
