<?xml version="1.0" encoding="UTF-8" standalone="no"?>
<!-- Created with Inkscape (http://www.inkscape.org/) -->

<svg
   xmlns:osb="http://www.openswatchbook.org/uri/2009/osb"
   xmlns:dc="http://purl.org/dc/elements/1.1/"
   xmlns:cc="http://creativecommons.org/ns#"
   xmlns:rdf="http://www.w3.org/1999/02/22-rdf-syntax-ns#"
   xmlns:svg="http://www.w3.org/2000/svg"
   xmlns="http://www.w3.org/2000/svg"
   xmlns:sodipodi="http://sodipodi.sourceforge.net/DTD/sodipodi-0.dtd"
   xmlns:inkscape="http://www.inkscape.org/namespaces/inkscape"
   width="32"
   height="32"
   id="svg3091"
   version="1.1"
   inkscape:version="0.48.4 r9939"
   sodipodi:docname="block-lanterns.svg"
   inkscape:export-filename="/Users/e0/Dropbox/Iamagamer2013/art/block.png"
   inkscape:export-xdpi="90"
   inkscape:export-ydpi="90">
  <defs
     id="defs3093">
    <linearGradient
       id="linearGradient3815"
       osb:paint="gradient">
      <stop
         style="stop-color:#ffffff;stop-opacity:1;"
         offset="0"
         id="stop3817" />
      <stop
         style="stop-color:#ffffff;stop-opacity:0;"
         offset="1"
         id="stop3819" />
    </linearGradient>
  </defs>
  <sodipodi:namedview
     id="base"
     pagecolor="#ffffff"
     bordercolor="#666666"
     borderopacity="1.0"
     inkscape:pageopacity="0.0"
     inkscape:pageshadow="2"
     inkscape:zoom="15.5625"
     inkscape:cx="14.741429"
     inkscape:cy="16.2875"
     inkscape:document-units="px"
     inkscape:current-layer="layer1"
     showgrid="true"
     inkscape:window-width="1218"
     inkscape:window-height="778"
     inkscape:window-x="54"
     inkscape:window-y="-8"
     inkscape:window-maximized="1">
    <inkscape:grid
       type="xygrid"
       id="grid3103"
       empspacing="4"
       visible="true"
       enabled="true"
       snapvisiblegridlinesonly="true"
       spacingy="1px" />
  </sodipodi:namedview>
  <metadata
     id="metadata3096">
    <rdf:RDF>
      <cc:Work
         rdf:about="">
        <dc:format>image/svg+xml</dc:format>
        <dc:type
           rdf:resource="http://purl.org/dc/dcmitype/StillImage" />
        <dc:title></dc:title>
      </cc:Work>
    </rdf:RDF>
  </metadata>
  <g
     inkscape:label="Layer 1"
     inkscape:groupmode="layer"
     id="layer1"
     transform="translate(0,-1020.3622)">
    <rect
       style="fill:#5fbcd3;fill-rule:evenodd;stroke:none"
       id="rect3099"
       width="32"
       height="32"
       x="0"
       y="1020.3622" />
    <rect
       y="1026.3622"
       x="6"
       height="20"
       width="20"
       id="rect3101"
       style="fill:#0088aa;fill-rule:evenodd;stroke:none" />
    <path
       style="fill:#006680;stroke:none;stroke-width:1px;stroke-linecap:butt;stroke-linejoin:miter;stroke-opacity:1"
       d="M 0,0 6,6 6,26 0,32 z"
       id="path3105"
       inkscape:connector-curvature="0"
       transform="translate(0,1020.3622)" />
    <path
       style="fill:#0b2228;stroke:none;stroke-width:1px;stroke-linecap:butt;stroke-linejoin:miter;stroke-opacity:1"
       d="m 0,32 6,-6 20,0 6,6 z"
       id="path3107"
       inkscape:connector-curvature="0"
       transform="translate(0,1020.3622)" />
    <path
       style="fill:#216778;stroke:none;stroke-width:1px;stroke-linecap:butt;stroke-linejoin:miter;stroke-opacity:1"
       d="M 32,32 26,26 26,6 32,0 z"
       id="path3109"
       inkscape:connector-curvature="0"
       transform="translate(0,1020.3622)" />
    <g
       id="g3043"
       style="fill-opacity:1;fill:#ffffff;stroke:none;opacity:0.34955752">
      <g
         id="g3040"
         style="fill-opacity:1;fill:#ffffff;stroke:none">
        <path
           style="fill:#ffffff;stroke:none;stroke-width:1px;stroke-linecap:butt;stroke-linejoin:miter;stroke-opacity:1;fill-opacity:1"
           d="m 26,26 -6,4 -8,0 -6,-4 z"
           id="path3038"
           inkscape:connector-curvature="0"
           transform="translate(0,1020.3622)" />
      </g>
    </g>
    <g
       id="g3032">
      <path
         sodipodi:end="3.1415927"
         sodipodi:start="0"
         transform="matrix(1,0,0,0.65729587,0,1031.3287)"
         d="m 20,29 a 4,3 0 1 1 -8,0 l 4,0 z"
         sodipodi:ry="3"
         sodipodi:rx="4"
         sodipodi:cy="29"
         sodipodi:cx="16"
         id="path2996"
         style="fill:#333333;fill-opacity:1;stroke:none"
         sodipodi:type="arc" />
      <path
         sodipodi:type="arc"
         style="fill:#999999;fill-opacity:1;stroke:none"
         id="path2998"
         sodipodi:cx="16"
         sodipodi:cy="29"
         sodipodi:rx="4"
         sodipodi:ry="3"
         d="m 20,29 a 4,3 0 1 1 -8,0 l 4,0 z"
         transform="matrix(1,0,0,0.29317273,0,1041.8883)"
         sodipodi:start="0"
         sodipodi:end="3.1415927" />
      <path
         sodipodi:nodetypes="csssc"
         inkscape:connector-curvature="0"
         id="path3000"
         d="m 16,1046.3622 c 0,0 2,2 2,3 0,1 -1,2 -2,2 -1,0 -2,-1 -2,-2 0,-1 2,-3 2,-3 z"
         style="fill:#ffff00;stroke:none" />
      <path
         style="fill:#ff0000;stroke:none"
         d="m 16,1048.2899 c 0,0 1.228916,1.1775 1.228916,1.7663 0,0.5887 -0.614458,1.1775 -1.228916,1.1775 -0.614458,0 -1.228916,-0.5888 -1.228916,-1.1775 0,-0.5888 1.228916,-1.7663 1.228916,-1.7663 z"
         id="path3002"
         inkscape:connector-curvature="0"
         sodipodi:nodetypes="csssc" />
    </g>
    <g
       id="g3026">
      <path
         sodipodi:type="arc"
         style="fill:#333333;fill-opacity:1;stroke:none"
         id="path3018"
         sodipodi:cx="16"
         sodipodi:cy="29"
         sodipodi:rx="4"
         sodipodi:ry="3"
         d="m 20,29 a 4,3 0 1 1 -8,0 l 4,0 z"
         transform="matrix(1,0,0,-0.65729587,0,1041.3074)"
         sodipodi:start="0"
         sodipodi:end="3.1415927" />
      <path
         sodipodi:end="3.1415927"
         sodipodi:start="0"
         transform="matrix(1,0,0,-0.29317273,0,1030.7478)"
         d="m 20,29 a 4,3 0 1 1 -8,0 l 4,0 z"
         sodipodi:ry="3"
         sodipodi:rx="4"
         sodipodi:cy="29"
         sodipodi:cx="16"
         id="path3020"
         style="fill:#999999;fill-opacity:1;stroke:none"
         sodipodi:type="arc" />
      <path
         style="fill:#ffff00;stroke:none"
         d="m 16,1026.2739 c 0,0 2,-2 2,-3 0,-1 -1,-2 -2,-2 -1,0 -2,1 -2,2 0,1 2,3 2,3 z"
         id="path3022"
         inkscape:connector-curvature="0"
         sodipodi:nodetypes="csssc" />
      <path
         sodipodi:nodetypes="csssc"
         inkscape:connector-curvature="0"
         id="path3024"
         d="m 16,1024.3462 c 0,0 1.228916,-1.1775 1.228916,-1.7663 0,-0.5887 -0.614458,-1.1775 -1.228916,-1.1775 -0.614458,0 -1.228916,0.5888 -1.228916,1.1775 0,0.5888 1.228916,1.7663 1.228916,1.7663 z"
         style="fill:#ff0000;stroke:none" />
    </g>
    <g
       style="opacity:0.3495575;fill:#ffffff;fill-opacity:1;stroke:none"
       id="g5292"
       transform="matrix(1,0,0,-1,-0.19277108,2072.6923)">
      <g
         style="fill:#ffffff;fill-opacity:1;stroke:none"
         id="g5294">
        <path
           transform="translate(0,1020.3622)"
           inkscape:connector-curvature="0"
           id="path5296"
           d="m 26,26 -6,4 -8,0 -6,-4 z"
           style="fill:#ffffff;fill-opacity:1;stroke:none" />
      </g>
    </g>
  </g>
</svg>
