<?xml version="1.0" encoding="UTF-8" standalone="no"?>
<!-- Created with Inkscape (http://www.inkscape.org/) -->

<svg
   xmlns:dc="http://purl.org/dc/elements/1.1/"
   xmlns:cc="http://creativecommons.org/ns#"
   xmlns:rdf="http://www.w3.org/1999/02/22-rdf-syntax-ns#"
   xmlns:svg="http://www.w3.org/2000/svg"
   xmlns="http://www.w3.org/2000/svg"
   xmlns:sodipodi="http://sodipodi.sourceforge.net/DTD/sodipodi-0.dtd"
   xmlns:inkscape="http://www.inkscape.org/namespaces/inkscape"
   width="32"
   height="32"
   id="svg2"
   version="1.1"
   inkscape:version="0.48.4 r9939"
   sodipodi:docname="bloody-bones.svg"
   inkscape:export-filename="C:\Users\colin\Dropbox\Iamagamer2013\art\bloody-bones.png"
   inkscape:export-xdpi="90"
   inkscape:export-ydpi="90">
  <defs
     id="defs4" />
  <sodipodi:namedview
     id="base"
     pagecolor="#ffffff"
     bordercolor="#666666"
     borderopacity="1.0"
     inkscape:pageopacity="0.0"
     inkscape:pageshadow="2"
     inkscape:zoom="11.2"
     inkscape:cx="17.443208"
     inkscape:cy="15.415713"
     inkscape:document-units="px"
     inkscape:current-layer="layer1"
     showgrid="false"
     inkscape:window-width="1218"
     inkscape:window-height="778"
     inkscape:window-x="54"
     inkscape:window-y="-8"
     inkscape:window-maximized="1" />
  <metadata
     id="metadata7">
    <rdf:RDF>
      <cc:Work
         rdf:about="">
        <dc:format>image/svg+xml</dc:format>
        <dc:type
           rdf:resource="http://purl.org/dc/dcmitype/StillImage" />
        <dc:title></dc:title>
      </cc:Work>
    </rdf:RDF>
  </metadata>
  <g
     inkscape:label="Layer 1"
     inkscape:groupmode="layer"
     id="layer1"
     transform="translate(0,-1020.3622)">
    <path
       style="fill:#ffffff;stroke:#ffffff;stroke-width:1px;stroke-linecap:butt;stroke-linejoin:miter;stroke-opacity:1"
       d="m 12.946429,18.339286 0.357143,-4.375"
       id="path3024"
       inkscape:connector-curvature="0"
       transform="translate(0,1020.3622)"
       sodipodi:nodetypes="cc" />
    <path
       style="fill:none;stroke:#ffffff;stroke-width:1px;stroke-linecap:butt;stroke-linejoin:miter;stroke-opacity:1"
       d="m 15.089286,17.267857 0.178571,-3.035714"
       id="path3026"
       inkscape:connector-curvature="0"
       transform="translate(0,1020.3622)" />
    <path
       style="fill:none;stroke:#ffffff;stroke-width:1px;stroke-linecap:butt;stroke-linejoin:miter;stroke-opacity:1"
       d="m 16.875,17.357143 0,-3.125"
       id="path3028"
       inkscape:connector-curvature="0"
       transform="translate(0,1020.3622)" />
    <path
       style="fill:#aa0000;stroke:none"
       d="m 13.481765,1040.5639 c 5.445429,-0.4633 14.270775,-1.2351 15.960737,0.076 1.689961,1.3124 3.098264,4.246 1.689961,5.404 -1.408298,1.1581 -2.25328,1.3125 -8.637574,1.9301 -6.384296,0.6177 -14.9279862,0.6948 -16.0546267,0 -1.1266404,-0.6948 -5.91486203,-0.4631 -5.44542853,-2.7793 0.46943343,-2.3159 -2.06550737,-3.7829 2.72271433,-4.3232 4.7882215,-0.5403 9.7642169,-0.3088 9.7642169,-0.3088 z"
       id="path2985"
       inkscape:connector-curvature="0"
       sodipodi:nodetypes="cssssssc" />
    <path
       style="fill:#ff9955;fill-opacity:1;stroke:none"
       d="M 11.34375 14.21875 C 9.3651786 14.21875 7.78125 15.833929 7.78125 17.8125 L 7.78125 20.65625 C 7.78125 22.634821 9.3651786 24.21875 11.34375 24.21875 L 18.21875 24.21875 C 20.197321 24.21875 21.78125 22.634821 21.78125 20.65625 L 21.78125 17.8125 C 21.78125 16.04953 20.519047 14.609043 18.84375 14.3125 C 18.852469 14.441546 18.877404 14.569712 18.84375 14.6875 C 18.665178 15.312495 17.78125 14.59375 17.78125 14.59375 C 17.78125 14.59375 18.290178 15.584822 17.21875 16.03125 C 16.147321 16.477679 16.15625 15.3125 16.15625 15.3125 C 16.15625 15.3125 15.4375 16.107143 14.8125 16.375 C 14.1875 16.642857 13.65625 15.21875 13.65625 15.21875 C 13.65625 15.21875 13.290178 15.74554 12.21875 15.65625 C 11.611039 15.605608 11.602424 14.874699 11.6875 14.21875 L 11.34375 14.21875 z "
       transform="translate(0,1020.3622)"
       id="rect3005" />
    <path
       style="fill:#2b1100;stroke:none"
       d="m 19.288713,1038.9693 c 0,0 -0.485288,-4.9107 2.038212,-7.1428 2.523502,-2.2322 6.696985,-1.6072 8.541081,-0.2679 1.844097,1.3393 1.941154,9.1072 1.26175,10.2679 -0.679404,1.1607 -3.688194,5.0893 -5.726406,4.8214 -2.038213,-0.2678 -4.755829,-1.5178 -5.14406,-2.6786 -0.388231,-1.1607 -0.970577,-5 -0.970577,-5 z"
       id="path3007"
       inkscape:connector-curvature="0" />
    <path
       sodipodi:type="arc"
       style="fill:#ff9955;fill-opacity:1;stroke:none"
       id="path3009"
       sodipodi:cx="5.5803571"
       sodipodi:cy="15.616072"
       sodipodi:rx="1.6517857"
       sodipodi:ry="2.2767856"
       d="m 7.2321428,15.616072 a 1.6517857,2.2767856 0 1 1 -3.3035715,0 1.6517857,2.2767856 0 1 1 3.3035715,0 z"
       transform="translate(1.5178571,1022.4158)" />
    <path
       sodipodi:type="arc"
       style="fill:#aa0000;fill-opacity:1;stroke:none"
       id="path3011"
       sodipodi:cx="6.6517859"
       sodipodi:cy="22.357143"
       sodipodi:rx="1.1160715"
       sodipodi:ry="1.9642857"
       d="m 7.7678573,22.357143 a 1.1160715,1.9642857 0 1 1 -2.2321429,0 1.1160715,1.9642857 0 1 1 2.2321429,0 z"
       transform="matrix(1.44,0,0,1.1818182,-2.2571428,1016.2972)" />
    <path
       style="fill:#aa0000;stroke:none"
       d="M 10.28125 14.21875 C 10.28125 14.21875 10.727679 18.1515 11.53125 18.0625 C 12.334822 17.9732 11.419642 15.91525 12.3125 16.09375 C 13.205357 16.27235 11.598214 19.05805 12.9375 19.59375 C 14.276785 20.12945 12.9375 15.9375 13.5625 15.9375 C 14.187495 15.9375 13.209822 21.02235 14.28125 20.84375 C 15.352679 20.66515 15.1875 20.85265 16.4375 21.03125 C 17.6875 21.20975 17.3125 18.0625 17.3125 18.0625 C 17.3125 18.0625 17.861612 20.56695 18.84375 20.03125 C 19.825898 19.49555 18.9375 14.21875 18.9375 14.21875 L 18.84375 14.21875 C 18.864346 14.379883 18.885646 14.540865 18.84375 14.6875 C 18.665178 15.312495 17.78125 14.59375 17.78125 14.59375 C 17.78125 14.59375 18.290178 15.584822 17.21875 16.03125 C 16.147321 16.477679 16.15625 15.3125 16.15625 15.3125 C 16.15625 15.3125 15.4375 16.107143 14.8125 16.375 C 14.1875 16.642857 13.65625 15.21875 13.65625 15.21875 C 13.65625 15.21875 13.290178 15.74554 12.21875 15.65625 C 11.611039 15.605608 11.602424 14.874699 11.6875 14.21875 L 10.28125 14.21875 z "
       transform="translate(0,1020.3622)"
       id="path3013" />
    <path
       style="fill:#aa0000;stroke:none;stroke-width:1px;stroke-linecap:butt;stroke-linejoin:miter;stroke-opacity:1"
       d="m 16.428571,25.214286 c -0.357142,-0.08929 -0.535714,-1.071429 -1.339285,-2.321429 -0.803572,-1.25 -1.428572,-1.785714 -1.428572,-1.785714 0,0 0.714286,2.232143 0.08929,1.607143 -0.625,-0.625 -1.875,-2.678572 -1.875,-2.678572 l 0,1.339286 -1.607143,-1.071429 1.160714,2.5 -1.25,-0.08929 0.803572,2.321428 z"
       id="path3030"
       inkscape:connector-curvature="0"
       transform="translate(0,1020.3622)" />
  </g>
</svg>
