<?xml version="1.0" encoding="UTF-8" standalone="no"?>
<!-- Created with Inkscape (http://www.inkscape.org/) -->

<svg
   xmlns:dc="http://purl.org/dc/elements/1.1/"
   xmlns:cc="http://creativecommons.org/ns#"
   xmlns:rdf="http://www.w3.org/1999/02/22-rdf-syntax-ns#"
   xmlns:svg="http://www.w3.org/2000/svg"
   xmlns="http://www.w3.org/2000/svg"
   xmlns:sodipodi="http://sodipodi.sourceforge.net/DTD/sodipodi-0.dtd"
   xmlns:inkscape="http://www.inkscape.org/namespaces/inkscape"
   width="32"
   height="32"
   id="svg2"
   version="1.1"
   inkscape:version="0.48.4 r9939"
   sodipodi:docname="bloody-bits.svg"
   inkscape:export-filename="C:\Users\colin\Dropbox\Iamagamer2013\art\bloody-bits.png"
   inkscape:export-xdpi="90"
   inkscape:export-ydpi="90">
  <defs
     id="defs4" />
  <sodipodi:namedview
     id="base"
     pagecolor="#ffffff"
     bordercolor="#666666"
     borderopacity="1.0"
     inkscape:pageopacity="0.0"
     inkscape:pageshadow="2"
     inkscape:zoom="11.2"
     inkscape:cx="17.443208"
     inkscape:cy="15.415713"
     inkscape:document-units="px"
     inkscape:current-layer="layer1"
     showgrid="false"
     inkscape:window-width="1218"
     inkscape:window-height="778"
     inkscape:window-x="54"
     inkscape:window-y="-8"
     inkscape:window-maximized="1" />
  <metadata
     id="metadata7">
    <rdf:RDF>
      <cc:Work
         rdf:about="">
        <dc:format>image/svg+xml</dc:format>
        <dc:type
           rdf:resource="http://purl.org/dc/dcmitype/StillImage" />
        <dc:title></dc:title>
      </cc:Work>
    </rdf:RDF>
  </metadata>
  <g
     inkscape:label="Layer 1"
     inkscape:groupmode="layer"
     id="layer1"
     transform="translate(0,-1020.3622)">
    <path
       style="fill:#ffffff;stroke:#ffffff;stroke-width:1px;stroke-linecap:butt;stroke-linejoin:miter;stroke-opacity:1"
       d="m 12.946429,18.339286 0.357143,-4.375"
       id="path3024"
       inkscape:connector-curvature="0"
       transform="translate(0,1020.3622)"
       sodipodi:nodetypes="cc" />
    <path
       style="fill:none;stroke:#ffffff;stroke-width:1px;stroke-linecap:butt;stroke-linejoin:miter;stroke-opacity:1"
       d="m 15.089286,17.267857 0.178571,-3.035714"
       id="path3026"
       inkscape:connector-curvature="0"
       transform="translate(0,1020.3622)" />
    <path
       style="fill:none;stroke:#ffffff;stroke-width:1px;stroke-linecap:butt;stroke-linejoin:miter;stroke-opacity:1"
       d="m 16.875,17.357143 0,-3.125"
       id="path3028"
       inkscape:connector-curvature="0"
       transform="translate(0,1020.3622)" />
    <path
       style="fill:#aa0000;stroke:none"
       d="m 13.481765,1040.5639 c 5.445429,-0.4633 14.270775,-1.2351 15.960737,0.076 1.689961,1.3124 3.098264,4.246 1.689961,5.404 -1.408298,1.1581 -2.25328,1.3125 -8.637574,1.9301 -6.384296,0.6177 -14.9279862,0.6948 -16.0546267,0 -1.1266404,-0.6948 -5.91486203,-0.4631 -5.44542853,-2.7793 0.46943343,-2.3159 -2.06550737,-3.7829 2.72271433,-4.3232 4.7882215,-0.5403 9.7642169,-0.3088 9.7642169,-0.3088 z"
       id="path2985"
       inkscape:connector-curvature="0"
       sodipodi:nodetypes="cssssssc" />
    <path
       style="fill:#ff7f2a;stroke:none"
       d="m 1.6724094,1043.1247 c 0,0 10.6509526,-1.7581 10.9331696,-1.0959 0.282164,0.6622 0.177537,2.7895 0.177537,2.7895 0,0 -7.0898905,1.1314 -8.0147962,0.43 -0.9248555,-0.7013 -3.0959104,-2.1236 -3.0959104,-2.1236 z"
       id="path3032"
       inkscape:connector-curvature="0" />
    <path
       style="fill:#c8b7b7;stroke:none;stroke-width:1px;stroke-linecap:butt;stroke-linejoin:miter;stroke-opacity:1"
       d="m 22.053571,22.803571 c 0,0 -1.517857,-0.446428 -1.964285,0 -0.446429,0.446429 -0.267857,2.142858 0.446428,2.589286 0.714286,0.446429 2.5,-0.08929 3.035715,-0.714286 0.535714,-0.625 5.982143,-4.464285 5.982143,-4.464285 l -2.142858,0.446428 -0.08929,-0.982143 z"
       id="path3034"
       inkscape:connector-curvature="0"
       transform="translate(0,1020.3622)" />
    <path
       style="fill:#552200;stroke:none;stroke-width:1px;stroke-linecap:butt;stroke-linejoin:miter;stroke-opacity:1"
       d="m 21.607143,20.035714 -10,0.892857 c 0,0 3.839286,0.625 3.392857,1.517858 -0.446429,0.892857 -1.160714,1.696428 -1.160714,1.696428 l 9.464285,-2.589286 -1.160714,0.08929 0.535714,-1.160714 -0.982142,0.535714 0.714285,-1.339286 z"
       id="path3038"
       inkscape:connector-curvature="0"
       transform="translate(0,1020.3622)" />
  </g>
</svg>
