<?xml version="1.0" encoding="UTF-8" standalone="no"?>
<!-- Created with Inkscape (http://www.inkscape.org/) -->

<svg
   xmlns:dc="http://purl.org/dc/elements/1.1/"
   xmlns:cc="http://creativecommons.org/ns#"
   xmlns:rdf="http://www.w3.org/1999/02/22-rdf-syntax-ns#"
   xmlns:svg="http://www.w3.org/2000/svg"
   xmlns="http://www.w3.org/2000/svg"
   xmlns:sodipodi="http://sodipodi.sourceforge.net/DTD/sodipodi-0.dtd"
   xmlns:inkscape="http://www.inkscape.org/namespaces/inkscape"
   width="96"
   height="96"
   id="svg2"
   version="1.1"
   inkscape:version="0.48.4 r9939"
   sodipodi:docname="bone-blast-big-2.svg"
   inkscape:export-filename="C:\Users\colin\Dropbox\Iamagamer2013\art\bone-blast-big-1.png"
   inkscape:export-xdpi="90"
   inkscape:export-ydpi="90">
  <defs
     id="defs4" />
  <sodipodi:namedview
     id="base"
     pagecolor="#ffffff"
     bordercolor="#666666"
     borderopacity="1.0"
     inkscape:pageopacity="0.0"
     inkscape:pageshadow="2"
     inkscape:zoom="5.6"
     inkscape:cx="56.278718"
     inkscape:cy="47.093215"
     inkscape:document-units="px"
     inkscape:current-layer="layer1"
     showgrid="false"
     inkscape:window-width="1218"
     inkscape:window-height="778"
     inkscape:window-x="54"
     inkscape:window-y="-8"
     inkscape:window-maximized="1" />
  <metadata
     id="metadata7">
    <rdf:RDF>
      <cc:Work
         rdf:about="">
        <dc:format>image/svg+xml</dc:format>
        <dc:type
           rdf:resource="http://purl.org/dc/dcmitype/StillImage" />
        <dc:title></dc:title>
      </cc:Work>
    </rdf:RDF>
  </metadata>
  <g
     inkscape:label="Layer 1"
     inkscape:groupmode="layer"
     id="layer1"
     transform="translate(0,-956.36218)">
    <path
       style="fill:#c8b7b7;stroke:none"
       d="m 45.765481,999.68371 -4.639743,6.25119 0.927949,4.1674 4.639744,-7.5014 z"
       id="path4503"
       inkscape:connector-curvature="0" />
    <path
       inkscape:connector-curvature="0"
       id="path4505"
       d="m 39.723013,1010.3856 3.860788,6.6648 4.512355,1.2786 -5.08029,-7.2673 z"
       style="fill:#c8b7b7;stroke:none" />
    <path
       style="fill:#c8b7b7;stroke:none"
       d="m 55.077349,1013.0013 -3.957049,6.619 1.364984,4.0695 3.824591,-7.8637 z"
       id="path4507"
       inkscape:connector-curvature="0" />
    <path
       inkscape:connector-curvature="0"
       id="path4509"
       d="m 52.196459,991.62677 -7.755727,2.81349 -1.849302,3.9121 8.540385,-3.84629 z"
       style="fill:#c8b7b7;stroke:none" />
    <path
       style="fill:#c8b7b7;stroke:none"
       d="m 50.37091,1003.2806 6.638272,4.5709 4.691026,-0.5566 -8.02721,-4.6532 z"
       id="path4511"
       inkscape:connector-curvature="0" />
    <path
       inkscape:connector-curvature="0"
       id="path4513"
       d="m 57.194828,1012.686 6.638272,4.5709 4.691028,-0.5566 -8.02721,-4.6533 z"
       style="fill:#c8b7b7;stroke:none" />
    <path
       style="fill:#c8b7b7;stroke:none"
       d="m 24.511587,1025.6922 6.638273,4.5708 4.691027,-0.5565 -8.02721,-4.6533 z"
       id="path4515"
       inkscape:connector-curvature="0" />
    <path
       inkscape:connector-curvature="0"
       id="path4517"
       d="m 38.09896,990.60064 -4.336742,6.4244 1.126231,4.12796 4.27685,-7.67346 z"
       style="fill:#c8b7b7;stroke:none" />
    <path
       style="fill:#c8b7b7;stroke:none"
       d="m 18.004638,1008.071 4.336741,6.4244 -1.126229,4.1279 -4.27685,-7.6733 z"
       id="path4519"
       inkscape:connector-curvature="0" />
    <path
       inkscape:connector-curvature="0"
       id="path4521"
       d="m 56.03724,1024.2616 7.120589,10.8001 -3.910079,-1.498 -4.276847,-6.4233 z"
       style="fill:#c8b7b7;stroke:none"
       sodipodi:nodetypes="ccccc" />
    <path
       style="fill:#c8b7b7;stroke:none"
       d="m 30.983105,1007.6094 -4.275915,1.355 -1.849302,3.9121 8.540383,-3.8463 z"
       id="path4523"
       inkscape:connector-curvature="0"
       sodipodi:nodetypes="ccccc" />
    <path
       inkscape:connector-curvature="0"
       id="path3058"
       d="m 47.015481,1025.5766 -4.639743,6.2512 0.927949,4.1674 4.639744,-7.5014 z"
       style="fill:#c8b7b7;stroke:none" />
    <path
       style="fill:#c8b7b7;stroke:none"
       d="m 50.258727,985.02844 3.860788,6.66483 4.512355,1.2786 -5.08029,-7.26733 z"
       id="path3060"
       inkscape:connector-curvature="0" />
    <path
       inkscape:connector-curvature="0"
       id="path3062"
       d="m 37.220206,1014.0728 -3.957049,6.619 1.364984,4.0695 3.824591,-7.8637 z"
       style="fill:#c8b7b7;stroke:none" />
    <path
       style="fill:#c8b7b7;stroke:none"
       d="m 51.482173,971.09105 -7.755727,2.81349 -1.849302,3.9121 8.540385,-3.84629 z"
       id="path3064"
       inkscape:connector-curvature="0" />
    <path
       inkscape:connector-curvature="0"
       id="path3066"
       d="m 52.335195,976.85207 6.638272,4.57093 4.691026,-0.5566 -8.02721,-4.65331 z"
       style="fill:#c8b7b7;stroke:none" />
    <path
       style="fill:#c8b7b7;stroke:none"
       d="m 67.730541,995.18605 6.638272,4.57089 4.691028,-0.5566 -8.02721,-4.65328 z"
       id="path3068"
       inkscape:connector-curvature="0" />
    <path
       inkscape:connector-curvature="0"
       id="path3070"
       d="m 67.547301,1022.2994 6.638273,4.5708 4.691027,-0.5565 -8.02721,-4.6533 z"
       style="fill:#c8b7b7;stroke:none" />
    <path
       style="fill:#c8b7b7;stroke:none"
       d="m 66.84896,980.95778 -4.336742,6.42443 1.126231,4.128 4.27685,-7.6735 z"
       id="path3072"
       inkscape:connector-curvature="0" />
    <path
       inkscape:connector-curvature="0"
       id="path3074"
       d="m 24.790352,988.96387 4.336741,6.42443 -1.126229,4.12786 -4.27685,-7.67326 z"
       style="fill:#c8b7b7;stroke:none" />
    <path
       sodipodi:nodetypes="ccccc"
       style="fill:#c8b7b7;stroke:none"
       d="m 68.894383,1006.7617 7.120589,10.8001 -3.910079,-1.498 -4.276847,-6.4233 z"
       id="path3076"
       inkscape:connector-curvature="0" />
    <path
       sodipodi:nodetypes="ccccc"
       inkscape:connector-curvature="0"
       id="path3078"
       d="m 37.768819,979.75227 -4.275915,1.35498 -1.849302,3.91213 8.540383,-3.84633 z"
       style="fill:#c8b7b7;stroke:none" />
  </g>
</svg>
