<?xml version="1.0" encoding="UTF-8" standalone="no"?>
<!-- Created with Inkscape (http://www.inkscape.org/) -->

<svg
   xmlns:dc="http://purl.org/dc/elements/1.1/"
   xmlns:cc="http://creativecommons.org/ns#"
   xmlns:rdf="http://www.w3.org/1999/02/22-rdf-syntax-ns#"
   xmlns:svg="http://www.w3.org/2000/svg"
   xmlns="http://www.w3.org/2000/svg"
   xmlns:sodipodi="http://sodipodi.sourceforge.net/DTD/sodipodi-0.dtd"
   xmlns:inkscape="http://www.inkscape.org/namespaces/inkscape"
   width="32"
   height="32"
   id="svg3922"
   version="1.1"
   inkscape:version="0.48.2 r9819"
   sodipodi:docname="bone-mine.svg"
   inkscape:export-filename="/Users/e0/Dropbox/Iamagamer2013/art/bone-mine.png"
   inkscape:export-xdpi="90"
   inkscape:export-ydpi="90">
  <defs
     id="defs3924" />
  <sodipodi:namedview
     id="base"
     pagecolor="#ffffff"
     bordercolor="#666666"
     borderopacity="1.0"
     inkscape:pageopacity="0.0"
     inkscape:pageshadow="2"
     inkscape:zoom="11.2"
     inkscape:cx="17.526786"
     inkscape:cy="14.09126"
     inkscape:document-units="px"
     inkscape:current-layer="layer1"
     showgrid="false"
     inkscape:window-width="1280"
     inkscape:window-height="716"
     inkscape:window-x="0"
     inkscape:window-y="0"
     inkscape:window-maximized="1" />
  <metadata
     id="metadata3927">
    <rdf:RDF>
      <cc:Work
         rdf:about="">
        <dc:format>image/svg+xml</dc:format>
        <dc:type
           rdf:resource="http://purl.org/dc/dcmitype/StillImage" />
        <dc:title></dc:title>
      </cc:Work>
    </rdf:RDF>
  </metadata>
  <g
     inkscape:label="Layer 1"
     inkscape:groupmode="layer"
     id="layer1"
     transform="translate(0,-1020.3622)">
    <path
       style="fill:none;stroke:#d45500;stroke-width:1px;stroke-linecap:butt;stroke-linejoin:miter;stroke-opacity:1"
       d="m 28.125,23.696429 c 0,0 -9.821429,-19.9107148 -11.785714,-19.9107148 -1.964286,0 -12.8571431,20.8035718 -12.8571431,20.8035718"
       id="path3942"
       inkscape:connector-curvature="0"
       transform="translate(0,1020.3622)"
       sodipodi:nodetypes="csc" />
    <path
       inkscape:connector-curvature="0"
       id="path3944"
       d="m 27.767858,1044.7729 c 0,0 -9.375001,-19.8214 -11.339286,-19.8214 -1.964286,0 -12.8571434,20.8036 -12.8571434,20.8036"
       style="fill:none;stroke:#800000;stroke-width:1px;stroke-linecap:butt;stroke-linejoin:miter;stroke-opacity:1"
       sodipodi:nodetypes="csc" />
    <path
       style="fill:#552200;stroke:none"
       d="m 31.314729,1040.4298 -2.525381,-1.6415 -2.272844,8.8388 2.08344,0.063 z"
       id="path3930"
       inkscape:connector-curvature="0"
       sodipodi:nodetypes="ccccc" />
    <path
       sodipodi:nodetypes="ccccc"
       inkscape:connector-curvature="0"
       id="path3932"
       d="m 1.0101522,1040.8717 2.525381,-1.6415 2.272844,8.8389 -2.08344,0.063 z"
       style="fill:#552200;stroke:none" />
    <path
       style="fill:none;stroke:#d45500;stroke-width:1px;stroke-linecap:butt;stroke-linejoin:miter;stroke-opacity:1"
       d="m 2.5885159,1045.0386 2.2097087,-0.8839"
       id="path3936"
       inkscape:connector-curvature="0" />
    <path
       style="fill:none;stroke:#800000;stroke-width:1px;stroke-linecap:butt;stroke-linejoin:miter;stroke-opacity:1"
       d="M 2.3991123,24.234452 C 2.9673231,23.91878 4.6719555,23.287434 4.6719555,23.287434"
       id="path3934"
       inkscape:connector-curvature="0"
       transform="translate(0,1020.3622)" />
    <path
       inkscape:connector-curvature="0"
       id="path3938"
       d="m 29.515395,1045.1964 -2.209709,-0.8839"
       style="fill:none;stroke:#d45500;stroke-width:1px;stroke-linecap:butt;stroke-linejoin:miter;stroke-opacity:1" />
    <path
       inkscape:connector-curvature="0"
       id="path3940"
       d="m 29.704799,1044.7545 c -0.568211,-0.3157 -2.272843,-0.947 -2.272843,-0.947"
       style="fill:none;stroke:#800000;stroke-width:1px;stroke-linecap:butt;stroke-linejoin:miter;stroke-opacity:1" />
    <path
       style="fill:none;stroke:#552200;stroke-width:1px;stroke-linecap:butt;stroke-linejoin:miter;stroke-opacity:1"
       d="M 16.428571,5.1249999 16.339286,0.12499992"
       id="path4501"
       inkscape:connector-curvature="0"
       transform="translate(0,1020.3622)" />
    <path
       style="fill:#c8b7b7;stroke:none;stroke-width:1px;stroke-linecap:butt;stroke-linejoin:miter;stroke-opacity:1"
       d="M 16.517857,6.3749999 14.732143,9.0535714 15.089286,10.839286 16.875,7.6249999 z"
       id="path4503"
       inkscape:connector-curvature="0"
       transform="translate(0,1020.3622)" />
    <path
       inkscape:connector-curvature="0"
       id="path4505"
       d="m 14.192272,1027.2675 1.485914,2.8558 1.736685,0.5479 -1.955268,-3.114 z"
       style="fill:#c8b7b7;stroke:none" />
    <path
       style="fill:#c8b7b7;stroke:none"
       d="m 18.17738,1026.858 -1.522963,2.8362 0.525346,1.7437 1.471983,-3.3695 z"
       id="path4507"
       inkscape:connector-curvature="0" />
    <path
       inkscape:connector-curvature="0"
       id="path4509"
       d="m 17.824603,1025.0447 -2.984972,1.2056 -0.711747,1.6763 3.286966,-1.6481 z"
       style="fill:#c8b7b7;stroke:none" />
    <path
       style="fill:#c8b7b7;stroke:none"
       d="m 14.510357,1027.0542 2.554894,1.9586 1.805451,-0.2385 -3.089459,-1.9939 z"
       id="path4511"
       inkscape:connector-curvature="0" />
    <path
       inkscape:connector-curvature="0"
       id="path4513"
       d="m 13.081786,1028.4828 2.554894,1.9586 1.805451,-0.2385 -3.089459,-1.9939 z"
       style="fill:#c8b7b7;stroke:none" />
    <path
       style="fill:#c8b7b7;stroke:none"
       d="m 15.760357,1028.9292 2.554894,1.9586 1.805451,-0.2385 -3.089459,-1.9939 z"
       id="path4515"
       inkscape:connector-curvature="0" />
    <path
       inkscape:connector-curvature="0"
       id="path4517"
       d="m 15.147947,1027.5127 -1.669096,2.7528 0.433456,1.7688 1.646045,-3.288 z"
       style="fill:#c8b7b7;stroke:none" />
    <path
       style="fill:#c8b7b7;stroke:none"
       d="m 15.317827,1027.9591 1.669096,2.7528 -0.433456,1.7688 -1.646045,-3.288 z"
       id="path4519"
       inkscape:connector-curvature="0" />
    <path
       inkscape:connector-curvature="0"
       id="path4521"
       d="m 17.103541,1028.3162 2.740525,4.6278 -1.504885,-0.6419 -1.646045,-2.7523 z"
       style="fill:#c8b7b7;stroke:none"
       sodipodi:nodetypes="ccccc" />
    <path
       style="fill:#c8b7b7;stroke:none"
       d="m 17.288888,1026.384 -1.645686,0.5806 -0.711747,1.6763 3.286966,-1.6481 z"
       id="path4523"
       inkscape:connector-curvature="0"
       sodipodi:nodetypes="ccccc" />
  </g>
</svg>
