<?xml version="1.0" encoding="UTF-8" standalone="no"?>
<!-- Created with Inkscape (http://www.inkscape.org/) -->

<svg
   xmlns:dc="http://purl.org/dc/elements/1.1/"
   xmlns:cc="http://creativecommons.org/ns#"
   xmlns:rdf="http://www.w3.org/1999/02/22-rdf-syntax-ns#"
   xmlns:svg="http://www.w3.org/2000/svg"
   xmlns="http://www.w3.org/2000/svg"
   xmlns:sodipodi="http://sodipodi.sourceforge.net/DTD/sodipodi-0.dtd"
   xmlns:inkscape="http://www.inkscape.org/namespaces/inkscape"
   width="32"
   height="32"
   id="svg2987"
   version="1.1"
   inkscape:version="0.48.2 r9819"
   sodipodi:docname="cathound.svg"
   inkscape:export-filename="/Users/e0/Dropbox/Iamagamer2013/art/cathound-angry.png"
   inkscape:export-xdpi="90"
   inkscape:export-ydpi="90">
  <defs
     id="defs2989" />
  <sodipodi:namedview
     id="base"
     pagecolor="#ffffff"
     bordercolor="#666666"
     borderopacity="1.0"
     inkscape:pageopacity="0.0"
     inkscape:pageshadow="2"
     inkscape:zoom="11.2"
     inkscape:cx="23.625455"
     inkscape:cy="9.8929782"
     inkscape:document-units="px"
     inkscape:current-layer="layer1"
     showgrid="false"
     inkscape:window-width="1280"
     inkscape:window-height="716"
     inkscape:window-x="0"
     inkscape:window-y="0"
     inkscape:window-maximized="1" />
  <metadata
     id="metadata2992">
    <rdf:RDF>
      <cc:Work
         rdf:about="">
        <dc:format>image/svg+xml</dc:format>
        <dc:type
           rdf:resource="http://purl.org/dc/dcmitype/StillImage" />
        <dc:title></dc:title>
      </cc:Work>
    </rdf:RDF>
  </metadata>
  <g
     inkscape:label="Layer 1"
     inkscape:groupmode="layer"
     id="layer1"
     transform="translate(0,-1020.3622)">
    <path
       style="fill:#552200;stroke:none"
       d="m 21.673928,1040.8819 c 0,0 -1.565652,1.6795 -1.407194,2.5087 0.158527,0.8291 1.959077,2.0008 1.959077,2.0008 l -0.870997,2.6907 c 0,0 -1.31447,0.3074 -1.565159,0.5336 -0.250687,0.2262 -0.05005,1.2972 -0.05005,1.2972 l 3.069019,-0.7456 c 0,0 0.20469,-1.8362 0.560535,-2.4504 0.355775,-0.614 0.825612,-2.3166 0.825612,-2.3166 0,0 -0.738442,-1.3609 -0.592276,-1.9294 0.16055,-0.6244 2.413843,-2.0454 2.413843,-2.0454 z"
       id="path3835"
       inkscape:connector-curvature="0"
       sodipodi:nodetypes="cscccccscscc" />
    <path
       style="fill:#552200;stroke:none"
       d="m 12.983302,1035.8017 -3.808237,1.6794 c 0,0 -1.057943,0.5963 -0.7855077,1.347 0.2724355,0.7507 2.0114227,2.0311 3.0545287,3.2667 1.043102,1.2356 0.749183,2.0644 3.147452,2.0012 1.463896,-0.039 4.098834,-2.6344 5.606886,-2.9269 1.508035,-0.2923 3.854858,0.088 3.854858,0.088 0,0 -1.969664,1.9467 -1.697226,2.6974 0.272436,0.7506 2.335321,2.3383 2.335321,2.3383 l -0.949876,2.2987 c 0,0 -0.815472,0.211 -0.999805,0.4053 -0.184349,0.1944 -0.09293,1.2656 -0.09293,1.2656 l 2.320184,-0.6296 1.602483,-3.8948 c 0,0 -1.217456,-0.6626 -1.182652,-1.7372 0.03482,-1.0746 2.288402,-4.2287 2.288402,-4.2287 0,0 1.709027,0.1444 2.771811,-2.6626 1.062767,-2.8069 -1.895495,-7.213 -3.504953,-8.3704 -1.609441,-1.1576 -6.81798,-2.2833 -7.626789,-1.8198 -0.80881,0.4634 -1.75049,0.6776 -1.348507,1.5512 0.401985,0.8736 2.453055,-0.3804 3.987748,0.3369 1.534674,0.7174 3.554228,0.6645 4.348248,2.0327 0.793987,1.3685 2.569616,4.0373 1.637901,4.6304 -0.931699,0.5929 -1.665744,1.4965 -2.05107,1.254 -0.385342,-0.2424 -3.761949,-1.3533 -4.580741,-1.2686 -0.818791,0.085 -5.482477,0.4605 -5.482477,0.4605 z"
       id="path3813"
       inkscape:connector-curvature="0"
       sodipodi:nodetypes="ccsssscsccscccscssssssssscc" />
    <path
       style="fill:#552200;stroke:none"
       d="m 5.0671236,1033.8797 c 0,0 -0.7549734,-0.8788 -1.8141987,-1.5473 -0.6759663,-0.338 -0.5754682,-0.6292 -2.6258477,-1.2023 1.4313424,1.9406 0.704875,2.692 1.8510462,3.8275 0.1181427,0.59 1.0289055,1.3801 1.0289055,1.3801 z"
       id="path2999"
       inkscape:connector-curvature="0"
       sodipodi:nodetypes="cccccc" />
    <path
       style="fill:#552200;stroke:none"
       d="m 6.5746867,1033.1581 c -0.8260031,0.017 -1.8746146,0.09 -2.8033395,0.4681 -1.8575485,0.7445 -0.9543802,1.9578 -1.0045551,2.6749 -0.05021,0.7172 1.6465954,1.6065 1.8792517,2.3697 0.2326459,0.7632 0.078915,1.2325 1.21133,1.5355 0.2325942,0.057 0.4802535,0.068 0.7127487,0.091 l 1.489e-4,0.041 c 0,0 0.1338003,-0.01 0.1580567,-0.01 0.2809327,0.02 0.5579331,0.015 0.7908483,0 0.1948755,-0.01 0.3710464,-0.033 0.5925733,-0.07 0.04078,0 0.1977206,-0.01 0.1977206,-0.01 l -4.222e-4,-0.042 c 0.2189724,-0.048 0.4533699,-0.078 0.6699449,-0.163 1.126276,-0.4108 0.703952,-0.8529 0.923023,-1.6378 0.219033,-0.785 1.89878,-1.8365 1.836046,-2.5482 -0.06269,-0.7116 0.857895,-2.0127 -1.011165,-2.578 -1.233195,-0.3755 -2.6368793,-0.2389 -3.4807734,-0.1249 -0.2079933,-0.01 -0.4022001,-0.016 -0.6722701,-0.01 z"
       id="path3771"
       inkscape:connector-curvature="0"
       sodipodi:nodetypes="ccccccccccccccccccc" />
    <path
       style="fill:#000000;stroke:none"
       d="m 4.9359557,1038.6344 c 0.2776228,-0.5496 4.0070523,-0.588 4.5194093,-0.1361 0.512348,0.4519 0.316961,0.7602 -0.0203,0.9552 -0.33727,0.1943 -3.9081631,0.5061 -4.193052,0.2225 -0.3414292,-0.282 -0.3060538,-1.0416 -0.3060577,-1.0416 z"
       id="path3780"
       inkscape:connector-curvature="0"
       sodipodi:nodetypes="csscc" />
    <path
       style="fill:#000000;stroke:none"
       d="m 7.1913436,1037.7684 c 0,0 1.0681157,-0.5873 0.783725,-0.8121 -0.2845,-0.2241 -1.585213,-0.081 -1.8560493,0.1412 -0.2864281,0.2358 1.0723232,0.6704 1.0723232,0.6704 z"
       id="path3782"
       inkscape:connector-curvature="0"
       sodipodi:nodetypes="cssc" />
    <path
       style="fill:#ffffff;stroke:none"
       d="m 5.1331124,1038.4876 c 0,0 -0.1182462,0.1745 -0.037169,0.3177 0.081003,0.1439 0.2816972,0.2176 0.2816972,0.2176 l 0.01496,-0.5694 0.463612,0.4832 0.1942486,-0.6199 0.4256915,0.7165 0.3726649,-0.776 c 0,0 0.424764,0.6113 0.5260677,0.775 0.1976184,-0.2412 0.2724529,-0.8134 0.2724529,-0.8134 l 0.4865263,0.819 0.552113,-0.8057 0.4273575,0.9061 0.59282,-0.7234 c 0,0 0.03909,-0.1283 -0.300929,-0.1324 -0.339463,0 -1.8000154,-0.2926 -2.2182993,-0.1673 -0.4195998,0.1207 -1.6371887,0.057 -2.0538152,0.3727 z"
       id="path3784"
       inkscape:connector-curvature="0"
       sodipodi:nodetypes="cscccccccccccccsc" />
    <path
       style="fill:#ffffff;stroke:none"
       d="m 5.1423985,1039.7242 c 0,0 1.9183054,0.1184 2.2778728,0.1221 0.35937,0 2.1536147,-0.3771 2.1536147,-0.3771 l -0.146049,-0.709 -0.433667,0.6526 -0.4449118,-0.6314 -0.3920132,0.8399 -0.2850513,-0.6181 -0.4129522,0.736 -0.3443771,-0.552 -0.2947949,0.5405 -0.3654299,-0.6773 -0.2333172,0.7271 -0.3863004,-0.7817 -0.1347646,0.5751 -0.3447348,-0.5941 z"
       id="path3786"
       inkscape:connector-curvature="0"
       sodipodi:nodetypes="ccccccccccccccccc" />
    <path
       style="fill:#552200;stroke:none"
       d="m 9.891852,1040.0066 c 0,0 0.758045,2.2205 0.507149,3.3273 -0.250928,1.1066 -0.664264,3.8425 -1.036004,4.069 -0.371835,0.2264 -1.23182,0.075 -1.3314041,0.5729 -0.099523,0.4977 0.1488921,0.9623 0.1488921,0.9623 l 2.387922,0.1539 c 0,0 0.752719,-3.3203 0.91516,-4.9493 0.162409,-1.629 0.627629,-4.4759 0.627629,-4.4759 z"
       id="path3809"
       inkscape:connector-curvature="0" />
    <path
       style="fill:#552200;stroke:none"
       d="m 12.908995,1039.4491 c 0,0 0.29199,0.9253 0.282427,1.8815 -0.0095,0.9565 0.05543,3.8756 -0.141393,4.7319 -0.1968,0.8563 -0.09578,1.4231 -0.417935,1.6356 -0.322234,0.2121 -0.48879,-0.069 -0.786526,0.2209 -0.297819,0.2896 -0.657549,1.123 -0.397308,1.4543 0.260242,0.3313 2.533819,0.136 2.533819,0.136 0,0 0.785699,-5.1568 0.656667,-6.059 -0.129059,-0.9023 -0.100398,-3.7713 -0.100398,-3.7713 z"
       id="path3811"
       inkscape:connector-curvature="0"
       sodipodi:nodetypes="cssssscscc" />
    <path
       sodipodi:nodetypes="cccccc"
       inkscape:connector-curvature="0"
       id="path3815"
       d="m 8.96551,1033.9153 c 0,0 0.540313,-1.0248 1.424064,-1.9124 0.583717,-0.4801 0.420904,-0.7415 2.292166,-1.7569 -0.963244,2.2107 -0.0877,2.7814 -0.952215,4.1436 0.01621,0.6015 -0.695736,1.5746 -0.695736,1.5746 z"
       style="fill:#552200;stroke:none" />
    <path
       style="fill:#c8b7b7;stroke:none"
       d="m 11.570917,1048.6674 c 0,0 -0.321345,0.2771 -0.363164,0.4419 -0.04179,0.1648 0.192302,0.7471 0.192302,0.7471 0,0 -0.04481,-0.4471 0.03076,-0.562 0.07564,-0.1146 0.34935,-0.246 0.34935,-0.246 z"
       id="path3817"
       inkscape:connector-curvature="0" />
    <path
       inkscape:connector-curvature="0"
       id="path3819"
       d="m 8.0959049,1048.23 c 0,0 -0.3906537,0.3027 -0.4414917,0.4827 -0.050811,0.18 0.2337807,0.8163 0.2337807,0.8163 0,0 -0.054474,-0.4884 0.037389,-0.614 0.091958,-0.1253 0.4247022,-0.2688 0.4247022,-0.2688 z"
       style="fill:#c8b7b7;stroke:none" />
    <path
       style="fill:#c8b7b7;stroke:none"
       d="m 8.763086,1048.474 c 0,0 -0.3906533,0.3028 -0.4414914,0.4827 -0.05081,0.1802 0.2337807,0.8164 0.2337807,0.8164 0,0 -0.054474,-0.4884 0.037389,-0.614 0.091958,-0.1252 0.4247018,-0.2688 0.4247018,-0.2688 z"
       id="path3821"
       inkscape:connector-curvature="0" />
    <path
       inkscape:connector-curvature="0"
       id="path3823"
       d="m 9.582107,1048.571 c 0,0 -0.390655,0.3028 -0.441492,0.4827 -0.05081,0.1801 0.233781,0.8163 0.233781,0.8163 0,0 -0.05448,-0.4884 0.0374,-0.614 0.09196,-0.1253 0.424702,-0.2688 0.424702,-0.2688 z"
       style="fill:#c8b7b7;stroke:none" />
    <path
       style="fill:#c8b7b7;stroke:none"
       d="m 12.157525,1048.8335 c 0,0 -0.321346,0.2771 -0.363163,0.4418 -0.04179,0.1648 0.1923,0.7471 0.1923,0.7471 0,0 -0.04481,-0.447 0.03076,-0.5619 0.07564,-0.1147 0.349352,-0.2461 0.349352,-0.2461 z"
       id="path3825"
       inkscape:connector-curvature="0" />
    <path
       inkscape:connector-curvature="0"
       id="path3827"
       d="m 13.006843,1049.1322 c 0,0 -0.338543,0.2839 -0.382601,0.4526 -0.04403,0.1688 0.202596,0.7653 0.202596,0.7653 0,0 -0.04721,-0.4579 0.03241,-0.5756 0.07969,-0.1174 0.36805,-0.2521 0.36805,-0.2521 z"
       style="fill:#c8b7b7;stroke:none" />
    <path
       style="fill:#c8b7b7;stroke:none"
       d="m 23.11742,1048.7788 c 0,0 -0.488704,-0.1636 -0.670977,-0.1033 -0.18233,0.06 -0.549715,0.6766 -0.549715,0.6766 0,0 0.379871,-0.3307 0.540691,-0.3238 0.160644,0.01 0.480353,0.2128 0.480353,0.2128 z"
       id="path3829"
       inkscape:connector-curvature="0" />
    <path
       inkscape:connector-curvature="0"
       id="path3831"
       d="m 23.013052,1049.378 c 0,0 -0.461772,-0.2288 -0.650743,-0.1937 -0.18882,0.035 -0.636687,0.5953 -0.636687,0.5953 0,0 0.421404,-0.2759 0.579667,-0.247 0.158129,0.029 0.446904,0.2763 0.446904,0.2763 z"
       style="fill:#c8b7b7;stroke:none" />
    <path
       style="fill:#c8b7b7;stroke:none"
       d="m 22.874782,1049.7958 c 0,0 -0.513764,-0.041 -0.676154,0.061 -0.16249,0.1025 -0.370657,0.789 -0.370657,0.789 0,0 0.289036,-0.4124 0.446803,-0.4444 0.157658,-0.032 0.517414,0.091 0.517414,0.091 z"
       id="path3833"
       inkscape:connector-curvature="0" />
    <path
       inkscape:connector-curvature="0"
       id="path3837"
       d="m 20.219021,1048.483 c 0,0 -0.287928,-0.3495 -0.452878,-0.3895 -0.165126,-0.04 -0.733089,0.2486 -0.733089,0.2486 0,0 0.441511,-0.07 0.558564,0.01 0.116769,0.08 0.258144,0.3824 0.258144,0.3824 z"
       style="fill:#c8b7b7;stroke:none" />
    <path
       style="fill:#c8b7b7;stroke:none"
       d="m 19.959856,1048.6716 c 0,0 -0.423278,-0.1671 -0.587987,-0.123 -0.164756,0.044 -0.524262,0.5671 -0.524262,0.5671 0,0 0.354597,-0.2717 0.496418,-0.2578 0.14192,0.014 0.413115,0.2101 0.413115,0.2101 z"
       id="path3839"
       inkscape:connector-curvature="0" />
    <path
       inkscape:connector-curvature="0"
       id="path3841"
       d="m 19.699012,1048.9804 c 0,0 -0.45631,0.027 -0.587281,0.1357 -0.130872,0.1089 -0.234494,0.7319 -0.234494,0.7319 0,0 0.206334,-0.3942 0.341296,-0.4412 0.134771,-0.046 0.465356,0.016 0.465356,0.016 z"
       style="fill:#c8b7b7;stroke:none" />
    <path
       sodipodi:type="arc"
       style="fill:#000000;fill-opacity:1;stroke:none"
       id="path3843"
       sodipodi:cx="10.290178"
       sodipodi:cy="17.245535"
       sodipodi:rx="1.09375"
       sodipodi:ry="0.55803573"
       d="m 11.383928,17.245535 a 1.09375,0.55803573 0 1 1 -2.1874997,0 1.09375,0.55803573 0 1 1 2.1874997,0 z"
       transform="translate(-1.25,1018.3086)" />
    <path
       transform="translate(-5.4017857,1018.3532)"
       d="m 11.383928,17.245535 a 1.09375,0.55803573 0 1 1 -2.1874997,0 1.09375,0.55803573 0 1 1 2.1874997,0 z"
       sodipodi:ry="0.55803573"
       sodipodi:rx="1.09375"
       sodipodi:cy="17.245535"
       sodipodi:cx="10.290178"
       id="path3845"
       style="fill:#000000;fill-opacity:1;stroke:none"
       sodipodi:type="arc" />
  </g>
</svg>
