<?xml version="1.0" encoding="UTF-8" standalone="no"?>
<!-- Created with Inkscape (http://www.inkscape.org/) -->

<svg
   xmlns:dc="http://purl.org/dc/elements/1.1/"
   xmlns:cc="http://creativecommons.org/ns#"
   xmlns:rdf="http://www.w3.org/1999/02/22-rdf-syntax-ns#"
   xmlns:svg="http://www.w3.org/2000/svg"
   xmlns="http://www.w3.org/2000/svg"
   xmlns:sodipodi="http://sodipodi.sourceforge.net/DTD/sodipodi-0.dtd"
   xmlns:inkscape="http://www.inkscape.org/namespaces/inkscape"
   width="32"
   height="32"
   id="svg2987"
   version="1.1"
   inkscape:version="0.48.2 r9819"
   sodipodi:docname="cathound-injured.svg"
   inkscape:export-filename="/Users/e0/Dropbox/Iamagamer2013/art/cathound-injured.png"
   inkscape:export-xdpi="90"
   inkscape:export-ydpi="90">
  <defs
     id="defs2989" />
  <sodipodi:namedview
     id="base"
     pagecolor="#ffffff"
     bordercolor="#666666"
     borderopacity="1.0"
     inkscape:pageopacity="0.0"
     inkscape:pageshadow="2"
     inkscape:zoom="15.839192"
     inkscape:cx="2.8806117"
     inkscape:cy="17.437132"
     inkscape:document-units="px"
     inkscape:current-layer="layer1"
     showgrid="false"
     inkscape:window-width="1280"
     inkscape:window-height="716"
     inkscape:window-x="0"
     inkscape:window-y="0"
     inkscape:window-maximized="0" />
  <metadata
     id="metadata2992">
    <rdf:RDF>
      <cc:Work
         rdf:about="">
        <dc:format>image/svg+xml</dc:format>
        <dc:type
           rdf:resource="http://purl.org/dc/dcmitype/StillImage" />
        <dc:title></dc:title>
      </cc:Work>
    </rdf:RDF>
  </metadata>
  <g
     inkscape:label="Layer 1"
     inkscape:groupmode="layer"
     id="layer1"
     transform="translate(0,-1020.3622)">
    <path
       style="fill:#552200;stroke:none"
       d="m 11.25,15.392857 -1.6071428,3.839286 c 0,0 -0.3571429,1.160714 0.3571428,1.517857 0.714286,0.357143 2.857143,0.08929 4.464286,0.267857 C 16.071429,21.196429 16.428571,22 18.125,20.303572 c 1.035484,-1.035484 1.160714,-4.732143 2.053571,-5.982143 0.892858,-1.25 2.857143,-2.589286 2.857143,-2.589286 0,0 -0.08929,2.767857 0.625,3.125 0.714286,0.357143 3.303572,0.08929 3.303572,0.08929 l 0.892857,2.321428 c 0,0 -0.446429,0.714286 -0.446429,0.982143 0,0.267857 0.803572,0.982143 0.803572,0.982143 l 1.25,-2.053572 L 27.946429,13.25 c 0,0 -1.339286,0.357143 -2.053572,-0.446429 -0.714286,-0.803571 -1.25,-4.6428568 -1.25,-4.6428568 0,0 1.339286,-1.0714286 0.178572,-3.8392857 C 23.660714,1.5535713 18.482143,0.39285706 16.517857,0.6607142 14.553571,0.92857135 10,3.6964285 9.7321429,4.5892856 9.4642857,5.4821428 8.9285715,6.2857142 9.8214286,6.6428571 10.714286,6.9999999 11.339286,4.6785714 12.946429,4.1428571 14.553571,3.6071428 15.982143,2.1785713 17.5,2.6249999 c 1.517857,0.4464286 4.642857,1.1607143 4.375,2.2321429 -0.267857,1.0714286 -0.178571,2.2321428 -0.625,2.3214286 -0.446429,0.089286 -3.660714,1.6071428 -4.196429,2.2321428 -0.535714,0.6249998 -3.660714,4.1071428 -3.660714,4.1071428 z"
       id="path3813"
       inkscape:connector-curvature="0"
       transform="translate(0,1020.3622)"
       sodipodi:nodetypes="ccsssscsccscccscssssssssscc" />
    <path
       style="fill:#800000;stroke:none"
       d="m 7.1041509,1033.8481 c 0,0 -0.9782052,-0.6208 -2.1862171,-0.9518 -0.5335242,-0.1023 -0.8312686,0.6222 0.5108667,1.0939 -1.3546444,0.6013 -0.6643956,1.4886 -0.4874553,1.6431 0.2848655,0.53 1.3862793,1.0206 1.3862793,1.0206 z"
       id="path2999"
       inkscape:connector-curvature="0"
       sodipodi:nodetypes="cccccc" />
    <path
       style="fill:#552200;stroke:none"
       d="m 8.3361753,1032.7187 c -0.7852833,0.2567 -1.7671848,0.6319 -2.545457,1.2643 -1.5601792,1.2532 -0.3427551,2.1509 -0.1818937,2.8515 0.1608548,0.7007 2.0431084,1.0572 2.4879893,1.7196 0.4448395,0.6623 0.5837353,2.0659 1.755296,2.0259 0.2391781,-0.013 0.4791851,-0.075 0.7082731,-0.1208 l 0.01203,0.039 c 0,0 0.125859,-0.046 0.148779,-0.054 0.274484,-0.063 0.538007,-0.1485 0.757578,-0.227 0.183613,-0.066 0.345451,-0.1393 0.546541,-0.2394 0.03867,-0.013 0.186587,-0.066 0.186587,-0.066 l -0.01262,-0.04 c 0.195375,-0.1101 0.410985,-0.2067 0.593441,-0.351 0.95777,-0.7211 0.275748,-1.9308 0.256697,-2.7455 -0.01909,-0.8147 1.281548,-2.3099 1.01423,-2.9725 -0.267245,-0.6625 0.234468,-2.1753 -1.718208,-2.1717 -1.289087,0 -2.5921308,0.5395 -3.3662172,0.8944 -0.200979,0.054 -0.3893734,0.102 -0.6457432,0.1872 z"
       id="path3771"
       inkscape:connector-curvature="0" />
    <path
       style="fill:#000000;stroke:none"
       d="m 8.3188996,1038.658 c 0.1055152,-0.6066 3.7959854,-1.8635 4.4177594,-1.5804 0.621734,0.283 0.747848,1.4384 0.482014,1.7232 -0.266057,0.2841 -3.7252534,1.7117 -4.0803858,1.5234 -0.4087548,-0.1703 -0.8193835,-1.6662 -0.8193835,-1.6662 z"
       id="path3780"
       inkscape:connector-curvature="0"
       sodipodi:nodetypes="csscc" />
    <path
       style="fill:#000000;stroke:none"
       d="m 10.268895,1036.9494 c 0,0 0.850756,-0.8729 0.513225,-1.0051 -0.337432,-0.1315 -1.5401748,0.3839 -1.7344425,0.6757 -0.2053293,0.309 1.2210945,0.329 1.2210945,0.329 z"
       id="path3782"
       inkscape:connector-curvature="0"
       sodipodi:nodetypes="cssc" />
    <path
       style="fill:#ffffff;stroke:none"
       d="m 8.4647683,1038.4602 c 0,0 -0.062316,0.2013 0.056963,0.3147 0.119414,0.1141 0.3328581,0.1261 0.3328581,0.1261 l -0.1515148,-0.549 0.5842464,0.3272 0.00527,-0.6496 0.6159137,0.5614 0.1304833,-0.8509 c 0,0 0.584406,0.4611 0.728999,0.5882 0.118797,-0.2883 0.02372,-0.8575 0.02372,-0.8575 l 0.703985,0.6418 0.293494,-0.9316 0.672734,0.7423 0.356415,-0.8647 c 0,0 2.7e-5,-0.1341 -0.326443,-0.039 -0.325924,0.095 -1.807186,0.2444 -2.170838,0.4861 -0.3662454,0.2377 -1.5495058,0.5317 -1.8562251,0.9547 z"
       id="path3784"
       inkscape:connector-curvature="0"
       sodipodi:nodetypes="cscccccccccccccsc" />
    <path
       style="fill:#ffffff;stroke:none"
       d="m 9.1016658,1040.3547 c 0,0 1.8696392,-0.4454 2.2146912,-0.5466 0.344998,-0.1007 1.950379,-0.9881 1.950379,-0.9881 l -0.346219,-0.6357 -0.224788,0.7506 -0.609517,-0.4744 -0.13037,0.9177 -0.452732,-0.5083 -0.180665,0.8244 -0.490237,-0.4278 -0.124592,0.6029 -0.546862,-0.5415 -0.0114,0.7636 -0.5972374,-0.6353 0.038581,0.5894 -0.50282,-0.4679 z"
       id="path3786"
       inkscape:connector-curvature="0" />
    <path
       sodipodi:nodetypes="cccsc"
       inkscape:connector-curvature="0"
       id="path3788"
       d="m 8.9035805,1035.7981 c 0,0 -0.7693115,-0.4862 -1.106461,-0.4286 -0.3372548,0.058 -1.6398077,0.2782 -1.6398077,0.2782 0,0 1.0162599,0.6059 1.4066845,0.5294 0.390309,-0.076 1.3396663,-0.3787 1.3396663,-0.3787 z"
       style="fill:#ff0000;stroke:none" />
    <path
       style="fill:#552200;stroke:none;stroke-width:1px;stroke-linecap:butt;stroke-linejoin:miter;stroke-opacity:1"
       d="m 9.8214286,20.035714 c 0,0 0,2.410715 -0.625,3.392857 -0.625,0.982143 -1.9642857,3.482143 -2.4107143,3.571429 -0.4464286,0.08929 -1.25,-0.357143 -1.5178571,0.08929 C 5,27.535714 5.0892857,28.071429 5.0892857,28.071429 l 2.3214286,0.982142 c 0,0 1.875,-2.946428 2.5892857,-4.464285 0.714286,-1.517857 2.142857,-4.107143 2.142857,-4.107143 z"
       id="path3809"
       inkscape:connector-curvature="0"
       transform="translate(0,1020.3622)" />
    <path
       style="fill:#552200;stroke:none"
       d="m 14.642857,20.392857 c 0,0 0,1.071429 -0.357143,2.053572 -0.357143,0.982142 -1.339285,4.017857 -1.875,4.821428 -0.535714,0.803572 -0.624999,1.428571 -1.071428,1.517857 -0.446428,0.08929 -0.535715,-0.267861 -0.982143,-0.08928 C 9.9107143,28.875 9.1964286,29.589286 9.375,30.035714 c 0.1785715,0.446429 2.857143,1.160715 2.857143,1.160715 0,0 2.767857,-5 2.946428,-5.982143 0.178572,-0.982143 1.25,-3.928572 1.25,-3.928572 z"
       id="path3811"
       inkscape:connector-curvature="0"
       transform="translate(0,1020.3622)"
       sodipodi:nodetypes="cssssscscc" />
    <path
       sodipodi:nodetypes="cccccc"
       inkscape:connector-curvature="0"
       id="path3815"
       d="m 10.843884,1032.7467 c 0,0 0.218378,-1.1378 0.805289,-2.2443 0.418571,-0.6293 0.186664,-0.832 1.681041,-2.3484 -0.277578,2.3954 0.726248,2.6864 0.295969,4.2413 0.1907,0.5707 -0.206933,1.709 -0.206933,1.709 z"
       style="fill:#552200;stroke:none" />
    <path
       style="fill:#800000;stroke:none"
       d="m 10.692536,1035.1583 c 0,0 0.339298,-0.8828 0.64076,-1.054 0.301397,-0.1715 1.466928,-0.83 1.466928,-0.83 0,0 0.10322,1.5686 -0.13675,1.7919 -0.2109,0.1963 -0.242655,-0.4946 -0.623637,-0.5121 -0.141799,-0.01 -0.229036,0.6754 -0.357332,0.4808 -0.324245,-0.4918 -0.98244,0.039 -0.988649,0.1261 z"
       id="path3778"
       inkscape:connector-curvature="0"
       sodipodi:nodetypes="cccssscc" />
    <path
       style="fill:#c8b7b7;stroke:none;stroke-width:1px;stroke-linecap:butt;stroke-linejoin:miter;stroke-opacity:1"
       d="m 9.6428572,29.566964 c 0,0 -0.4910715,0.15625 -0.6026786,0.3125 C 8.9285715,30.035714 8.9955357,30.75 8.9955357,30.75 c 0,0 0.1116072,-0.491071 0.2455358,-0.580357 C 9.375,30.080357 9.7544643,30.058036 9.7544643,30.058036 z"
       id="path3817"
       inkscape:connector-curvature="0"
       transform="translate(0,1020.3622)" />
    <path
       inkscape:connector-curvature="0"
       id="path3819"
       d="m 5.2455358,1047.7193 c 0,0 -0.4910715,0.1563 -0.6026786,0.3125 -0.1116071,0.1563 -0.044643,0.8706 -0.044643,0.8706 0,0 0.1116072,-0.4911 0.2455358,-0.5804 0.1339285,-0.089 0.5133928,-0.1116 0.5133928,-0.1116 z"
       style="fill:#c8b7b7;stroke:none" />
    <path
       style="fill:#c8b7b7;stroke:none"
       d="m 5.8258929,1048.1881 c 0,0 -0.4910715,0.1563 -0.6026786,0.3125 -0.1116071,0.1563 -0.044643,0.8706 -0.044643,0.8706 0,0 0.1116072,-0.4911 0.2455358,-0.5804 0.1339285,-0.089 0.5133928,-0.1116 0.5133928,-0.1116 z"
       id="path3821"
       inkscape:connector-curvature="0" />
    <path
       inkscape:connector-curvature="0"
       id="path3823"
       d="m 6.6071429,1048.5676 c 0,0 -0.4910715,0.1563 -0.6026786,0.3125 -0.1116071,0.1563 -0.044643,0.8706 -0.044643,0.8706 0,0 0.1116072,-0.4911 0.2455358,-0.5804 0.1339285,-0.089 0.5133928,-0.1116 0.5133928,-0.1116 z"
       style="fill:#c8b7b7;stroke:none" />
    <path
       style="fill:#c8b7b7;stroke:none"
       d="m 10.290179,1050.3533 c 0,0 -0.4910719,0.1563 -0.602679,0.3125 -0.1116071,0.1563 -0.044643,0.8706 -0.044643,0.8706 0,0 0.1116072,-0.4911 0.2455358,-0.5804 0.1339282,-0.089 0.5133932,-0.1116 0.5133932,-0.1116 z"
       id="path3825"
       inkscape:connector-curvature="0" />
    <path
       inkscape:connector-curvature="0"
       id="path3827"
       d="m 11.25,1050.7774 c 0,0 -0.491071,0.1563 -0.602679,0.3125 -0.111607,0.1563 -0.04464,0.8706 -0.04464,0.8706 0,0 0.111608,-0.4911 0.245536,-0.5804 0.133928,-0.089 0.513393,-0.1116 0.513393,-0.1116 z"
       style="fill:#c8b7b7;stroke:none" />
    <path
       style="fill:#c8b7b7;stroke:none"
       d="m 27.557719,1038.4822 c 0,0 -0.491071,0.1563 -0.602679,0.3125 -0.111607,0.1563 -0.04464,0.8706 -0.04464,0.8706 0,0 0.111608,-0.4911 0.245536,-0.5804 0.133928,-0.089 0.513393,-0.1116 0.513393,-0.1116 z"
       id="path3829"
       inkscape:connector-curvature="0" />
    <path
       inkscape:connector-curvature="0"
       id="path3831"
       d="m 27.648695,1038.8319 c 0,0 -0.355001,0.3736 -0.377538,0.5643 -0.02249,0.1907 0.380359,0.7843 0.380359,0.7843 0,0 -0.138825,-0.4841 -0.0645,-0.6268 0.07447,-0.1426 0.396098,-0.3452 0.396098,-0.3452 z"
       style="fill:#c8b7b7;stroke:none" />
    <path
       style="fill:#c8b7b7;stroke:none"
       d="m 27.866126,1039.2332 c 0,0 -0.163368,0.4888 -0.10302,0.6711 0.06039,0.1823 0.676724,0.5494 0.676724,0.5494 0,0 -0.330782,-0.3797 -0.323887,-0.5405 0.0071,-0.1607 0.212625,-0.4804 0.212625,-0.4804 z"
       id="path3833"
       inkscape:connector-curvature="0" />
    <path
       style="fill:#552200;stroke:none"
       d="m 20.518724,13.438447 c 0,0 -0.284106,1.767767 0.157836,2.30441 0.441942,0.536644 2.051872,0.726048 2.051872,0.726048 l 0.568211,2.241276 c 0,0 -0.69448,0.694479 -0.757614,0.947018 -0.06313,0.252538 0.505076,0.947018 0.505076,0.947018 l 1.609931,-1.641498 c 0,0 -0.631345,-1.38896 -0.662913,-1.957171 -0.03157,-0.568211 -0.441942,-1.95717 -0.441942,-1.95717 0,0 -1.024263,-0.708065 -1.167989,-1.167989 -0.157836,-0.505077 0.662913,-2.335978 0.662913,-2.335978 z"
       id="path3835"
       inkscape:connector-curvature="0"
       transform="translate(0,1020.3622)"
       sodipodi:nodetypes="cscccccscscc" />
    <path
       inkscape:connector-curvature="0"
       id="path3837"
       d="m 22.614792,1039.8081 c 0,0 -0.431039,0.1388 -0.529003,0.2774 -0.09796,0.1388 -0.03918,0.7731 -0.03918,0.7731 0,0 0.09796,-0.4361 0.21552,-0.5154 0.117556,-0.079 0.450632,-0.099 0.450632,-0.099 z"
       style="fill:#c8b7b7;stroke:none" />
    <path
       style="fill:#c8b7b7;stroke:none"
       d="m 22.694647,1040.1186 c 0,0 -0.311604,0.3317 -0.331386,0.501 -0.01974,0.1694 0.333862,0.6964 0.333862,0.6964 0,0 -0.121854,-0.4298 -0.05662,-0.5565 0.06537,-0.1266 0.347676,-0.3065 0.347676,-0.3065 z"
       id="path3839"
       inkscape:connector-curvature="0" />
    <path
       inkscape:connector-curvature="0"
       id="path3841"
       d="m 22.885497,1040.4749 c 0,0 -0.143396,0.434 -0.09043,0.5959 0.05301,0.1618 0.593997,0.4878 0.593997,0.4878 0,0 -0.290345,-0.3371 -0.284293,-0.4799 0.0062,-0.1427 0.186632,-0.4266 0.186632,-0.4266 z"
       style="fill:#c8b7b7;stroke:none" />
    <path
       style="fill:#aa0000;stroke:none;stroke-width:1px;stroke-linecap:butt;stroke-linejoin:miter;stroke-opacity:1"
       d="m 19.107143,11.017857 c -0.892857,-0.267857 -2.321429,0.08929 -1.964286,1.339286 0.357143,1.25 1.964286,3.303571 1.875,4.285714 C 18.928571,17.625 18.75,18.964286 18.75,18.964286 c 0,0 0.982143,-4.464286 1.339286,-4.553572 0.357143,-0.08929 -0.982143,-3.392857 -0.982143,-3.392857 z"
       id="path9703"
       inkscape:connector-curvature="0"
       transform="translate(0,1020.3622)" />
    <path
       style="fill:#ffffff;stroke:none"
       d="m 17.321429,12.803571 c 0,0 0.937499,-4e-6 1.026785,0.625001 0.08929,0.625 0.669643,1.517857 0.669643,1.517857 0,0 -0.02232,-1.763393 -0.647321,-2.120536 -0.625,-0.357143 -1.227679,-1.183036 -1.227679,-1.183036 -0.06296,0.369407 -0.161397,0.733746 0.178572,1.160714 z"
       id="path9705"
       inkscape:connector-curvature="0"
       transform="translate(0,1020.3622)"
       sodipodi:nodetypes="cscscc" />
    <path
       sodipodi:nodetypes="cscscc"
       inkscape:connector-curvature="0"
       id="path9707"
       d="m 17.366072,1031.8042 c 0,0 1.450892,0.5134 1.540178,1.1384 0.08929,0.625 0.669643,1.5178 0.669643,1.5178 0,0 -0.02232,-1.7634 -0.647321,-2.1205 -0.625,-0.3572 -1.071429,-1.0492 -1.071429,-1.0492 -0.21921,0.2801 -0.451576,0.1088 -0.491071,0.5135 z"
       style="fill:#ffffff;stroke:none" />
    <path
       style="fill:#800000;stroke:none;stroke-width:1px;stroke-linecap:butt;stroke-linejoin:miter;stroke-opacity:1"
       d="m 15.909903,22.782358 c 0,0 -0.69448,0.820749 -1.136422,0.820749 -0.441942,0 -1.010153,0.252538 -1.010153,0.252538 l -1.388959,3.535534 c 0,0 -0.441942,0.947018 -0.126269,1.073287 0.315672,0.126269 1.073287,-0.883883 1.578363,-1.136422 0.505076,-0.252538 0.69448,-0.441941 0.69448,-0.441941 0,0 0.757614,-1.262691 0.757614,-1.641498 0,-0.378807 0.631346,-2.462247 0.631346,-2.462247 z"
       id="path9709"
       inkscape:connector-curvature="0"
       transform="translate(0,1020.3622)" />
  </g>
</svg>
