<?xml version="1.0" encoding="UTF-8" standalone="no"?>
<!-- Created with Inkscape (http://www.inkscape.org/) -->

<svg
   xmlns:dc="http://purl.org/dc/elements/1.1/"
   xmlns:cc="http://creativecommons.org/ns#"
   xmlns:rdf="http://www.w3.org/1999/02/22-rdf-syntax-ns#"
   xmlns:svg="http://www.w3.org/2000/svg"
   xmlns="http://www.w3.org/2000/svg"
   xmlns:sodipodi="http://sodipodi.sourceforge.net/DTD/sodipodi-0.dtd"
   xmlns:inkscape="http://www.inkscape.org/namespaces/inkscape"
   width="32"
   height="32"
   id="svg2987"
   version="1.1"
   inkscape:version="0.48.2 r9819"
   sodipodi:docname="cathound-dead.svg"
   inkscape:export-filename="/Users/e0/Dropbox/Iamagamer2013/art/cathound-dead.png"
   inkscape:export-xdpi="90"
   inkscape:export-ydpi="90">
  <defs
     id="defs2989" />
  <sodipodi:namedview
     id="base"
     pagecolor="#ffffff"
     bordercolor="#666666"
     borderopacity="1.0"
     inkscape:pageopacity="0.0"
     inkscape:pageshadow="2"
     inkscape:zoom="15.839192"
     inkscape:cx="17.789569"
     inkscape:cy="8.1527999"
     inkscape:document-units="px"
     inkscape:current-layer="layer1"
     showgrid="false"
     inkscape:window-width="1280"
     inkscape:window-height="716"
     inkscape:window-x="0"
     inkscape:window-y="0"
     inkscape:window-maximized="1" />
  <metadata
     id="metadata2992">
    <rdf:RDF>
      <cc:Work
         rdf:about="">
        <dc:format>image/svg+xml</dc:format>
        <dc:type
           rdf:resource="http://purl.org/dc/dcmitype/StillImage" />
        <dc:title></dc:title>
      </cc:Work>
    </rdf:RDF>
  </metadata>
  <g
     inkscape:label="Layer 1"
     inkscape:groupmode="layer"
     id="layer1"
     transform="translate(0,-1020.3622)">
    <path
       style="fill:#aa0000;stroke:none"
       d="m 15.144858,1041.7763 c 1.445595,-0.089 8.163363,-0.045 9.779027,0.045 1.615666,0.089 3.784059,0.625 4.464339,1.0268 0.68028,0.4018 1.700701,2.0982 1.275526,2.7679 -0.425176,0.6696 -0.637764,1.9196 -2.040841,2.2321 -1.403078,0.3125 -4.166716,-1.1607 -6.335109,-1.1607 -2.168393,0 -3.018744,1.5625 -6.037487,2.0536 -3.018744,0.491 -8.3334317,1.4732 -10.1191672,1.3392 -1.7857354,-0.1339 -3.3588833,-0.5357 -4.081681,-2.0089 -0.7227977,-1.4732 -1.53063041,-3.0357 -0.5527277,-4.0625 0.9779028,-1.0268 1.9558056,-1.4286 3.2738484,-0.8482 1.3180429,0.5804 4.4643388,1.1161 6.2925925,0.4464 1.828252,-0.6696 4.08168,-1.8303 4.08168,-1.8303 z"
       id="path3887"
       inkscape:connector-curvature="0" />
    <path
       style="fill:#552200;stroke:none"
       d="m 23.612296,1044.8893 c 0,0 1.340941,1.8138 2.144613,1.7898 0.803624,-0.024 2.17902,-1.6146 2.17902,-1.6146 l 2.397275,1.2895 c 0,0 0.08913,1.3467 0.263692,1.6302 0.174518,0.2837 1.211969,0.2566 1.211969,0.2566 l -0.234295,-3.1487 c 0,0 -1.695255,-0.4952 -2.218591,-0.9446 -0.523161,-0.4492 -2.052468,-1.1849 -2.052468,-1.1849 0,0 -1.391745,0.5117 -1.904046,0.2767 -0.562724,-0.258 -1.555968,-2.7095 -1.555968,-2.7095 z"
       id="path3835"
       inkscape:connector-curvature="0"
       sodipodi:nodetypes="cscccccscscc" />
    <path
       style="fill:#552200;stroke:none"
       d="m 11.948644,1039.0103 -3.6269341,1.6794 c 0,0 -1.0075767,0.5963 -0.7481108,1.347 0.2594649,0.7507 1.9156627,2.0311 2.9091089,3.2667 0.993442,1.2356 0.713515,2.0644 2.997609,2.0012 1.394202,-0.039 3.903697,-2.6344 5.339954,-2.9269 1.43624,-0.2923 3.671337,0.088 3.671337,0.088 2.240583,0.791 -0.01413,0.7218 1.433112,0.1598 0.09339,-4.2914 0.550135,-2.636 0.317661,-4.6924 -0.366996,-0.2424 -3.582851,-1.3533 -4.362662,-1.2686 -0.779811,0.085 -5.221469,0.4605 -5.221469,0.4605 z"
       id="path3813"
       inkscape:connector-curvature="0"
       sodipodi:nodetypes="ccsssscccscc" />
    <path
       style="fill:#552200;stroke:none"
       d="m 11.175458,1041.2744 c 0,0 -1.8624756,1.2965 -2.9427188,1.3346 -1.0800671,0.038 -3.7003477,0.3322 -3.9988184,0.03 -0.2984015,-0.3023 -0.3666919,-1.1725 -0.8494362,-1.1425 -0.4825455,0.03 -0.8505386,0.3881 -0.8505386,0.3881 l 0.435126,2.3488 c 0,0 3.240646,-0.1141 4.780591,-0.3702 1.5399374,-0.2562 4.27501,-0.5283 4.27501,-0.5283 z"
       id="path3809"
       inkscape:connector-curvature="0" />
    <path
       style="fill:#552200;stroke:none"
       d="m 12.41797,1044.0515 c 0,0 -0.781882,0.5171 -1.665081,0.7504 -0.8834622,0.2335 -3.5569678,1.0368 -4.3933768,1.0636 -0.8364039,0.027 -1.3341573,0.2683 -1.6077512,0.011 -0.2732446,-0.2579 -0.054523,-0.4903 -0.3935211,-0.7047 -0.3387421,-0.2146 -1.1934121,-0.3512 -1.4357466,-0.015 -0.2423345,0.3357 0.4868637,2.4854 0.4868637,2.4854 0,0 4.9404721,-0.5481 5.7404417,-0.9018 0.8000552,-0.3537 3.4500183,-1.0538 3.4500183,-1.0538 z"
       id="path3811"
       inkscape:connector-curvature="0"
       sodipodi:nodetypes="cssssscscc" />
    <path
       style="fill:#c8b7b7;stroke:none"
       d="m 3.6024299,1045.0955 c 0,0 -0.3329103,-0.2405 -0.494834,-0.2391 -0.1619166,0 -0.6417999,0.3755 -0.6417999,0.3755 0,0 0.4010608,-0.1568 0.5251685,-0.1128 0.1238483,0.044 0.3110257,0.2755 0.3110257,0.2755 z"
       id="path3817"
       inkscape:connector-curvature="0" />
    <path
       inkscape:connector-curvature="0"
       id="path3819"
       d="m 3.1658426,1041.6232 c 0,0 -0.3732387,-0.301 -0.5513441,-0.3046 -0.1780989,0 -0.6955287,0.4332 -0.6955287,0.4332 0,0 0.4367732,-0.1765 0.5746744,-0.1195 0.1376479,0.057 0.3502345,0.3426 0.3502345,0.3426 z"
       style="fill:#c8b7b7;stroke:none" />
    <path
       style="fill:#c8b7b7;stroke:none"
       d="m 3.1022461,1042.3305 c 0,0 -0.3733308,-0.3011 -0.551344,-0.3046 -0.1782829,0 -0.6956209,0.4332 -0.6956209,0.4332 0,0 0.4367732,-0.1766 0.5746745,-0.1196 0.1375557,0.057 0.3502343,0.3427 0.3502343,0.3427 z"
       id="path3821"
       inkscape:connector-curvature="0" />
    <path
       inkscape:connector-curvature="0"
       id="path3823"
       d="m 3.2107553,1043.1473 c 0,0 -0.373331,-0.301 -0.5513441,-0.3046 -0.1781907,0 -0.6955287,0.4332 -0.6955287,0.4332 0,0 0.4367718,-0.1766 0.5746771,-0.1195 0.1376483,0.057 0.3502344,0.3426 0.3502344,0.3426 z"
       style="fill:#c8b7b7;stroke:none" />
    <path
       style="fill:#c8b7b7;stroke:none"
       d="m 3.5911322,1045.7051 c 0,0 -0.3329107,-0.2405 -0.4947416,-0.2392 -0.1619167,0 -0.6418005,0.3755 -0.6418005,0.3755 0,0 0.4009687,-0.1567 0.5250764,-0.1128 0.1239404,0.044 0.3111181,0.2755 0.3111181,0.2755 z"
       id="path3825"
       inkscape:connector-curvature="0" />
    <path
       inkscape:connector-curvature="0"
       id="path3827"
       d="m 3.5211467,1046.6024 c 0,0 -0.3433296,-0.2554 -0.509387,-0.2553 -0.1661428,3e-4 -0.6560796,0.3901 -0.6560796,0.3901 0,0 0.4104304,-0.1618 0.538096,-0.1146 0.1274063,0.047 0.321163,0.292 0.321163,0.292 z"
       style="fill:#c8b7b7;stroke:none" />
    <path
       style="fill:#552200;stroke:none"
       d="m 6.3746399,1039.7005 c -0.4210511,0.6979 -0.9147963,1.6124 -1.1033076,2.5954 -0.3862373,1.9596 1.0521668,1.877 1.5950598,2.315 0.5429812,0.4381 1.8344539,-0.7256 2.5627235,-0.498 1.1032504,-1.9054 1.5724194,-2.8719 2.4901304,-4.3852 -0.507944,-0.6162 -0.08716,-2.4992 -0.685205,-2.8401 -0.597947,-0.3409 -1.146466,-1.827 -2.5786299,-0.5813 -0.9469549,0.8205 -1.5770035,2.0661 -1.9305059,2.8325 -0.1173478,0.1678 -0.2242545,0.3264 -0.3615409,0.5549 z"
       id="path3771"
       inkscape:connector-curvature="0"
       sodipodi:nodetypes="cccccccccc" />
    <path
       style="fill:#aa0000;stroke:none"
       d="m 12.074672,19.659442 c 0,0 0.599586,0.07668 0.599586,0.518616 0,0.441942 0.07892,1.467878 0.142052,1.783551 0.06314,0.315673 0.397976,0.596427 0.197083,0.752677 -0.200893,0.15625 -0.714286,0.04464 -0.625,-0.200893 0.08929,-0.245536 0.121975,-0.210139 0.144296,-0.835139 0.02232,-0.625 -0.255903,-1.196111 -0.456796,-1.17379 -0.200893,0.02232 -0.223214,0.647322 -0.200893,0.848215 0.02232,0.200892 0.04464,0.803571 -0.111607,0.870535 -0.15625,0.06696 -0.357143,-0.245535 -0.290179,-0.535714 0.06696,-0.290179 -0.08929,-0.870536 -0.178571,-0.892857 -0.08929,-0.02232 -0.111607,1.450893 -0.133929,1.875 -0.02232,0.424107 -0.133928,1.116071 -0.334821,1.071428 -0.200893,-0.04464 -0.3125,0.08929 -0.334822,0.357143 -0.02232,0.267857 -0.379464,0.602679 -0.379464,0.602679 L 9.5535715,24.254464 c 0,0 0.2901785,-0.178571 0.2901785,-0.3125 0,-0.133928 0.044643,-0.580357 0.044643,-0.580357 0,0 1.09375,-2.254464 1.160714,-2.366071 0.06696,-0.111607 0.736607,-0.9375 0.825893,-1.026786 0.08929,-0.08929 0.199672,-0.309308 0.199672,-0.309308 z"
       id="path3889"
       inkscape:connector-curvature="0"
       transform="translate(0,1020.3622)"
       sodipodi:nodetypes="cscssssscccscsccsccsc" />
    <path
       style="fill:#000000;stroke:none"
       d="m 10.359111,1041.7333 c 0,0 0.09309,-1.215 -0.232373,-1.1019 -0.3275854,0.1134 -0.8982905,1.2766 -0.8644377,1.6251 0.036705,0.3691 1.0964517,-0.5235 1.0964517,-0.5235 z"
       id="path3782"
       inkscape:connector-curvature="0"
       sodipodi:nodetypes="cssc" />
    <path
       style="fill:#ffffff;stroke:none"
       d="m 9.8471942,1043.8463 c 0,0 0.076276,0.1949 0.2326798,0.2065 0.156846,0.012 0.320904,-0.1146 0.320904,-0.1146 l -0.4441287,-0.3271 0.6274737,-0.1195 -0.389848,-0.5043 0.792709,0.041 -0.420003,-0.7393 c 0,0 0.708825,-0.016 0.892088,-0.01 -0.08755,-0.298 -0.502379,-0.6764 -0.502379,-0.6764 l 0.906086,0.047 -0.34909,-0.9053 0.944131,0.1444 -0.262387,-0.8938 c 0,0 -0.08113,-0.1035 -0.263416,0.1777 -0.178609,0.283 -1.17929,1.3388 -1.299882,1.7567 -0.125058,0.4164 -0.8161249,1.3962 -0.7846645,1.9179 z"
       id="path3784"
       inkscape:connector-curvature="0"
       sodipodi:nodetypes="cscccccccccccccsc" />
    <path
       sodipodi:nodetypes="cccccc"
       inkscape:connector-curvature="0"
       id="path3815"
       d="m 8.2335862,1038.1259 c 0,0 -0.5292968,-1.0165 -0.7689817,-2.2435 -0.073978,-0.7518 -0.3671592,-0.7605 -0.1888484,-2.8812 1.2482725,2.0241 2.1619815,1.6096 2.7885659,3.0827 0.486129,0.3188 0.884037,1.4498 0.884037,1.4498 z"
       style="fill:#552200;stroke:none" />
    <path
       sodipodi:type="arc"
       style="fill:#aa0000;fill-opacity:1;stroke:none"
       id="path3843"
       sodipodi:cx="10.290178"
       sodipodi:cy="17.245535"
       sodipodi:rx="1.09375"
       sodipodi:ry="0.55803573"
       d="m 11.383928,17.245535 a 1.09375,0.55803573 0 1 1 -2.1874997,0 1.09375,0.55803573 0 1 1 2.1874997,0 z"
       transform="matrix(0.52611818,-0.83356755,0.79388327,0.55241754,-9.5308004,1038.0198)" />
    <path
       transform="matrix(0.52611818,-0.83356755,0.79388327,0.55241754,-11.67978,1041.5052)"
       d="m 11.383928,17.245535 a 1.09375,0.55803573 0 1 1 -2.1874997,0 1.09375,0.55803573 0 1 1 2.1874997,0 z"
       sodipodi:ry="0.55803573"
       sodipodi:rx="1.09375"
       sodipodi:cy="17.245535"
       sodipodi:cx="10.290178"
       id="path3845"
       style="fill:#000000;fill-opacity:1;stroke:none"
       sodipodi:type="arc" />
    <path
       style="fill:#aa0000;stroke:none"
       d="m 10.167053,1038.0696 c 0,0 0.09504,0.2535 0.295902,0.4201 0.20096,0.1666 0.478707,0.4134 0.655881,0.5367 0.177271,0.1233 0.301256,0.2097 0.189614,0.3462 -0.111641,0.1365 -0.271573,-0.1354 -0.46073,-0.3206 -0.18916,-0.1852 -0.719964,-0.2332 -0.719964,-0.2332 0,0 0.130432,0.2782 0.236814,0.3522 0.106286,0.074 0.307246,0.2406 0.307246,0.2406 0,0 0.112279,0.1049 0.06517,0.1793 -0.04741,0.074 -0.246972,0.2298 -0.395198,-0.061 -0.148131,-0.2905 -0.4664494,-0.271 -0.4664494,-0.271 0,0 0.2777474,0.2468 0.077696,0.4022 -0.2001429,0.1553 -0.3538086,-0.01 -0.4829685,0.1995 -0.1291597,0.2046 -0.2581373,0.4898 -0.3826741,0.2425 -0.1244414,-0.2473 1.0795703,-2.0337 1.0795703,-2.0337 z"
       id="path3885"
       inkscape:connector-curvature="0" />
  </g>
</svg>
