<?xml version="1.0" encoding="UTF-8" standalone="no"?>
<!-- Created with Inkscape (http://www.inkscape.org/) -->

<svg
   xmlns:dc="http://purl.org/dc/elements/1.1/"
   xmlns:cc="http://creativecommons.org/ns#"
   xmlns:rdf="http://www.w3.org/1999/02/22-rdf-syntax-ns#"
   xmlns:svg="http://www.w3.org/2000/svg"
   xmlns="http://www.w3.org/2000/svg"
   xmlns:sodipodi="http://sodipodi.sourceforge.net/DTD/sodipodi-0.dtd"
   xmlns:inkscape="http://www.inkscape.org/namespaces/inkscape"
   width="640"
   height="480"
   id="svg6899"
   version="1.1"
   inkscape:version="0.48.4 r9939"
   sodipodi:docname="death-screen.svg"
   inkscape:export-filename="C:\Users\colin\Dropbox\Iamagamer2013\art\death-screen.png"
   inkscape:export-xdpi="90"
   inkscape:export-ydpi="90">
  <defs
     id="defs6901" />
  <sodipodi:namedview
     id="base"
     pagecolor="#ffffff"
     bordercolor="#666666"
     borderopacity="1.0"
     inkscape:pageopacity="0.0"
     inkscape:pageshadow="2"
     inkscape:zoom="0.8765625"
     inkscape:cx="135.79141"
     inkscape:cy="213.78978"
     inkscape:document-units="px"
     inkscape:current-layer="layer1"
     showgrid="false"
     inkscape:window-width="1218"
     inkscape:window-height="778"
     inkscape:window-x="54"
     inkscape:window-y="-8"
     inkscape:window-maximized="1" />
  <metadata
     id="metadata6904">
    <rdf:RDF>
      <cc:Work
         rdf:about="">
        <dc:format>image/svg+xml</dc:format>
        <dc:type
           rdf:resource="http://purl.org/dc/dcmitype/StillImage" />
        <dc:title></dc:title>
      </cc:Work>
    </rdf:RDF>
  </metadata>
  <g
     inkscape:label="Layer 1"
     inkscape:groupmode="layer"
     id="layer1"
     transform="translate(0,-572.36218)">
    <rect
       style="fill:#1a1a1a;fill-opacity:1;stroke:none"
       id="rect6909"
       width="639.47748"
       height="479.71478"
       x="0.23731768"
       y="572.6474" />
    <path
       style="fill:#aa4400;stroke:none"
       d="m 1.1889211,882.10626 c 0,0 71.3702539,12.8495 97.0635459,9.63712 25.693293,-3.21236 95.160343,-4.28316 95.160343,-4.28316 0,0 30.4513,-47.11485 41.87054,-52.46881 11.41925,-5.35396 48.53177,-41.76088 51.38659,-53.5396 2.85481,-11.77871 17.12885,0 17.12885,10.70792 0,10.70793 -7.61281,27.84059 -14.27404,31.05298 -6.66122,3.21236 -20.93528,13.92028 -21.88687,22.48663 -0.95161,8.56632 -7.61284,16.06187 -2.85482,22.48663 4.75802,6.42474 22.83849,17.13267 21.88688,23.55741 -0.95161,6.42476 7.61283,41.76088 -0.9516,51.39801 -8.56444,9.63714 -38.06414,14.99109 -62.80583,9.63714 -24.74169,-5.35396 -33.30611,-1.0708 -46.62856,0 -13.32245,1.07078 -63.75743,1.07078 -81.837896,1.07078 -18.080465,0 -94.20873632,12.84951 -94.20873632,12.84951 z"
       id="path6911"
       inkscape:connector-curvature="0"
       sodipodi:nodetypes="cscssssssssssscc" />
    <path
       style="fill:#aa4400;stroke:none"
       d="m 261.92825,857.47804 c 0,0 25.6933,-8.56634 38.06414,-14.99108 12.37083,-6.42475 39.96734,-18.20347 47.58017,-24.62822 7.61282,-6.42476 37.11253,-22.48663 41.87055,-25.69901 4.75802,-3.21238 19.03206,-6.42474 20.93526,0 1.90321,6.42476 -10.46763,21.41585 -20.93526,23.55743 -10.46765,2.14158 -58.99942,35.33614 -58.99942,35.33614 0,0 35.20934,-16.06189 51.38658,-16.06189 10.22975,3.21238 9.99184,4.55086 19.98368,9.63714 0.9516,13.92029 0.23791,28.64367 0.23791,28.64367 0,0 -12.64368,8.25207 -15.46355,-1.33848 -2.20275,-7.49168 -1.18952,-5.35396 -3.80643,-11.24332 -13.32244,-2.14159 -37.11254,9.63713 -37.11254,9.63713 0,0 15.22567,3.21238 25.6933,9.63712 10.46763,6.42475 19.98367,6.42475 22.83849,17.13267 2.8548,10.70793 -11.41925,16.06187 -17.12887,19.27425 -5.70962,3.21238 -21.88688,8.56635 -19.98368,5.35397 1.90322,-3.21237 12.37086,-18.20346 3.80643,-19.27425 -8.56443,-1.07079 -19.03208,-7.49555 -19.03208,-7.49555 0,0 18.08047,10.70793 23.79008,18.20347 5.70963,7.49554 21.88689,24.62821 12.37085,31.05296 -9.51603,6.42476 -19.03207,9.63712 -30.45131,5.35396 -18.70973,-18.26334 6.62163,-21.91938 -47.58016,-3.21238 -22.83848,6.42474 -36.16094,5.35396 -36.16094,5.35396 z"
       id="path6913"
       inkscape:connector-curvature="0"
       sodipodi:nodetypes="csssssccccsccssssscsscccc" />
    <path
       style="fill:#aa0000;stroke:none"
       d="m -0.71428572,881.03547 c 0,0 84.45480172,11.91257 95.63614072,10.97561 3.330612,12.3141 -12.846646,15.79419 -12.846646,24.36051 0,8.56635 -0.951603,23.55743 -4.758017,24.62823 -3.806413,1.07079 -7.612827,-17.13268 -13.322447,-16.06188 -5.70962,1.07079 -0.951604,19.27425 -11.419241,22.48663 -10.467638,3.21238 -27.596498,17.13267 -27.596498,17.13267 l -22.8384816,2.14158 z"
       id="path6915"
       inkscape:connector-curvature="0"
       sodipodi:nodetypes="ccssssccc" />
    <path
       style="fill:#aa0000;stroke:none"
       d="m 155.46762,888.39716 18.19941,-0.53539 c 0,0 -7.85073,11.37716 -5.94751,18.8727 1.9032,7.49554 -0.95161,24.62821 -0.95161,24.62821 0,0 -0.95161,11.77872 -5.70961,11.77872 -4.75802,0 -4.75802,-8.56634 -4.75802,-13.9203 0,-5.35396 4.75802,-12.84951 4.75802,-16.06187 0,-3.21238 -5.59068,-24.76207 -5.59068,-24.76207 z"
       id="path6917"
       inkscape:connector-curvature="0"
       sodipodi:nodetypes="ccscsssc" />
    <path
       style="fill:#aa0000;stroke:none"
       d="m 210.54166,862.83201 c 0,0 13.743,-20.61125 20.57843,-25.56516 7.01806,-5.08627 14.03614,-9.50327 14.03614,-9.50327 0,0 9.1592,16.86496 4.40118,26.50208 -4.75802,9.63713 -3.80642,14.99109 -12.37085,35.33614 -8.56443,20.34505 -14.27405,32.12376 -22.83847,27.84059 -8.56445,-4.28316 -3.80643,-13.92029 -6.66123,-26.76979 -2.85481,-12.84951 -2.85481,-19.27427 -2.85481,-19.27427 z"
       id="path6919"
       inkscape:connector-curvature="0"
       sodipodi:nodetypes="cscsssscc" />
    <path
       style="fill:#aa0000;stroke:none"
       d="m 250.50901,845.69934 c 0,0 -4.75802,20.34505 -2.85481,35.33613 1.90321,14.99109 12.37084,35.33612 2.85481,34.26534 -9.51603,-1.0708 -12.37084,-1.0708 -10.46764,-16.06188 1.90321,-14.99109 -1.9032,-36.40692 -1.9032,-36.40692 z"
       id="path6921"
       inkscape:connector-curvature="0" />
    <path
       style="fill:#aa0000;stroke:none"
       d="m 361.13291,839.27459 c -5.78893,1.89612 -11.57785,3.2848 -17.36677,6.15705 l 2.85481,23.82511 14.03615,-4.55086 z"
       id="path6923"
       inkscape:connector-curvature="0"
       sodipodi:nodetypes="ccccc" />
    <path
       style="fill:#aa0000;stroke:none"
       d="m 349.23787,870.86294 -10.22975,27.3052 1.90322,17.13267 c 0,0 8.56443,5.35396 14.27404,10.70792 5.70963,5.35395 24.74169,7.49555 24.74169,7.49555 -7.47312,-14.06052 -16.26474,-22.60581 -30.68922,-34.53305 l 9.51604,3.48008 5.94753,-26.23441 z"
       id="path6925"
       inkscape:connector-curvature="0"
       sodipodi:nodetypes="cccsccccc" />
    <text
       xml:space="preserve"
       style="font-size:67.83437347px;font-style:normal;font-variant:normal;font-weight:normal;font-stretch:normal;line-height:125%;letter-spacing:0px;word-spacing:0px;fill:#ff0000;fill-opacity:1;stroke:none;font-family:Charcoal CY;-inkscape-font-specification:Charcoal CY"
       x="82.016388"
       y="634.72449"
       id="text6927"
       sodipodi:linespacing="125%"
       transform="scale(0.9427042,1.0607781)"><tspan
         sodipodi:role="line"
         x="82.016388"
         y="634.72449"
         id="tspan6931">You have died.</tspan></text>
    <text
       xml:space="preserve"
       style="font-size:50.8757782px;font-style:normal;font-variant:normal;font-weight:normal;font-stretch:normal;line-height:125%;letter-spacing:0px;word-spacing:0px;fill:#ffffff;fill-opacity:1;stroke:none;font-family:Charcoal CY;-inkscape-font-specification:Charcoal CY"
       x="473.67914"
       y="788.15936"
       id="text6935"
       sodipodi:linespacing="125%"
       transform="scale(0.9427042,1.0607781)"><tspan
         sodipodi:role="line"
         id="tspan6937"
         x="473.67914"
         y="788.15936">Retry?</tspan></text>
    <text
       xml:space="preserve"
       style="font-size:50.8757782px;font-style:normal;font-variant:normal;font-weight:normal;font-stretch:normal;line-height:125%;letter-spacing:0px;word-spacing:0px;fill:#ffffff;fill-opacity:1;stroke:none;font-family:Charcoal CY;-inkscape-font-specification:Charcoal CY"
       x="498.9151"
       y="894.15057"
       id="text6939"
       sodipodi:linespacing="125%"
       transform="scale(0.9427042,1.0607781)"><tspan
         sodipodi:role="line"
         id="tspan6941"
         x="498.9151"
         y="894.15057">Quit.</tspan></text>
  </g>
</svg>
