<?xml version="1.0" encoding="UTF-8" standalone="no"?>
<!-- Created with Inkscape (http://www.inkscape.org/) -->

<svg
   xmlns:dc="http://purl.org/dc/elements/1.1/"
   xmlns:cc="http://creativecommons.org/ns#"
   xmlns:rdf="http://www.w3.org/1999/02/22-rdf-syntax-ns#"
   xmlns:svg="http://www.w3.org/2000/svg"
   xmlns="http://www.w3.org/2000/svg"
   xmlns:sodipodi="http://sodipodi.sourceforge.net/DTD/sodipodi-0.dtd"
   xmlns:inkscape="http://www.inkscape.org/namespaces/inkscape"
   width="32"
   height="32"
   id="svg3165"
   version="1.1"
   inkscape:version="0.48.2 r9819"
   sodipodi:docname="debris-advanced.svg"
   inkscape:export-filename="/Users/e0/Dropbox/Iamagamer2013/art/debris-advanced.png"
   inkscape:export-xdpi="90"
   inkscape:export-ydpi="90">
  <defs
     id="defs3167">
    <inkscape:perspective
       sodipodi:type="inkscape:persp3d"
       inkscape:vp_x="0 : 16 : 1"
       inkscape:vp_y="0 : 1000 : 0"
       inkscape:vp_z="32 : 16 : 1"
       inkscape:persp3d-origin="16 : 10.666667 : 1"
       id="perspective3177" />
  </defs>
  <sodipodi:namedview
     id="base"
     pagecolor="#ffffff"
     bordercolor="#666666"
     borderopacity="1.0"
     inkscape:pageopacity="0.0"
     inkscape:pageshadow="2"
     inkscape:zoom="44.8"
     inkscape:cx="19.126565"
     inkscape:cy="8.6632789"
     inkscape:document-units="px"
     inkscape:current-layer="layer1"
     showgrid="false"
     inkscape:window-width="1280"
     inkscape:window-height="716"
     inkscape:window-x="0"
     inkscape:window-y="0"
     inkscape:window-maximized="1" />
  <metadata
     id="metadata3170">
    <rdf:RDF>
      <cc:Work
         rdf:about="">
        <dc:format>image/svg+xml</dc:format>
        <dc:type
           rdf:resource="http://purl.org/dc/dcmitype/StillImage" />
        <dc:title></dc:title>
      </cc:Work>
    </rdf:RDF>
  </metadata>
  <g
     inkscape:label="Layer 1"
     inkscape:groupmode="layer"
     id="layer1"
     transform="translate(0,-1020.3622)">
    <path
       style="fill:#999999;stroke:none"
       d="m 14.703086,1044.5844 c 0,0 2.109353,-4.4072 2.423951,-4.418 0.314706,-0.013 -3.824799,-3.6926 -3.824799,-3.6926 l -3.4910286,0.6514 c 0,0 -0.6776947,3.438 -0.3842522,4.6549 0.2934422,1.2168 2.9350968,3.6208 2.9350968,3.6208 z"
       id="path3207"
       inkscape:connector-curvature="0" />
    <path
       inkscape:connector-curvature="0"
       id="path3205"
       d="m 21.98138,1035.854 6.019314,9.084 c 0,0 0.662435,-0.5607 1.155821,0.5607 0.493387,1.1215 0.155027,0.208 -0.733068,0.5443 -0.888096,0.3365 -0.620107,0.9137 -0.620107,0.9137 0,0 0.592063,1.9064 -0.09868,2.2429 -0.690741,0.3365 -2.269578,0.2244 -2.56561,-0.4485 -0.296031,-0.673 0.592065,-2.6916 0.592065,-2.6916 l -5.723283,-8.972 c 0,0 -1.973545,1.0093 -2.565608,0 -0.592065,-1.0093 -0.986774,-2.8037 -0.296033,-2.8037 0.690741,0 2.664287,0.3365 2.664287,0.3365 0,0 -0.789419,-2.131 -0.09868,-2.3552 0.690741,-0.2243 1.776191,-0.1117 2.368254,0.6729 0.592064,0.7851 -0.09868,2.9159 -0.09867,2.9159 z"
       style="fill:#c8b7b7;stroke:none"
       sodipodi:nodetypes="ccsccscccssccccc" />
    <path
       style="fill:#c8b7b7;stroke:none"
       d="m 10.097566,1040.362 -5.4968999,4.2169 c 0,0 -1.8727132,-1.5932 -2.5987572,-0.7042 -0.7260617,0.8892 -1.18829737,2.7358 -0.5033455,3.543 0.6849518,0.8073 2.4069688,1.3506 3.3780819,0.8471 0.9711308,-0.5035 9.9410227,-8.059 9.9410227,-8.059 l -3.563803,1.1636 0.496724,-1.3857 -0.857966,0.4106 z"
       id="path3173"
       inkscape:connector-curvature="0" />
    <path
       style="fill:#ac9393;stroke:none"
       d="m 13.850637,1042.7542 5.300112,-9.6455 c 0,0 -1.275005,-2.2064 -0.530993,-3.1323 0.743909,-0.9258 0.949436,-1.2559 1.544411,-0.4346 0.595079,0.8214 0.715333,3.0517 0.715333,3.0517 0,0 1.35322,-1.3123 1.877472,-0.7003 0.524252,0.612 0.998752,2.3271 0.552386,2.8827 -0.446468,0.5555 -2.423013,0.3379 -2.423013,0.3379 l -5.314337,9.2913 c 0,0 1.537237,1.7312 0.920756,2.7215 -0.616376,0.9903 -1.948407,2.053 -2.196304,1.3202 -0.247896,-0.7327 -0.679815,-2.9471 -0.679815,-2.9471 0,0 -1.466732,1.6023 -1.89876,0.95 -0.432134,-0.6523 -0.729256,-1.844 -0.297323,-2.7538 0.432244,-0.9098 2.43008,-0.9417 2.43008,-0.9417 z"
       id="path3175"
       inkscape:connector-curvature="0" />
    <path
       style="fill:#999999;stroke:none"
       d="m 25.040375,1042.6951 c 0,0 -4.243123,-4.486 -4.144446,-4.9346 0.09868,-0.4486 -5.525927,4.1495 -5.525927,4.1495 l -0.493386,5.1589 c 0,0 3.651059,2.1308 5.131218,2.1308 1.480159,0 5.131219,-2.9158 5.131219,-2.9158 z"
       id="path3193"
       inkscape:connector-curvature="0" />
    <path
       style="fill:none;stroke:#aa0000;stroke-width:1px;stroke-linecap:butt;stroke-linejoin:miter;stroke-opacity:1"
       d="m 19.821428,1035.9336 c 0,0 -2.678571,0.3572 -2.767857,1.3393 -0.08929,0.9822 0.803572,2.5 1.517857,3.8393 0.714286,1.3393 1.160715,4.7321 0.08929,5.1786 -1.071432,0.4464 -2.767861,0.9821 -3.303575,-0.2679 -0.535715,-1.25 -1.160715,-2.5 0.357143,-2.7678 1.517857,-0.2679 1.696428,1.25 1.696428,1.25"
       id="path9103"
       inkscape:connector-curvature="0" />
    <path
       inkscape:connector-curvature="0"
       id="path9613"
       d="m 19.196428,1035.7551 c 0,0 -2.678571,0.3571 -2.767857,1.3393 -0.08929,0.9821 0.803572,2.5 1.517857,3.8393 0.714286,1.3392 1.160715,4.7321 0.08929,5.1785 -1.071432,0.4465 -2.767861,0.9822 -3.303575,-0.2678 -0.535715,-1.25 -1.160715,-2.5 0.357143,-2.7679 1.517857,-0.2678 1.696428,1.25 1.696428,1.25"
       style="fill:none;stroke:#ff6600;stroke-width:1px;stroke-linecap:butt;stroke-linejoin:miter;stroke-opacity:1" />
    <path
       style="fill:#aa4400;stroke:none"
       d="m 6.6864019,1038.882 c 1.08545,-1.2336 4.7365101,-2.8037 6.1179911,-4.1496 1.381482,-1.3457 2.368255,-5.271 3.947091,-5.6073 1.578837,-0.3365 5.82196,1.7943 6.216668,2.8036 0.39471,1.0094 0.789419,6.2804 0.789419,6.2804 0,0 -0.493386,-1.3458 -1.973545,-1.2336 -1.48016,0.1118 -1.776192,2.6915 -1.776192,2.6915 0,0 -1.08545,-4.9346 -1.776191,-5.1588 -0.690741,-0.2243 -1.776191,1.9065 -4.243123,3.028 -2.466932,1.1214 -5.0325408,4.7103 -5.0325408,4.7103 l -0.8880954,3.3645 c 0,0 0,-2.0187 -0.7894182,-2.6916 -0.7894182,-0.6729 -1.776191,2.8037 -1.776191,2.8037 0,0 0.2960319,-6.0561 1.1841273,-6.8411 z"
       id="path3195"
       inkscape:connector-curvature="0" />
    <path
       inkscape:connector-curvature="0"
       id="path3197"
       d="m 14.407054,1036.6218 c 0,0 2.109354,-4.4072 2.423951,-4.418 0.314706,-0.013 -3.824799,-3.6926 -3.824799,-3.6926 l -3.4910284,0.6514 c 0,0 -0.6776947,3.438 -0.3842521,4.6549 0.2934421,1.2168 2.9350965,3.6208 2.9350965,3.6208 z"
       style="fill:#999999;stroke:none" />
    <path
       inkscape:connector-curvature="0"
       id="path3199"
       d="m 16.62647,1027.8475 6.287669,2.0539 c 0,0 1.112974,-1.1851 1.747313,-0.8314 0.634288,0.3536 0.852638,0.4399 0.454043,0.9612 -0.398573,0.5213 -1.676515,0.9417 -1.676515,0.9417 0,0 0.938105,0.7 0.651704,1.1421 -0.286429,0.4422 -1.219157,1.0197 -1.599745,0.8075 -0.380612,-0.2122 -0.512853,-1.5604 -0.512853,-1.5604 l -6.084032,-2.1173 c 0,0 -0.803163,1.2869 -1.458188,1.0279 -0.654974,-0.2588 -1.445556,-0.9828 -1.052952,-1.2596 0.392605,-0.2767 1.620453,-0.9021 1.620453,-0.9021 0,0 -1.121077,-0.7311 -0.799256,-1.1182 0.321802,-0.387 0.974253,-0.7666 1.558346,-0.6182 0.584249,0.1488 0.864005,1.4729 0.864005,1.4729 z"
       style="fill:#c8b7b7;stroke:none" />
    <path
       sodipodi:type="arc"
       style="fill:#d4ff2a;fill-opacity:1;stroke:none"
       id="path9101"
       sodipodi:cx="16.785715"
       sodipodi:cy="17.892857"
       sodipodi:rx="1.7857143"
       sodipodi:ry="1.7857143"
       d="m 18.571429,17.892857 a 1.7857143,1.7857143 0 1 1 -3.571428,0 1.7857143,1.7857143 0 1 1 3.571428,0 z"
       transform="translate(8.3928571,1023.2193)" />
    <path
       inkscape:connector-curvature="0"
       id="path3201"
       d="m 22.666857,1036.3646 4.029203,5.5872 c 0,0 -0.01809,1.9131 0.915777,2.5005 0.933802,0.5876 1.461197,-0.4174 1.986174,-1.3671 0.525016,-0.9495 1.071038,0.016 1.697884,-1.4302 0.626846,-1.4461 -1.972437,-0.5172 -2.92153,-1.5877 -2.795011,-3.1526 -6.97476,-8.8726 -6.97476,-8.8726 l 1.849941,3.6523 -1.302811,-0.2152 0.556714,0.8479 z"
       style="fill:#ac9393;stroke:none"
       sodipodi:nodetypes="cccczsccccc" />
    <path
       style="fill:#999999;stroke:none"
       d="m 23.011046,1029.8551 c 0,0 1.132919,-1.4712 1.419624,-1.475 0.286804,-0.013 -2.696273,-1.439 -2.696273,-1.439 l -3.181512,0.234 c 0,0 -0.617609,1.2353 -0.350183,1.6725 0.267425,0.4372 2.674869,1.3009 2.674869,1.3009 z"
       id="path3203"
       inkscape:connector-curvature="0"
       sodipodi:nodetypes="ccccscc" />
    <path
       style="fill:#c83737;stroke:none"
       d="m 10.929525,1035.7418 c 0,0 -1.3814821,-3.5888 -1.1841275,-4.9346 0.1973546,-1.3457 -0.3947091,-2.1308 0.4933865,-2.8037 0.888095,-0.6729 2.664286,-1.1215 3.453705,-0.5607 0.789418,0.5607 0.986772,8.0747 0.986772,8.0747 0,0 -1.973545,-2.6916 -2.269577,-2.0187 -0.296031,0.6729 -1.480159,2.243 -1.480159,2.243 z"
       id="path3209"
       inkscape:connector-curvature="0" />
    <path
       style="fill:#ffd42a;stroke:none"
       d="m 18.537543,1022.2334 c -0.147514,-0.013 -0.291098,0.013 -0.414444,0.039 -0.986774,0.2243 -2.457064,1.3402 -2.555742,2.2373 -0.09868,0.8972 0.310834,2.4673 1.001575,2.3552 0.69074,-0.1118 2.072222,0.118 2.072222,0.118 l 0.483519,1.3738 2.555741,-0.1181 c 0,0 0.893026,-3.2635 0.103612,-4.1607 -0.690746,-0.7851 -2.21388,-1.7661 -3.246483,-1.8449 z m 2.313982,2.3944 c 0.354237,0 0.621667,0.3432 0.621667,0.7457 0,0.4027 -0.26743,0.7066 -0.621667,0.7066 -0.354236,0 -0.656204,-0.3039 -0.656204,-0.7066 0,-0.4025 0.301968,-0.7457 0.656204,-0.7457 z m -1.865,0.1181 c 0.354236,0 0.621667,0.3433 0.621667,0.7458 0,0.4026 -0.267431,0.7066 -0.621667,0.7066 -0.354236,0 -0.656204,-0.304 -0.656204,-0.7066 0,-0.4025 0.301968,-0.7458 0.656204,-0.7458 z"
       id="path3211"
       inkscape:connector-curvature="0" />
    <path
       style="fill:#ccff00;stroke:none"
       d="m 23.861607,19.522321 c 0,0 -0.446428,0.535715 -0.446428,1.004465 0,0.46875 0.06696,0.825893 -0.08929,1.09375 -0.15625,0.267857 -0.736607,0.691964 -0.669643,0.825893 0.06696,0.133928 0.714286,-0.133929 1.138393,-0.111608 0.424107,0.02232 1.651786,0.267858 1.875,0.06696 0.223214,-0.200893 -1.808036,-2.879465 -1.808032,-2.879465 z"
       id="path9634"
       inkscape:connector-curvature="0"
       transform="translate(0,1020.3622)"
       sodipodi:nodetypes="csscssc" />
  </g>
</svg>
