<?xml version="1.0" encoding="UTF-8" standalone="no"?>
<!-- Created with Inkscape (http://www.inkscape.org/) -->

<svg
   xmlns:dc="http://purl.org/dc/elements/1.1/"
   xmlns:cc="http://creativecommons.org/ns#"
   xmlns:rdf="http://www.w3.org/1999/02/22-rdf-syntax-ns#"
   xmlns:svg="http://www.w3.org/2000/svg"
   xmlns="http://www.w3.org/2000/svg"
   xmlns:sodipodi="http://sodipodi.sourceforge.net/DTD/sodipodi-0.dtd"
   xmlns:inkscape="http://www.inkscape.org/namespaces/inkscape"
   width="32"
   height="32"
   id="svg3946"
   version="1.1"
   inkscape:version="0.48.2 r9819"
   sodipodi:docname="New document 9">
  <defs
     id="defs3948" />
  <sodipodi:namedview
     id="base"
     pagecolor="#ffffff"
     bordercolor="#666666"
     borderopacity="1.0"
     inkscape:pageopacity="0.0"
     inkscape:pageshadow="2"
     inkscape:zoom="11.2"
     inkscape:cx="14.926094"
     inkscape:cy="11.007298"
     inkscape:document-units="px"
     inkscape:current-layer="layer1"
     showgrid="true"
     inkscape:window-width="1280"
     inkscape:window-height="716"
     inkscape:window-x="0"
     inkscape:window-y="0"
     inkscape:window-maximized="1">
    <inkscape:grid
       type="xygrid"
       id="grid3956"
       empspacing="8"
       visible="true"
       enabled="true"
       snapvisiblegridlinesonly="true"
       spacingx="2px"
       spacingy="2px" />
  </sodipodi:namedview>
  <metadata
     id="metadata3951">
    <rdf:RDF>
      <cc:Work
         rdf:about="">
        <dc:format>image/svg+xml</dc:format>
        <dc:type
           rdf:resource="http://purl.org/dc/dcmitype/StillImage" />
        <dc:title></dc:title>
      </cc:Work>
    </rdf:RDF>
  </metadata>
  <g
     inkscape:label="Layer 1"
     inkscape:groupmode="layer"
     id="layer1"
     transform="translate(0,-1020.3622)">
    <rect
       style="fill:#4d4d4d;stroke:none"
       id="rect3954"
       width="32"
       height="32"
       x="0"
       y="1020.3622" />
    <path
       style="fill:#1a1a1a;stroke:none;stroke-width:1px;stroke-linecap:butt;stroke-linejoin:miter;stroke-opacity:1"
       d="M 4,32 4,8 C 4,8 6,0 16,0 26,0 28,8 28,8 l 0,24 0,0"
       id="path3958"
       inkscape:connector-curvature="0"
       transform="translate(0,1020.3622)" />
    <path
       transform="translate(0,1020.3622)"
       inkscape:connector-curvature="0"
       id="path3960"
       d="M 6,32 6,8 C 6,8 8,2 16,2 24,2 26,8 26,8 l 0,24 0,0"
       style="fill:#552200;stroke:none"
       sodipodi:nodetypes="ccsccc" />
    <path
       style="fill:#333333;stroke:#1a1a1a;stroke-width:1px;stroke-linecap:butt;stroke-linejoin:miter;stroke-opacity:1"
       d="m 22,2 0,30"
       id="path3966"
       inkscape:connector-curvature="0"
       transform="translate(0,1020.3622)" />
    <path
       style="fill:none;stroke:#1a1a1a;stroke-width:1px;stroke-linecap:butt;stroke-linejoin:miter;stroke-opacity:1"
       d="m 18,2 0,30"
       id="path3968"
       inkscape:connector-curvature="0"
       transform="translate(0,1020.3622)" />
    <path
       style="fill:none;stroke:#1a1a1a;stroke-width:1px;stroke-linecap:butt;stroke-linejoin:miter;stroke-opacity:1"
       d="m 14,2 0,30"
       id="path3970"
       inkscape:connector-curvature="0"
       transform="translate(0,1020.3622)" />
    <path
       style="fill:none;stroke:#1a1a1a;stroke-width:1px;stroke-linecap:butt;stroke-linejoin:miter;stroke-opacity:1"
       d="m 10,2 0,30"
       id="path3972"
       inkscape:connector-curvature="0"
       transform="translate(0,1020.3622)"
       sodipodi:nodetypes="cc" />
    <path
       style="fill:#000000;stroke:#d4aa00;stroke-width:1.5;stroke-linecap:butt;stroke-linejoin:miter;stroke-opacity:1;stroke-miterlimit:4;stroke-dasharray:none"
       d="m 20,24 -8,0 2,-6 c 0,0 -2,-2 -2,-4 0,-2 2,-4 4,-4 2,0 4,2 4,4 0,2 -2,4 -2,4 z"
       id="path3964"
       inkscape:connector-curvature="0"
       transform="translate(0,1020.3622)" />
  </g>
</svg>
