<?xml version="1.0" encoding="UTF-8" standalone="no"?>
<!-- Created with Inkscape (http://www.inkscape.org/) -->

<svg
   xmlns:dc="http://purl.org/dc/elements/1.1/"
   xmlns:cc="http://creativecommons.org/ns#"
   xmlns:rdf="http://www.w3.org/1999/02/22-rdf-syntax-ns#"
   xmlns:svg="http://www.w3.org/2000/svg"
   xmlns="http://www.w3.org/2000/svg"
   xmlns:sodipodi="http://sodipodi.sourceforge.net/DTD/sodipodi-0.dtd"
   xmlns:inkscape="http://www.inkscape.org/namespaces/inkscape"
   width="32"
   height="32"
   id="svg3664"
   version="1.1"
   inkscape:version="0.48.2 r9819"
   sodipodi:docname="heart-hurt3.svg"
   inkscape:export-filename="/Users/e0/Dropbox/Iamagamer2013/art/heart-hurt3.png"
   inkscape:export-xdpi="90"
   inkscape:export-ydpi="90">
  <defs
     id="defs3666" />
  <sodipodi:namedview
     id="base"
     pagecolor="#ffffff"
     bordercolor="#666666"
     borderopacity="1.0"
     inkscape:pageopacity="0.0"
     inkscape:pageshadow="2"
     inkscape:zoom="11.313709"
     inkscape:cx="-1.697288"
     inkscape:cy="16.668789"
     inkscape:document-units="px"
     inkscape:current-layer="layer1"
     showgrid="true"
     inkscape:snap-global="false"
     inkscape:window-width="1280"
     inkscape:window-height="716"
     inkscape:window-x="0"
     inkscape:window-y="0"
     inkscape:window-maximized="0">
    <inkscape:grid
       type="xygrid"
       id="grid3672"
       empspacing="8"
       visible="true"
       enabled="true"
       snapvisiblegridlinesonly="true"
       spacingx="2px"
       spacingy="2px" />
  </sodipodi:namedview>
  <metadata
     id="metadata3669">
    <rdf:RDF>
      <cc:Work
         rdf:about="">
        <dc:format>image/svg+xml</dc:format>
        <dc:type
           rdf:resource="http://purl.org/dc/dcmitype/StillImage" />
        <dc:title></dc:title>
      </cc:Work>
    </rdf:RDF>
  </metadata>
  <g
     inkscape:label="Layer 1"
     inkscape:groupmode="layer"
     id="layer1"
     transform="translate(0,-1020.3622)">
    <path
       style="fill:#d40000;stroke:none"
       d="M 8 0 C 6.1643019 -7.4380343e-16 4.4749967 0.61656637 3.125 1.65625 L 7.96875 4.25 L 7.875 7 L 0.53125 5.1875 C 0.20205923 6.0631021 0 7.0093393 0 8 C 0 8.25 0.0084228523 8.5037231 0.03125 8.75 C 0.04392291 8.8852175 0.074430917 9.0230733 0.09375 9.15625 C 0.11224791 9.2845522 0.13190497 9.4038402 0.15625 9.53125 C 0.18299026 9.6698858 0.21620156 9.8015137 0.25 9.9375 C 0.27008072 10.021078 0.290014 10.104268 0.3125 10.1875 C 0.33065473 10.251491 0.35530315 10.311673 0.375 10.375 C 0.42657517 10.551299 0.46935148 10.731351 0.53125 10.90625 C 0.55955771 10.979086 0.59463835 11.053217 0.625 11.125 C 2.1585659 15.172025 6.3646004 18.870459 10.15625 23.15625 L 10.78125 22.1875 L 12.09375 22.375 L 13.25 25.8125 L 14.0625 27.21875 L 13.96875 28.15625 C 14.748862 29.374113 15.46078 30.651949 16 32 C 19.461475 23.346311 28.892571 17.67604 31.375 11.125 C 31.405362 11.053217 31.440442 10.979086 31.46875 10.90625 C 31.530649 10.731351 31.573425 10.551299 31.625 10.375 C 31.644697 10.311673 31.669345 10.251491 31.6875 10.1875 C 31.746354 9.9696528 31.801656 9.7515489 31.84375 9.53125 C 31.84783 9.5100946 31.871087 9.4899644 31.875 9.46875 C 31.963867 8.9829102 32 8.5 32 8 C 32 3.5817221 28.418278 -2.3684758e-15 24 0 C 19.581722 1.7763568e-15 16 3.5817221 16 8 C 16 3.5817221 12.418278 7.6975463e-15 8 0 z M 23.59375 6.8125 L 25.90625 10.96875 L 21.84375 12.46875 L 21.3125 8.75 L 23.59375 6.8125 z M 9.90625 8.9375 L 13.15625 10.6875 L 14.84375 10.875 L 14.75 12.375 L 13.25 14.15625 L 13.625 16.1875 L 10.875 14.9375 L 11.84375 12.90625 L 9.09375 11.3125 L 9.90625 8.9375 z "
       transform="translate(0,1020.3622)"
       id="path3674" />
    <path
       style="fill:none;stroke:#000000;stroke-width:0.5;stroke-linecap:butt;stroke-linejoin:miter;stroke-miterlimit:4;stroke-opacity:1;stroke-dasharray:none"
       d="M 3.0606602,1.6464466 8,4 7.6464466,7.5251263 12,10 c 0,0 0.883883,0.850951 2.883883,0.850951 C 15.823223,12.265165 18,14 18,14"
       id="path3701"
       inkscape:connector-curvature="0"
       transform="translate(0,1020.3622)"
       sodipodi:nodetypes="cccccc" />
    <path
       style="fill:none;stroke:#000000;stroke-width:0.5;stroke-linecap:butt;stroke-linejoin:miter;stroke-opacity:1;stroke-miterlimit:4;stroke-dasharray:none"
       d="m 9.9878833,9.0190297 -0.8838835,2.3864853 2.9168152,1.502602 -2.2980968,3.800699 0.2651651,3.447145"
       id="path4471"
       inkscape:connector-curvature="0"
       transform="translate(0,1020.3622)" />
    <path
       style="fill:none;stroke:#000000;stroke-width:0.5;stroke-linecap:butt;stroke-linejoin:miter;stroke-miterlimit:4;stroke-opacity:1;stroke-dasharray:none"
       d="m 10.606602,14.675884 3.093592,1.59099 0,1.414214 2.032932,1.06066"
       id="path4473"
       inkscape:connector-curvature="0"
       transform="translate(0,1020.3622)"
       sodipodi:nodetypes="cccc" />
    <path
       style="fill:none;stroke:#000000;stroke-width:0.5;stroke-linecap:butt;stroke-linejoin:miter;stroke-opacity:1;stroke-miterlimit:4;stroke-dasharray:none"
       d="M 28.107494,1.2408551 27.488776,5.8370492 23.864854,6.1906025 21.38998,8.4003112 21.831922,12.554564"
       id="path4513"
       inkscape:connector-curvature="0"
       transform="translate(0,1020.3622)" />
    <path
       style="fill:none;stroke:#000000;stroke-width:0.5;stroke-linecap:butt;stroke-linejoin:miter;stroke-miterlimit:4;stroke-opacity:1;stroke-dasharray:none"
       d="m 23.246135,6.4557676 2.828427,4.5078054 -0.883883,4.684583 -4.242641,1.767767"
       id="path4515"
       inkscape:connector-curvature="0"
       transform="translate(0,1020.3622)"
       sodipodi:nodetypes="cccc" />
  </g>
</svg>
