<?xml version="1.0" encoding="UTF-8" standalone="no"?>
<!-- Created with Inkscape (http://www.inkscape.org/) -->

<svg
   xmlns:dc="http://purl.org/dc/elements/1.1/"
   xmlns:cc="http://creativecommons.org/ns#"
   xmlns:rdf="http://www.w3.org/1999/02/22-rdf-syntax-ns#"
   xmlns:svg="http://www.w3.org/2000/svg"
   xmlns="http://www.w3.org/2000/svg"
   xmlns:sodipodi="http://sodipodi.sourceforge.net/DTD/sodipodi-0.dtd"
   xmlns:inkscape="http://www.inkscape.org/namespaces/inkscape"
   width="32"
   height="32"
   id="svg3664"
   version="1.1"
   inkscape:version="0.48.2 r9819"
   sodipodi:docname="heart-hurt2.svg"
   inkscape:export-filename="/Users/e0/Dropbox/Iamagamer2013/art/heart-hurt2.png"
   inkscape:export-xdpi="90"
   inkscape:export-ydpi="90">
  <defs
     id="defs3666" />
  <sodipodi:namedview
     id="base"
     pagecolor="#ffffff"
     bordercolor="#666666"
     borderopacity="1.0"
     inkscape:pageopacity="0.0"
     inkscape:pageshadow="2"
     inkscape:zoom="11.313709"
     inkscape:cx="-1.697288"
     inkscape:cy="16.629774"
     inkscape:document-units="px"
     inkscape:current-layer="layer1"
     showgrid="true"
     inkscape:snap-global="false"
     inkscape:window-width="1280"
     inkscape:window-height="716"
     inkscape:window-x="0"
     inkscape:window-y="0"
     inkscape:window-maximized="0">
    <inkscape:grid
       type="xygrid"
       id="grid3672"
       empspacing="8"
       visible="true"
       enabled="true"
       snapvisiblegridlinesonly="true"
       spacingx="2px"
       spacingy="2px" />
  </sodipodi:namedview>
  <metadata
     id="metadata3669">
    <rdf:RDF>
      <cc:Work
         rdf:about="">
        <dc:format>image/svg+xml</dc:format>
        <dc:type
           rdf:resource="http://purl.org/dc/dcmitype/StillImage" />
        <dc:title></dc:title>
      </cc:Work>
    </rdf:RDF>
  </metadata>
  <g
     inkscape:label="Layer 1"
     inkscape:groupmode="layer"
     id="layer1"
     transform="translate(0,-1020.3622)">
    <path
       sodipodi:type="arc"
       style="fill:#d40000;stroke:none"
       id="path3674"
       sodipodi:cx="23.997437"
       sodipodi:cy="8.0025635"
       sodipodi:rx="7.9107571"
       sodipodi:ry="7.9107571"
       d="m 31.908194,8.0025635 c 0,4.3689905 -3.541767,7.9107575 -7.910757,7.9107575 -4.368991,0 -7.910758,-3.541767 -7.910758,-7.9107575 0,-4.3689905 3.541767,-7.91075709 7.910758,-7.91075709 4.36899,0 7.910757,3.54176659 7.910757,7.91075709 z"
       transform="matrix(1.0112812,0,0,1.0112812,-0.26815672,1020.2694)" />
    <path
       style="fill:#d40000;stroke:none"
       d="M 32,8 C 32,16 20,22 16,32 L 16,8 z"
       id="path3676"
       inkscape:connector-curvature="0"
       transform="translate(0,1020.3622)"
       sodipodi:nodetypes="cccc" />
    <path
       transform="matrix(-1.0112812,0,0,1.0112812,32.268156,1020.2694)"
       d="m 31.908194,8.0025635 c 0,4.3689905 -3.541767,7.9107575 -7.910757,7.9107575 -4.368991,0 -7.910758,-3.541767 -7.910758,-7.9107575 0,-4.3689905 3.541767,-7.91075709 7.910758,-7.91075709 4.36899,0 7.910757,3.54176659 7.910757,7.91075709 z"
       sodipodi:ry="7.9107571"
       sodipodi:rx="7.9107571"
       sodipodi:cy="8.0025635"
       sodipodi:cx="23.997437"
       id="path3678"
       style="fill:#d40000;stroke:none"
       sodipodi:type="arc" />
    <path
       sodipodi:nodetypes="cccc"
       inkscape:connector-curvature="0"
       id="path3680"
       d="m -5.956543e-7,1028.3622 c 0,8 11.9999995956543,14 15.9999995956543,24 l 0,-24 z"
       style="fill:#d40000;stroke:none" />
    <path
       style="fill:none;stroke:#000000;stroke-width:0.5;stroke-linecap:butt;stroke-linejoin:miter;stroke-miterlimit:4;stroke-opacity:1;stroke-dasharray:none"
       d="M 3.0606602,1.6464466 8,4 7.6464466,7.5251263 12,10 c 0,0 0.883883,0.850951 2.883883,0.850951 C 15.823223,12.265165 18,14 18,14"
       id="path3701"
       inkscape:connector-curvature="0"
       transform="translate(0,1020.3622)"
       sodipodi:nodetypes="cccccc" />
    <path
       style="fill:none;stroke:#000000;stroke-width:0.5;stroke-linecap:butt;stroke-linejoin:miter;stroke-opacity:1;stroke-miterlimit:4;stroke-dasharray:none"
       d="m 9.9878833,9.0190297 -0.8838835,2.3864853 2.9168152,1.502602 -2.2980968,3.800699 0.2651651,3.447145"
       id="path4471"
       inkscape:connector-curvature="0"
       transform="translate(0,1020.3622)" />
    <path
       style="fill:none;stroke:#000000;stroke-width:0.5;stroke-linecap:butt;stroke-linejoin:miter;stroke-miterlimit:4;stroke-opacity:1;stroke-dasharray:none"
       d="m 10.606602,14.675884 3.093592,1.59099 0,1.414214 2.032932,1.06066"
       id="path4473"
       inkscape:connector-curvature="0"
       transform="translate(0,1020.3622)"
       sodipodi:nodetypes="cccc" />
    <path
       style="fill:none;stroke:#000000;stroke-width:0.5;stroke-linecap:butt;stroke-linejoin:miter;stroke-opacity:1;stroke-miterlimit:4;stroke-dasharray:none"
       d="M 28.107494,1.2408551 27.488776,5.8370492 23.864854,6.1906025 21.38998,8.4003112 21.831922,12.554564"
       id="path4513"
       inkscape:connector-curvature="0"
       transform="translate(0,1020.3622)" />
    <path
       style="fill:none;stroke:#000000;stroke-width:0.5;stroke-linecap:butt;stroke-linejoin:miter;stroke-miterlimit:4;stroke-opacity:1;stroke-dasharray:none"
       d="m 23.246135,6.4557676 2.828427,4.5078054 -0.883883,4.684583 -4.242641,1.767767"
       id="path4515"
       inkscape:connector-curvature="0"
       transform="translate(0,1020.3622)"
       sodipodi:nodetypes="cccc" />
  </g>
</svg>
