<?xml version="1.0" encoding="UTF-8" standalone="no"?>
<!-- Created with Inkscape (http://www.inkscape.org/) -->

<svg
   xmlns:dc="http://purl.org/dc/elements/1.1/"
   xmlns:cc="http://creativecommons.org/ns#"
   xmlns:rdf="http://www.w3.org/1999/02/22-rdf-syntax-ns#"
   xmlns:svg="http://www.w3.org/2000/svg"
   xmlns="http://www.w3.org/2000/svg"
   xmlns:sodipodi="http://sodipodi.sourceforge.net/DTD/sodipodi-0.dtd"
   xmlns:inkscape="http://www.inkscape.org/namespaces/inkscape"
   width="32"
   height="32"
   id="svg3664"
   version="1.1"
   inkscape:version="0.48.2 r9819"
   sodipodi:docname="heart-broken.svg"
   inkscape:export-filename="/Users/e0/Dropbox/Iamagamer2013/art/heart-broken.png"
   inkscape:export-xdpi="90"
   inkscape:export-ydpi="90">
  <defs
     id="defs3666" />
  <sodipodi:namedview
     id="base"
     pagecolor="#ffffff"
     bordercolor="#666666"
     borderopacity="1.0"
     inkscape:pageopacity="0.0"
     inkscape:pageshadow="2"
     inkscape:zoom="11.313709"
     inkscape:cx="-1.697288"
     inkscape:cy="16.668789"
     inkscape:document-units="px"
     inkscape:current-layer="layer1"
     showgrid="true"
     inkscape:snap-global="false"
     inkscape:window-width="1280"
     inkscape:window-height="716"
     inkscape:window-x="6"
     inkscape:window-y="5"
     inkscape:window-maximized="1">
    <inkscape:grid
       type="xygrid"
       id="grid3672"
       empspacing="8"
       visible="true"
       enabled="true"
       snapvisiblegridlinesonly="true"
       spacingx="2px"
       spacingy="2px" />
  </sodipodi:namedview>
  <metadata
     id="metadata3669">
    <rdf:RDF>
      <cc:Work
         rdf:about="">
        <dc:format>image/svg+xml</dc:format>
        <dc:type
           rdf:resource="http://purl.org/dc/dcmitype/StillImage" />
        <dc:title></dc:title>
      </cc:Work>
    </rdf:RDF>
  </metadata>
  <g
     inkscape:label="Layer 1"
     inkscape:groupmode="layer"
     id="layer1"
     transform="translate(0,-1020.3622)">
    <path
       style="fill:#d40000;stroke:none"
       d="m 16.279003,1035.1218 c 0,0 2.19266,-2.3924 3.985576,-3.1657 1.792915,-0.7733 8.718223,0.4927 10.121406,4.7765 1.403183,4.2839 1.708712,4.6489 1.708712,4.6489 l -1.978295,-1.2121 -1.288943,0.6082 -6.169323,-1.5136 -1.212048,-3.4163 z"
       id="path4577"
       inkscape:connector-curvature="0" />
    <path
       style="fill:#d40000;stroke:none"
       d="m 0.33180206,1041.6096 4.30333904,-0.5562 1.11733,3.4756 2.653393,2.1006 4.0297359,-1.0437 2.208963,3.536 -2.50478,3.361 -3.4985029,-0.4083 c 0,0 -1.763139,1.5985 -5.8151,-1.2236 -4.051961,-2.8221 -2.49437804,-9.2414 -2.49437804,-9.2414 z"
       id="path4579"
       inkscape:connector-curvature="0" />
    <path
       style="fill:#d40000;stroke:none"
       d="m 16.527916,1052.5307 c 0,0 3.524751,-3.3943 6.597842,-4.452 3.073091,-1.0576 8.823996,-3.1691 8.823996,-3.1691 l -0.11013,-3.2009 -4.822665,0.01 -3.386976,1.2978 -1.919953,-2.3136 -1.441375,-1.8835 0.658893,-1.3504 -1.681642,-2.1973 -1.689623,1.0441 -1.358506,2.5828 -0.449706,2.5342 1.154705,0.8585 -0.434382,4.1154 0.486218,1.2207 -0.825452,0.4824 z"
       id="path4581"
       inkscape:connector-curvature="0" />
    <path
       style="fill:#d40000;stroke:none"
       d="m 1.2799181,1033.8864 7.0109996,-0.3215 0.2894703,0.5539 2.667345,0.6514 -0.04828,1.9856 3.089121,0.7834 -0.704468,4.3736 1.884071,3.7403 0.770076,0.8528 -0.09278,1.064 -9.1701501,-4.728 c 0,0 -2.7952183,-1.5434 -4.4042357,-3.9747 -1.60901306,-2.4312 -1.2912487,-4.9808 -1.2912487,-4.9808 z"
       id="path4583"
       inkscape:connector-curvature="0" />
  </g>
</svg>
