<?xml version="1.0" encoding="UTF-8" standalone="no"?>
<!-- Created with Inkscape (http://www.inkscape.org/) -->

<svg
   xmlns:dc="http://purl.org/dc/elements/1.1/"
   xmlns:cc="http://creativecommons.org/ns#"
   xmlns:rdf="http://www.w3.org/1999/02/22-rdf-syntax-ns#"
   xmlns:svg="http://www.w3.org/2000/svg"
   xmlns="http://www.w3.org/2000/svg"
   xmlns:sodipodi="http://sodipodi.sourceforge.net/DTD/sodipodi-0.dtd"
   xmlns:inkscape="http://www.inkscape.org/namespaces/inkscape"
   width="32"
   height="32"
   id="svg3852"
   version="1.1"
   inkscape:version="0.48.4 r9939"
   sodipodi:docname="hide.svg"
   inkscape:export-filename="C:\Users\colin\Dropbox\Iamagamer2013\art\hide.png"
   inkscape:export-xdpi="90"
   inkscape:export-ydpi="90">
  <defs
     id="defs3854" />
  <sodipodi:namedview
     id="base"
     pagecolor="#ffffff"
     bordercolor="#666666"
     borderopacity="1.0"
     inkscape:pageopacity="0.0"
     inkscape:pageshadow="2"
     inkscape:zoom="15.839192"
     inkscape:cx="18.513665"
     inkscape:cy="18.065528"
     inkscape:document-units="px"
     inkscape:current-layer="layer1"
     showgrid="true"
     inkscape:snap-global="false"
     inkscape:window-width="1218"
     inkscape:window-height="778"
     inkscape:window-x="54"
     inkscape:window-y="-8"
     inkscape:window-maximized="1">
    <inkscape:grid
       type="xygrid"
       id="grid3118" />
  </sodipodi:namedview>
  <metadata
     id="metadata3857">
    <rdf:RDF>
      <cc:Work
         rdf:about="">
        <dc:format>image/svg+xml</dc:format>
        <dc:type
           rdf:resource="http://purl.org/dc/dcmitype/StillImage" />
        <dc:title />
      </cc:Work>
    </rdf:RDF>
  </metadata>
  <g
     inkscape:label="Layer 1"
     inkscape:groupmode="layer"
     id="layer1"
     transform="translate(0,-1020.3622)">
    <path
       style="fill:#803300;fill-opacity:1;stroke:none"
       d="m 12.402168,1045.5294 c 2.041777,-0.4448 1.89534,3.1869 4.868979,3.3237 3.111766,0.1431 3.281544,-3.6025 5.409368,-2.8039 2.127822,0.7986 3.729819,5.4726 5.565395,4.542 1.835576,-0.9306 0.421797,-4.5249 -0.442818,-7.9717 -0.864616,-3.4466 -0.847579,-7.5393 -1.387543,-10.5952 -0.539963,-3.0559 1.481918,-6.2776 0.124531,-6.8947 -1.357386,-0.617 -3.056227,1.1866 -5.543877,2.1089 -2.48765,0.9225 -4.851245,0.8659 -7.905739,-0.3814 -3.054493,-1.2469 -3.6676697,-2.5582 -5.1850759,-1.8438 -1.5174063,0.7146 0.4064075,3.2048 -0.023904,6.2359 -0.4303117,3.0315 -1.5273952,9.1791 -2.6556575,13.8745 -0.634124,2.6385 -1.6608268,4.7794 0.4421708,5.3913 2.1029976,0.6118 3.7455142,-4.3591 6.7341708,-4.9856 z"
       id="path3860"
       inkscape:connector-curvature="0"
       sodipodi:nodetypes="cszzzzzzzzzszc" />
    <text
       xml:space="preserve"
       style="font-size:10px;font-style:normal;font-variant:normal;font-weight:normal;font-stretch:normal;line-height:125%;letter-spacing:0px;word-spacing:0px;fill:#ffff00;fill-opacity:1;stroke:none;font-family:Georgia;-inkscape-font-specification:Georgia"
       x="1.5152287"
       y="1027.9923"
       id="text3120"
       sodipodi:linespacing="125%"><tspan
         sodipodi:role="line"
         id="tspan3122"
         x="1.5152287"
         y="1027.9923">2</tspan></text>
  </g>
</svg>
