<?xml version="1.0" encoding="UTF-8" standalone="no"?>
<!-- Created with Inkscape (http://www.inkscape.org/) -->

<svg
   xmlns:dc="http://purl.org/dc/elements/1.1/"
   xmlns:cc="http://creativecommons.org/ns#"
   xmlns:rdf="http://www.w3.org/1999/02/22-rdf-syntax-ns#"
   xmlns:svg="http://www.w3.org/2000/svg"
   xmlns="http://www.w3.org/2000/svg"
   xmlns:sodipodi="http://sodipodi.sourceforge.net/DTD/sodipodi-0.dtd"
   xmlns:inkscape="http://www.inkscape.org/namespaces/inkscape"
   width="32"
   height="32"
   id="svg6962"
   version="1.1"
   inkscape:version="0.48.2 r9819"
   sodipodi:docname="key.svg"
   inkscape:export-filename="/Users/e0/Dropbox/Iamagamer2013/art/key.png"
   inkscape:export-xdpi="90"
   inkscape:export-ydpi="90">
  <defs
     id="defs6964" />
  <sodipodi:namedview
     id="base"
     pagecolor="#ffffff"
     bordercolor="#666666"
     borderopacity="1.0"
     inkscape:pageopacity="0.0"
     inkscape:pageshadow="2"
     inkscape:zoom="11.2"
     inkscape:cx="25.680565"
     inkscape:cy="9.9406689"
     inkscape:document-units="px"
     inkscape:current-layer="layer1"
     showgrid="false"
     inkscape:window-width="1280"
     inkscape:window-height="716"
     inkscape:window-x="0"
     inkscape:window-y="0"
     inkscape:window-maximized="1" />
  <metadata
     id="metadata6967">
    <rdf:RDF>
      <cc:Work
         rdf:about="">
        <dc:format>image/svg+xml</dc:format>
        <dc:type
           rdf:resource="http://purl.org/dc/dcmitype/StillImage" />
        <dc:title></dc:title>
      </cc:Work>
    </rdf:RDF>
  </metadata>
  <g
     inkscape:label="Layer 1"
     inkscape:groupmode="layer"
     id="layer1"
     transform="translate(0,-1020.3622)">
    <path
       style="fill:#d4aa00;fill-opacity:1;stroke:none"
       d="m 29.1862,1024.3826 c -2.738785,-3.5857 -7.543504,-4.5015 -10.737318,-2.062 -3.193734,2.4395 -3.574263,7.3158 -0.835478,10.9015 2.738786,3.5857 7.562473,4.5263 10.756208,2.0869 3.193813,-2.4395 3.555373,-7.3407 0.816588,-10.9264 z m -2.706981,2.0676 c 1.509451,1.9762 1.356771,4.6262 -0.347936,5.9283 -1.704629,1.302 -4.301526,0.7522 -5.810977,-1.224 -1.509451,-1.9762 -1.356692,-4.6262 0.347936,-5.9283 1.704708,-1.302 4.301526,-0.7522 5.810977,1.224 z"
       id="path6970"
       inkscape:connector-curvature="0" />
    <rect
       style="fill:#d4aa00;fill-opacity:1;stroke:none"
       id="rect6975"
       width="2.6785715"
       height="20.625"
       x="830.50568"
       y="612.4588"
       transform="matrix(0.60700445,0.79469843,-0.79469843,0.60700445,0,0)" />
    <rect
       style="fill:#d4aa00;fill-opacity:1;stroke:none"
       id="rect6977"
       width="6.4285712"
       height="2.4107144"
       x="832.6485"
       y="630.6731"
       transform="matrix(0.60700445,0.79469843,-0.79469843,0.60700445,0,0)" />
    <rect
       style="fill:#d4aa00;fill-opacity:1;stroke:none"
       id="rect6979"
       width="3.4821429"
       height="2.4107144"
       x="832.6485"
       y="625.94092"
       transform="matrix(0.60700445,0.79469843,-0.79469843,0.60700445,0,0)" />
    <rect
       style="fill:#d4aa00;fill-opacity:1;stroke:none"
       id="rect6981"
       width="6.4285712"
       height="2.6785715"
       x="832.82709"
       y="621.65521"
       transform="matrix(0.60700445,0.79469843,-0.79469843,0.60700445,0,0)" />
  </g>
</svg>
