<?xml version="1.0" encoding="UTF-8" standalone="no"?>
<!-- Created with Inkscape (http://www.inkscape.org/) -->

<svg
   xmlns:dc="http://purl.org/dc/elements/1.1/"
   xmlns:cc="http://creativecommons.org/ns#"
   xmlns:rdf="http://www.w3.org/1999/02/22-rdf-syntax-ns#"
   xmlns:svg="http://www.w3.org/2000/svg"
   xmlns="http://www.w3.org/2000/svg"
   xmlns:sodipodi="http://sodipodi.sourceforge.net/DTD/sodipodi-0.dtd"
   xmlns:inkscape="http://www.inkscape.org/namespaces/inkscape"
   width="32"
   height="32"
   id="svg7704"
   version="1.1"
   inkscape:version="0.48.2 r9819"
   sodipodi:docname="New document 64">
  <defs
     id="defs7706" />
  <sodipodi:namedview
     id="base"
     pagecolor="#ffffff"
     bordercolor="#666666"
     borderopacity="1.0"
     inkscape:pageopacity="0.0"
     inkscape:pageshadow="2"
     inkscape:zoom="15.839192"
     inkscape:cx="20.754327"
     inkscape:cy="12.640462"
     inkscape:document-units="px"
     inkscape:current-layer="layer1"
     showgrid="false"
     inkscape:window-width="1280"
     inkscape:window-height="716"
     inkscape:window-x="0"
     inkscape:window-y="0"
     inkscape:window-maximized="1" />
  <metadata
     id="metadata7709">
    <rdf:RDF>
      <cc:Work
         rdf:about="">
        <dc:format>image/svg+xml</dc:format>
        <dc:type
           rdf:resource="http://purl.org/dc/dcmitype/StillImage" />
        <dc:title></dc:title>
      </cc:Work>
    </rdf:RDF>
  </metadata>
  <g
     inkscape:label="Layer 1"
     inkscape:groupmode="layer"
     id="layer1"
     transform="translate(0,-1020.3622)">
    <path
       style="fill:#808000;stroke:none"
       d="m 17.740804,5.167823 c 0,0 2.020305,-1.8940361 2.904189,-2.5253814 0.883883,-0.6313454 5.240166,-1.8309015 6.944798,-0.1894036 1.704633,1.6414979 3.346131,4.5456864 2.020306,5.9977807 -1.325826,1.4520943 -5.555839,4.3562833 -5.934647,5.0507623 -0.378807,0.69448 -1.388959,2.651651 -3.030457,4.419418 -1.641498,1.767767 -5.63258,4.47043 -7.260472,4.861359 -1.627892,0.39093 -3.7619555,1.951742 -4.1690163,1.620166 -0.9645672,-0.7857 -1.8287642,-0.469027 -1.8287642,-0.736283 0,-0.505076 0.7983121,-2.30962 1.9571705,-4.230013 1.158859,-1.920392 5.618974,-5.492705 7.197337,-6.313454 1.578363,-0.820749 2.020305,-0.189399 4.73509,-1.894036 2.714785,-1.7046322 6.060915,-3.2829955 6.12405,-4.3562826 0.06313,-1.0732871 -0.441942,-3.3461303 -2.209709,-3.3461303 -1.767767,0 -4.545686,0.5682108 -5.682108,1.0101525 -1.136422,0.4419418 -1.767767,0.6313454 -1.767767,0.6313454 z"
       id="path7712"
       inkscape:connector-curvature="0"
       transform="translate(0,1020.3622)"
       sodipodi:nodetypes="cssssszsszsssssc" />
    <path
       style="fill:#808000;stroke:none"
       d="m 17.965333,1033.9792 c 0,0 0.820387,-3.0285 0.568211,-3.6618 -0.20106,-0.5049 -3.598669,-1.5152 -3.598669,-1.5152 0,0 -1.199556,-0.1263 -1.262691,0.1263 -0.06313,0.2525 -0.182928,0.8523 0.505077,1.0101 0.844744,0.1937 2.28853,0.6546 2.777919,1.389 0.100769,0.8641 -0.04427,2.0485 -0.631345,3.7249 z"
       id="path7718"
       inkscape:connector-curvature="0"
       sodipodi:nodetypes="csccsccc" />
    <path
       style="fill:#808000;stroke:none"
       d="m 14.429799,1028.8653 -0.291436,-1.0101 c 0,0 0.261271,-0.2361 0.246793,-0.5054 -0.01657,-0.3084 -0.211725,-0.5198 -0.527397,-0.5051 -0.339624,0.016 -0.523568,0.2675 -0.490086,0.522 0.02883,0.2191 0.34724,0.5235 0.34724,0.5235 l 0.20981,1.2592 z"
       id="path7720"
       inkscape:connector-curvature="0"
       sodipodi:nodetypes="ccsssccc" />
    <path
       sodipodi:nodetypes="ccsssccc"
       inkscape:connector-curvature="0"
       id="path7722"
       d="m 13.941146,1028.5461 -0.786478,-0.6977 c 0,0 0.09457,-0.3392 -0.06173,-0.5591 -0.178868,-0.2516 -0.456823,-0.3259 -0.715707,-0.1447 -0.278427,0.1952 -0.299369,0.506 -0.135034,0.7031 0.141528,0.1697 0.57342,0.2568 0.57342,0.2568 l 0.850659,0.9518 z"
       style="fill:#808000;stroke:none" />
    <path
       style="fill:#808000;stroke:none"
       d="m 13.575235,1028.8428 -1.038297,-0.1652 c 0,0 -0.102724,-0.3368 -0.352768,-0.4381 -0.28612,-0.1159 -0.560406,-0.029 -0.681187,0.263 -0.129726,0.3143 0.01979,0.5876 0.264346,0.6653 0.210589,0.067 0.621533,-0.092 0.621533,-0.092 l 1.229078,0.3448 z"
       id="path7724"
       inkscape:connector-curvature="0"
       sodipodi:nodetypes="ccsssccc" />
    <path
       sodipodi:nodetypes="ccsssccc"
       inkscape:connector-curvature="0"
       id="path7726"
       d="m 13.514921,1029.2712 -0.894047,0.5532 c 0,0 -0.297794,-0.1879 -0.553286,-0.1012 -0.292344,0.099 -0.443246,0.3441 -0.343942,0.6441 0.1071,0.3227 0.39884,0.432 0.63476,0.331 0.203212,-0.087 0.410483,-0.4756 0.410483,-0.4756 l 1.15582,-0.5419 z"
       style="fill:#808000;stroke:none" />
    <path
       sodipodi:type="arc"
       style="fill:#808000;fill-opacity:1;stroke:none"
       id="path7728"
       sodipodi:cx="13.013392"
       sodipodi:cy="8.6071424"
       sodipodi:rx="0.92633927"
       sodipodi:ry="0.97098213"
       d="m 13.939732,8.6071424 a 0.92633927,0.97098213 0 1 1 -1.852679,0 0.92633927,0.97098213 0 1 1 1.852679,0 z"
       transform="translate(0.98214286,1020.5408)" />
    <path
       sodipodi:nodetypes="csccsccc"
       inkscape:connector-curvature="0"
       id="path7730"
       d="m 21.863817,1036.112 c 0,0 3.10986,-0.4167 3.704677,-0.084 0.474317,0.2655 1.030832,3.7662 1.030832,3.7662 0,0 -0.03189,1.2057 -0.290487,1.2352 -0.258692,0.03 -0.869016,0.07 -0.935349,-0.633 -0.0814,-0.8628 -0.349233,-2.3545 -1.013212,-2.9359 -0.84346,-0.2131 -2.036653,-0.2244 -3.775502,0.1381 z"
       style="fill:#808000;stroke:none" />
    <path
       sodipodi:nodetypes="ccsssccc"
       inkscape:connector-curvature="0"
       id="path7732"
       d="m 26.47062,1040.2868 0.96323,0.4212 c 0,0 0.268285,-0.2281 0.533468,-0.1784 0.303474,0.057 0.487494,0.2779 0.431577,0.589 -0.06034,0.3346 -0.333767,0.484 -0.58169,0.4175 -0.213338,-0.057 -0.473513,-0.4128 -0.473513,-0.4128 l -1.220875,-0.373 z"
       style="fill:#808000;stroke:none" />
    <path
       style="fill:#808000;stroke:none"
       d="m 26.723072,1040.8131 0.588685,0.8711 c 0,0 0.348664,-0.049 0.5462,0.1344 0.226006,0.2103 0.263262,0.4955 0.04972,0.7285 -0.229984,0.2504 -0.54085,0.2305 -0.714729,0.042 -0.149702,-0.1626 -0.179487,-0.6022 -0.179487,-0.6022 l -0.832191,-0.9679 z"
       id="path7734"
       inkscape:connector-curvature="0"
       sodipodi:nodetypes="ccsssccc" />
    <path
       sodipodi:nodetypes="ccsssccc"
       inkscape:connector-curvature="0"
       id="path7736"
       d="m 26.381004,1041.137 0.02779,1.051 c 0,0 0.320445,0.1459 0.388124,0.4071 0.07743,0.2988 -0.04465,0.5593 -0.349949,0.6408 -0.328583,0.087 -0.579947,-0.097 -0.624948,-0.3492 -0.03884,-0.2175 0.172609,-0.6041 0.172609,-0.6041 l -0.180858,-1.2636 z"
       style="fill:#808000;stroke:none" />
    <path
       style="fill:#808000;stroke:none"
       d="m 25.948395,1041.1407 -0.665528,0.8139 c 0,0 0.147279,0.3198 0.02786,0.5617 -0.136435,0.2769 -0.399187,0.3944 -0.683598,0.2566 -0.305893,-0.1484 -0.376042,-0.4519 -0.245014,-0.6726 0.112865,-0.1901 0.525264,-0.3447 0.525264,-0.3447 l 0.68861,-1.0748 z"
       id="path7738"
       inkscape:connector-curvature="0"
       sodipodi:nodetypes="ccsssccc" />
    <path
       transform="matrix(0.13096972,-0.99138637,-0.99138637,-0.13096972,32.96218,1054.7089)"
       d="m 13.939732,8.6071424 a 0.92633927,0.97098213 0 1 1 -1.852679,0 0.92633927,0.97098213 0 1 1 1.852679,0 z"
       sodipodi:ry="0.97098213"
       sodipodi:rx="0.92633927"
       sodipodi:cy="8.6071424"
       sodipodi:cx="13.013392"
       id="path7740"
       style="fill:#808000;fill-opacity:1;stroke:none"
       sodipodi:type="arc" />
    <path
       style="fill:#808000;stroke:none"
       d="m 15.855894,1041.9966 c 0,0 2.850416,1.3115 3.175004,1.9108 0.258725,0.478 -1.143704,3.7334 -1.143704,3.7334 0,0 -0.671908,1.0017 -0.906176,0.8883 -0.234616,-0.1131 -0.771674,-0.4058 -0.451663,-1.0352 0.392762,-0.7725 0.964425,-2.1761 0.714439,-3.0225 -0.598643,-0.6313 -1.600724,-1.2791 -3.263784,-1.903 z"
       id="path7742"
       inkscape:connector-curvature="0"
       sodipodi:nodetypes="csccsccc" />
    <path
       style="fill:#808000;stroke:none"
       d="m 17.514944,1047.9882 0.588518,0.8711 c 0,0 0.348691,-0.049 0.546157,0.1346 0.225913,0.2105 0.263225,0.4956 0.04956,0.7286 -0.229969,0.2504 -0.540905,0.2303 -0.714801,0.042 -0.149758,-0.1622 -0.179251,-0.602 -0.179251,-0.602 l -0.831985,-0.9683 z"
       id="path7744"
       inkscape:connector-curvature="0"
       sodipodi:nodetypes="ccsssccc" />
    <path
       sodipodi:nodetypes="ccsssccc"
       inkscape:connector-curvature="0"
       id="path7746"
       d="m 17.446707,1048.5679 0.0314,1.0509 c 0,0 0.320797,0.1451 0.389588,0.4057 0.07846,0.2986 -0.04263,0.5595 -0.347687,0.6421 -0.328259,0.089 -0.580264,-0.094 -0.62634,-0.3468 -0.0395,-0.2175 0.170487,-0.6048 0.170487,-0.6048 l -0.185358,-1.263 z"
       style="fill:#808000;stroke:none" />
    <path
       style="fill:#808000;stroke:none"
       d="m 16.984431,1048.6586 -0.538731,0.9028 c 0,0 0.192697,0.2947 0.110155,0.5516 -0.09442,0.2939 -0.33691,0.4487 -0.638453,0.3542 -0.324158,-0.1023 -0.438107,-0.3922 -0.341219,-0.6293 0.08353,-0.2046 0.468987,-0.4181 0.468987,-0.4181 l 0.52313,-1.1644 z"
       id="path7748"
       inkscape:connector-curvature="0"
       sodipodi:nodetypes="ccsssccc" />
    <path
       sodipodi:nodetypes="ccsssccc"
       inkscape:connector-curvature="0"
       id="path7750"
       d="m 16.616942,1048.4303 -0.997681,0.3316 c 0,0 -0.04664,0.349 -0.276931,0.4895 -0.263396,0.161 -0.548248,0.1197 -0.714833,-0.1489 -0.179064,-0.289 -0.07598,-0.5829 0.152782,-0.6993 0.197049,-0.1002 0.628184,-0.01 0.628184,-0.01 l 1.156746,-0.5397 z"
       style="fill:#808000;stroke:none" />
    <path
       sodipodi:type="arc"
       style="fill:#808000;fill-opacity:1;stroke:none"
       id="path7752"
       sodipodi:cx="13.013392"
       sodipodi:cy="8.6071424"
       sodipodi:rx="0.92633927"
       sodipodi:ry="0.97098213"
       d="m 13.939732,8.6071424 a 0.92633927,0.97098213 0 1 1 -1.852679,0 0.92633927,0.97098213 0 1 1 1.852679,0 z"
       transform="matrix(0.6409775,-0.76755967,-0.76755967,-0.6409775,15.284839,1063.6459)" />
    <path
       sodipodi:nodetypes="csccsccc"
       inkscape:connector-curvature="0"
       id="path7754"
       d="m 10.905586,1038.3414 c 0,0 -1.0852405,-2.944 -1.6576065,-3.3142 -0.456329,-0.2951 -3.8112152,0.8491 -3.8112152,0.8491 0,0 -1.0510335,0.5918 -0.9562025,0.8342 0.094777,0.2424 0.344505,0.8008 0.9967635,0.531 0.8008252,-0.3314 2.2447478,-0.7919 3.0690442,-0.4766 0.582611,0.646 1.150346,1.6956 1.6426845,3.4022 z"
       style="fill:#808000;stroke:none" />
    <path
       sodipodi:nodetypes="ccsssccc"
       inkscape:connector-curvature="0"
       id="path7756"
       d="m 5.0615697,1036.2202 -0.8226023,-0.6546 c 0,0 0.076247,-0.3438 -0.091527,-0.555 -0.1921248,-0.2418 -0.4736532,-0.3011 -0.7224767,-0.1063 -0.2675964,0.2098 -0.2718866,0.5213 -0.097193,0.7094 0.150399,0.1619 0.5862686,0.2257 0.5862686,0.2257 l 0.9003322,0.905 z"
       style="fill:#808000;stroke:none" />
    <path
       style="fill:#808000;stroke:none"
       d="m 4.4783454,1036.243 -1.0452294,-0.1132 c 0,0 -0.1193614,-0.3313 -0.374138,-0.4201 -0.2915339,-0.1015 -0.5611567,0 -0.6672542,0.2966 -0.1139206,0.3204 0.049014,0.5859 0.2971358,0.6514 0.2136599,0.056 0.6161864,-0.1228 0.6161864,-0.1228 l 1.2447179,0.2833 z"
       id="path7758"
       inkscape:connector-curvature="0"
       sodipodi:nodetypes="ccsssccc" />
    <path
       sodipodi:nodetypes="ccsssccc"
       inkscape:connector-curvature="0"
       id="path7760"
       d="m 4.3518934,1036.6968 -0.9421042,0.4667 c 0,0 -0.2788064,-0.2151 -0.5413137,-0.1528 -0.3003725,0.071 -0.4736418,0.3009 -0.4029846,0.6089 0.076281,0.3314 0.3564546,0.4676 0.6008196,0.3893 0.2104778,-0.067 0.4533929,-0.435 0.4533929,-0.435 l 1.2016493,-0.4308 z"
       style="fill:#808000;stroke:none" />
    <path
       style="fill:#808000;stroke:none"
       d="m 4.5508427,1037.081 -0.4084334,0.9688 c 0,0 -0.3515896,0.019 -0.5096537,0.2379 -0.1809822,0.2501 -0.1620431,0.5373 0.092662,0.7243 0.2742074,0.201 0.5753389,0.1212 0.7091656,-0.098 0.1152714,-0.1886 0.059173,-0.6255 0.059173,-0.6255 l 0.6283767,-1.1111 z"
       id="path7762"
       inkscape:connector-curvature="0"
       sodipodi:nodetypes="ccsssccc" />
    <path
       transform="matrix(0.81520499,-0.57917253,0.57917253,0.81520499,-10.722348,1037.2226)"
       d="m 13.939732,8.6071424 a 0.92633927,0.97098213 0 1 1 -1.852679,0 0.92633927,0.97098213 0 1 1 1.852679,0 z"
       sodipodi:ry="0.97098213"
       sodipodi:rx="0.92633927"
       sodipodi:cy="8.6071424"
       sodipodi:cx="13.013392"
       id="path7764"
       style="fill:#808000;fill-opacity:1;stroke:none"
       sodipodi:type="arc" />
    <path
       style="fill:#808000;stroke:none"
       d="m 9.217642,1043.3971 c -0.9470181,-0.8207 -2.0834397,-1.3258 -3.2198613,-0.6945 -1.1364216,0.6314 -1.7677669,2.9673 -2.3359778,3.5987 -0.5682108,0.6313 -1.6414978,1.8309 -0.8838834,2.4622 0.7576144,0.6314 0.5258932,0.6937 1.3889597,1.0102 1.0028136,0.3677 4.2931483,-2.0834 5.0507628,-2.8411 0.7576144,-0.7576 0.6313453,-2.7147 0,-3.5355 z"
       id="path7766"
       inkscape:connector-curvature="0"
       sodipodi:nodetypes="csssssc" />
    <path
       sodipodi:type="arc"
       style="fill:#000000;fill-opacity:1;stroke:none"
       id="path7768"
       sodipodi:cx="8.1443548"
       sodipodi:cy="25.434008"
       sodipodi:rx="0.56821078"
       sodipodi:ry="0.56821078"
       d="m 8.7125656,25.434008 a 0.56821078,0.56821078 0 1 1 -1.1364216,0 0.56821078,0.56821078 0 1 1 1.1364216,0 z"
       transform="translate(0,1020.3622)" />
    <path
       sodipodi:type="arc"
       style="fill:#000000;fill-opacity:1;stroke:none"
       id="path7770"
       sodipodi:cx="6.1871843"
       sodipodi:cy="23.792511"
       sodipodi:rx="0.50507629"
       sodipodi:ry="0.50507629"
       d="m 6.6922606,23.792511 a 0.50507629,0.50507629 0 1 1 -1.0101526,0 0.50507629,0.50507629 0 1 1 1.0101526,0 z"
       transform="translate(0,1020.3622)" />
    <path
       sodipodi:type="arc"
       style="fill:#445016;fill-opacity:1;stroke:none"
       id="path7772"
       sodipodi:cx="17.267296"
       sodipodi:cy="15.490319"
       sodipodi:rx="1.1679889"
       sodipodi:ry="1.1048543"
       d="m 18.435285,15.490319 a 1.1679889,1.1048543 0 1 1 -2.335978,0 1.1679889,1.1048543 0 1 1 2.335978,0 z"
       transform="translate(-0.63134534,1020.2359)" />
    <path
       sodipodi:type="arc"
       style="fill:#445016;fill-opacity:1;stroke:none"
       id="path7774"
       sodipodi:cx="14.615644"
       sodipodi:cy="20.256977"
       sodipodi:rx="1.0417198"
       sodipodi:ry="1.0101526"
       d="m 15.657364,20.256977 a 1.0417198,1.0101526 0 1 1 -2.083439,0 1.0417198,1.0101526 0 1 1 2.083439,0 z"
       transform="translate(0.56821081,1020.1728)" />
    <path
       sodipodi:type="arc"
       style="fill:#445016;fill-opacity:1;stroke:none"
       id="path7776"
       sodipodi:cx="21.686712"
       sodipodi:cy="13.97509"
       sodipodi:rx="1.1048543"
       sodipodi:ry="1.1048543"
       d="m 22.791567,13.97509 a 1.1048543,1.1048543 0 1 1 -2.209709,0 1.1048543,1.1048543 0 1 1 2.209709,0 z"
       transform="translate(0,1020.3622)" />
    <path
       sodipodi:type="arc"
       style="fill:#445016;fill-opacity:1;stroke:none"
       id="path7778"
       sodipodi:cx="9.5648823"
       sodipodi:cy="20.130707"
       sodipodi:rx="0.9785853"
       sodipodi:ry="0.94701803"
       d="m 10.543468,20.130707 a 0.9785853,0.94701803 0 1 1 -1.957171,0 0.9785853,0.94701803 0 1 1 1.957171,0 z"
       transform="translate(1.2626907,1019.8571)" />
  </g>
</svg>
