<?xml version="1.0" encoding="UTF-8" standalone="no"?>
<!-- Created with Inkscape (http://www.inkscape.org/) -->

<svg
   xmlns:dc="http://purl.org/dc/elements/1.1/"
   xmlns:cc="http://creativecommons.org/ns#"
   xmlns:rdf="http://www.w3.org/1999/02/22-rdf-syntax-ns#"
   xmlns:svg="http://www.w3.org/2000/svg"
   xmlns="http://www.w3.org/2000/svg"
   xmlns:xlink="http://www.w3.org/1999/xlink"
   xmlns:sodipodi="http://sodipodi.sourceforge.net/DTD/sodipodi-0.dtd"
   xmlns:inkscape="http://www.inkscape.org/namespaces/inkscape"
   width="32"
   height="32"
   id="svg7704"
   version="1.1"
   inkscape:version="0.48.2 r9819"
   sodipodi:docname="lizard-dead.svg"
   inkscape:export-filename="/Users/e0/Dropbox/Iamagamer2013/art/lizard-dead.png"
   inkscape:export-xdpi="90"
   inkscape:export-ydpi="90">
  <defs
     id="defs7706">
    <linearGradient
       id="linearGradient8467">
      <stop
         style="stop-color:#ccff00;stop-opacity:1;"
         offset="0"
         id="stop8469" />
      <stop
         id="stop8475"
         offset="0.24504782"
         style="stop-color:#ccff00;stop-opacity:1;" />
      <stop
         style="stop-color:#a80000;stop-opacity:1;"
         offset="0.68214983"
         id="stop8477" />
      <stop
         style="stop-color:#a80000;stop-opacity:1;"
         offset="1"
         id="stop8471" />
    </linearGradient>
    <linearGradient
       inkscape:collect="always"
       xlink:href="#linearGradient8467"
       id="linearGradient8473"
       x1="0.39352809"
       y1="22.92708"
       x2="31.100002"
       y2="22.92708"
       gradientUnits="userSpaceOnUse" />
  </defs>
  <sodipodi:namedview
     id="base"
     pagecolor="#ffffff"
     bordercolor="#666666"
     borderopacity="1.0"
     inkscape:pageopacity="0.0"
     inkscape:pageshadow="2"
     inkscape:zoom="15.839192"
     inkscape:cx="20.754327"
     inkscape:cy="8.1762771"
     inkscape:document-units="px"
     inkscape:current-layer="layer1"
     showgrid="false"
     inkscape:window-width="1280"
     inkscape:window-height="716"
     inkscape:window-x="0"
     inkscape:window-y="0"
     inkscape:window-maximized="1" />
  <metadata
     id="metadata7709">
    <rdf:RDF>
      <cc:Work
         rdf:about="">
        <dc:format>image/svg+xml</dc:format>
        <dc:type
           rdf:resource="http://purl.org/dc/dcmitype/StillImage" />
        <dc:title></dc:title>
      </cc:Work>
    </rdf:RDF>
  </metadata>
  <g
     inkscape:label="Layer 1"
     inkscape:groupmode="layer"
     id="layer1"
     transform="translate(0,-1020.3622)">
    <path
       style="fill:url(#linearGradient8473);stroke:none;stroke-width:1px;stroke-linecap:butt;stroke-linejoin:miter;stroke-opacity:1;fill-opacity:1"
       d="m 1.3258252,20.509515 c 0,0 -0.56821079,0.441942 -0.69447986,1.641498 -0.12626907,1.199556 0.88388346,1.704632 0.69447986,2.525381 -0.1894036,0.820749 -1.5152288,1.199556 -0.63134532,1.641498 0.88388352,0.441942 0.94701802,0.441942 0.94701802,0.441942 0,0 2.841054,0.315672 4.608821,-0.126269 1.7677669,-0.441942 2.3991123,-1.894036 3.9143411,-1.199557 1.515229,0.69448 4.545686,1.262691 6.502857,0.820749 1.957171,-0.441941 3.977476,-1.073287 6.629126,-0.631345 2.651651,0.441942 3.724938,2.65165 5.618974,0.06314 1.894036,-2.588516 2.588516,-3.914342 1.95717,-4.356283 -0.631345,-0.441942 -2.335978,-1.830902 -3.34613,-1.830902 -1.010153,0 -2.335978,-0.568211 -3.661803,-0.441942 C 22.539029,19.18369 12.2481,20.004438 12.2481,20.004438 L 7.1973369,18.931151 z"
       id="path7957"
       inkscape:connector-curvature="0"
       transform="translate(0,1020.3622)" />
    <path
       style="fill:#808000;stroke:none"
       d="m 7.1765268,1040.6758 c 0,0 -2.3490665,2.0628 -3.0699546,2.3124 -0.7208884,0.2496 -1.9210975,0.2007 -2.2511778,-0.3375 -0.3300804,-0.5382 -0.1690566,-0.9036 0.1864335,-1.3142 0.3554902,-0.4106 3.1838776,-2.1749 3.1838776,-2.1749 z"
       id="path7905"
       inkscape:connector-curvature="0" />
    <path
       inkscape:connector-curvature="0"
       id="path7909"
       d="m 6.755272,1040.4342 c 0,0 -2.0646121,1.7431 -2.6993861,1.9526 -0.6347841,0.2095 -1.6931043,0.1643 -1.9857976,-0.2935 -0.2927035,-0.4577 -0.1518537,-0.7673 0.1602692,-1.1146 0.3121133,-0.3472 2.8002613,-1.8355 2.8002613,-1.8355 z"
       style="fill:#ccff00;stroke:none" />
    <path
       style="fill:#808000;stroke:none"
       d="m 30.274765,1037.474 c -1.60516,1.0393 -3.794546,1.4746 -4.500616,1.8313 -0.706116,0.3567 -2.648807,1.3946 -5.003653,1.9179 -2.354923,0.5235 -7.174787,0.4827 -8.736894,-0.1195 -1.562192,-0.602 -4.2050016,-0.5288 -4.3518714,-1.0329 -0.3480403,-1.1944 -1.2392661,-1.4243 -1.0875522,-1.6443 0.2867203,-0.4158 1.9683562,-1.4482 4.0125676,-2.3713 2.044212,-0.9231 7.743901,-1.332 9.509191,-1.1116 1.765321,0.2203 1.770735,0.9909 4.973398,1.1287 3.20262,0.1378 3.325415,-0.1645 4.112958,-0.7598 0.872523,-0.5876 2.424703,2.0345 1.072472,2.1615 z"
       id="path7712"
       inkscape:connector-curvature="0"
       sodipodi:nodetypes="csszsszsscc" />
    <path
       sodipodi:nodetypes="ccsssccc"
       inkscape:connector-curvature="0"
       id="path7732"
       d="m 19.929948,1043.1754 -0.545559,0.8986 c 0,0 0.18999,0.2965 0.105314,0.5525 -0.09683,0.2932 -0.340314,0.4463 -0.641149,0.3495 -0.323608,-0.1043 -0.435355,-0.3952 -0.336918,-0.6318 0.08505,-0.2039 0.472044,-0.4145 0.472044,-0.4145 l 0.531955,-1.1604 z"
       style="fill:#808000;stroke:none" />
    <path
       style="fill:#808000;stroke:none"
       d="m 19.374843,1043.3556 -0.941804,0.4677 c 0,0 -0.0013,0.3521 -0.205711,0.5234 -0.238545,0.1961 -0.526139,0.1951 -0.728685,-0.047 -0.217959,-0.261 -0.156936,-0.5667 0.05365,-0.714 0.181023,-0.1267 0.620676,-0.098 0.620676,-0.098 l 1.069913,-0.6961 z"
       id="path7734"
       inkscape:connector-curvature="0"
       sodipodi:nodetypes="ccsssccc" />
    <path
       sodipodi:nodetypes="ccsssccc"
       inkscape:connector-curvature="0"
       id="path7736"
       d="m 19.099253,1042.9735 -1.045452,-0.1122 c 0,0 -0.187176,0.2982 -0.45511,0.3306 -0.306509,0.037 -0.548416,-0.1186 -0.588511,-0.4321 -0.04003,-0.3375 0.173262,-0.5619 0.429128,-0.5729 0.220828,-0.01 0.575857,0.2513 0.575857,0.2513 l 1.276396,-0.011 z"
       style="fill:#808000;stroke:none" />
    <path
       style="fill:#808000;stroke:none"
       d="m 19.153065,1042.5442 -0.718264,-0.7678 c 0,0 -0.336563,0.1035 -0.560385,-0.047 -0.256303,-0.1721 -0.337764,-0.4482 -0.163261,-0.7117 0.187727,-0.2835 0.497887,-0.3126 0.699298,-0.1535 0.173013,0.1373 0.27216,0.5663 0.27216,0.5663 l 0.973706,0.8254 z"
       id="path7738"
       inkscape:connector-curvature="0"
       sodipodi:nodetypes="ccsssccc" />
    <path
       transform="matrix(0.96517467,0.26160633,0.26160633,-0.96517467,4.7728504,1047.692)"
       d="m 13.939732,8.6071424 a 0.92633927,0.97098213 0 1 1 -1.852679,0 0.92633927,0.97098213 0 1 1 1.852679,0 z"
       sodipodi:ry="0.97098213"
       sodipodi:rx="0.92633927"
       sodipodi:cy="8.6071424"
       sodipodi:cx="13.013392"
       id="path7740"
       style="fill:#808000;fill-opacity:1;stroke:none"
       sodipodi:type="arc" />
    <path
       style="fill:#808000;stroke:none"
       d="m 10.199374,1043.422 -0.6607164,0.8177 c 0,0 0.145716,0.3206 0.03108,0.5617 -0.135043,0.2775 -0.396851,0.3967 -0.682139,0.2606 -0.306995,-0.1464 -0.378942,-0.4496 -0.249142,-0.6714 0.111237,-0.1906 0.523102,-0.3475 0.523102,-0.3475 l 0.682473,-1.079 z"
       id="path7744"
       inkscape:connector-curvature="0"
       sodipodi:nodetypes="ccsssccc" />
    <path
       sodipodi:nodetypes="ccsssccc"
       inkscape:connector-curvature="0"
       id="path7746"
       d="m 9.6251776,1043.5264 -0.995729,0.3376 c 0,0 -0.0449,0.3492 -0.273972,0.4912 -0.262554,0.1625 -0.547449,0.123 -0.715706,-0.1445 -0.1773115,-0.2903 -0.08001,-0.5824 0.148269,-0.7004 0.19639,-0.1015 0.628299,-0.014 0.628299,-0.014 l 1.153383,-0.5468 z"
       style="fill:#808000;stroke:none" />
    <path
       style="fill:#808000;stroke:none"
       d="m 9.4031256,1043.1109 -1.020931,-0.2509 c 0,0 -0.225438,0.2705 -0.495281,0.2668 -0.30862,0 -0.5276284,-0.1909 -0.5254167,-0.507 0.00291,-0.3399 0.2468237,-0.5337 0.5019157,-0.5105 0.220059,0.02 0.537031,0.3261 0.537031,0.3261 l 1.266505,0.1595 z"
       id="path7748"
       inkscape:connector-curvature="0"
       sodipodi:nodetypes="ccsssccc" />
    <path
       sodipodi:nodetypes="ccsssccc"
       inkscape:connector-curvature="0"
       id="path7750"
       d="m 9.5139196,1042.6927 -0.608862,-0.8571 c 0,0 -0.347339,0.058 -0.549122,-0.1215 -0.231086,-0.2049 -0.274788,-0.4893 -0.0668,-0.7272 0.223975,-0.2558 0.535138,-0.2432 0.713424,-0.058 0.153787,0.1588 0.193193,0.5978 0.193193,0.5978 l 0.8546154,0.9482 z"
       style="fill:#808000;stroke:none" />
    <path
       sodipodi:type="arc"
       style="fill:#808000;fill-opacity:1;stroke:none"
       id="path7752"
       sodipodi:cx="13.013392"
       sodipodi:cy="8.6071424"
       sodipodi:rx="0.92633927"
       sodipodi:ry="0.97098213"
       d="m 13.939732,8.6071424 a 0.92633927,0.97098213 0 1 1 -1.852679,0 0.92633927,0.97098213 0 1 1 1.852679,0 z"
       transform="matrix(0.92153419,0.38829724,0.38829724,-0.92153419,-5.4255131,1045.8717)" />
    <path
       style="fill:#808000;stroke:none"
       d="m 8.4598656,1038.9462 c -0.3137471,-1.2133 -0.9625525,-2.2742 -2.2564992,-2.3996 -1.2939733,-0.1254 -3.1397506,1.4392 -3.9660128,1.6365 -0.8261286,0.1971 -2.39073608,0.5755 -2.12538176,1.5252 0.26529616,0.9498 0.06545,0.5957 0.79015196,1.1612 0.2981911,0.2327 4.6173169,0.6221 5.3119574,0.3081 0.976359,-0.4413 2.2995713,-1.1973 2.2457844,-2.2314 z"
       id="path7766"
       inkscape:connector-curvature="0"
       sodipodi:nodetypes="csssssc" />
    <path
       sodipodi:type="arc"
       style="fill:#000000;fill-opacity:1;stroke:none"
       id="path7768"
       sodipodi:cx="8.1443548"
       sodipodi:cy="25.434008"
       sodipodi:rx="0.56821078"
       sodipodi:ry="0.56821078"
       d="m 8.7125656,25.434008 a 0.56821078,0.56821078 0 1 1 -1.1364216,0 0.56821078,0.56821078 0 1 1 1.1364216,0 z"
       transform="matrix(0.32019772,0.28386811,-0.22079791,0.41166115,8.8357171,1027.3348)" />
    <path
       sodipodi:type="arc"
       style="fill:#000000;fill-opacity:1;stroke:none"
       id="path7770"
       sodipodi:cx="6.1871843"
       sodipodi:cy="23.792511"
       sodipodi:rx="0.50507629"
       sodipodi:ry="0.50507629"
       d="m 6.6922606,23.792511 a 0.50507629,0.50507629 0 1 1 -1.0101526,0 0.50507629,0.50507629 0 1 1 1.0101526,0 z"
       transform="matrix(0.51455752,0.28386813,-0.3548221,0.41166118,10.603999,1026.5513)" />
    <path
       sodipodi:type="arc"
       style="fill:#445016;fill-opacity:1;stroke:none"
       id="path7772"
       sodipodi:cx="17.267296"
       sodipodi:cy="15.490319"
       sodipodi:rx="1.1679889"
       sodipodi:ry="1.1048543"
       d="m 18.435285,15.490319 a 1.1679889,1.1048543 0 1 1 -2.335978,0 1.1679889,1.1048543 0 1 1 2.335978,0 z"
       transform="matrix(0.82324655,0.56768399,-0.56768399,0.82324655,13.499965,1014.2876)" />
    <path
       sodipodi:type="arc"
       style="fill:#445016;fill-opacity:1;stroke:none"
       id="path7774"
       sodipodi:cx="14.615644"
       sodipodi:cy="20.256977"
       sodipodi:rx="1.0417198"
       sodipodi:ry="1.0101526"
       d="m 15.657364,20.256977 a 1.0417198,1.0101526 0 1 1 -2.083439,0 1.0417198,1.0101526 0 1 1 2.083439,0 z"
       transform="matrix(0.82324655,0.56768399,-0.56768399,0.82324655,14.523353,1014.9166)" />
    <path
       sodipodi:type="arc"
       style="fill:#445016;fill-opacity:1;stroke:none"
       id="path7776"
       sodipodi:cx="21.686712"
       sodipodi:cy="13.97509"
       sodipodi:rx="1.1048543"
       sodipodi:ry="1.1048543"
       d="m 22.791567,13.97509 a 1.1048543,1.1048543 0 1 1 -2.209709,0 1.1048543,1.1048543 0 1 1 2.209709,0 z"
       transform="matrix(0.82324655,0.56768399,-0.56768399,0.82324655,13.948006,1014.7501)" />
    <path
       sodipodi:type="arc"
       style="fill:#445016;fill-opacity:1;stroke:none"
       id="path7778"
       sodipodi:cx="9.5648823"
       sodipodi:cy="20.130707"
       sodipodi:rx="0.9785853"
       sodipodi:ry="0.94701803"
       d="m 10.543468,20.130707 a 0.9785853,0.94701803 0 1 1 -1.957171,0 0.9785853,0.94701803 0 1 1 1.957171,0 z"
       transform="matrix(0.82324655,0.56768399,-0.56768399,0.82324655,15.274282,1015.051)" />
    <path
       style="fill:#ccff00;stroke:none"
       d="m 5.3619507,1041.4884 c 0,0 -0.9220186,2.9536 -1.1023656,3.4925 -0.1803471,0.5388 -0.5407959,1.4168 -0.900016,1.2966 -0.3592204,-0.1203 -0.078926,-0.7588 0.021267,-1.0581 0.1001929,-0.2994 1.0222115,-3.2531 1.0222115,-3.2531 0,0 -0.639269,0.3187 -0.6798375,0.8377 -0.040568,0.5191 -0.4603955,0.9777 -0.6006655,1.3968 -0.1402696,0.4191 -0.1209681,0.9582 -0.2211606,1.2575 -0.1001929,0.2994 -0.4801885,0.838 -0.7795388,0.7378 -0.2993504,-0.1002 -0.6583255,-0.4201 -0.4581855,-0.8191 0.2001405,-0.3991 0.3599573,-0.4788 0.5202656,-0.9577 0.1603084,-0.479 0.1410068,-1.018 -0.098965,-0.6989 -0.2399717,0.3191 -0.3208623,1.1576 -0.6199673,0.8577 -0.2991047,-0.2998 0.6028757,-3.1936 0.6028757,-3.1936 z"
       id="path7911"
       inkscape:connector-curvature="0" />
    <path
       style="fill:#808000;stroke:none;stroke-width:1px;stroke-linecap:butt;stroke-linejoin:miter;stroke-opacity:1"
       d="m 14.142136,20.888322 c 0,0 2.272843,-0.126269 2.335977,0.947018 0.06313,1.073287 -0.883883,1.704632 -1.830901,1.767767 -0.947018,0.06313 -4.293148,0 -4.356283,-0.378807 -0.06313,-0.378807 -0.3156726,-0.883884 -0.06313,-1.010153 0.252538,-0.126269 2.462246,-0.189403 2.462246,-0.189403 0,0 -0.631345,-0.315673 -0.883883,-0.883884 -0.252538,-0.568211 -0.189404,-1.073287 -0.189404,-1.073287 z"
       id="path7953"
       inkscape:connector-curvature="0"
       transform="translate(0,1020.3622)" />
    <path
       inkscape:connector-curvature="0"
       id="path7955"
       d="m 23.671532,1040.4556 c 0,0 2.237729,-0.4175 2.438397,0.6387 0.200651,1.0562 -0.657278,1.8041 -1.588313,1.9885 -0.931047,0.1843 -4.257483,0.5523 -4.368819,0.1847 -0.11133,-0.3675 -0.426746,-0.8359 -0.192534,-0.9936 0.234194,-0.1577 2.417429,-0.5045 2.417429,-0.5045 0,0 -0.666709,-0.2319 -0.990236,-0.7629 -0.323528,-0.531 -0.325889,-1.04 -0.325889,-1.04 z"
       style="fill:#808000;stroke:none" />
    <path
       style="fill:#aa0000;stroke:none;stroke-width:1px;stroke-linecap:butt;stroke-linejoin:miter;stroke-opacity:1"
       d="m 20.32932,17.352788 c 0.378807,0.126269 0.883883,0.568211 0.757614,1.578363 -0.126269,1.010153 0.189404,2.08344 0.189404,2.08344 l -0.820749,0.441942 c 0,0 -0.505076,-0.820749 -0.441942,-1.641498 0.06314,-0.820749 0.378808,-1.262691 0.189404,-1.641498 -0.189404,-0.378807 0.126269,-0.820749 0.126269,-0.820749 z"
       id="path8479"
       inkscape:connector-curvature="0"
       transform="translate(0,1020.3622)"
       inkscape:export-xdpi="90"
       inkscape:export-ydpi="90" />
  </g>
</svg>
