<?xml version="1.0" encoding="UTF-8" standalone="no"?>
<!-- Created with Inkscape (http://www.inkscape.org/) -->

<svg
   xmlns:dc="http://purl.org/dc/elements/1.1/"
   xmlns:cc="http://creativecommons.org/ns#"
   xmlns:rdf="http://www.w3.org/1999/02/22-rdf-syntax-ns#"
   xmlns:svg="http://www.w3.org/2000/svg"
   xmlns="http://www.w3.org/2000/svg"
   xmlns:sodipodi="http://sodipodi.sourceforge.net/DTD/sodipodi-0.dtd"
   xmlns:inkscape="http://www.inkscape.org/namespaces/inkscape"
   width="32"
   height="32"
   id="svg7704"
   version="1.1"
   inkscape:version="0.48.2 r9819"
   sodipodi:docname="lizard-injured.svg"
   inkscape:export-filename="/Users/e0/Dropbox/Iamagamer2013/art/lizard-injured.png"
   inkscape:export-xdpi="90"
   inkscape:export-ydpi="90">
  <defs
     id="defs7706" />
  <sodipodi:namedview
     id="base"
     pagecolor="#ffffff"
     bordercolor="#666666"
     borderopacity="1.0"
     inkscape:pageopacity="0.0"
     inkscape:pageshadow="2"
     inkscape:zoom="15.839192"
     inkscape:cx="20.754327"
     inkscape:cy="18.38597"
     inkscape:document-units="px"
     inkscape:current-layer="layer1"
     showgrid="false"
     inkscape:window-width="1280"
     inkscape:window-height="716"
     inkscape:window-x="0"
     inkscape:window-y="0"
     inkscape:window-maximized="0" />
  <metadata
     id="metadata7709">
    <rdf:RDF>
      <cc:Work
         rdf:about="">
        <dc:format>image/svg+xml</dc:format>
        <dc:type
           rdf:resource="http://purl.org/dc/dcmitype/StillImage" />
        <dc:title></dc:title>
      </cc:Work>
    </rdf:RDF>
  </metadata>
  <g
     inkscape:label="Layer 1"
     inkscape:groupmode="layer"
     id="layer1"
     transform="translate(0,-1020.3622)">
    <path
       style="fill:#808000;stroke:none"
       d="m 7.7762902,1043.187 c 0,0 -1.5728569,2.7018 -2.1772488,3.1673 -0.6043922,0.4655 -1.7580862,0.8 -2.2419189,0.3944 -0.4838329,-0.4056 -0.4471062,-0.8032 -0.2403194,-1.3054 0.2067869,-0.5022 2.3289458,-3.073 2.3289458,-3.073 z"
       id="path7905"
       inkscape:connector-curvature="0" />
    <path
       inkscape:connector-curvature="0"
       id="path7909"
       d="m 7.3001357,1043.0916 c 0,0 -1.4045971,2.3083 -1.9400688,2.7084 -0.535449,0.4002 -1.5534076,0.6932 -1.9762601,0.352 -0.4228298,-0.3411 -0.3875293,-0.6794 -0.2017734,-1.1078 0.1857792,-0.4283 2.0728857,-2.6294 2.0728857,-2.6294 z"
       style="fill:#ccff00;stroke:none" />
    <path
       style="fill:#808000;stroke:none"
       d="m 29.679809,1030.8817 c -0.453073,1.9134 -4.146129,4.5406 -4.702496,5.1029 -0.556381,0.5624 -2.06921,2.1632 -4.136189,3.4069 -2.066993,1.2439 -6.650591,2.735 -8.323076,2.6597 -1.672474,-0.075 -4.1554099,0.8332 -4.4546777,0.4018 -0.7091485,-1.0222 -1.6272469,-0.9573 -1.5532119,-1.2141 0.1399237,-0.4853 1.4069169,-1.9981 3.0524399,-3.5223 1.6455237,-1.5242 6.9207217,-3.721 8.6646847,-4.0723 1.743963,-0.3514 1.993702,0.3777 5.074482,-0.5082 3.080767,-0.8858 3.6396,-1.7911 3.997611,-2.8049 0.42376,-1.0131 3.075639,-0.9128 2.380433,0.5505 z"
       id="path7712"
       inkscape:connector-curvature="0"
       sodipodi:nodetypes="csszsszsscc" />
    <path
       style="fill:#808000;stroke:none"
       d="m 19.458713,1034.5136 c 0,0 1.627286,-2.6827 1.560422,-3.361 -0.05332,-0.5408 -3.03804,-2.4529 -3.03804,-2.4529 0,0 -1.117616,-0.4537 -1.248327,-0.2279 -0.130604,0.2251 -0.411888,0.7683 0.20547,1.1105 0.758026,0.4201 2.017616,1.2629 2.284387,2.1042 -0.142562,0.8582 -0.610045,1.956 -1.638566,3.4042 z"
       id="path7718"
       inkscape:connector-curvature="0"
       sodipodi:nodetypes="csccsccc" />
    <path
       style="fill:#808000;stroke:none"
       d="m 17.478307,1028.6204 -1.98e-4,-1.0513 c 0,0 0.316448,-0.1544 0.377151,-0.4172 0.06951,-0.3009 -0.05943,-0.5582 -0.36683,-0.6314 -0.330706,-0.079 -0.577175,0.1119 -0.61551,0.3657 -0.03296,0.2185 0.188612,0.5993 0.188612,0.5993 l -0.147204,1.268 z"
       id="path7720"
       inkscape:connector-curvature="0"
       sodipodi:nodetypes="ccsssccc" />
    <path
       sodipodi:nodetypes="ccsssccc"
       inkscape:connector-curvature="0"
       id="path7722"
       d="m 17.097201,1028.1784 -0.562401,-0.8883 c 0,0 0.184835,-0.2997 0.09558,-0.5544 -0.102172,-0.2912 -0.348655,-0.4397 -0.647605,-0.3373 -0.321613,0.1105 -0.427844,0.4034 -0.324538,0.6382 0.08898,0.2022 0.479829,0.4056 0.479829,0.4056 l 0.553677,1.1503 z"
       style="fill:#808000;stroke:none" />
    <path
       style="fill:#808000;stroke:none"
       d="m 16.663422,1028.3621 -0.951892,-0.4464 c 0,0 -0.0054,-0.352 -0.217586,-0.5187 -0.242811,-0.1907 -0.530443,-0.1831 -0.727389,0.064 -0.211719,0.266 -0.143767,0.5701 0.06968,0.7125 0.183814,0.1225 0.622293,0.087 0.622293,0.087 l 1.085454,0.6718 z"
       id="path7724"
       inkscape:connector-curvature="0"
       sodipodi:nodetypes="ccsssccc" />
    <path
       sodipodi:nodetypes="ccsssccc"
       inkscape:connector-curvature="0"
       id="path7726"
       d="m 16.486787,1028.757 -1.012318,0.2839 c 0,0 -0.234075,-0.2631 -0.503586,-0.2506 -0.308345,0.014 -0.521222,0.2078 -0.50892,0.5236 0.01351,0.3397 0.263546,0.5256 0.518213,0.4939 0.219359,-0.027 0.526171,-0.3432 0.526171,-0.3432 l 1.26071,-0.2005 z"
       style="fill:#808000;stroke:none" />
    <path
       sodipodi:type="arc"
       style="fill:#808000;fill-opacity:1;stroke:none"
       id="path7728"
       sodipodi:cx="13.013392"
       sodipodi:cy="8.6071424"
       sodipodi:rx="0.92633927"
       sodipodi:ry="0.97098213"
       d="m 13.939732,8.6071424 c 0,0.5362587 -0.414737,0.9709822 -0.92634,0.9709822 -0.511603,0 -0.926339,-0.4347235 -0.926339,-0.9709822 0,-0.5362586 0.414736,-0.9709821 0.926339,-0.9709821 0.511603,0 0.92634,0.4347235 0.92634,0.9709821 z"
       transform="matrix(0.9608592,0.27703717,-0.27703717,0.9608592,6.8631922,1016.8963)" />
    <path
       sodipodi:nodetypes="csccsccc"
       inkscape:connector-curvature="0"
       id="path7730"
       d="m 22.613738,1037.643 c 0,0 3.10356,0.4613 3.582948,0.9456 0.382197,0.3865 -0.0529,3.9044 -0.0529,3.9044 0,0 -0.364661,1.1497 -0.621306,1.1064 -0.256878,-0.043 -0.854437,-0.1732 -0.723379,-0.8674 0.160821,-0.8516 0.316734,-2.3591 -0.1602,-3.1017 -0.75141,-0.4384 -1.894764,-0.7798 -3.665987,-0.9132 z"
       style="fill:#808000;stroke:none" />
    <path
       sodipodi:nodetypes="ccsssccc"
       inkscape:connector-curvature="0"
       id="path7732"
       d="m 25.883659,1042.9306 0.808834,0.6716 c 0,0 0.320984,-0.1449 0.56196,-0.023 0.275812,0.1388 0.391426,0.4021 0.251519,0.6855 -0.150679,0.3048 -0.454792,0.3726 -0.674589,0.24 -0.189172,-0.1141 -0.340623,-0.5278 -0.340623,-0.5278 l -1.069755,-0.6966 z"
       style="fill:#808000;stroke:none" />
    <path
       style="fill:#808000;stroke:none"
       d="m 25.980428,1043.5062 0.324308,1.0002 c 0,0 0.348146,0.053 0.487589,0.2804 0.158897,0.2647 0.115685,0.5491 -0.154049,0.7138 -0.290344,0.1768 -0.583538,0.072 -0.698361,-0.1579 -0.09879,-0.1977 -0.0056,-0.6283 -0.0056,-0.6283 l -0.531471,-1.1606 z"
       id="path7734"
       inkscape:connector-curvature="0"
       sodipodi:nodetypes="ccsssccc" />
    <path
       sodipodi:nodetypes="ccsssccc"
       inkscape:connector-curvature="0"
       id="path7736"
       d="m 25.562011,1043.7227 -0.26446,1.0176 c 0,0 0.267483,0.2289 0.26015,0.4987 -0.0084,0.3086 -0.197855,0.5251 -0.513778,0.5187 -0.339785,-0.01 -0.530371,-0.2539 -0.503747,-0.5086 0.02294,-0.2198 0.333212,-0.5327 0.333212,-0.5327 l 0.176278,-1.2642 z"
       style="fill:#808000;stroke:none" />
    <path
       style="fill:#808000;stroke:none"
       d="m 25.145312,1043.6064 -0.864961,0.5977 c 0,0 0.05291,0.3481 -0.128845,0.5474 -0.207802,0.2283 -0.492824,0.2684 -0.727934,0.057 -0.252807,-0.2273 -0.236124,-0.5384 -0.04908,-0.7142 0.161111,-0.1513 0.600195,-0.1856 0.600195,-0.1856 l 0.959414,-0.842 z"
       id="path7738"
       inkscape:connector-curvature="0"
       sodipodi:nodetypes="ccsssccc" />
    <path
       transform="matrix(0.40049434,-0.91629924,-0.91629924,-0.40049434,28.125676,1058.5866)"
       d="m 13.939732,8.6071424 c 0,0.5362587 -0.414737,0.9709822 -0.92634,0.9709822 -0.511603,0 -0.926339,-0.4347235 -0.926339,-0.9709822 0,-0.5362586 0.414736,-0.9709821 0.926339,-0.9709821 0.511603,0 0.92634,0.4347235 0.92634,0.9709821 z"
       sodipodi:ry="0.97098213"
       sodipodi:rx="0.92633927"
       sodipodi:cy="8.6071424"
       sodipodi:cx="13.013392"
       id="path7740"
       style="fill:#808000;fill-opacity:1;stroke:none"
       sodipodi:type="arc" />
    <path
       style="fill:#808000;stroke:none"
       d="m 15.210715,1041.6329 c 0,0 2.375522,2.0498 2.521369,2.7156 0.116175,0.531 -2.13322,3.2704 -2.13322,3.2704 0,0 -0.923124,0.7763 -1.116803,0.6025 -0.194106,-0.1737 -0.629043,-0.6038 -0.147194,-1.1199 0.591396,-0.6334 1.529531,-1.8237 1.523819,-2.7062 -0.400314,-0.7725 -1.183713,-1.6725 -2.608839,-2.7327 z"
       id="path7742"
       inkscape:connector-curvature="0"
       sodipodi:nodetypes="csccsccc" />
    <path
       style="fill:#808000;stroke:none"
       d="m 15.144933,1047.8496 0.324157,1 c 0,0 0.348172,0.053 0.487491,0.2807 0.158762,0.2647 0.115621,0.5491 -0.154228,0.7137 -0.290341,0.1769 -0.583536,0.072 -0.698431,-0.1579 -0.09896,-0.1973 -0.0055,-0.628 -0.0055,-0.628 l -0.531157,-1.1609 z"
       id="path7744"
       inkscape:connector-curvature="0"
       sodipodi:nodetypes="ccsssccc" />
    <path
       sodipodi:nodetypes="ccsssccc"
       inkscape:connector-curvature="0"
       id="path7746"
       d="m 14.918779,1048.3876 -0.260968,1.0185 c 0,0 0.268039,0.2283 0.261939,0.4978 -0.0073,0.3086 -0.195956,0.5257 -0.511961,0.5206 -0.340024,-0.01 -0.531517,-0.251 -0.505755,-0.5067 0.02226,-0.2199 0.331376,-0.534 0.331376,-0.534 l 0.171794,-1.2648 z"
       style="fill:#808000;stroke:none" />
    <path
       style="fill:#808000;stroke:none"
       d="m 14.449468,1048.3467 -0.767755,0.7182 c 0,0 0.103512,0.3366 -0.04698,0.5606 -0.172142,0.2562 -0.448027,0.3378 -0.711585,0.1634 -0.283134,-0.188 -0.31231,-0.4982 -0.153521,-0.6992 0.136937,-0.1734 0.566452,-0.2717 0.566452,-0.2717 l 0.825236,-0.9739 z"
       id="path7748"
       inkscape:connector-curvature="0"
       sodipodi:nodetypes="ccsssccc" />
    <path
       sodipodi:nodetypes="ccsssccc"
       inkscape:connector-curvature="0"
       id="path7750"
       d="m 14.159612,1048.0255 -1.050508,0.042 c 0,0 -0.141495,0.3224 -0.401697,0.3936 -0.297684,0.082 -0.559936,-0.037 -0.645604,-0.3411 -0.09198,-0.3273 0.08848,-0.5811 0.340543,-0.6296 0.217094,-0.042 0.606339,0.1646 0.606339,0.1646 l 1.260982,-0.1981 z"
       style="fill:#808000;stroke:none" />
    <path
       sodipodi:type="arc"
       style="fill:#808000;fill-opacity:1;stroke:none"
       id="path7752"
       sodipodi:cx="13.013392"
       sodipodi:cy="8.6071424"
       sodipodi:rx="0.92633927"
       sodipodi:ry="0.97098213"
       d="m 13.939732,8.6071424 c 0,0.5362587 -0.414737,0.9709822 -0.92634,0.9709822 -0.511603,0 -0.926339,-0.4347235 -0.926339,-0.9709822 0,-0.5362586 0.414736,-0.9709821 0.926339,-0.9709821 0.511603,0 0.92634,0.4347235 0.92634,0.9709821 z"
       transform="matrix(0.82853169,-0.55994218,-0.55994218,-0.82853169,8.6643504,1062.2766)" />
    <path
       sodipodi:nodetypes="csccsccc"
       inkscape:connector-curvature="0"
       id="path7754"
       d="m 11.466799,1036.7493 c 0,0 -0.227166,-3.1294 -0.674569,-3.6437 -0.356714,-0.41 -3.8972801,-0.2399 -3.8972801,-0.2399 0,0 -1.1738457,0.2774 -1.1498699,0.5365 0.023911,0.2592 0.1091652,0.8649 0.8106359,0.7864 0.8612872,-0.097 2.3762778,-0.139 3.0809898,0.392 0.3808383,0.7822 0.6355783,1.9479 0.6358593,3.7241 z"
       style="fill:#808000;stroke:none" />
    <path
       sodipodi:nodetypes="ccsssccc"
       inkscape:connector-curvature="0"
       id="path7756"
       d="m 6.4391691,1033.0921 -0.6090517,-0.8569 c 0,0 0.1685007,-0.3091 0.065816,-0.5586 -0.117626,-0.2855 -0.3717039,-0.4205 -0.6647542,-0.3023 -0.3152481,0.1275 -0.40566,0.4256 -0.2899147,0.6547 0.099661,0.1972 0.5007903,0.3793 0.5007903,0.3793 l 0.6143814,1.119 z"
       style="fill:#808000;stroke:none" />
    <path
       style="fill:#808000;stroke:none"
       d="m 5.8724594,1032.9524 -0.9729626,-0.3983 c 0,0 -0.022899,-0.3514 -0.2431035,-0.5073 -0.2520066,-0.1783 -0.539208,-0.1554 -0.7233026,0.1001 -0.1982324,0.2764 -0.1152295,0.5766 0.1050413,0.7082 0.1897656,0.1132 0.626026,0.053 0.626026,0.053 l 1.1175087,0.6171 z"
       id="path7758"
       inkscape:connector-curvature="0"
       sodipodi:nodetypes="ccsssccc" />
    <path
       sodipodi:nodetypes="ccsssccc"
       inkscape:connector-curvature="0"
       id="path7760"
       d="m 5.6252388,1033.3534 -1.0345277,0.1875 c 0,0 -0.2083049,-0.2839 -0.4777966,-0.2968 -0.3082917,-0.015 -0.5384532,0.1579 -0.5558922,0.4734 -0.018519,0.3396 0.2129572,0.5481 0.4694554,0.5405 0.2207869,-0.01 0.5561578,-0.2924 0.5561578,-0.2924 l 1.2739578,-0.081 z"
       style="fill:#808000;stroke:none" />
    <path
       style="fill:#808000;stroke:none"
       d="m 5.7099604,1033.7777 -0.6608359,0.8177 c 0,0 -0.3431471,-0.079 -0.5556113,0.087 -0.2431885,0.1902 -0.3045544,0.4714 -0.1116272,0.7217 0.2077863,0.2691 0.5192487,0.2758 0.708507,0.1027 0.163014,-0.1493 0.2301503,-0.5847 0.2301503,-0.5847 l 0.9115936,-0.8935 z"
       id="path7762"
       inkscape:connector-curvature="0"
       sodipodi:nodetypes="ccsssccc" />
    <path
       transform="matrix(0.94374954,-0.33066116,0.33066116,0.94374954,-9.0046517,1029.6825)"
       d="m 13.939732,8.6071424 c 0,0.5362587 -0.414737,0.9709822 -0.92634,0.9709822 -0.511603,0 -0.926339,-0.4347235 -0.926339,-0.9709822 0,-0.5362586 0.414736,-0.9709821 0.926339,-0.9709821 0.511603,0 0.92634,0.4347235 0.92634,0.9709821 z"
       sodipodi:ry="0.97098213"
       sodipodi:rx="0.92633927"
       sodipodi:cy="8.6071424"
       sodipodi:cx="13.013392"
       id="path7764"
       style="fill:#808000;fill-opacity:1;stroke:none"
       sodipodi:type="arc" />
    <path
       style="fill:#808000;stroke:none"
       d="m 8.4443044,1041.1395 c -0.6825914,-1.0509 -1.6346008,-1.8511 -2.9014353,-1.5593 -1.2668625,0.2918 -2.5206191,2.3613 -3.2415194,2.8107 -0.7208598,0.4491 -2.08447571,1.3045 -1.53140313,2.1209 0.55304473,0.8165 0.25112933,0.5441 1.11786503,0.8504 0.3566225,0.126 4.5760156,-0.8756 5.13509,-1.3938 0.7857998,-0.7284 1.80064,-1.8653 1.4214028,-2.8289 z"
       id="path7766"
       inkscape:connector-curvature="0"
       sodipodi:nodetypes="csssssc" />
    <path
       sodipodi:type="arc"
       style="fill:#000000;fill-opacity:1;stroke:none"
       id="path7768"
       sodipodi:cx="8.1443548"
       sodipodi:cy="25.434008"
       sodipodi:rx="0.56821078"
       sodipodi:ry="0.56821078"
       d="m 8.7125656,25.434008 a 0.56821078,0.56821078 0 1 1 -1.1364216,0 0.56821078,0.56821078 0 1 1 1.1364216,0 z"
       transform="matrix(0.4805538,0.12316742,-0.1385544,0.42718654,6.4532748,1031.153)" />
    <path
       sodipodi:type="arc"
       style="fill:#ff0000;fill-opacity:1;stroke:none"
       id="path7770"
       sodipodi:cx="6.1871843"
       sodipodi:cy="23.792511"
       sodipodi:rx="0.50507629"
       sodipodi:ry="0.50507629"
       d="m 6.6922606,23.792511 c 0,0.278946 -0.2261303,0.505076 -0.5050763,0.505076 -0.2789459,0 -0.5050763,-0.22613 -0.5050763,-0.505076 0,-0.278946 0.2261304,-0.505076 0.5050763,-0.505076 0.278946,0 0.5050763,0.22613 0.5050763,0.505076 z"
       transform="matrix(0.9608592,0.27703717,-0.27703717,0.9608592,5.9689674,1016.4526)" />
    <path
       sodipodi:type="arc"
       style="fill:#445016;fill-opacity:1;stroke:none"
       id="path7772"
       sodipodi:cx="17.267296"
       sodipodi:cy="15.490319"
       sodipodi:rx="1.1679889"
       sodipodi:ry="1.1048543"
       d="m 18.435285,15.490319 c 0,0.610194 -0.522927,1.104855 -1.167989,1.104855 -0.645063,0 -1.167989,-0.494661 -1.167989,-1.104855 0,-0.610194 0.522926,-1.104854 1.167989,-1.104854 0.645062,0 1.167989,0.49466 1.167989,1.104854 z"
       transform="matrix(0.9608592,0.27703717,-0.27703717,0.9608592,5.3973257,1016.1563)" />
    <path
       sodipodi:type="arc"
       style="fill:#445016;fill-opacity:1;stroke:none"
       id="path7774"
       sodipodi:cx="14.615644"
       sodipodi:cy="20.256977"
       sodipodi:rx="1.0417198"
       sodipodi:ry="1.0101526"
       d="m 15.657364,20.256977 c 0,0.557892 -0.466394,1.010153 -1.04172,1.010153 -0.575326,0 -1.041719,-0.452261 -1.041719,-1.010153 0,-0.557892 0.466393,-1.010152 1.041719,-1.010152 0.575326,0 1.04172,0.45226 1.04172,1.010152 z"
       transform="matrix(0.9608592,0.27703717,-0.27703717,0.9608592,6.567419,1016.4279)" />
    <path
       sodipodi:type="arc"
       style="fill:#445016;fill-opacity:1;stroke:none"
       id="path7776"
       sodipodi:cx="21.686712"
       sodipodi:cy="13.97509"
       sodipodi:rx="1.1048543"
       sodipodi:ry="1.1048543"
       d="m 22.791567,13.97509 c 0,0.610194 -0.494661,1.104854 -1.104855,1.104854 -0.610194,0 -1.104854,-0.49466 -1.104854,-1.104854 0,-0.610194 0.49466,-1.104854 1.104854,-1.104854 0.610194,0 1.104855,0.49466 1.104855,1.104854 z"
       transform="matrix(0.9608592,0.27703717,-0.27703717,0.9608592,5.9689674,1016.4526)" />
    <path
       sodipodi:type="arc"
       style="fill:#445016;fill-opacity:1;stroke:none"
       id="path7778"
       sodipodi:cx="9.5648823"
       sodipodi:cy="20.130707"
       sodipodi:rx="0.9785853"
       sodipodi:ry="0.94701803"
       d="m 10.543468,20.130707 c 0,0.523023 -0.438128,0.947018 -0.9785857,0.947018 -0.5404578,0 -0.9785853,-0.423995 -0.9785853,-0.947018 0,-0.523024 0.4381275,-0.947018 0.9785853,-0.947018 0.5404577,0 0.9785857,0.423994 0.9785857,0.947018 z"
       transform="matrix(0.9608592,0.27703717,-0.27703717,0.9608592,7.3221746,1016.317)" />
    <path
       style="fill:#ccff00;stroke:none;stroke-width:1px;stroke-linecap:butt;stroke-linejoin:miter;stroke-opacity:1"
       d="m 6.3134534,24.171318 c 0,0 0.063135,3.093592 0.063135,3.661803 0,0.568211 -0.063135,1.515229 -0.4419418,1.515229 -0.3788072,0 -0.3156727,-0.69448 -0.3156727,-1.010153 0,-0.315673 -0.063135,-3.409265 -0.063135,-3.409265 0,0 -0.5050763,0.505076 -0.3788072,1.010153 0.1262691,0.505076 -0.1262691,1.073287 -0.1262691,1.515229 0,0.441941 0.1894036,0.947018 0.1894036,1.26269 0,0.315673 -0.1894036,0.947018 -0.5050762,0.947018 -0.3156727,0 -0.7576144,-0.189403 -0.6944799,-0.631345 0.063135,-0.441942 0.1894036,-0.568211 0.1894036,-1.073287 0,-0.505076 -0.1894036,-1.010153 -0.3156727,-0.631346 -0.126269,0.378808 0.063135,1.199557 -0.3156726,1.010153 C 3.2198612,28.148793 3.1567267,25.118336 3.1567267,25.118336 z"
       id="path7911"
       inkscape:connector-curvature="0"
       transform="translate(0,1020.3622)" />
    <path
       style="fill:#550000;stroke:none;stroke-width:1px;stroke-linecap:butt;stroke-linejoin:miter;stroke-opacity:1"
       d="m 18.24588,20.130708 c 0,0 1.767767,-0.378808 2.209709,-0.883884 0.441942,-0.505076 0.252538,-2.399112 0.315673,-2.967323 0.06313,-0.568211 -0.12627,-1.452094 -0.820749,-1.515229 -0.69448,-0.06313 -0.757615,0.947018 -0.757615,1.38896 0,0.441942 0.757615,0.69448 0.126269,1.704632 -0.631345,1.010153 -1.073287,2.272844 -1.073287,2.272844 z"
       id="path9813"
       inkscape:connector-curvature="0"
       transform="translate(0,1020.3622)" />
    <path
       style="fill:#550000;stroke:none;stroke-width:1px;stroke-linecap:butt;stroke-linejoin:miter;stroke-opacity:1"
       d="m 11.932427,15.774425 c 0.441942,-0.568211 2.462247,-1.010153 2.462247,-1.010153 0,0 -0.757615,0.757615 -0.441942,1.452095 0.315673,0.694479 1.515229,1.388959 1.199556,1.95717 -0.315673,0.568211 -1.199556,0.757615 -1.515229,0.126269 -0.315672,-0.631345 -0.568211,-0.757614 -0.69448,-0.315672 -0.126269,0.441941 -0.441941,1.073287 -0.631345,0.631345 -0.189404,-0.441942 -0.378807,-2.841054 -0.378807,-2.841054 z"
       id="path9815"
       inkscape:connector-curvature="0"
       transform="translate(0,1020.3622)" />
  </g>
</svg>
