<?xml version="1.0" encoding="UTF-8" standalone="no"?>
<!-- Created with Inkscape (http://www.inkscape.org/) -->

<svg
   xmlns:dc="http://purl.org/dc/elements/1.1/"
   xmlns:cc="http://creativecommons.org/ns#"
   xmlns:rdf="http://www.w3.org/1999/02/22-rdf-syntax-ns#"
   xmlns:svg="http://www.w3.org/2000/svg"
   xmlns="http://www.w3.org/2000/svg"
   xmlns:sodipodi="http://sodipodi.sourceforge.net/DTD/sodipodi-0.dtd"
   xmlns:inkscape="http://www.inkscape.org/namespaces/inkscape"
   width="32"
   height="32"
   id="svg4766"
   version="1.1"
   inkscape:version="0.48.2 r9819"
   sodipodi:docname="meat!.svg"
   inkscape:export-filename="/Users/e0/Dropbox/Iamagamer2013/art/meat!.png"
   inkscape:export-xdpi="90"
   inkscape:export-ydpi="90">
  <defs
     id="defs4768" />
  <sodipodi:namedview
     id="base"
     pagecolor="#ffffff"
     bordercolor="#666666"
     borderopacity="1.0"
     inkscape:pageopacity="0.0"
     inkscape:pageshadow="2"
     inkscape:zoom="15.839192"
     inkscape:cx="21.335847"
     inkscape:cy="15.200368"
     inkscape:document-units="px"
     inkscape:current-layer="layer1"
     showgrid="false"
     inkscape:window-width="1280"
     inkscape:window-height="716"
     inkscape:window-x="0"
     inkscape:window-y="0"
     inkscape:window-maximized="0" />
  <metadata
     id="metadata4771">
    <rdf:RDF>
      <cc:Work
         rdf:about="">
        <dc:format>image/svg+xml</dc:format>
        <dc:type
           rdf:resource="http://purl.org/dc/dcmitype/StillImage" />
        <dc:title></dc:title>
      </cc:Work>
    </rdf:RDF>
  </metadata>
  <g
     inkscape:label="Layer 1"
     inkscape:groupmode="layer"
     id="layer1"
     transform="translate(0,-1020.3622)">
    <path
       style="fill:#c8b7b7;stroke:none;stroke-width:1px;stroke-linecap:butt;stroke-linejoin:miter;stroke-opacity:1"
       d="M 20.581858,7.3775317 6.6291261,24.360721 c 0,0 -2.841054,-1.515228 -3.661803,-0.56821 -0.8207489,0.947018 -1.3889597,3.030457 -0.8207489,3.598668 0.5682108,0.568211 3.8512066,0.252538 3.8512066,0.252538 0,0 -1.0732871,1.957171 -0.1894037,2.525382 0.8838835,0.56821 2.3359778,0.757614 3.3461304,0.06313 1.0101525,-0.69448 -0.063135,-3.914341 -0.063135,-3.914341 L 22.791567,8.8927605 c 0,0 2.525381,1.1995565 3.598668,0.3156726 1.073287,-0.8838834 1.515229,-2.4622468 0.883884,-3.2829957 -0.631346,-0.820749 -3.851207,-0.3788072 -3.851207,-0.3788072 0,0 1.073287,-2.4622469 -0.126269,-2.7779195 -1.199556,-0.3156727 -2.714785,-0.820749 -3.282996,0.126269 -0.56821,0.947018 0.568211,4.482552 0.568211,4.482552 z"
       id="path4774"
       inkscape:connector-curvature="0"
       transform="translate(0,1020.3622)" />
    <path
       style="fill:#a02c2c;stroke:none"
       d="m 17.614535,8.955895 c 0,0 6.060915,2.65165 5.745243,3.472399 -0.315673,0.820749 1.641498,4.671956 0.69448,6.313454 -0.947018,1.641498 -3.282996,5.682108 -4.924494,6.060915 -1.641498,0.378807 -5.177032,1.515229 -6.629126,0.378807 C 11.048543,24.045049 6.5659916,21.077726 6.4397225,19.625632 6.3134534,18.173537 6.2503189,14.701137 6.9447988,13.943523 7.6392787,13.185908 10.922275,8.8296259 12.184965,8.7033568 c 1.262691,-0.126269 5.42957,0.2525382 5.42957,0.2525382 z"
       id="path4776"
       inkscape:connector-curvature="0"
       transform="translate(0,1020.3622)"
       sodipodi:nodetypes="csssssssc" />
    <path
       sodipodi:type="arc"
       style="fill:#552200;fill-opacity:1;stroke:none"
       id="path4778"
       sodipodi:cx="13.826463"
       sodipodi:cy="12.617698"
       sodipodi:rx="0.37880722"
       sodipodi:ry="0.37880722"
       d="m 14.20527,12.617698 a 0.37880722,0.37880722 0 1 1 -0.757614,0 0.37880722,0.37880722 0 1 1 0.757614,0 z"
       transform="translate(0,1020.3622)" />
    <path
       sodipodi:type="arc"
       style="fill:#552200;fill-opacity:1;stroke:none"
       id="path4780"
       sodipodi:cx="9.0598059"
       sodipodi:cy="15.83756"
       sodipodi:rx="0.53664356"
       sodipodi:ry="0.50507629"
       d="m 9.5964494,15.83756 a 0.53664356,0.50507629 0 1 1 -1.0732871,0 0.53664356,0.50507629 0 1 1 1.0732871,0 z"
       transform="translate(0,1020.3622)" />
    <path
       sodipodi:type="arc"
       style="fill:#552200;fill-opacity:1;stroke:none"
       id="path4782"
       sodipodi:cx="13.416088"
       sodipodi:cy="21.14086"
       sodipodi:rx="0.72604716"
       sodipodi:ry="0.69447988"
       d="m 14.142135,21.14086 a 0.72604716,0.69447988 0 1 1 -1.452094,0 0.72604716,0.69447988 0 1 1 1.452094,0 z"
       transform="translate(0,1020.3622)" />
    <path
       sodipodi:type="arc"
       style="fill:#552200;fill-opacity:1;stroke:none"
       id="path4784"
       sodipodi:cx="20.392454"
       sodipodi:cy="20.004438"
       sodipodi:rx="0.82074893"
       sodipodi:ry="0.69447988"
       d="m 21.213203,20.004438 a 0.82074893,0.69447988 0 1 1 -1.641498,0 0.82074893,0.69447988 0 1 1 1.641498,0 z"
       transform="translate(0,1020.3622)" />
    <path
       sodipodi:type="arc"
       style="fill:#552200;fill-opacity:1;stroke:none"
       id="path4786"
       sodipodi:cx="20.013647"
       sodipodi:cy="14.353898"
       sodipodi:rx="0.75761443"
       sodipodi:ry="0.72604716"
       d="m 20.771262,14.353898 a 0.75761443,0.72604716 0 1 1 -1.515229,0 0.75761443,0.72604716 0 1 1 1.515229,0 z"
       transform="translate(0,1020.3622)" />
  </g>
</svg>
