<?xml version="1.0" encoding="UTF-8" standalone="no"?>
<!-- Created with Inkscape (http://www.inkscape.org/) -->

<svg
   xmlns:dc="http://purl.org/dc/elements/1.1/"
   xmlns:cc="http://creativecommons.org/ns#"
   xmlns:rdf="http://www.w3.org/1999/02/22-rdf-syntax-ns#"
   xmlns:svg="http://www.w3.org/2000/svg"
   xmlns="http://www.w3.org/2000/svg"
   xmlns:sodipodi="http://sodipodi.sourceforge.net/DTD/sodipodi-0.dtd"
   xmlns:inkscape="http://www.inkscape.org/namespaces/inkscape"
   width="32"
   height="32"
   id="svg2993"
   version="1.1"
   inkscape:version="0.48.2 r9819"
   sodipodi:docname="rat-angry.svg"
   inkscape:export-filename="C:\Users\colin\Dropbox\Iamagamer2013\art\rat-angry.png"
   inkscape:export-xdpi="90"
   inkscape:export-ydpi="90">
  <defs
     id="defs2995" />
  <sodipodi:namedview
     id="base"
     pagecolor="#ffffff"
     bordercolor="#666666"
     borderopacity="1.0"
     inkscape:pageopacity="0.0"
     inkscape:pageshadow="2"
     inkscape:zoom="10.88"
     inkscape:cx="35.676847"
     inkscape:cy="9.5496194"
     inkscape:document-units="px"
     inkscape:current-layer="layer1"
     showgrid="false"
     inkscape:window-width="1280"
     inkscape:window-height="716"
     inkscape:window-x="0"
     inkscape:window-y="0"
     inkscape:window-maximized="0"
     showguides="true"
     inkscape:guide-bbox="true" />
  <metadata
     id="metadata2998">
    <rdf:RDF>
      <cc:Work
         rdf:about="">
        <dc:format>image/svg+xml</dc:format>
        <dc:type
           rdf:resource="http://purl.org/dc/dcmitype/StillImage" />
        <dc:title></dc:title>
      </cc:Work>
    </rdf:RDF>
  </metadata>
  <g
     inkscape:label="Layer 1"
     inkscape:groupmode="layer"
     id="layer1"
     transform="translate(0,-1020.3622)">
    <path
       style="fill:#552200;stroke:#552200;stroke-width:0.89566314px;stroke-linecap:butt;stroke-linejoin:miter;stroke-opacity:1"
       d="m 1.9713207,1029.5409 c -0.5030171,-1.3876 1.4484383,-1.8535 3.0855776,-2.2196 1.6372719,-0.3664 2.1068555,-2.987 4.1097497,-3.1067 2.003028,-0.1197 3.887083,1.5683 3.496739,2.9837 -0.390227,1.4155 -1.076227,4.1 -1.99699,3.8997 -0.9205514,-0.2008 -7.8894432,0 -8.3376757,-0.9272 -0.4481502,-0.931 -0.3574411,-0.6295 -0.3574411,-0.6295 z"
       id="path3001"
       inkscape:connector-curvature="0"
       sodipodi:nodetypes="csssssc" />
    <path
       sodipodi:type="arc"
       style="fill:#ff0000;stroke:none"
       id="path3012"
       sodipodi:cx="14.363107"
       sodipodi:cy="33.553455"
       sodipodi:rx="0.78918165"
       sodipodi:ry="0.78918165"
       d="m 15.152288,33.553455 a 0.78918165,0.78918165 0 1 1 -1.578363,0 0.78918165,0.78918165 0 1 1 1.578363,0 z"
       transform="matrix(0.92279511,0.55590889,-0.69645278,0.96159622,19.090156,987.50075)" />
    <path
       transform="matrix(0.82153709,0.56950033,-0.6414219,1.0206142,16.914661,983.68312)"
       d="m 15.152288,33.553455 a 0.78918165,0.78918165 0 1 1 -1.578363,0 0.78918165,0.78918165 0 1 1 1.578363,0 z"
       sodipodi:ry="0.78918165"
       sodipodi:rx="0.78918165"
       sodipodi:cy="33.553455"
       sodipodi:cx="14.363107"
       id="path3014"
       style="fill:#ff0000;stroke:none"
       sodipodi:type="arc" />
    <path
       style="fill:#552200;stroke:none"
       d="m 11.620525,1025.8402 c 0.545401,-0.078 3.43092,-0.1375 3.43092,-0.1375 0,0 0.166932,2.7082 -1.177181,3.0642 -1.344062,0.3556 -2.365861,-1.2223 -2.365861,-1.2223 z"
       id="path3018"
       inkscape:connector-curvature="0" />
    <path
       inkscape:connector-curvature="0"
       id="path3020"
       d="m 10.880153,1026.3807 c 0.177269,-0.5826 0.807341,-3.7357 0.807341,-3.7357 0,0 -2.3364514,-0.7256 -2.9171048,0.6774 -0.5806788,1.4033 0.5957306,2.8399 0.5957306,2.8399 z"
       style="fill:#552200;stroke:none" />
    <path
       style="fill:#552200;stroke:none"
       d="m 8.2218473,1031.1909 c 2.1832237,0.9074 1.0218152,3.9352 2.9182007,5.2817 3.285946,4.0764 6.162531,6.231 10.793656,8.2936 2.566468,0.7656 5.970301,-0.6945 6.002248,-3.1473 -0.295728,-3.0983 -3.858347,-5.2804 -5.883192,-6.0587 -2.796213,-0.8495 -7.78343,-5.3267 -9.666343,-7.4818 -2.208471,-0.5402 -0.712516,0.7175 -2.9817264,2.4412 -0.3640072,0.2867 -0.7521443,0.5722 -1.1828433,0.6713 z"
       id="path3028"
       inkscape:connector-curvature="0"
       sodipodi:nodetypes="cccccccc" />
    <g
       id="g3037"
       style="stroke-width:1;stroke-miterlimit:4;stroke-dasharray:none"
       transform="matrix(0.68289446,0.45978752,-0.52927429,0.81836773,548.79835,173.539)">
      <path
         transform="translate(0,1002.3622)"
         inkscape:connector-curvature="0"
         id="path3035"
         d="m 34.282052,40.845493 c -0.504283,0.429229 -2.48386,1.164102 -1.010152,2.525381"
         style="fill:none;stroke:#552200;stroke-width:1;stroke-linecap:butt;stroke-linejoin:miter;stroke-miterlimit:4;stroke-opacity:1;stroke-dasharray:none"
         sodipodi:nodetypes="cc" />
      <path
         sodipodi:nodetypes="cc"
         style="fill:none;stroke:#552200;stroke-width:1;stroke-linecap:butt;stroke-linejoin:miter;stroke-miterlimit:4;stroke-opacity:1;stroke-dasharray:none"
         d="m 34.282052,40.845493 c -0.504283,0.429229 -3.816581,1.256014 -2.342873,2.617293"
         id="path3810"
         inkscape:connector-curvature="0"
         transform="translate(0,1002.3622)" />
      <path
         transform="translate(0,1002.3622)"
         inkscape:connector-curvature="0"
         id="path3812"
         d="m 34.695655,41.075272 c -0.504283,0.429229 -1.564743,0.796456 -0.09104,2.157735"
         style="fill:none;stroke:#552200;stroke-width:1;stroke-linecap:butt;stroke-linejoin:miter;stroke-miterlimit:4;stroke-opacity:1;stroke-dasharray:none"
         sodipodi:nodetypes="cc" />
      <path
         sodipodi:nodetypes="cc"
         style="fill:none;stroke:#552200;stroke-width:1;stroke-linecap:butt;stroke-linejoin:miter;stroke-miterlimit:4;stroke-opacity:1;stroke-dasharray:none"
         d="m 20.12764,41.534831 c -0.504283,0.429229 -1.748566,0.290941 -0.274863,1.65222"
         id="path3814"
         inkscape:connector-curvature="0"
         transform="translate(0,1002.3622)" />
      <path
         transform="translate(0,1002.3622)"
         inkscape:connector-curvature="0"
         id="path3820"
         d="m 20.12764,41.534831 c -0.504283,0.429229 -3.357022,0.428809 -1.883319,1.790088"
         style="fill:none;stroke:#552200;stroke-width:1;stroke-linecap:butt;stroke-linejoin:miter;stroke-miterlimit:4;stroke-opacity:1;stroke-dasharray:none"
         sodipodi:nodetypes="cc" />
      <path
         sodipodi:nodetypes="cc"
         style="fill:none;stroke:#552200;stroke-width:1;stroke-linecap:butt;stroke-linejoin:miter;stroke-miterlimit:4;stroke-opacity:1;stroke-dasharray:none"
         d="m 19.759993,41.396963 c -0.504283,0.429229 -4.459963,0.244986 -2.98626,1.606265"
         id="path3822"
         inkscape:connector-curvature="0"
         transform="translate(0,1002.3622)" />
      <path
         transform="translate(0,1002.3622)"
         inkscape:connector-curvature="0"
         id="path3824"
         d="m 17.232419,40.339978 c -0.504283,0.429229 -1.748566,0.290941 -0.274863,1.65222"
         style="fill:none;stroke:#552200;stroke-width:1;stroke-linecap:butt;stroke-linejoin:miter;stroke-miterlimit:4;stroke-opacity:1;stroke-dasharray:none"
         sodipodi:nodetypes="cc" />
      <path
         sodipodi:nodetypes="cc"
         style="fill:none;stroke:#552200;stroke-width:1;stroke-linecap:butt;stroke-linejoin:miter;stroke-miterlimit:4;stroke-opacity:1;stroke-dasharray:none"
         d="m 17.232419,40.339978 c -0.504283,0.429229 -3.357022,0.428809 -1.883319,1.790088"
         id="path3826"
         inkscape:connector-curvature="0"
         transform="translate(0,1002.3622)" />
      <path
         transform="translate(0,1002.3622)"
         inkscape:connector-curvature="0"
         id="path3828"
         d="m 16.864772,40.20211 c -0.504283,0.429229 -4.459963,0.244986 -2.98626,1.606265"
         style="fill:none;stroke:#552200;stroke-width:1;stroke-linecap:butt;stroke-linejoin:miter;stroke-miterlimit:4;stroke-opacity:1;stroke-dasharray:none"
         sodipodi:nodetypes="cc" />
    </g>
    <path
       style="fill:#552200;stroke:none"
       d="m 14.601583,1039.3604 c 0,0 -5.2654307,-1.3317 -5.8318618,-2.6848 -0.566431,-1.3531 5.0549348,1.0335 5.0549348,1.0335 z"
       id="path3818"
       inkscape:connector-curvature="0"
       sodipodi:nodetypes="cscc" />
    <path
       sodipodi:nodetypes="cscc"
       inkscape:connector-curvature="0"
       id="path3830"
       d="m 13.124214,1036.9081 c 0,0 -5.2653755,-1.3316 -5.831816,-2.6846 -0.5663638,-1.3532 5.054943,1.0333 5.054943,1.0333 z"
       style="fill:#552200;stroke:none" />
    <g
       id="g3834"
       style="fill:#ff8080;stroke:none"
       transform="matrix(0.68289446,0.45978752,-0.52927429,0.81836773,548.48139,173.54154)">
      <path
         transform="translate(0,1002.3622)"
         inkscape:connector-curvature="0"
         id="path3832"
         d="m 40.992647,34.926471 c 0,0 6.525735,-0.919118 6.525735,2.849264 0,3.768383 -3.400735,8.731618 -8.455882,9.191177 -5.498919,0.499902 -8.785817,3.994304 -12.468189,3.861368 -3.185858,-0.115011 -6.258317,0.527853 -6.258317,0.527853 0,0 3.282126,-1.543669 5.887122,-1.428186 1.577285,0.06992 10.804284,-3.83516 12.379825,-4.247802 3.860294,-1.01103 6.066177,-3.492647 6.433824,-5.422795 0.367647,-1.930147 0.643382,-2.66544 -0.643383,-3.033087 -1.286764,-0.367647 -2.573529,0 -2.573529,0 0,0 -0.735294,-0.367647 -0.827206,-1.01103 -0.09191,-0.643382 0,-1.286764 0,-1.286762 z"
         style="fill:#ff8080;stroke:none"
         sodipodi:nodetypes="cssscsssscsc" />
    </g>
    <path
       style="fill:#ffaaaa;stroke:none"
       d="m 2.064883,1028.1663 c 0,0 0.2086452,-0.1833 0.5225331,0.027 0.3138432,0.2111 0.5867831,1.043 0.5867831,1.043 0,0 -0.7719492,0.7757 -1.190905,0.1697 -0.4190024,-0.606 0.081654,-1.2408 0.081654,-1.2408 z"
       id="path3837"
       inkscape:connector-curvature="0" />
  </g>
</svg>
