<?xml version="1.0" encoding="UTF-8" standalone="no"?>
<!-- Created with Inkscape (http://www.inkscape.org/) -->

<svg
   xmlns:dc="http://purl.org/dc/elements/1.1/"
   xmlns:cc="http://creativecommons.org/ns#"
   xmlns:rdf="http://www.w3.org/1999/02/22-rdf-syntax-ns#"
   xmlns:svg="http://www.w3.org/2000/svg"
   xmlns="http://www.w3.org/2000/svg"
   xmlns:sodipodi="http://sodipodi.sourceforge.net/DTD/sodipodi-0.dtd"
   xmlns:inkscape="http://www.inkscape.org/namespaces/inkscape"
   width="32"
   height="32"
   id="svg2993"
   version="1.1"
   inkscape:version="0.48.4 r9939"
   sodipodi:docname="rat-dead.svg"
   inkscape:export-filename="C:\Users\colin\Dropbox\Iamagamer2013\art\rat-dead.png"
   inkscape:export-xdpi="90"
   inkscape:export-ydpi="90">
  <defs
     id="defs2995" />
  <sodipodi:namedview
     id="base"
     pagecolor="#ffffff"
     bordercolor="#666666"
     borderopacity="1.0"
     inkscape:pageopacity="0.0"
     inkscape:pageshadow="2"
     inkscape:zoom="15.386644"
     inkscape:cx="20.848813"
     inkscape:cy="13.896919"
     inkscape:document-units="px"
     inkscape:current-layer="layer1"
     showgrid="false"
     inkscape:window-width="1218"
     inkscape:window-height="778"
     inkscape:window-x="54"
     inkscape:window-y="-8"
     inkscape:window-maximized="1" />
  <metadata
     id="metadata2998">
    <rdf:RDF>
      <cc:Work
         rdf:about="">
        <dc:format>image/svg+xml</dc:format>
        <dc:type
           rdf:resource="http://purl.org/dc/dcmitype/StillImage" />
        <dc:title></dc:title>
      </cc:Work>
    </rdf:RDF>
  </metadata>
  <g
     inkscape:label="Layer 1"
     inkscape:groupmode="layer"
     id="layer1"
     transform="translate(0,-1020.3622)">
    <path
       style="fill:#d40000;stroke:none"
       d="m 3.9966564,1039.6626 c 1.2058595,-0.5764 9.3506996,-2.846 10.6763296,-2.3613 1.325631,0.4846 5.111741,2.4864 7.398593,2.9339 2.286851,0.4473 4.372386,0.013 5.66765,0.4545 1.295261,0.4411 2.850257,0.6156 3.540131,2.425 0.689874,1.8093 -0.45481,5.0964 -2.786321,5.9535 -2.331513,0.8573 -6.468278,-1.51 -9.86015,-1.4418 -3.391874,0.068 -7.983088,1.7944 -10.0434344,1.3065 -2.0603452,-0.488 -7.2081707,-2.4787 -7.59972895,-4.3169 -0.39155828,-1.8381 1.80107105,-4.3769 3.00693075,-4.9534 z"
       id="path4955"
       inkscape:connector-curvature="0"
       sodipodi:nodetypes="zssssssssz" />
    <path
       sodipodi:nodetypes="cc"
       style="fill:none;stroke:#552200;stroke-width:0.83684111;stroke-linecap:butt;stroke-linejoin:miter;stroke-miterlimit:4;stroke-opacity:1;stroke-dasharray:none"
       d="m 19.466849,1044.1373 c -0.434339,0.3322 -2.011491,0.7661 -1.094242,2.1911"
       id="path3035"
       inkscape:connector-curvature="0" />
    <path
       inkscape:connector-curvature="0"
       id="path3810"
       d="m 19.466849,1044.1373 c -0.434339,0.3322 -3.019059,0.6891 -2.101811,2.1143"
       style="fill:none;stroke:#552200;stroke-width:0.83684111;stroke-linecap:butt;stroke-linejoin:miter;stroke-miterlimit:4;stroke-opacity:1;stroke-dasharray:none"
       sodipodi:nodetypes="cc" />
    <path
       sodipodi:nodetypes="cc"
       style="fill:none;stroke:#552200;stroke-width:0.83684111;stroke-linecap:butt;stroke-linejoin:miter;stroke-miterlimit:4;stroke-opacity:1;stroke-dasharray:none"
       d="m 19.744774,1044.3978 c -0.434338,0.3322 -1.275663,0.5404 -0.358421,1.9654"
       id="path3812"
       inkscape:connector-curvature="0" />
    <path
       inkscape:connector-curvature="0"
       id="path3814"
       d="m 8.2681332,1044.2055 c -0.4343384,0.3322 -1.3448847,0.055 -0.4276395,1.4803"
       style="fill:none;stroke:#552200;stroke-width:0.83684111;stroke-linecap:butt;stroke-linejoin:miter;stroke-miterlimit:4;stroke-opacity:1;stroke-dasharray:none"
       sodipodi:nodetypes="cc" />
    <path
       sodipodi:nodetypes="cc"
       style="fill:none;stroke:#552200;stroke-width:0.83684111;stroke-linecap:butt;stroke-linejoin:miter;stroke-miterlimit:4;stroke-opacity:1;stroke-dasharray:none"
       d="m 8.2681332,1044.2055 c -0.4343384,0.3322 -2.5645408,-0.013 -1.6472956,1.4122"
       id="path3820"
       inkscape:connector-curvature="0" />
    <path
       inkscape:connector-curvature="0"
       id="path3822"
       d="m 8.0121543,1044.0348 c -0.4343372,0.3323 -3.3634064,-0.3147 -2.4461619,1.1104"
       style="fill:none;stroke:#552200;stroke-width:0.83684111;stroke-linecap:butt;stroke-linejoin:miter;stroke-miterlimit:4;stroke-opacity:1;stroke-dasharray:none"
       sodipodi:nodetypes="cc" />
    <path
       style="fill:#552200;stroke:none"
       d="m 12.076529,1041.1507 c 0,0 -3.2625045,3.9863 -4.5899237,3.9037 -1.3274021,-0.084 2.9309897,-3.9335 2.9309897,-3.9335 z"
       id="path3818"
       inkscape:connector-curvature="0"
       sodipodi:nodetypes="cscc" />
    <path
       inkscape:connector-curvature="0"
       id="path4947"
       d="m 20.92084,1037.3094 -1.502722,-1.3282 -0.788804,0.813 2.150408,1.2255 z"
       style="fill:#c8b7b7;stroke:none"
       sodipodi:nodetypes="ccccc" />
    <path
       sodipodi:nodetypes="csscccsssc"
       inkscape:connector-curvature="0"
       id="path4429"
       d="m 20.147269,1036.1041 c 0,0 0.156838,1.6844 0.129147,1.8727 -0.02769,0.1885 -0.693446,0.4665 -0.886912,0.7825 -0.19345,0.3158 -0.395491,1.4406 -0.395491,1.4406 l 0.259376,0.7365 -1.030533,0.7591 c 0,0 5.874327,1.7998 6.995771,1.6727 1.12146,-0.127 3.212875,-1.6019 3.155194,-2.4601 -0.05178,-0.7702 -0.501073,-1.8614 -1.681107,-2.8185 -1.248104,-1.0123 -6.545445,-1.9855 -6.545445,-1.9855 z"
       style="fill:#552200;stroke:none" />
    <g
       id="g3834"
       style="fill:#ff8080;stroke:none"
       transform="matrix(0.74673983,0.12088253,-0.13460376,0.9160243,136.00995,83.75438)">
      <path
         transform="translate(0,1002.3622)"
         inkscape:connector-curvature="0"
         id="path3832"
         d="m 40.992647,34.926471 c 0,0 6.525735,-0.919118 6.525735,2.849264 0,3.768383 -3.400735,8.731618 -8.455882,9.191177 -5.498919,0.499902 -11.725129,1.969513 -14.298659,0.315102 -2.517168,-1.618179 -4.145622,-1.948562 -4.145622,-1.948562 0,0 3.729892,0.560255 4.740922,1.571284 1.011029,1.01103 11.956754,-0.359402 13.532295,-0.772044 3.860294,-1.01103 6.595084,-4.150897 6.962731,-6.081045 0.367647,-1.930147 -0.17402,-2.459737 -1.460785,-2.827384 -1.286764,-0.367647 -2.573529,0 -2.573529,0 0,0 -0.735294,-0.367647 -0.827206,-1.01103 -0.09191,-0.643382 0,-1.286764 0,-1.286762 z"
         style="fill:#ff8080;stroke:none"
         sodipodi:nodetypes="cssscsssscsc" />
    </g>
    <path
       style="fill:#c8b7b7;stroke:none"
       d="m 15.640158,1036.4966 2.870854,-0.3703 -0.9082,0.9862 -2.062564,0.2906 z"
       id="path4945"
       inkscape:connector-curvature="0" />
    <path
       sodipodi:nodetypes="cscc"
       inkscape:connector-curvature="0"
       id="path4431"
       d="m 24.52748,1041.8518 c 0,0 -4.358118,3.4759 -5.670099,2.9953 -1.311951,-0.4808 4.010542,-3.5142 4.010542,-3.5142 z"
       style="fill:#552200;stroke:none" />
    <path
       style="fill:none;stroke:#ff0000;stroke-width:0.22907411;stroke-linecap:round;stroke-linejoin:miter;stroke-miterlimit:4;stroke-opacity:1;stroke-dasharray:none"
       d="m 16.629015,1035.9974 c 0,0 -0.536437,1.6494 -0.641472,1.8639 -0.105039,0.2145 0.516244,0.7395 0.596272,0.9453 0.08003,0.2059 0.09342,1.3656 -0.113789,1.5249 -0.207214,0.1593 -0.428362,0.6637 -0.428362,0.6637 l 0.703988,0.9627"
       id="path4433"
       inkscape:connector-curvature="0"
       sodipodi:nodetypes="cscscc" />
    <path
       style="fill:#552200;stroke:none"
       d="m 16.587572,1036.0294 c 0,0 -0.633077,1.5565 -0.660765,1.7449 -0.02769,0.1883 0.527321,0.6641 0.621102,1.0264 0.09378,0.3625 -0.03645,1.4989 -0.03645,1.4989 l -0.458728,0.6203 0.764723,1.0497 c 0,0 -6.117984,-0.1415 -7.1508366,-0.6175 -1.0328504,-0.4758 -2.9736864,-3.0278 -2.3023851,-3.3434 0.6713015,-0.3158 1.0257203,-0.9585 2.4256526,-1.4979 1.4806851,-0.5705 6.7976801,-0.4814 6.7976801,-0.4814 z"
       id="path4427"
       inkscape:connector-curvature="0"
       sodipodi:nodetypes="csscccsssc" />
    <path
       inkscape:connector-curvature="0"
       id="path4943"
       d="m 20.131282,1036.1785 c 0,0 0.361191,1.7947 0.256156,2.0092 -0.105039,0.2146 -0.922639,0.2751 -0.842612,0.4809 0.08003,0.2058 -0.489276,1.0782 -0.503211,1.4233 -0.01084,0.2694 0.237223,0.8872 0.237223,0.8872 l -0.886912,0.7824"
       style="fill:none;stroke:#ff0000;stroke-width:0.22907411;stroke-linecap:round;stroke-linejoin:miter;stroke-miterlimit:4;stroke-opacity:1;stroke-dasharray:none"
       sodipodi:nodetypes="cscscc" />
    <path
       sodipodi:nodetypes="ccccc"
       style="fill:#c8b7b7;stroke:none"
       d="m 16.534706,1037.1395 0.159685,1.4149 0.231857,0.4234 -0.01588,-1.8932 z"
       id="path4949"
       inkscape:connector-curvature="0" />
    <path
       inkscape:connector-curvature="0"
       id="path4951"
       d="m 11.434846,1043.8394 2.879125,0.2315 0.926201,-1.0277 -3.771102,-0.2393 z"
       style="fill:#c8b7b7;stroke:none"
       sodipodi:nodetypes="ccccc" />
    <path
       sodipodi:nodetypes="ccccc"
       style="fill:#c8b7b7;stroke:none"
       d="m 16.551783,1042.7004 1.697664,0.9764 1.122543,-0.5688 -1.909833,-0.7481 z"
       id="path4953"
       inkscape:connector-curvature="0" />
    <path
       style="fill:#552200;stroke:#552200;stroke-width:0.83684111px;stroke-linecap:butt;stroke-linejoin:miter;stroke-opacity:1"
       d="m 0.74225875,1039.7053 c -0.42136473,-1.3313 1.39092605,-1.7002 2.91053855,-1.986 1.5197633,-0.286 2.0320505,-2.7484 3.8812158,-2.7874 1.8492807,-0.04 3.5340259,1.6275 3.1313569,2.9524 -0.402537,1.3247 -1.1161886,3.8394 -1.9585302,3.616 -0.842141,-0.2242 -7.2696585,-0.2888 -7.6544062,-1.1858 -0.38466271,-0.8974 -0.31024305,-0.6087 -0.31024305,-0.6087 z"
       id="path3001"
       inkscape:connector-curvature="0"
       sodipodi:nodetypes="csssssc" />
    <path
       sodipodi:type="arc"
       style="fill:#ff0000;stroke:none"
       id="path3012"
       sodipodi:cx="14.363107"
       sodipodi:cy="33.553455"
       sodipodi:rx="0.78918165"
       sodipodi:ry="0.78918165"
       d="m 15.152288,33.553455 a 0.78918165,0.78918165 0 1 1 -1.578363,0 0.78918165,0.78918165 0 1 1 1.578363,0 z"
       transform="matrix(0.44964707,0.04568578,0.66167791,0.66796318,-21.098509,1015.3166)" />
    <path
       style="fill:#552200;stroke:none"
       d="m 9.7457145,1036.5606 c 0.5049065,-0.054 3.1655145,0 3.1655145,0 0,0 0.07154,2.5687 -1.177739,2.8556 -1.249283,0.287 -2.1428644,-1.2438 -2.1428644,-1.2438 z"
       id="path3018"
       inkscape:connector-curvature="0" />
    <path
       inkscape:connector-curvature="0"
       id="path3020"
       d="m 9.0470887,1037.0447 c 0.1810377,-0.5448 0.8573572,-3.5048 0.8573572,-3.5048 0,0 -2.1308135,-0.7731 -2.7084798,0.5331 -0.5776606,1.3062 0.4626639,2.7091 0.4626639,2.7091 z"
       style="fill:#552200;stroke:none" />
    <path
       style="fill:#ffaaaa;stroke:none"
       d="m 0.87021042,1038.4082 c 0,0 0.19782658,-0.1658 0.48058208,0.046 0.2827562,0.2114 0.5089895,1.0085 0.5089895,1.0085 0,0 -0.7348469,0.7054 -1.10248414,0.1162 -0.36768729,-0.5889 0.11291256,-1.171 0.11291256,-1.171 z"
       id="path3837"
       inkscape:connector-curvature="0" />
    <path
       transform="matrix(0.44964707,0.04568578,0.66167791,0.66796318,-23.161164,1013.5937)"
       d="m 15.152288,33.553455 a 0.78918165,0.78918165 0 1 1 -1.578363,0 0.78918165,0.78918165 0 1 1 1.578363,0 z"
       sodipodi:ry="0.78918165"
       sodipodi:rx="0.78918165"
       sodipodi:cy="33.553455"
       sodipodi:cx="14.363107"
       id="path4425"
       style="fill:#ff0000;stroke:none"
       sodipodi:type="arc" />
  </g>
</svg>
