<?xml version="1.0" encoding="UTF-8" standalone="no"?>
<!-- Created with Inkscape (http://www.inkscape.org/) -->

<svg
   xmlns:dc="http://purl.org/dc/elements/1.1/"
   xmlns:cc="http://creativecommons.org/ns#"
   xmlns:rdf="http://www.w3.org/1999/02/22-rdf-syntax-ns#"
   xmlns:svg="http://www.w3.org/2000/svg"
   xmlns="http://www.w3.org/2000/svg"
   xmlns:sodipodi="http://sodipodi.sourceforge.net/DTD/sodipodi-0.dtd"
   xmlns:inkscape="http://www.inkscape.org/namespaces/inkscape"
   width="32"
   height="32"
   id="svg2993"
   version="1.1"
   inkscape:version="0.48.2 r9819"
   sodipodi:docname="rat-calm.svg"
   inkscape:export-filename="C:\Users\colin\Dropbox\Iamagamer2013\art\rat-calm.png"
   inkscape:export-xdpi="90"
   inkscape:export-ydpi="90">
  <defs
     id="defs2995" />
  <sodipodi:namedview
     id="base"
     pagecolor="#ffffff"
     bordercolor="#666666"
     borderopacity="1.0"
     inkscape:pageopacity="0.0"
     inkscape:pageshadow="2"
     inkscape:zoom="10.88"
     inkscape:cx="35.676847"
     inkscape:cy="16.897827"
     inkscape:document-units="px"
     inkscape:current-layer="layer1"
     showgrid="false"
     inkscape:window-width="1280"
     inkscape:window-height="716"
     inkscape:window-x="0"
     inkscape:window-y="0"
     inkscape:window-maximized="0" />
  <metadata
     id="metadata2998">
    <rdf:RDF>
      <cc:Work
         rdf:about="">
        <dc:format>image/svg+xml</dc:format>
        <dc:type
           rdf:resource="http://purl.org/dc/dcmitype/StillImage" />
        <dc:title></dc:title>
      </cc:Work>
    </rdf:RDF>
  </metadata>
  <g
     inkscape:label="Layer 1"
     inkscape:groupmode="layer"
     id="layer1"
     transform="translate(0,-1020.3622)">
    <path
       style="fill:#552200;stroke:#552200;stroke-width:0.89566314px;stroke-linecap:butt;stroke-linejoin:miter;stroke-opacity:1"
       d="m 2.0605175,1041.9124 c -1.18631194,-0.8781 0.1821377,-2.3453 1.3439026,-3.5554 1.161716,-1.2105 0.1041083,-3.6538 1.7068776,-4.8609 1.6028326,-1.2072 4.1060005,-0.8423 4.5633172,0.5529 0.4574211,1.3952 1.3700331,4.0114 0.4920651,4.3536 -0.8781124,0.3415 -6.5721898,4.3646 -7.4600745,3.8371 -0.8882006,-0.528 -0.6459017,-0.3269 -0.6459017,-0.3269 z"
       id="path3001"
       inkscape:connector-curvature="0"
       sodipodi:nodetypes="csssssc" />
    <path
       sodipodi:type="arc"
       style="fill:#000000;stroke:none"
       id="path3012"
       sodipodi:cx="14.363107"
       sodipodi:cy="33.553455"
       sodipodi:rx="0.78918165"
       sodipodi:ry="0.78918165"
       d="m 15.152288,33.553455 a 0.78918165,0.78918165 0 1 1 -1.578363,0 0.78918165,0.78918165 0 1 1 1.578363,0 z"
       transform="matrix(1.0762798,-0.04698093,-0.04867613,1.1863155,-6.9182782,997.41741)" />
    <path
       transform="matrix(0.99942012,0.02032805,0.02980888,1.2050672,-10.84173,995.43913)"
       d="m 15.152288,33.553455 a 0.78918165,0.78918165 0 1 1 -1.578363,0 0.78918165,0.78918165 0 1 1 1.578363,0 z"
       sodipodi:ry="0.78918165"
       sodipodi:rx="0.78918165"
       sodipodi:cy="33.553455"
       sodipodi:cx="14.363107"
       id="path3014"
       style="fill:#000000;stroke:none"
       sodipodi:type="arc" />
    <path
       style="fill:#552200;stroke:none"
       d="m 8.0547696,1033.4939 c 0.4114669,-0.3663 2.7828084,-2.0115 2.7828084,-2.0115 0,0 1.636432,2.1644 0.713264,3.2042 -0.923345,1.0394 -2.6471619,0.2895 -2.6471619,0.2895 z"
       id="path3018"
       inkscape:connector-curvature="0" />
    <path
       inkscape:connector-curvature="0"
       id="path3020"
       d="m 7.7366785,1034.3536 c -0.1744214,-0.5835 -1.3927017,-3.5592 -1.3927017,-3.5592 0,0 -2.348021,0.6872 -2.0561583,2.1773 0.2920069,1.4904 2.0664938,2.037 2.0664938,2.037 z"
       style="fill:#552200;stroke:none" />
    <path
       style="fill:#552200;stroke:none"
       d="m 8.181098,1039.8315 c 2.320866,-0.451 3.027152,2.7141 5.351782,2.7876 4.99179,1.58 8.579979,1.7849 13.579304,0.9431 2.5618,-0.781 4.590827,-3.8795 3.26135,-5.941 -1.959459,-2.4183 -6.134454,-2.2668 -8.252025,-1.7958 -2.799623,0.8381 -9.430644,-0.1352 -12.1911041,-0.8899 -2.1388674,0.7709 -0.1970021,0.9918 -1.1348725,3.6826 -0.1447964,0.4402 -0.3103351,0.8927 -0.6144344,1.2134 z"
       id="path3028"
       inkscape:connector-curvature="0"
       sodipodi:nodetypes="cccccccc" />
    <path
       sodipodi:nodetypes="cc"
       style="fill:none;stroke:#552200;stroke-width:0.89566314;stroke-linecap:butt;stroke-linejoin:miter;stroke-miterlimit:4;stroke-opacity:1;stroke-dasharray:none"
       d="m 24.595727,1043.1471 c -0.410235,0.4155 -2.031489,1.1206 -0.802708,2.4555"
       id="path3035"
       inkscape:connector-curvature="0" />
    <path
       inkscape:connector-curvature="0"
       id="path3810"
       d="m 24.595727,1043.1471 c -0.410235,0.4155 -3.127583,1.2028 -1.898801,2.5376"
       style="fill:none;stroke:#552200;stroke-width:0.89566314;stroke-linecap:butt;stroke-linejoin:miter;stroke-miterlimit:4;stroke-opacity:1;stroke-dasharray:none"
       sodipodi:nodetypes="cc" />
    <path
       sodipodi:nodetypes="cc"
       style="fill:none;stroke:#552200;stroke-width:0.89566314;stroke-linecap:butt;stroke-linejoin:miter;stroke-miterlimit:4;stroke-opacity:1;stroke-dasharray:none"
       d="m 24.938848,1043.3733 c -0.410234,0.4155 -1.279043,0.7675 -0.05027,2.1023"
       id="path3812"
       inkscape:connector-curvature="0" />
    <path
       inkscape:connector-curvature="0"
       id="path3814"
       d="m 15.065153,1042.913 c -0.410235,0.4155 -1.436156,0.2738 -0.207379,1.6086"
       style="fill:none;stroke:#552200;stroke-width:0.89566314;stroke-linecap:butt;stroke-linejoin:miter;stroke-miterlimit:4;stroke-opacity:1;stroke-dasharray:none"
       sodipodi:nodetypes="cc" />
    <path
       sodipodi:nodetypes="cc"
       style="fill:none;stroke:#552200;stroke-width:0.89566314;stroke-linecap:butt;stroke-linejoin:miter;stroke-miterlimit:4;stroke-opacity:1;stroke-dasharray:none"
       d="m 15.065153,1042.913 c -0.410235,0.4155 -2.758719,0.3992 -1.529941,1.734"
       id="path3820"
       inkscape:connector-curvature="0" />
    <path
       inkscape:connector-curvature="0"
       id="path3822"
       d="m 14.669003,1042.7766 c -0.410234,0.4155 -3.668802,0.2139 -2.440025,1.5487"
       style="fill:none;stroke:#552200;stroke-width:0.89566314;stroke-linecap:butt;stroke-linejoin:miter;stroke-miterlimit:4;stroke-opacity:1;stroke-dasharray:none"
       sodipodi:nodetypes="cc" />
    <path
       sodipodi:nodetypes="cc"
       style="fill:none;stroke:#552200;stroke-width:0.89566314;stroke-linecap:butt;stroke-linejoin:miter;stroke-miterlimit:4;stroke-opacity:1;stroke-dasharray:none"
       d="m 12.576122,1041.7324 c -0.410235,0.4155 -1.436156,0.2738 -0.207379,1.6086"
       id="path3824"
       inkscape:connector-curvature="0" />
    <path
       inkscape:connector-curvature="0"
       id="path3826"
       d="m 12.576122,1041.7324 c -0.410235,0.4155 -2.7587187,0.3992 -1.529942,1.7341"
       style="fill:none;stroke:#552200;stroke-width:0.89566314;stroke-linecap:butt;stroke-linejoin:miter;stroke-miterlimit:4;stroke-opacity:1;stroke-dasharray:none"
       sodipodi:nodetypes="cc" />
    <path
       sodipodi:nodetypes="cc"
       style="fill:none;stroke:#552200;stroke-width:0.89566314;stroke-linecap:butt;stroke-linejoin:miter;stroke-miterlimit:4;stroke-opacity:1;stroke-dasharray:none"
       d="m 12.271884,1041.596 c -0.410234,0.4155 -3.6688022,0.214 -2.4400251,1.5488"
       id="path3828"
       inkscape:connector-curvature="0" />
    <path
       style="fill:#552200;stroke:none"
       d="m 19.668221,1042.6519 c 0,0 -5.123699,1.8016 -6.343802,0.9873 -1.220103,-0.8144 4.783459,-1.9337 4.783459,-1.9337 z"
       id="path3818"
       inkscape:connector-curvature="0"
       sodipodi:nodetypes="cscc" />
    <path
       sodipodi:nodetypes="cscc"
       inkscape:connector-curvature="0"
       id="path3830"
       d="m 17.081392,1041.4254 c 0,0 -5.12365,1.8016 -6.343706,0.9873 -1.220098,-0.8144 4.783411,-1.9337 4.783411,-1.9337 z"
       style="fill:#552200;stroke:none" />
    <g
       id="g3834"
       style="fill:#ff8080;stroke:none"
       transform="matrix(0.82323658,0.0055619,0.01143839,0.97453895,-15.82184,26.487229)">
      <path
         transform="translate(0,1002.3622)"
         inkscape:connector-curvature="0"
         id="path3832"
         d="m 40.992647,34.926471 c 0,0 2.039849,0.52118 2.039849,4.289562 0,3.768383 -4.945567,7.420052 -10.000714,7.879611 -5.498919,0.499902 -9.469908,1.477749 -12.043438,-0.176662 -2.517168,-1.618179 5.422794,-3.67647 5.422794,-3.67647 0,0 -5.790441,2.205882 -4.779411,3.216911 1.011029,1.01103 9.364955,-0.237904 10.940496,-0.650546 3.860294,-1.01103 4.463825,-1.364299 6.282852,-2.592541 1.471099,-0.993314 1.6378,-1.916611 2.370011,-2.955972 0.704287,-0.999724 -0.416686,-2.558763 -0.416686,-2.558763 0,0 0.27616,-0.844985 0.184248,-1.488368 -0.09191,-0.643382 0,-1.286764 -1e-6,-1.286762 z"
         style="fill:#ff8080;stroke:none"
         sodipodi:nodetypes="cssscsssscsc" />
    </g>
    <path
       style="fill:#ffaaaa;stroke:none"
       d="m 1.3784914,1040.7153 c 0,0 0.072506,-0.2681 0.4503668,-0.2663 0.3782656,0 1.065594,0.5446 1.065594,0.5446 0,0 -0.2143591,1.0732 -0.8984754,0.7999 -0.6842132,-0.2733 -0.6179831,-1.0791 -0.6179831,-1.0791 z"
       id="path3837"
       inkscape:connector-curvature="0" />
  </g>
</svg>
