<?xml version="1.0" encoding="UTF-8" standalone="no"?>
<!-- Created with Inkscape (http://www.inkscape.org/) -->

<svg
   xmlns:dc="http://purl.org/dc/elements/1.1/"
   xmlns:cc="http://creativecommons.org/ns#"
   xmlns:rdf="http://www.w3.org/1999/02/22-rdf-syntax-ns#"
   xmlns:svg="http://www.w3.org/2000/svg"
   xmlns="http://www.w3.org/2000/svg"
   xmlns:sodipodi="http://sodipodi.sourceforge.net/DTD/sodipodi-0.dtd"
   xmlns:inkscape="http://www.inkscape.org/namespaces/inkscape"
   width="32"
   height="32"
   id="svg2993"
   version="1.1"
   inkscape:version="0.48.4 r9939"
   sodipodi:docname="rat.svg"
   inkscape:export-filename="C:\Users\colin\Dropbox\Iamagamer2013\art\rat.png"
   inkscape:export-xdpi="90"
   inkscape:export-ydpi="90">
  <defs
     id="defs2995" />
  <sodipodi:namedview
     id="base"
     pagecolor="#ffffff"
     bordercolor="#666666"
     borderopacity="1.0"
     inkscape:pageopacity="0.0"
     inkscape:pageshadow="2"
     inkscape:zoom="10.88"
     inkscape:cx="35.676847"
     inkscape:cy="9.5496194"
     inkscape:document-units="px"
     inkscape:current-layer="layer1"
     showgrid="false"
     inkscape:window-width="1218"
     inkscape:window-height="778"
     inkscape:window-x="54"
     inkscape:window-y="-8"
     inkscape:window-maximized="1" />
  <metadata
     id="metadata2998">
    <rdf:RDF>
      <cc:Work
         rdf:about="">
        <dc:format>image/svg+xml</dc:format>
        <dc:type
           rdf:resource="http://purl.org/dc/dcmitype/StillImage" />
        <dc:title></dc:title>
      </cc:Work>
    </rdf:RDF>
  </metadata>
  <g
     inkscape:label="Layer 1"
     inkscape:groupmode="layer"
     id="layer1"
     transform="translate(0,-1020.3622)">
    <path
       style="fill:#552200;stroke:#552200;stroke-width:0.89566314px;stroke-linecap:butt;stroke-linejoin:miter;stroke-opacity:1"
       d="m 1.3228089,1032.9501 c -0.64096238,-1.3295 1.2532677,-1.9907 2.8449135,-2.5207 1.5917486,-0.5303 1.7935059,-3.185 3.773982,-3.5069 1.9806003,-0.322 4.0259246,1.1665 3.7809416,2.6142 -0.244865,1.4477 -0.655453,4.1879 -1.591766,4.0819 -0.9361615,-0.1066 -7.8485542,0.8022 -8.3887093,-0.078 -0.5401436,-0.8809 -0.4193618,-0.5901 -0.4193618,-0.5901 z"
       id="path3001"
       inkscape:connector-curvature="0"
       sodipodi:nodetypes="csssssc" />
    <path
       sodipodi:type="arc"
       style="fill:#ff0000;stroke:none"
       id="path3012"
       sodipodi:cx="14.363107"
       sodipodi:cy="33.553455"
       sodipodi:rx="0.78918165"
       sodipodi:ry="0.78918165"
       d="m 15.152288,33.553455 a 0.78918165,0.78918165 0 1 1 -1.578363,0 0.78918165,0.78918165 0 1 1 1.578363,0 z"
       transform="matrix(0.97435175,0.45959132,-0.59548284,1.0271874,14.095871,989.39241)" />
    <path
       transform="matrix(0.8749909,0.48336812,-0.53475767,1.0803285,11.544919,985.81474)"
       d="m 15.152288,33.553455 a 0.78918165,0.78918165 0 1 1 -1.578363,0 0.78918165,0.78918165 0 1 1 1.578363,0 z"
       sodipodi:ry="0.78918165"
       sodipodi:rx="0.78918165"
       sodipodi:cy="33.553455"
       sodipodi:cx="14.363107"
       id="path3014"
       style="fill:#ff0000;stroke:none"
       sodipodi:type="arc" />
    <path
       style="fill:#552200;stroke:none"
       d="m 10.5476,1028.2912 c 0.534721,-0.1326 3.39935,-0.4843 3.39935,-0.4843 0,0 0.440359,2.6774 -0.860787,3.1677 -1.301136,0.4899 -2.477489,-0.9764 -2.477489,-0.9764 z"
       id="path3018"
       inkscape:connector-curvature="0" />
    <path
       inkscape:connector-curvature="0"
       id="path3020"
       d="m 9.8657758,1028.9039 c 0.1173487,-0.5976 0.4248402,-3.7983 0.4248402,-3.7983 0,0 -2.3979219,-0.4852 -2.8334955,0.9694 -0.4355685,1.4549 0.8802814,2.7649 0.8802814,2.7649 z"
       style="fill:#552200;stroke:none" />
    <path
       style="fill:#552200;stroke:none"
       d="m 7.7083082,1033.9586 c 2.2638961,0.6816 1.4151139,3.8115 3.4381188,4.959 3.681896,3.7226 6.761906,5.5748 11.578119,7.1578 2.630806,0.5017 5.869264,-1.2956 5.652633,-3.739 -0.608006,-3.0525 -4.3733,-4.8625 -6.466566,-5.4318 -2.867867,-0.5619 -8.282886,-4.511 -10.37438,-6.4643 -2.251821,-0.3137 -0.636182,0.786 -2.7191574,2.7306 -0.3330981,0.3221 -0.6903186,0.6455 -1.1087674,0.7877 z"
       id="path3028"
       inkscape:connector-curvature="0"
       sodipodi:nodetypes="cccccccc" />
    <g
       id="g3037"
       style="stroke-width:1;stroke-miterlimit:4;stroke-dasharray:none"
       transform="matrix(0.72594962,0.38826093,-0.4436699,0.86776381,458.64368,125.96797)">
      <path
         transform="translate(0,1002.3622)"
         inkscape:connector-curvature="0"
         id="path3035"
         d="m 34.282052,40.845493 c -0.504283,0.429229 -2.48386,1.164102 -1.010152,2.525381"
         style="fill:none;stroke:#552200;stroke-width:1;stroke-linecap:butt;stroke-linejoin:miter;stroke-miterlimit:4;stroke-opacity:1;stroke-dasharray:none"
         sodipodi:nodetypes="cc" />
      <path
         sodipodi:nodetypes="cc"
         style="fill:none;stroke:#552200;stroke-width:1;stroke-linecap:butt;stroke-linejoin:miter;stroke-miterlimit:4;stroke-opacity:1;stroke-dasharray:none"
         d="m 34.282052,40.845493 c -0.504283,0.429229 -3.816581,1.256014 -2.342873,2.617293"
         id="path3810"
         inkscape:connector-curvature="0"
         transform="translate(0,1002.3622)" />
      <path
         transform="translate(0,1002.3622)"
         inkscape:connector-curvature="0"
         id="path3812"
         d="m 34.695655,41.075272 c -0.504283,0.429229 -1.564743,0.796456 -0.09104,2.157735"
         style="fill:none;stroke:#552200;stroke-width:1;stroke-linecap:butt;stroke-linejoin:miter;stroke-miterlimit:4;stroke-opacity:1;stroke-dasharray:none"
         sodipodi:nodetypes="cc" />
      <path
         sodipodi:nodetypes="cc"
         style="fill:none;stroke:#552200;stroke-width:1;stroke-linecap:butt;stroke-linejoin:miter;stroke-miterlimit:4;stroke-opacity:1;stroke-dasharray:none"
         d="m 20.12764,41.534831 c -0.504283,0.429229 -1.748566,0.290941 -0.274863,1.65222"
         id="path3814"
         inkscape:connector-curvature="0"
         transform="translate(0,1002.3622)" />
      <path
         transform="translate(0,1002.3622)"
         inkscape:connector-curvature="0"
         id="path3820"
         d="m 20.12764,41.534831 c -0.504283,0.429229 -3.357022,0.428809 -1.883319,1.790088"
         style="fill:none;stroke:#552200;stroke-width:1;stroke-linecap:butt;stroke-linejoin:miter;stroke-miterlimit:4;stroke-opacity:1;stroke-dasharray:none"
         sodipodi:nodetypes="cc" />
      <path
         sodipodi:nodetypes="cc"
         style="fill:none;stroke:#552200;stroke-width:1;stroke-linecap:butt;stroke-linejoin:miter;stroke-miterlimit:4;stroke-opacity:1;stroke-dasharray:none"
         d="m 19.759993,41.396963 c -0.504283,0.429229 -4.459963,0.244986 -2.98626,1.606265"
         id="path3822"
         inkscape:connector-curvature="0"
         transform="translate(0,1002.3622)" />
      <path
         transform="translate(0,1002.3622)"
         inkscape:connector-curvature="0"
         id="path3824"
         d="m 17.232419,40.339978 c -0.504283,0.429229 -1.748566,0.290941 -0.274863,1.65222"
         style="fill:none;stroke:#552200;stroke-width:1;stroke-linecap:butt;stroke-linejoin:miter;stroke-miterlimit:4;stroke-opacity:1;stroke-dasharray:none"
         sodipodi:nodetypes="cc" />
      <path
         sodipodi:nodetypes="cc"
         style="fill:none;stroke:#552200;stroke-width:1;stroke-linecap:butt;stroke-linejoin:miter;stroke-miterlimit:4;stroke-opacity:1;stroke-dasharray:none"
         d="m 17.232419,40.339978 c -0.504283,0.429229 -3.357022,0.428809 -1.883319,1.790088"
         id="path3826"
         inkscape:connector-curvature="0"
         transform="translate(0,1002.3622)" />
      <path
         transform="translate(0,1002.3622)"
         inkscape:connector-curvature="0"
         id="path3828"
         d="m 16.864772,40.20211 c -0.504283,0.429229 -4.459963,0.244986 -2.98626,1.606265"
         style="fill:none;stroke:#552200;stroke-width:1;stroke-linecap:butt;stroke-linejoin:miter;stroke-miterlimit:4;stroke-opacity:1;stroke-dasharray:none"
         sodipodi:nodetypes="cc" />
    </g>
    <path
       style="fill:#552200;stroke:none"
       d="m 14.882627,1041.4399 c 0,0 -5.373221,-0.7915 -6.0737818,-2.0803 -0.7005607,-1.2888 5.1336108,0.5162 5.1336108,0.5162 z"
       id="path3818"
       inkscape:connector-curvature="0"
       sodipodi:nodetypes="cscc" />
    <path
       sodipodi:nodetypes="cscc"
       inkscape:connector-curvature="0"
       id="path3830"
       d="m 13.164496,1039.1499 c 0,0 -5.3731653,-0.7915 -6.0737254,-2.0802 -0.7005033,-1.2889 5.1336094,0.5161 5.1336094,0.5161 z"
       style="fill:#552200;stroke:none" />
    <g
       id="g3834"
       style="fill:#ff8080;stroke:none"
       transform="matrix(0.72594962,0.38826093,-0.4436699,0.86776381,458.3286,126.0026)">
      <path
         transform="translate(0,1002.3622)"
         inkscape:connector-curvature="0"
         id="path3832"
         d="m 40.992647,34.926471 c 0,0 6.525735,-0.919118 6.525735,2.849264 0,3.768383 -3.400735,8.731618 -8.455882,9.191177 -5.498919,0.499902 -11.580882,0.735293 -14.154412,-0.919118 -2.517168,-1.618179 5.422794,-3.67647 5.422794,-3.67647 0,0 -5.790441,2.205882 -4.779411,3.216911 1.011029,1.01103 11.475929,0.504552 13.05147,0.09191 3.860294,-1.01103 6.066177,-3.492647 6.433824,-5.422795 0.367647,-1.930147 0.643382,-2.66544 -0.643383,-3.033087 -1.286764,-0.367647 -2.573529,0 -2.573529,0 0,0 -0.735294,-0.367647 -0.827206,-1.01103 -0.09191,-0.643382 0,-1.286764 0,-1.286762 z"
         style="fill:#ff8080;stroke:none"
         sodipodi:nodetypes="cssscsssscsc" />
    </g>
    <path
       style="fill:#ffaaaa;stroke:none"
       d="m 1.2766737,1031.5731 c 0,0 0.1890069,-0.2035 0.522587,-0.026 0.3336165,0.1783 0.6893983,0.9782 0.6893983,0.9782 0,0 -0.6894176,0.8499 -1.1675885,0.2895 -0.47822791,-0.5605 -0.044433,-1.2427 -0.044433,-1.2427 z"
       id="path3837"
       inkscape:connector-curvature="0" />
  </g>
</svg>
