<?xml version="1.0" encoding="UTF-8" standalone="no"?>
<!-- Created with Inkscape (http://www.inkscape.org/) -->

<svg
   xmlns:dc="http://purl.org/dc/elements/1.1/"
   xmlns:cc="http://creativecommons.org/ns#"
   xmlns:rdf="http://www.w3.org/1999/02/22-rdf-syntax-ns#"
   xmlns:svg="http://www.w3.org/2000/svg"
   xmlns="http://www.w3.org/2000/svg"
   xmlns:sodipodi="http://sodipodi.sourceforge.net/DTD/sodipodi-0.dtd"
   xmlns:inkscape="http://www.inkscape.org/namespaces/inkscape"
   width="32"
   height="32"
   id="svg3852"
   version="1.1"
   inkscape:version="0.48.4 r9939"
   sodipodi:docname="spikepad.svg"
   inkscape:export-filename="C:\Users\colin\Dropbox\Iamagamer2013\art\spikepad.png"
   inkscape:export-xdpi="90"
   inkscape:export-ydpi="90">
  <defs
     id="defs3854" />
  <sodipodi:namedview
     id="base"
     pagecolor="#ffffff"
     bordercolor="#666666"
     borderopacity="1.0"
     inkscape:pageopacity="0.0"
     inkscape:pageshadow="2"
     inkscape:zoom="15.839192"
     inkscape:cx="18.513665"
     inkscape:cy="18.065528"
     inkscape:document-units="px"
     inkscape:current-layer="layer1"
     showgrid="false"
     inkscape:snap-global="false"
     inkscape:window-width="1218"
     inkscape:window-height="778"
     inkscape:window-x="54"
     inkscape:window-y="-8"
     inkscape:window-maximized="1" />
  <metadata
     id="metadata3857">
    <rdf:RDF>
      <cc:Work
         rdf:about="">
        <dc:format>image/svg+xml</dc:format>
        <dc:type
           rdf:resource="http://purl.org/dc/dcmitype/StillImage" />
        <dc:title></dc:title>
      </cc:Work>
    </rdf:RDF>
  </metadata>
  <g
     inkscape:label="Layer 1"
     inkscape:groupmode="layer"
     id="layer1"
     transform="translate(0,-1020.3622)">
    <path
       style="fill:#803300;fill-opacity:1;stroke:none"
       d="m 2.0863513,1050.5776 c 0,0 -0.5895843,-0.6368 3.7872959,-1.5657 4.3768798,-0.9291 16.7927458,-2.0022 21.2793318,-0.3614 4.486584,1.641 4.651771,2.2454 4.651771,2.2454 0,0 -1.658496,-4.0273 -2.577561,-7.5977 -0.919067,-3.5703 -1.803894,-10.7494 -2.377863,-13.915 -0.573968,-3.1654 -0.288998,-6.182 -0.288998,-6.182 0,0 -1.27908,1.9784 -2.522041,2.0646 -3.80488,0.265 -11.821612,0.6949 -14.1824195,-0.1552 -2.360808,-0.8493 -2.6222117,-1.9099 -2.6222117,-1.9099 0,0 -0.1097613,4.2196 -0.5671726,7.3594 -0.4574112,3.1403 -1.6235852,9.5084 -2.8229014,14.3722 -0.6740589,2.7332 -1.7572305,5.6446 -1.7572305,5.6446 z"
       id="path3860"
       inkscape:connector-curvature="0"
       sodipodi:nodetypes="czzczzcszczscc" />
    <path
       style="fill:#c8b7b7;stroke:none"
       d="m 9.3751532,1030.4671 -0.3884758,-1.6513 0.2913568,-0.9436 0.6798329,2.123 z"
       id="path4370"
       inkscape:connector-curvature="0" />
    <path
       style="fill:#c8b7b7;stroke:none"
       d="m 11.706008,1030.1131 0.874069,-0.3538 -0.09712,-2.241 -0.679834,-0.8257 z"
       id="path4372"
       inkscape:connector-curvature="0" />
    <path
       inkscape:connector-curvature="0"
       id="path4374"
       d="m 22.291973,1029.5234 0.776951,0.8256 0.874066,-2.7127 -1.068309,0.7077 z"
       style="fill:#c8b7b7;stroke:none"
       sodipodi:nodetypes="ccccc" />
    <path
       sodipodi:nodetypes="ccccc"
       style="fill:#c8b7b7;stroke:none"
       d="m 15.20229,1031.2926 0.388475,0.236 0.388471,-1.0615 -0.582714,-0.9437 z"
       id="path4376"
       inkscape:connector-curvature="0" />
    <path
       inkscape:connector-curvature="0"
       id="path4378"
       d="m 20.835189,1034.3593 0.971189,-0.4717 0.582708,-1.1796 -1.068308,0.8258 z"
       style="fill:#c8b7b7;stroke:none"
       sodipodi:nodetypes="ccccc" />
    <path
       inkscape:connector-curvature="0"
       id="path4380"
       d="m 9.8607475,1034.7131 0.8740695,0.4718 -0.582718,-1.4153 -1.7481405,-1.8872 z"
       style="fill:#c8b7b7;stroke:none"
       sodipodi:nodetypes="ccccc" />
    <path
       inkscape:connector-curvature="0"
       id="path4382"
       d="m 13.842624,1034.1234 0.485595,0.2359 -0.09712,-0.8255 -0.97119,-0.9437 z"
       style="fill:#c8b7b7;stroke:none"
       sodipodi:nodetypes="ccccc" />
    <path
       inkscape:connector-curvature="0"
       id="path4384"
       d="m 17.921621,1033.2977 0.874069,-0.4717 0.971186,-1.4154 -1.068309,0.4718 z"
       style="fill:#c8b7b7;stroke:none"
       sodipodi:nodetypes="ccccc" />
    <path
       sodipodi:nodetypes="ccccc"
       style="fill:#c8b7b7;stroke:none"
       d="m 19.572643,1029.4056 0.971187,0.3537 -0.679836,-0.9435 -0.874072,-1.2975 z"
       id="path4386"
       inkscape:connector-curvature="0" />
    <path
       sodipodi:nodetypes="ccccc"
       style="fill:#c8b7b7;stroke:none"
       d="m 24.719947,1034.0055 0.582712,-0.1179 1.359662,-2.7128 -1.068308,0.7076 z"
       id="path4388"
       inkscape:connector-curvature="0" />
    <path
       inkscape:connector-curvature="0"
       id="path5052"
       d="m 6.9715818,1046.1902 -0.3884759,-1.6513 0.2913568,-0.9435 0.6798326,2.123 z"
       style="fill:#c8b7b7;stroke:none" />
    <path
       inkscape:connector-curvature="0"
       id="path5054"
       d="m 9.3711098,1042.5244 0.8740692,-0.3539 -0.09712,-2.241 -0.6798322,-0.8255 z"
       style="fill:#c8b7b7;stroke:none" />
    <path
       sodipodi:nodetypes="ccccc"
       style="fill:#c8b7b7;stroke:none"
       d="m 21.467892,1043.1778 0.77695,0.8256 0.874067,-2.7128 -1.068308,0.7077 z"
       id="path5056"
       inkscape:connector-curvature="0" />
    <path
       inkscape:connector-curvature="0"
       id="path5058"
       d="m 12.867392,1042.7698 0.388476,-0.2359 0.38847,1.0615 -0.582714,0.9436 z"
       style="fill:#c8b7b7;stroke:none"
       sodipodi:nodetypes="ccccc" />
    <path
       sodipodi:nodetypes="ccccc"
       style="fill:#c8b7b7;stroke:none"
       d="m 23.170087,1038.5755 0.971189,-0.4718 0.582707,-1.1795 -1.068307,0.8258 z"
       id="path5060"
       inkscape:connector-curvature="0" />
    <path
       sodipodi:nodetypes="ccccc"
       style="fill:#c8b7b7;stroke:none"
       d="m 26.240375,1044.6298 -0.87407,0.4717 0.582718,-1.4153 1.748142,-1.8871 z"
       id="path5062"
       inkscape:connector-curvature="0" />
    <path
       sodipodi:nodetypes="ccccc"
       style="fill:#c8b7b7;stroke:none"
       d="m 13.705278,1037.6588 0.485594,-0.2359 -0.09712,0.8256 -0.97119,0.9436 z"
       id="path5064"
       inkscape:connector-curvature="0" />
    <path
       sodipodi:nodetypes="ccccc"
       style="fill:#c8b7b7;stroke:none"
       d="m 21.209018,1038.1996 -0.87407,0.4717 -0.971185,1.4153 1.068308,-0.4717 z"
       id="path5066"
       inkscape:connector-curvature="0" />
    <path
       inkscape:connector-curvature="0"
       id="path5068"
       d="m 18.473867,1045.2641 0.97119,0.3538 -0.679838,-0.9436 -0.874071,-1.2975 z"
       style="fill:#c8b7b7;stroke:none"
       sodipodi:nodetypes="ccccc" />
    <path
       inkscape:connector-curvature="0"
       id="path5070"
       d="m 16.410457,1038.1847 0.582712,-0.1179 1.359661,-2.7128 -1.068308,0.7077 z"
       style="fill:#c8b7b7;stroke:none"
       sodipodi:nodetypes="ccccc" />
    <text
       xml:space="preserve"
       style="font-size:10px;font-style:normal;font-variant:normal;font-weight:normal;font-stretch:normal;line-height:125%;letter-spacing:0px;word-spacing:0px;fill:#ffff00;fill-opacity:1;stroke:none;font-family:Georgia;-inkscape-font-specification:Georgia"
       x="0.50507623"
       y="1028.1816"
       id="text3222"
       sodipodi:linespacing="125%"><tspan
         sodipodi:role="line"
         id="tspan3224"
         x="0.50507623"
         y="1028.1816">Q</tspan></text>
  </g>
</svg>
