<?xml version="1.0" encoding="UTF-8" standalone="no"?>
<!-- Created with Inkscape (http://www.inkscape.org/) -->

<svg
   xmlns:dc="http://purl.org/dc/elements/1.1/"
   xmlns:cc="http://creativecommons.org/ns#"
   xmlns:rdf="http://www.w3.org/1999/02/22-rdf-syntax-ns#"
   xmlns:svg="http://www.w3.org/2000/svg"
   xmlns="http://www.w3.org/2000/svg"
   xmlns:sodipodi="http://sodipodi.sourceforge.net/DTD/sodipodi-0.dtd"
   xmlns:inkscape="http://www.inkscape.org/namespaces/inkscape"
   width="32"
   height="32"
   id="svg3852"
   version="1.1"
   inkscape:version="0.48.4 r9939"
   sodipodi:docname="spikepad.svg"
   inkscape:export-filename="C:\Users\colin\Dropbox\Iamagamer2013\art\spikepad.png"
   inkscape:export-xdpi="90"
   inkscape:export-ydpi="90">
  <defs
     id="defs3854" />
  <sodipodi:namedview
     id="base"
     pagecolor="#ffffff"
     bordercolor="#666666"
     borderopacity="1.0"
     inkscape:pageopacity="0.0"
     inkscape:pageshadow="2"
     inkscape:zoom="15.839192"
     inkscape:cx="18.513665"
     inkscape:cy="13.014765"
     inkscape:document-units="px"
     inkscape:current-layer="layer1"
     showgrid="false"
     inkscape:snap-global="false"
     inkscape:window-width="1218"
     inkscape:window-height="778"
     inkscape:window-x="54"
     inkscape:window-y="-8"
     inkscape:window-maximized="1" />
  <metadata
     id="metadata3857">
    <rdf:RDF>
      <cc:Work
         rdf:about="">
        <dc:format>image/svg+xml</dc:format>
        <dc:type
           rdf:resource="http://purl.org/dc/dcmitype/StillImage" />
        <dc:title></dc:title>
      </cc:Work>
    </rdf:RDF>
  </metadata>
  <g
     inkscape:label="Layer 1"
     inkscape:groupmode="layer"
     id="layer1"
     transform="translate(0,-1020.3622)">
    <path
       style="fill:#803300;fill-opacity:1;stroke:none"
       d="m 0.63555344,1050.5609 c 0,0 -0.61836669,-0.6702 3.97218476,-1.6478 4.5905515,-0.9778 17.6125368,-2.1072 22.3181498,-0.3803 4.705611,1.727 4.878862,2.3631 4.878862,2.3631 0,0 -1.739461,-4.2385 -2.703393,-7.9961 -0.963934,-3.7575 -1.891957,-11.313 -2.493946,-14.6445 -0.601988,-3.3314 -0.303106,-6.5062 -0.303106,-6.5062 0,0 -1.341522,2.0822 -2.645163,2.1729 -3.990627,0.2789 -12.398721,0.7313 -14.8747788,-0.1634 -2.4760583,-0.8938 -2.7502233,-2.01 -2.7502233,-2.01 0,0 -0.1151196,4.4408 -0.5948609,7.7453 -0.4797412,3.3049 -1.7028456,10.0069 -2.9607103,15.1257 -0.7069652,2.8765 -1.84301526,5.9406 -1.84301526,5.9406 z"
       id="path3860"
       inkscape:connector-curvature="0"
       sodipodi:nodetypes="czzczzcszczscc" />
    <path
       style="fill:#c8b7b7;stroke:none"
       d="m 8.2801813,1029.396 -0.4074405,-1.7379 0.3055804,-0.9931 0.713021,2.2344 z"
       id="path4370"
       inkscape:connector-curvature="0" />
    <path
       style="fill:#c8b7b7;stroke:none"
       d="m 10.724824,1029.0234 0.91674,-0.3723 -0.101862,-2.3585 -0.713022,-0.869 z"
       id="path4372"
       inkscape:connector-curvature="0" />
    <path
       inkscape:connector-curvature="0"
       id="path4374"
       d="m 21.827577,1028.4028 0.81488,0.8689 0.916736,-2.8549 -1.120462,0.7448 z"
       style="fill:#c8b7b7;stroke:none"
       sodipodi:nodetypes="ccccc" />
    <path
       sodipodi:nodetypes="ccccc"
       style="fill:#c8b7b7;stroke:none"
       d="m 14.391788,1030.2648 0.40744,0.2483 0.407435,-1.1171 -0.611161,-0.9932 z"
       id="path4376"
       inkscape:connector-curvature="0" />
    <path
       inkscape:connector-curvature="0"
       id="path4378"
       d="m 20.299675,1033.4923 1.018601,-0.4965 0.611155,-1.2414 -1.120461,0.8691 z"
       style="fill:#c8b7b7;stroke:none"
       sodipodi:nodetypes="ccccc" />
    <path
       inkscape:connector-curvature="0"
       id="path4380"
       d="m 8.7894814,1033.8646 0.9167396,0.4966 -0.6111647,-1.4896 -1.8334816,-1.9861 z"
       style="fill:#c8b7b7;stroke:none"
       sodipodi:nodetypes="ccccc" />
    <path
       inkscape:connector-curvature="0"
       id="path4382"
       d="m 12.965746,1033.244 0.509301,0.2483 -0.101863,-0.8688 -1.018601,-0.9932 z"
       style="fill:#c8b7b7;stroke:none"
       sodipodi:nodetypes="ccccc" />
    <path
       inkscape:connector-curvature="0"
       id="path4384"
       d="m 17.243872,1032.375 0.91674,-0.4964 1.018597,-1.4896 -1.120462,0.4965 z"
       style="fill:#c8b7b7;stroke:none"
       sodipodi:nodetypes="ccccc" />
    <path
       sodipodi:nodetypes="ccccc"
       style="fill:#c8b7b7;stroke:none"
       d="m 18.975494,1028.2788 1.018599,0.3723 -0.713025,-0.993 -0.916742,-1.3655 z"
       id="path4386"
       inkscape:connector-curvature="0" />
    <path
       sodipodi:nodetypes="ccccc"
       style="fill:#c8b7b7;stroke:none"
       d="m 24.37408,1033.1199 0.611159,-0.1241 1.426038,-2.855 -1.120461,0.7447 z"
       id="path4388"
       inkscape:connector-curvature="0" />
    <path
       inkscape:connector-curvature="0"
       id="path5052"
       d="m 5.759272,1045.9435 -0.4074406,-1.7379 0.3055803,-0.993 0.7130208,2.2343 z"
       style="fill:#c8b7b7;stroke:none" />
    <path
       inkscape:connector-curvature="0"
       id="path5054"
       d="m 8.2759405,1042.0855 0.9167402,-0.3725 -0.1018629,-2.3585 -0.7130202,-0.8688 z"
       style="fill:#c8b7b7;stroke:none" />
    <path
       sodipodi:nodetypes="ccccc"
       style="fill:#c8b7b7;stroke:none"
       d="m 20.963265,1042.7731 0.81488,0.8689 0.916737,-2.855 -1.120461,0.7448 z"
       id="path5056"
       inkscape:connector-curvature="0" />
    <path
       inkscape:connector-curvature="0"
       id="path5058"
       d="m 11.942905,1042.3437 0.40744,-0.2482 0.407435,1.1171 -0.611161,0.9931 z"
       style="fill:#c8b7b7;stroke:none"
       sodipodi:nodetypes="ccccc" />
    <path
       sodipodi:nodetypes="ccccc"
       style="fill:#c8b7b7;stroke:none"
       d="m 22.748559,1037.9295 1.0186,-0.4965 0.611154,-1.2414 -1.12046,0.8691 z"
       id="path5060"
       inkscape:connector-curvature="0" />
    <path
       sodipodi:nodetypes="ccccc"
       style="fill:#c8b7b7;stroke:none"
       d="m 25.968732,1044.3013 -0.91674,0.4964 0.611165,-1.4895 1.833483,-1.9861 z"
       id="path5062"
       inkscape:connector-curvature="0" />
    <path
       sodipodi:nodetypes="ccccc"
       style="fill:#c8b7b7;stroke:none"
       d="m 12.821695,1036.9648 0.5093,-0.2483 -0.101863,0.8689 -1.018601,0.9931 z"
       id="path5064"
       inkscape:connector-curvature="0" />
    <path
       sodipodi:nodetypes="ccccc"
       style="fill:#c8b7b7;stroke:none"
       d="m 20.691754,1037.5339 -0.916741,0.4965 -1.018596,1.4895 1.120461,-0.4965 z"
       id="path5066"
       inkscape:connector-curvature="0" />
    <path
       inkscape:connector-curvature="0"
       id="path5068"
       d="m 17.823078,1044.9688 1.018601,0.3724 -0.713026,-0.9931 -0.916742,-1.3655 z"
       style="fill:#c8b7b7;stroke:none"
       sodipodi:nodetypes="ccccc" />
    <path
       inkscape:connector-curvature="0"
       id="path5070"
       d="m 15.658936,1037.5182 0.611159,-0.124 1.426037,-2.8551 -1.120461,0.7448 z"
       style="fill:#c8b7b7;stroke:none"
       sodipodi:nodetypes="ccccc" />
  </g>
</svg>
