<?xml version="1.0" encoding="UTF-8" standalone="no"?>
<!-- Created with Inkscape (http://www.inkscape.org/) -->

<svg
   xmlns:dc="http://purl.org/dc/elements/1.1/"
   xmlns:cc="http://creativecommons.org/ns#"
   xmlns:rdf="http://www.w3.org/1999/02/22-rdf-syntax-ns#"
   xmlns:svg="http://www.w3.org/2000/svg"
   xmlns="http://www.w3.org/2000/svg"
   xmlns:sodipodi="http://sodipodi.sourceforge.net/DTD/sodipodi-0.dtd"
   xmlns:inkscape="http://www.inkscape.org/namespaces/inkscape"
   width="640"
   height="480"
   id="svg3257"
   version="1.1"
   inkscape:version="0.48.2 r9819"
   sodipodi:docname="splash1.svg">
  <defs
     id="defs3259" />
  <sodipodi:namedview
     id="base"
     pagecolor="#ffffff"
     bordercolor="#666666"
     borderopacity="1.0"
     inkscape:pageopacity="0.0"
     inkscape:pageshadow="2"
     inkscape:zoom="0.98994949"
     inkscape:cx="369.44484"
     inkscape:cy="245.89379"
     inkscape:document-units="px"
     inkscape:current-layer="layer1"
     showgrid="false"
     inkscape:window-width="1280"
     inkscape:window-height="716"
     inkscape:window-x="0"
     inkscape:window-y="0"
     inkscape:window-maximized="1" />
  <metadata
     id="metadata3262">
    <rdf:RDF>
      <cc:Work
         rdf:about="">
        <dc:format>image/svg+xml</dc:format>
        <dc:type
           rdf:resource="http://purl.org/dc/dcmitype/StillImage" />
        <dc:title></dc:title>
      </cc:Work>
    </rdf:RDF>
  </metadata>
  <g
     inkscape:label="Layer 1"
     inkscape:groupmode="layer"
     id="layer1"
     transform="translate(0,-572.36218)">
    <rect
       style="fill:#87aade;stroke:none"
       id="rect3359"
       width="645.48749"
       height="484.87323"
       x="0"
       y="-0.83261156"
       transform="translate(0,572.36218)" />
    <path
       style="fill:#000000;stroke:none"
       d="M 57.46875 296.84375 C 55.910435 296.87723 54.361607 296.97768 52.84375 297.15625 C 40.70089 298.58482 32.22108 306.25972 31.4375 318.5625 C 30.70542 330.05672 29.27347 337.85064 35 347.15625 C 40.71429 356.44197 54.28125 369.28125 54.28125 369.28125 C 54.28125 369.28125 63.095789 364.88871 71.59375 359.6875 C 71.380445 363.22065 71.059788 368.03002 70.6875 372 C 70.11781 378.07504 72.59375 400.96875 72.59375 400.96875 C 72.59375 400.96875 72.51439 403.57748 71.375 408.4375 C 70.277033 413.12084 69.640666 434.27864 69.59375 435.84375 C 68.81357 437.43439 66.72624 439.88693 66.125 440.65625 C 65.41288 441.56755 61.65625 444.75 61.65625 444.75 C 61.65625 444.75 57.48946 448.7237 56.65625 449.5625 C 55.82301 450.4013 54.87805 451.2137 55.875 452.125 C 56.3586 452.5671 56.49064 452.19885 58.0625 451.59375 C 58.231832 451.52858 58.462573 451.42492 58.6875 451.28125 C 57.949374 451.9416 56.901296 452.85857 56.65625 453.09375 C 55.94411 453.77715 56.17806 454.5058 56.71875 455 C 57.21723 455.4556 57.58296 455.3796 58.4375 455 C 59.36712 454.5869 68.40625 447.78125 68.40625 447.78125 C 68.40625 447.78125 59.33109 455.3211 58.65625 456.1875 C 58.16176 456.8224 58.24628 457.2006 58.8125 458 C 59.37355 458.7922 60.88164 457.545 61.59375 456.9375 C 62.30587 456.33 71.6875 449.4375 71.6875 449.4375 C 71.6875 449.4375 66.7962 453.9361 64.375 456.0625 C 63.00279 457.2675 62.76766 457.473 63.5 458.25 C 64.13618 458.9248 64.84481 458.8807 66.0625 458.125 C 67.28018 457.3691 72.35006 453.16385 75.59375 450.59375 C 76.181685 450.1279 76.785623 449.27149 77.375 448.28125 C 77.637665 448.27666 77.904547 448.37578 78.09375 448.71875 C 78.55925 449.56255 78.6875 451.8049 78.6875 452.5625 C 78.6875 453.3201 80.30806 454.59055 80.75 454.90625 C 81.19194 455.22195 82.97446 454.97695 82.40625 454.15625 C 81.83804 453.33545 81.2989 451.62765 81.25 450.21875 C 81.19634 448.67195 81.97002 445.92405 81.84375 444.15625 C 81.72396 442.47927 81.322389 440.15561 81.28125 439.90625 C 81.579244 438.84305 81.612226 437.86518 81.59375 437.09375 C 81.727403 436.23332 83.21875 426.53293 83.21875 423.625 C 83.21875 420.58749 86.08655 404.36751 86.65625 401.9375 C 87.22594 399.50749 85.5 395.375 85.5 395.375 C 85.5 395.375 85.51686 381.11002 86.65625 376.25 C 87.207547 373.89844 87.877586 370.24807 88.4375 366.4375 C 90.221402 368.79153 92.02778 370.4995 93.5625 370.71875 C 97.967291 371.34801 109.30899 374.13571 116.40625 375.78125 C 116.85048 386.35089 118.8125 403.375 118.8125 403.375 C 118.8125 403.375 118.70982 406.41072 117.28125 412.125 C 115.96834 417.37666 115.18657 439.84668 115.0625 443.59375 C 114.71819 443.63866 114.42687 443.66809 114.28125 443.75 C 112.85268 444.5536 110.70536 448.20985 109.8125 449.28125 C 108.91964 450.35265 105.09375 454.8125 105.09375 454.8125 C 105.09375 454.8125 97.63844 459.2012 96.59375 460.1875 C 95.549 461.1739 94.37501 462.14725 95.625 463.21875 C 96.23134 463.73845 96.43544 463.30515 98.40625 462.59375 C 100.37706 461.88225 108.03125 456.96875 108.03125 456.96875 C 108.03125 456.96875 98.62996 464.86745 97.40625 465.96875 C 96.5134 466.77235 96.82209 467.63765 97.5 468.21875 C 98.125 468.75445 98.58482 468.66515 99.65625 468.21875 C 100.82181 467.73305 113.5625 458.40625 113.5625 458.40625 C 113.5625 458.40625 104.31487 466.6687 103.46875 467.6875 C 102.84876 468.4339 102.94632 468.8725 103.65625 469.8125 C 104.3597 470.7439 106.2634 469.2768 107.15625 468.5625 C 108.04911 467.8482 117.6875 460.34375 117.6875 460.34375 C 117.6875 460.34375 113.03571 465.71875 110 468.21875 C 108.27952 469.63555 108.6443 470.61785 109.5625 471.53125 C 110.36015 472.32475 110.62951 471.5136 112.15625 470.625 C 113.68299 469.7364 118.5268 464.7094 122.59375 461.6875 C 125.06499 459.8513 127.75892 453.2947 129.1875 450.4375 C 130.03228 448.74796 130.16255 446.91383 130.125 445.6875 C 130.44699 443.72871 132.15625 433.24673 132.15625 430 C 132.15625 426.42855 135.72321 407.35714 136.4375 404.5 C 137.15178 401.64286 135 396.75 135 396.75 C 135 396.75 135.0119 395.7159 135.03125 394.1875 C 135.59497 394.9097 136.12225 395.54352 136.625 396.0625 C 136.92294 396.49489 137.23948 396.95942 137.53125 397.375 C 137.62816 397.29508 137.71553 397.20486 137.8125 397.125 C 137.82337 397.13239 137.83293 397.14904 137.84375 397.15625 C 142.12946 400.01339 147.15625 425 147.15625 425 C 147.15625 425 149.95626 425.15601 150.59375 425.1875 C 147.15602 434.01962 140.66054 453.53088 142.8125 459.25 C 145.34053 465.9686 147.70644 464.8037 158.65625 467.0625 C 160.52704 467.4484 162.34946 467.48923 164.0625 467.25 C 164.88421 467.97684 165.90625 468.65625 167.15625 469.28125 C 168.80545 470.10585 170.68418 470.34672 172.6875 470.15625 C 181.95032 470.90104 199.67672 472.15625 205.71875 472.15625 C 212.14732 472.15625 242.87054 459.99555 247.15625 459.28125 C 249.29911 458.9241 252.67411 458.9375 255.53125 458.3125 C 256.18355 460.12433 256.52416 462.49361 256.21875 463.5625 C 255.71368 465.3303 252.41894 464.3023 251.15625 465.3125 C 249.89356 466.3227 250.13595 468.8597 252.15625 470.375 C 254.17656 471.8902 256.20352 469.09375 257.71875 469.09375 C 259.23398 469.09375 267.05821 468.84375 270.59375 468.84375 C 274.12928 468.84375 276.17227 468.0904 277.6875 465.3125 C 279.20273 462.5346 271.35898 454.4528 269.84375 452.9375 C 268.32852 451.4223 269.58026 442.5955 267.8125 439.3125 C 266.04473 436.0295 264.29464 432.8482 256.4375 433.5625 C 251.03572 434.05358 248.69953 436.88898 247.75 438.625 C 242.60672 439.09601 233.977 443.5625 228.5625 443.5625 C 222.84821 443.5625 218.58036 440.01345 206.4375 442.15625 C 205.48884 442.32366 204.53097 442.48759 203.59375 442.6875 C 208.84692 432.80383 214.05003 423.07408 217.46875 416.6875 C 223.44141 414.15878 227.84375 412.15625 227.84375 412.15625 C 227.84375 412.15625 222.84821 379.27678 213.5625 373.5625 C 206.04751 368.93789 190.12932 369.47077 179.78125 367.1875 C 179.83399 367.1566 179.88473 367.12461 179.9375 367.09375 C 174.05917 365.59472 170.68815 362.32938 168.84375 357.46875 C 168.63643 357.65501 168.42701 357.84651 168.21875 358.03125 C 161.42826 345.17247 154.14348 319.62359 142.84375 312.84375 C 128.55804 304.27232 97.15625 310 97.15625 310 L 96.4375 310.71875 C 96.388061 306.24614 95.05357 302.95982 91.4375 302.15625 C 80.187502 299.65624 68.376955 296.60937 57.46875 296.84375 z "
       transform="translate(0,572.36218)"
       id="path3279" />
    <path
       style="fill:#000000;stroke:#000000;stroke-width:1px;stroke-linecap:butt;stroke-linejoin:miter;stroke-opacity:1"
       d="m 260.35715,455.53572 c 0,0 21.07142,10.89285 35.35714,-0.53572 C 310,443.57143 317.85714,406.42857 326.42857,370.71428 335,335 372.85714,290.71428 365,276.42857 357.14286,262.14286 292.85714,255 281.42857,262.14286 270,269.28572 270.71429,312.85715 267.85715,332.85715 265,352.85715 260,392.85714 251.42857,397.85714 c -8.57143,5 -53.57143,45.53572 -53.57143,45.53572"
       id="path3314"
       inkscape:connector-curvature="0"
       transform="translate(0,572.36218)"
       sodipodi:nodetypes="cssssssc" />
    <path
       style="fill:#000000;stroke:#000000;stroke-width:1px;stroke-linecap:butt;stroke-linejoin:miter;stroke-opacity:1"
       d="m 220,431.42857 c 0,0 17.14286,-57.14286 20,-67.14286 2.85714,-10 22.85714,-88.57142 28.57143,-105.71428 5.71428,-17.14286 -74.28571,-38.57143 -82.85714,-20 -8.57143,18.57143 8.57142,91.42857 2.85714,104.28571 -5.71429,12.85715 -25.71429,48.57143 -27.14286,58.57143 -1.42857,10 2.85714,31.42857 2.85714,31.42857"
       id="path3316"
       inkscape:connector-curvature="0"
       transform="translate(0,572.36218)"
       sodipodi:nodetypes="csssssc" />
    <path
       style="fill:#000000;stroke:#000000;stroke-width:1px;stroke-linecap:butt;stroke-linejoin:miter;stroke-opacity:1"
       d="m 121.42857,344.28571 c 0,0 -8.57143,-45.71428 -12.85715,-52.85714 C 104.28571,284.28571 92.857143,250 91.428571,230 90,210 167.14286,214.28571 168.57143,231.42857 170,248.57143 170,292.85714 170,311.42857 170,330 157.14286,367.14286 157.14286,367.14286"
       id="path3318"
       inkscape:connector-curvature="0"
       transform="translate(0,572.36218)"
       sodipodi:nodetypes="cssssc" />
    <path
       style="fill:#000000;stroke:#000000;stroke-width:1px;stroke-linecap:butt;stroke-linejoin:miter;stroke-opacity:1"
       d="m 41.428571,322.85714 c 0,0 -1.428571,-35.71428 -4.285714,-45.71428 C 34.285714,267.14286 4.2857143,241.42857 5.7142857,220 7.1428571,198.57143 68.571429,197.14286 71.428571,217.14286 74.285714,237.14286 70,271.42857 70,281.42857 70,291.42857 84.285714,320 84.285714,320"
       id="path3320"
       inkscape:connector-curvature="0"
       transform="translate(0,572.36218)" />
    <path
       sodipodi:type="arc"
       style="fill:#000000;stroke:none"
       id="path3322"
       sodipodi:cx="46.42857"
       sodipodi:cy="162.14285"
       sodipodi:rx="23.571428"
       sodipodi:ry="23.571428"
       d="m 69.999998,162.14285 a 23.571428,23.571428 0 1 1 -47.142857,0 23.571428,23.571428 0 1 1 47.142857,0 z"
       transform="translate(-7.7345908,584.97422)" />
    <path
       transform="translate(85.295867,600.96334)"
       d="m 69.999998,162.14285 a 23.571428,23.571428 0 1 1 -47.142857,0 23.571428,23.571428 0 1 1 47.142857,0 z"
       sodipodi:ry="23.571428"
       sodipodi:rx="23.571428"
       sodipodi:cy="162.14285"
       sodipodi:cx="46.42857"
       id="path3326"
       style="fill:#000000;stroke:none"
       sodipodi:type="arc" />
    <path
       sodipodi:type="arc"
       style="fill:#000000;stroke:none"
       id="path3328"
       sodipodi:cx="46.42857"
       sodipodi:cy="162.14285"
       sodipodi:rx="23.571428"
       sodipodi:ry="23.571428"
       d="m 69.999998,162.14285 a 23.571428,23.571428 0 1 1 -47.142857,0 23.571428,23.571428 0 1 1 47.142857,0 z"
       transform="translate(190.41842,618.1062)" />
    <path
       transform="translate(287.56128,644.65733)"
       d="m 69.999998,162.14285 a 23.571428,23.571428 0 1 1 -47.142857,0 23.571428,23.571428 0 1 1 47.142857,0 z"
       sodipodi:ry="23.571428"
       sodipodi:rx="23.571428"
       sodipodi:cy="162.14285"
       sodipodi:cx="46.42857"
       id="path3330"
       style="fill:#000000;stroke:none"
       sodipodi:type="arc" />
    <path
       sodipodi:nodetypes="csssssc"
       inkscape:connector-curvature="0"
       id="path3289"
       d="m 218.31145,980.13266 c 0,0 -4.28572,-9.28571 -14.28572,-12.14285 -10,-2.85715 -20,0 -23.57142,4.28571 -3.57143,4.28571 -22.85715,40.00008 -22.14286,47.14288 0.71428,7.1429 -4.28572,15.7143 5.71428,20.7143 10,5 28.57143,-11.4286 30.71429,-15.7143 2.14286,-4.2857 23.57143,-44.28574 23.57143,-44.28574 z"
       style="fill:#aa4400;stroke:none" />
    <path
       style="fill:#aa4400;stroke:none"
       d="m 187.57117,976.69186 c 0,0 -8.67343,-4.29898 -19.07188,-4.48702 -10.39847,-0.18805 -17.18383,15.14582 -19.53233,20.20612 -2.34852,5.0604 -11.796,30.96294 -9.26796,37.68154 2.52803,6.7186 4.9017,5.5737 15.85151,7.8325 10.9498,2.2587 19.66907,-7.6808 20.63711,-12.3735 0.96804,-4.6928 11.38355,-48.85964 11.38355,-48.85964 z"
       id="path3291"
       inkscape:connector-curvature="0"
       sodipodi:nodetypes="csssssc" />
    <path
       inkscape:connector-curvature="0"
       id="path3293"
       d="m 167.59716,1040.847 c 8.57143,0.7143 28.57143,2.1428 35,2.1428 6.42857,0 37.14286,-12.1428 41.42857,-12.8571 4.28572,-0.7143 13.57143,0 13.57143,-5.7143 0,-5.7143 -7.14285,-15 -12.14285,-15 -5,0 -14.28572,5 -20,5 -5.71429,0 -10,-3.5714 -22.14286,-1.4286 -12.14286,2.1429 -23.57143,7.1429 -28.57143,10 -5,2.8572 -7.14286,17.8572 -7.14286,17.8572 z"
       style="fill:#aa4400;stroke:none" />
    <path
       style="fill:#aa4400;stroke:none"
       d="m 68.714726,926.43574 c 0,0 -1.70908,-9.72005 0.5697,-12.75756 2.27878,-3.03752 12.53328,-6.07504 14.81206,-3.03752 2.27878,3.03752 2.27878,9.11255 2.27878,15.18758 0,6.07503 -1.70909,16.40259 -2.84847,21.26261 -1.13939,4.86002 -1.13939,19.11792 -1.13939,19.11792 0,0 1.70612,4.1483 1.13643,6.57831 -0.5697,2.43001 -3.41522,18.65148 -3.41522,21.68898 0,3.0376 -1.70908,13.97264 -1.70908,13.97264 l -11.96358,-1.215 c 0,0 0.67336,-23.08832 1.81275,-27.94835 1.13939,-4.86002 1.23416,-7.45532 1.23416,-7.45532 0,0 -2.47722,-22.91667 -1.90753,-28.99171 0.56969,-6.07502 1.13939,-16.40258 1.13939,-16.40258 z"
       id="path3295"
       inkscape:connector-curvature="0"
       sodipodi:nodetypes="csssscssccscsc" />
    <path
       sodipodi:nodetypes="cssscscsssscc"
       inkscape:connector-curvature="0"
       id="path3297"
       d="m 94.025746,880.84695 c 0,0 31.428564,-5.71429 45.714274,2.85714 14.28571,8.57143 22.14286,47.14286 30.71429,52.14286 8.57142,5 30.71428,2.85714 40,8.57143 9.28571,5.71428 14.28571,38.57143 14.28571,38.57143 0,0 -34.28571,15.71426 -42.85714,15.00005 -8.57143,-0.7143 -37.85715,-2.1429 -37.85715,-2.1429 0,0 -5,-25.00001 -9.28571,-27.85715 -4.28571,-2.85715 -12.14286,-19.28572 -18.57143,-20.71429 -6.42857,-1.42857 -20.714276,-5 -25.714274,-5.71429 -5,-0.71429 -12.85713,-17.14285 -13.57142,-20.71428 -0.71429,-3.57143 -2.14286,-20 -2.14286,-20 z"
       style="fill:#c8b7b7;stroke:none" />
    <path
       sodipodi:nodetypes="ccccc"
       inkscape:connector-curvature="0"
       id="path3299"
       d="m 165.71471,928.32878 c -12.14304,10.90938 -25.90614,19.22667 -41.41625,24.74874 3.36718,5.05076 6.93004,10.63503 10.10153,15.15229 13.28641,-10.95725 27.12919,-21.35813 42.4264,-30.30458 -5.87833,-1.49903 -9.26728,-4.73582 -11.11168,-9.59645 z"
       style="fill:#ffff00;stroke:none" />
    <path
       sodipodi:nodetypes="csssscssccscsc"
       inkscape:connector-curvature="0"
       id="path3301"
       d="m 114.74002,920.84695 c 0,0 -2.14286,-11.42857 0.71429,-15 2.85714,-3.57143 15.71428,-7.14286 18.57142,-3.57143 2.85715,3.57143 2.85715,10.71429 2.85715,17.85714 0,7.14286 -2.14286,19.28572 -3.57143,25 -1.42857,5.71429 -1.42857,22.47834 -1.42857,22.47834 0,0 2.13914,4.87745 1.42486,7.73459 -0.71429,2.85714 -4.28201,21.92997 -4.28201,25.50141 0,3.5714 -2.14285,16.4286 -2.14285,16.4286 l -15,-1.4286 c 0,0 0.84428,-27.14664 2.27285,-32.86091 1.42857,-5.71428 1.5474,-8.76577 1.5474,-8.76577 0,0 -3.10597,-26.9448 -2.39168,-34.08766 0.71428,-7.14285 1.42857,-19.28571 1.42857,-19.28571 z"
       style="fill:#aa4400;stroke:none" />
    <path
       sodipodi:nodetypes="csszsscssscsssczszcsscc"
       inkscape:connector-curvature="0"
       id="path3303"
       d="m 126.88288,1015.1327 c 0,0 0.625,3.3036 -0.80357,6.1607 -1.42858,2.8572 -4.13591,9.4138 -6.60715,11.25 -4.06695,3.0219 -8.91968,8.04 -10.44642,8.9286 -1.52674,0.8886 -1.79482,1.6919 -2.59247,0.8984 -0.9182,-0.9134 -1.27087,-1.8923 0.44961,-3.3091 3.03571,-2.5 7.67856,-7.8572 7.67856,-7.8572 0,0 -9.64285,7.5 -10.53571,8.2143 -0.89285,0.7143 -2.77869,2.1814 -3.48214,1.25 -0.709926,-0.94 -0.798556,-1.3964 -0.17857,-2.1428 0.84612,-1.0188 10.08929,-9.2858 10.08929,-9.2858 0,0 -12.763006,9.3358 -13.928556,9.8215 -1.07143,0.4464 -1.517858,0.5357 -2.142858,0 -0.67791,-0.5811 -0.98215,-1.4286 -0.0893,-2.2322 1.223708,-1.1013 10.624974,-9.0178 10.624974,-9.0178 0,0 -7.672046,4.9135 -9.642844,5.625 -1.97081,0.7114 -2.16152,1.1447 -2.76786,0.625 -1.24999,-1.0715 -0.0626,-2.0494 0.98215,-3.0358 1.04469,-0.9863 8.482124,-5.3571 8.482124,-5.3571 0,0 3.83928,-4.4643 4.73214,-5.5357 0.89286,-1.0714 3.03572,-4.7321 4.46429,-5.5357 1.55639,-0.8755 15.71429,0.5357 15.71429,0.5357 z"
       style="fill:#aa4400;stroke:none" />
    <path
       style="fill:#aa4400;stroke:none"
       d="m 78.399536,1006.6262 c 0,0 0.49849,2.8097 -0.6409,5.2397 -1.1394,2.43 -3.29869,8.0065 -5.26968,9.5682 -3.24369,2.5701 -8.31366,6.7748 -9.53134,7.5307 -1.21769,0.7557 -1.93657,0.8075 -2.57275,0.1327 -0.73234,-0.777 -0.50855,-0.978 0.86366,-2.183 2.4212,-2.1264 7.32377,-6.6195 7.32377,-6.6195 0,0 -9.3955,6.8839 -10.10762,7.4914 -0.71211,0.6075 -2.21621,1.8553 -2.77726,1.0631 -0.56622,-0.7994 -0.63691,-1.1876 -0.14242,-1.8225 0.67484,-0.8664 9.75157,-8.4026 9.75157,-8.4026 0,0 -9.04301,6.8037 -9.97263,7.2168 -0.85454,0.3796 -1.2106,0.4556 -1.70908,0 -0.54069,-0.4942 -0.78334,-1.2151 -0.0712,-1.8985 0.976,-0.9367 7.33778,-6.5334 7.33778,-6.5334 0,0 -4.35124,4.4316 -5.92311,5.0366 -1.57186,0.6051 -1.72397,0.9737 -2.20757,0.5316 -0.99695,-0.9113 -0.0499,-1.7431 0.78334,-2.5819 0.83321,-0.8388 4.99735,-4.8087 4.99735,-4.8087 0,0 3.7764,-3.1719 4.48852,-4.0832 0.71212,-0.9112 3.49262,-4.2033 3.73916,-5.601 0.25143,-1.4255 11.64043,0.7235 11.64043,0.7235 z"
       id="path3305"
       inkscape:connector-curvature="0"
       sodipodi:nodetypes="csszsscssscsssczszcsscc" />
    <path
       sodipodi:nodetypes="csssssc"
       inkscape:connector-curvature="0"
       id="path3307"
       d="m 51.168606,940.13266 c 0,0 31.42858,-15.71429 32.85715,-22.85714 1.42857,-7.14286 17.142834,-41.42857 4.28571,-44.28571 -12.85714,-2.85715 -26.42857,-6.42858 -38.57143,-5 -12.14286,1.42857 -20.64499,9.12579 -21.42857,21.42857 -0.73208,11.49422 -2.15511,19.26581 3.57142,28.57142 5.71429,9.28572 19.28572,22.14286 19.28572,22.14286 z"
       style="fill:#000000;stroke:#000000;stroke-width:1px;stroke-linecap:butt;stroke-linejoin:miter;stroke-opacity:1" />
    <path
       sodipodi:nodetypes="cssssssc"
       inkscape:connector-curvature="0"
       id="path3309"
       d="m 78.147136,1010.5931 c 0,0 0.44194,2.6517 0.56821,4.4194 0.12627,1.7678 -0.62187,4.5141 -0.56821,6.0609 0.0489,1.4089 0.56821,3.0936 1.13642,3.9144 0.56821,0.8207 -1.19956,1.0733 -1.6415,0.7576 -0.44194,-0.3157 -2.08344,-1.5784 -2.08344,-2.336 0,-0.7576 -0.10271,-3.0074 -0.56821,-3.8512 -0.50454,-0.9146 -1.57836,-0.1263 -1.57836,-0.1263"
       style="fill:#aa4400;stroke:none" />
    <path
       sodipodi:nodetypes="cssssssssssc"
       inkscape:connector-curvature="0"
       id="path3311"
       d="m 244.02573,1010.847 c 0,0 1.42858,-5.7143 9.28572,-6.4286 7.85714,-0.7143 9.63045,2.4498 11.39822,5.7328 1.76776,3.283 0.50507,12.1218 2.0203,13.637 1.51523,1.5153 9.34391,9.5965 7.82868,12.3744 -1.51523,2.7779 -3.53553,3.5355 -7.07106,3.5355 -3.53554,0 -11.36422,0.2526 -12.87945,0.2526 -1.51523,0 -3.53553,2.7779 -5.55584,1.2627 -2.0203,-1.5153 -2.27284,-4.0406 -1.01015,-5.0508 1.26269,-1.0102 4.54569,0 5.05076,-1.7678 0.50508,-1.7677 -0.75761,-7.071 -2.27284,-7.5761 -1.51523,-0.5051 -6.79434,-15.9717 -6.79434,-15.9717 z"
       style="fill:#aa4400;stroke:none" />
    <text
       xml:space="preserve"
       style="font-size:48px;font-style:normal;font-variant:normal;font-weight:normal;font-stretch:normal;line-height:125%;letter-spacing:0px;word-spacing:0px;fill:#000000;fill-opacity:1;stroke:none;font-family:Georgia;-inkscape-font-specification:Georgia"
       x="92.934036"
       y="75.93898"
       id="text3351"
       sodipodi:linespacing="125%"
       transform="translate(0,572.36218)"><tspan
         sodipodi:role="line"
         id="tspan3353"
         x="92.934036"
         y="75.93898">For her crimes,</tspan></text>
    <text
       xml:space="preserve"
       style="font-size:48px;font-style:normal;font-variant:normal;font-weight:normal;font-stretch:normal;line-height:125%;letter-spacing:0px;word-spacing:0px;fill:#000000;fill-opacity:1;stroke:none;font-family:Georgia;-inkscape-font-specification:Georgia"
       x="158.59395"
       y="697.79865"
       id="text3355"
       sodipodi:linespacing="125%"><tspan
         sodipodi:role="line"
         id="tspan3357"
         x="158.59395"
         y="697.79865">she was convicted.</tspan></text>
  </g>
</svg>
