<?xml version="1.0" encoding="UTF-8" standalone="no"?>
<!-- Created with Inkscape (http://www.inkscape.org/) -->

<svg
   xmlns:dc="http://purl.org/dc/elements/1.1/"
   xmlns:cc="http://creativecommons.org/ns#"
   xmlns:rdf="http://www.w3.org/1999/02/22-rdf-syntax-ns#"
   xmlns:svg="http://www.w3.org/2000/svg"
   xmlns="http://www.w3.org/2000/svg"
   xmlns:sodipodi="http://sodipodi.sourceforge.net/DTD/sodipodi-0.dtd"
   xmlns:inkscape="http://www.inkscape.org/namespaces/inkscape"
   width="640"
   height="480"
   id="svg3257"
   version="1.1"
   inkscape:version="0.48.2 r9819"
   sodipodi:docname="splash4.svg"
   inkscape:export-filename="/Users/e0/Dropbox/Iamagamer2013/art/splash3.png"
   inkscape:export-xdpi="90"
   inkscape:export-ydpi="90">
  <defs
     id="defs3259" />
  <sodipodi:namedview
     id="base"
     pagecolor="#ffffff"
     bordercolor="#666666"
     borderopacity="1.0"
     inkscape:pageopacity="0.0"
     inkscape:pageshadow="2"
     inkscape:zoom="0.98994949"
     inkscape:cx="359.66842"
     inkscape:cy="241.83918"
     inkscape:document-units="px"
     inkscape:current-layer="layer1"
     showgrid="false"
     inkscape:window-width="1280"
     inkscape:window-height="716"
     inkscape:window-x="0"
     inkscape:window-y="0"
     inkscape:window-maximized="1"
     inkscape:snap-center="true"
     showguides="true"
     inkscape:guide-bbox="true" />
  <metadata
     id="metadata3262">
    <rdf:RDF>
      <cc:Work
         rdf:about="">
        <dc:format>image/svg+xml</dc:format>
        <dc:type
           rdf:resource="http://purl.org/dc/dcmitype/StillImage" />
        <dc:title />
      </cc:Work>
    </rdf:RDF>
  </metadata>
  <g
     inkscape:label="Layer 1"
     inkscape:groupmode="layer"
     id="layer1"
     transform="translate(0,-572.36218)">
    <rect
       style="fill:#87aade;stroke:none"
       id="rect3359"
       width="645.48749"
       height="484.87323"
       x="0"
       y="-0.83261156"
       transform="translate(0,572.36218)" />
    <path
       style="fill:#000000;stroke:none"
       d="M 57.46875 296.84375 C 55.910435 296.87723 54.361607 296.97768 52.84375 297.15625 C 40.70089 298.58482 32.22108 306.25972 31.4375 318.5625 C 30.70542 330.05672 29.27347 337.85064 35 347.15625 C 40.71429 356.44197 54.28125 369.28125 54.28125 369.28125 C 54.28125 369.28125 63.095789 364.88871 71.59375 359.6875 C 71.380445 363.22065 71.059788 368.03002 70.6875 372 C 70.11781 378.07504 72.59375 400.96875 72.59375 400.96875 C 72.59375 400.96875 72.51439 403.57748 71.375 408.4375 C 70.277033 413.12084 69.640666 434.27864 69.59375 435.84375 C 68.81357 437.43439 66.72624 439.88693 66.125 440.65625 C 65.41288 441.56755 61.65625 444.75 61.65625 444.75 C 61.65625 444.75 57.48946 448.7237 56.65625 449.5625 C 55.82301 450.4013 54.87805 451.2137 55.875 452.125 C 56.3586 452.5671 56.49064 452.19885 58.0625 451.59375 C 58.231832 451.52858 58.462573 451.42492 58.6875 451.28125 C 57.949374 451.9416 56.901296 452.85857 56.65625 453.09375 C 55.94411 453.77715 56.17806 454.5058 56.71875 455 C 57.21723 455.4556 57.58296 455.3796 58.4375 455 C 59.36712 454.5869 68.40625 447.78125 68.40625 447.78125 C 68.40625 447.78125 59.33109 455.3211 58.65625 456.1875 C 58.16176 456.8224 58.24628 457.2006 58.8125 458 C 59.37355 458.7922 60.88164 457.545 61.59375 456.9375 C 62.30587 456.33 71.6875 449.4375 71.6875 449.4375 C 71.6875 449.4375 66.7962 453.9361 64.375 456.0625 C 63.00279 457.2675 62.76766 457.473 63.5 458.25 C 64.13618 458.9248 64.84481 458.8807 66.0625 458.125 C 67.28018 457.3691 72.35006 453.16385 75.59375 450.59375 C 76.181685 450.1279 76.785623 449.27149 77.375 448.28125 C 77.637665 448.27666 77.904547 448.37578 78.09375 448.71875 C 78.55925 449.56255 78.6875 451.8049 78.6875 452.5625 C 78.6875 453.3201 80.30806 454.59055 80.75 454.90625 C 81.19194 455.22195 82.97446 454.97695 82.40625 454.15625 C 81.83804 453.33545 81.2989 451.62765 81.25 450.21875 C 81.19634 448.67195 81.97002 445.92405 81.84375 444.15625 C 81.72396 442.47927 81.322389 440.15561 81.28125 439.90625 C 81.579244 438.84305 81.612226 437.86518 81.59375 437.09375 C 81.727403 436.23332 83.21875 426.53293 83.21875 423.625 C 83.21875 420.58749 86.08655 404.36751 86.65625 401.9375 C 87.22594 399.50749 85.5 395.375 85.5 395.375 C 85.5 395.375 85.51686 381.11002 86.65625 376.25 C 87.207547 373.89844 87.877586 370.24807 88.4375 366.4375 C 90.221402 368.79153 92.02778 370.4995 93.5625 370.71875 C 97.967291 371.34801 109.30899 374.13571 116.40625 375.78125 C 116.85048 386.35089 118.8125 403.375 118.8125 403.375 C 118.8125 403.375 118.70982 406.41072 117.28125 412.125 C 115.96834 417.37666 115.18657 439.84668 115.0625 443.59375 C 114.71819 443.63866 114.42687 443.66809 114.28125 443.75 C 112.85268 444.5536 110.70536 448.20985 109.8125 449.28125 C 108.91964 450.35265 105.09375 454.8125 105.09375 454.8125 C 105.09375 454.8125 97.63844 459.2012 96.59375 460.1875 C 95.549 461.1739 94.37501 462.14725 95.625 463.21875 C 96.23134 463.73845 96.43544 463.30515 98.40625 462.59375 C 100.37706 461.88225 108.03125 456.96875 108.03125 456.96875 C 108.03125 456.96875 98.62996 464.86745 97.40625 465.96875 C 96.5134 466.77235 96.82209 467.63765 97.5 468.21875 C 98.125 468.75445 98.58482 468.66515 99.65625 468.21875 C 100.82181 467.73305 113.5625 458.40625 113.5625 458.40625 C 113.5625 458.40625 104.31487 466.6687 103.46875 467.6875 C 102.84876 468.4339 102.94632 468.8725 103.65625 469.8125 C 104.3597 470.7439 106.2634 469.2768 107.15625 468.5625 C 108.04911 467.8482 117.6875 460.34375 117.6875 460.34375 C 117.6875 460.34375 113.03571 465.71875 110 468.21875 C 108.27952 469.63555 108.6443 470.61785 109.5625 471.53125 C 110.36015 472.32475 110.62951 471.5136 112.15625 470.625 C 113.68299 469.7364 118.5268 464.7094 122.59375 461.6875 C 125.06499 459.8513 127.75892 453.2947 129.1875 450.4375 C 130.03228 448.74796 130.16255 446.91383 130.125 445.6875 C 130.44699 443.72871 132.15625 433.24673 132.15625 430 C 132.15625 426.42855 135.72321 407.35714 136.4375 404.5 C 137.15178 401.64286 135 396.75 135 396.75 C 135 396.75 135.0119 395.7159 135.03125 394.1875 C 135.59497 394.9097 136.12225 395.54352 136.625 396.0625 C 136.92294 396.49489 137.23948 396.95942 137.53125 397.375 C 137.62816 397.29508 137.71553 397.20486 137.8125 397.125 C 137.82337 397.13239 137.83293 397.14904 137.84375 397.15625 C 142.12946 400.01339 147.15625 425 147.15625 425 C 147.15625 425 149.95626 425.15601 150.59375 425.1875 C 147.15602 434.01962 140.66054 453.53088 142.8125 459.25 C 145.34053 465.9686 147.70644 464.8037 158.65625 467.0625 C 160.52704 467.4484 162.34946 467.48923 164.0625 467.25 C 164.88421 467.97684 165.90625 468.65625 167.15625 469.28125 C 168.80545 470.10585 170.68418 470.34672 172.6875 470.15625 C 181.95032 470.90104 199.67672 472.15625 205.71875 472.15625 C 212.14732 472.15625 242.87054 459.99555 247.15625 459.28125 C 249.29911 458.9241 252.67411 458.9375 255.53125 458.3125 C 256.18355 460.12433 256.52416 462.49361 256.21875 463.5625 C 255.71368 465.3303 252.41894 464.3023 251.15625 465.3125 C 249.89356 466.3227 250.13595 468.8597 252.15625 470.375 C 254.17656 471.8902 256.20352 469.09375 257.71875 469.09375 C 259.23398 469.09375 267.05821 468.84375 270.59375 468.84375 C 274.12928 468.84375 276.17227 468.0904 277.6875 465.3125 C 279.20273 462.5346 271.35898 454.4528 269.84375 452.9375 C 268.32852 451.4223 269.58026 442.5955 267.8125 439.3125 C 266.04473 436.0295 264.29464 432.8482 256.4375 433.5625 C 251.03572 434.05358 248.69953 436.88898 247.75 438.625 C 242.60672 439.09601 233.977 443.5625 228.5625 443.5625 C 222.84821 443.5625 218.58036 440.01345 206.4375 442.15625 C 205.48884 442.32366 204.53097 442.48759 203.59375 442.6875 C 208.84692 432.80383 214.05003 423.07408 217.46875 416.6875 C 223.44141 414.15878 227.84375 412.15625 227.84375 412.15625 C 227.84375 412.15625 222.84821 379.27678 213.5625 373.5625 C 206.04751 368.93789 190.12932 369.47077 179.78125 367.1875 C 179.83399 367.1566 179.88473 367.12461 179.9375 367.09375 C 174.05917 365.59472 170.68815 362.32938 168.84375 357.46875 C 168.63643 357.65501 168.42701 357.84651 168.21875 358.03125 C 161.42826 345.17247 154.14348 319.62359 142.84375 312.84375 C 128.55804 304.27232 97.15625 310 97.15625 310 L 96.4375 310.71875 C 96.388061 306.24614 95.05357 302.95982 91.4375 302.15625 C 80.187502 299.65624 68.376955 296.60937 57.46875 296.84375 z "
       transform="translate(0,572.36218)"
       id="path3279" />
    <path
       style="fill:#000000;stroke:#000000;stroke-width:1px;stroke-linecap:butt;stroke-linejoin:miter;stroke-opacity:1"
       d="m 260.35715,455.53572 c 0,0 21.07142,10.89285 35.35714,-0.53572 C 310,443.57143 317.85714,406.42857 326.42857,370.71428 335,335 372.85714,290.71428 365,276.42857 357.14286,262.14286 292.85714,255 281.42857,262.14286 270,269.28572 270.71429,312.85715 267.85715,332.85715 265,352.85715 260,392.85714 251.42857,397.85714 c -8.57143,5 -53.57143,45.53572 -53.57143,45.53572"
       id="path3314"
       inkscape:connector-curvature="0"
       transform="translate(0,572.36218)"
       sodipodi:nodetypes="cssssssc" />
    <path
       style="fill:#000000;stroke:#000000;stroke-width:1px;stroke-linecap:butt;stroke-linejoin:miter;stroke-opacity:1"
       d="m 220,431.42857 c 0,0 17.14286,-57.14286 20,-67.14286 2.85714,-10 22.85714,-88.57142 28.57143,-105.71428 5.71428,-17.14286 -74.28571,-38.57143 -82.85714,-20 -8.57143,18.57143 8.57142,91.42857 2.85714,104.28571 -5.71429,12.85715 -25.71429,48.57143 -27.14286,58.57143 -1.42857,10 2.85714,31.42857 2.85714,31.42857"
       id="path3316"
       inkscape:connector-curvature="0"
       transform="translate(0,572.36218)"
       sodipodi:nodetypes="csssssc" />
    <path
       style="fill:#000000;stroke:#000000;stroke-width:1px;stroke-linecap:butt;stroke-linejoin:miter;stroke-opacity:1"
       d="m 121.42857,344.28571 c 0,0 -8.57143,-45.71428 -12.85715,-52.85714 C 104.28571,284.28571 92.857143,250 91.428571,230 90,210 167.14286,214.28571 168.57143,231.42857 170,248.57143 170,292.85714 170,311.42857 170,330 157.14286,367.14286 157.14286,367.14286"
       id="path3318"
       inkscape:connector-curvature="0"
       transform="translate(0,572.36218)"
       sodipodi:nodetypes="cssssc" />
    <path
       sodipodi:type="arc"
       style="fill:#000000;stroke:none"
       id="path3328"
       sodipodi:cx="46.42857"
       sodipodi:cy="162.14285"
       sodipodi:rx="23.571428"
       sodipodi:ry="23.571428"
       d="m 69.999998,162.14285 c 0,13.01814 -10.553288,23.57143 -23.571428,23.57143 -13.018141,0 -23.571429,-10.55329 -23.571429,-23.57143 0,-13.01814 10.553288,-23.57143 23.571429,-23.57143 13.01814,0 23.571428,10.55329 23.571428,23.57143 z"
       transform="translate(190.41842,618.1062)" />
    <path
       transform="translate(287.56128,644.65733)"
       d="m 69.999998,162.14285 c 0,13.01814 -10.553288,23.57143 -23.571428,23.57143 -13.018141,0 -23.571429,-10.55329 -23.571429,-23.57143 0,-13.01814 10.553288,-23.57143 23.571429,-23.57143 13.01814,0 23.571428,10.55329 23.571428,23.57143 z"
       sodipodi:ry="23.571428"
       sodipodi:rx="23.571428"
       sodipodi:cy="162.14285"
       sodipodi:cx="46.42857"
       id="path3330"
       style="fill:#000000;stroke:none"
       sodipodi:type="arc" />
    <path
       style="fill:#000000;stroke:none"
       d="m 411.13209,861.44335 c 1.01015,-22.22336 92.93404,-24.24366 86.87311,-2.02031 -3.28763,12.05463 -22.22335,199.00006 -22.22335,199.00006 l -56.56854,-2.0203 c 0,0 -9.09137,-172.73609 -8.08122,-194.95945 z"
       id="path3400"
       inkscape:connector-curvature="0"
       sodipodi:nodetypes="zsccz" />
    <path
       sodipodi:type="arc"
       style="fill:#000000;stroke:none"
       id="path3402"
       sodipodi:cx="456.58896"
       sodipodi:cy="203.72328"
       sodipodi:rx="27.274118"
       sodipodi:ry="25.75889"
       d="m 483.86308,203.72328 c 0,14.22624 -12.21104,25.75889 -27.27412,25.75889 -15.06308,0 -27.27412,-11.53265 -27.27412,-25.75889 0,-14.22624 12.21104,-25.75889 27.27412,-25.75889 15.06308,0 27.27412,11.53265 27.27412,25.75889 z"
       transform="translate(-5.0507627,592.56523)" />
    <path
       style="fill:#ff0000;stroke:none;stroke-width:1px;stroke-linecap:butt;stroke-linejoin:miter;stroke-opacity:1"
       d="m 521.23871,483.03046 c 0,0 -33.33503,-184.85792 -31.31473,-204.05082 2.02031,-19.19289 122.22846,-44.44671 121.21831,-13.13198 -1.01015,31.31473 -10.10153,217.1828 -10.10153,217.1828 z"
       id="path3423"
       inkscape:connector-curvature="0"
       transform="translate(0,572.36218)" />
    <path
       sodipodi:type="arc"
       style="fill:#ff0000;stroke:none"
       id="path3425"
       sodipodi:cx="540.43164"
       sodipodi:cy="200.18774"
       sodipodi:rx="37.375645"
       sodipodi:ry="36.36549"
       d="m 577.80729,200.18774 c 0,20.08411 -16.73365,36.36549 -37.37565,36.36549 -20.642,0 -37.37564,-16.28138 -37.37564,-36.36549 0,-20.0841 16.73364,-36.36549 37.37564,-36.36549 20.642,0 37.37565,16.28139 37.37565,36.36549 z"
       transform="translate(0,572.36218)" />
    <path
       style="fill:#ffff00;stroke:none"
       d="m 505.32881,176.19662 c 0,0 6.95414,-8.44092 16.48913,-12.34669 9.79858,-4.01375 23.87903,-4.35263 33.00835,-0.53275 7.22573,3.02338 15.65736,9.09137 15.65736,9.09137 l 3.78807,-48.9924 c 0,0 -2.27284,16.92005 -11.36421,15.15229 -9.09138,-1.76777 -8.08122,-16.41498 -8.08122,-16.41498 0,0 -5.80839,14.89975 -13.13199,14.89975 -7.32361,0 -9.34391,-13.63706 -9.34391,-13.63706 0,0 -5.55584,15.40483 -12.37437,15.40483 -6.81853,0 -18.68782,-13.63706 -18.68782,-13.63706 z"
       id="path3429"
       inkscape:connector-curvature="0"
       transform="translate(0,572.36218)"
       sodipodi:nodetypes="cssccscscscc" />
    <text
       xml:space="preserve"
       style="font-size:36px;font-style:normal;font-variant:normal;font-weight:normal;font-stretch:normal;line-height:125%;letter-spacing:0px;word-spacing:0px;fill:#000000;fill-opacity:1;stroke:none;font-family:Sans;-inkscape-font-specification:Helvetica"
       x="36.365494"
       y="50.685169"
       id="text3431"
       sodipodi:linespacing="125%"
       transform="translate(0,572.36218)"><tspan
         sodipodi:role="line"
         id="tspan3433"
         x="36.365494"
         y="50.685169">... but the Emperor</tspan></text>
    <text
       xml:space="preserve"
       style="font-size:36px;font-style:normal;font-variant:normal;font-weight:normal;font-stretch:normal;line-height:125%;letter-spacing:0px;word-spacing:0px;fill:#000000;fill-opacity:1;stroke:none;font-family:Sans;-inkscape-font-specification:Helvetica"
       x="211.12187"
       y="675.57526"
       id="text3435"
       sodipodi:linespacing="125%"><tspan
         sodipodi:role="line"
         id="tspan3437"
         x="211.12187"
         y="675.57526">did not agree</tspan></text>
    <path
       transform="translate(80.311792,596.893)"
       d="m 69.999998,162.14285 a 23.571428,23.571428 0 1 1 -47.142857,0 23.571428,23.571428 0 1 1 47.142857,0 z"
       sodipodi:ry="23.571428"
       sodipodi:rx="23.571428"
       sodipodi:cy="162.14285"
       sodipodi:cx="46.42857"
       id="path4717"
       style="fill:#000000;stroke:none"
       sodipodi:type="arc" />
  </g>
</svg>
