<?xml version="1.0" encoding="UTF-8" standalone="no"?>
<!-- Created with Inkscape (http://www.inkscape.org/) -->

<svg
   xmlns:dc="http://purl.org/dc/elements/1.1/"
   xmlns:cc="http://creativecommons.org/ns#"
   xmlns:rdf="http://www.w3.org/1999/02/22-rdf-syntax-ns#"
   xmlns:svg="http://www.w3.org/2000/svg"
   xmlns="http://www.w3.org/2000/svg"
   xmlns:sodipodi="http://sodipodi.sourceforge.net/DTD/sodipodi-0.dtd"
   xmlns:inkscape="http://www.inkscape.org/namespaces/inkscape"
   width="640"
   height="480"
   id="svg3257"
   version="1.1"
   inkscape:version="0.48.2 r9819"
   sodipodi:docname="splash5.svg"
   inkscape:export-filename="/Users/e0/Dropbox/Iamagamer2013/art/splash4.png"
   inkscape:export-xdpi="90"
   inkscape:export-ydpi="90">
  <defs
     id="defs3259" />
  <sodipodi:namedview
     id="base"
     pagecolor="#ffffff"
     bordercolor="#666666"
     borderopacity="1.0"
     inkscape:pageopacity="0.0"
     inkscape:pageshadow="2"
     inkscape:zoom="0.98994949"
     inkscape:cx="441.36461"
     inkscape:cy="238.53296"
     inkscape:document-units="px"
     inkscape:current-layer="layer1"
     showgrid="false"
     inkscape:window-width="1280"
     inkscape:window-height="716"
     inkscape:window-x="0"
     inkscape:window-y="0"
     inkscape:window-maximized="0"
     inkscape:snap-center="true"
     showguides="true"
     inkscape:guide-bbox="true"
     inkscape:snap-global="false" />
  <metadata
     id="metadata3262">
    <rdf:RDF>
      <cc:Work
         rdf:about="">
        <dc:format>image/svg+xml</dc:format>
        <dc:type
           rdf:resource="http://purl.org/dc/dcmitype/StillImage" />
        <dc:title></dc:title>
      </cc:Work>
    </rdf:RDF>
  </metadata>
  <g
     inkscape:label="Layer 1"
     inkscape:groupmode="layer"
     id="layer1"
     transform="translate(0,-572.36218)">
    <rect
       style="fill:#87aade;stroke:none"
       id="rect3359"
       width="645.48749"
       height="484.87323"
       x="0"
       y="-0.83261156"
       transform="translate(0,572.36218)" />
    <path
       style="fill:#000000;stroke:none"
       d="M 57.46875 296.84375 C 55.910435 296.87723 54.361607 296.97768 52.84375 297.15625 C 40.70089 298.58482 32.22108 306.25972 31.4375 318.5625 C 30.70542 330.05672 29.27347 337.85064 35 347.15625 C 40.71429 356.44197 54.28125 369.28125 54.28125 369.28125 C 54.28125 369.28125 63.095789 364.88871 71.59375 359.6875 C 71.380445 363.22065 71.059788 368.03002 70.6875 372 C 70.11781 378.07504 72.59375 400.96875 72.59375 400.96875 C 72.59375 400.96875 72.51439 403.57748 71.375 408.4375 C 70.277033 413.12084 69.640666 434.27864 69.59375 435.84375 C 68.81357 437.43439 66.72624 439.88693 66.125 440.65625 C 65.41288 441.56755 61.65625 444.75 61.65625 444.75 C 61.65625 444.75 57.48946 448.7237 56.65625 449.5625 C 55.82301 450.4013 54.87805 451.2137 55.875 452.125 C 56.3586 452.5671 56.49064 452.19885 58.0625 451.59375 C 58.231832 451.52858 58.462573 451.42492 58.6875 451.28125 C 57.949374 451.9416 56.901296 452.85857 56.65625 453.09375 C 55.94411 453.77715 56.17806 454.5058 56.71875 455 C 57.21723 455.4556 57.58296 455.3796 58.4375 455 C 59.36712 454.5869 68.40625 447.78125 68.40625 447.78125 C 68.40625 447.78125 59.33109 455.3211 58.65625 456.1875 C 58.16176 456.8224 58.24628 457.2006 58.8125 458 C 59.37355 458.7922 60.88164 457.545 61.59375 456.9375 C 62.30587 456.33 71.6875 449.4375 71.6875 449.4375 C 71.6875 449.4375 66.7962 453.9361 64.375 456.0625 C 63.00279 457.2675 62.76766 457.473 63.5 458.25 C 64.13618 458.9248 64.84481 458.8807 66.0625 458.125 C 67.28018 457.3691 72.35006 453.16385 75.59375 450.59375 C 76.181685 450.1279 76.785623 449.27149 77.375 448.28125 C 77.637665 448.27666 77.904547 448.37578 78.09375 448.71875 C 78.55925 449.56255 78.6875 451.8049 78.6875 452.5625 C 78.6875 453.3201 80.30806 454.59055 80.75 454.90625 C 81.19194 455.22195 82.97446 454.97695 82.40625 454.15625 C 81.83804 453.33545 81.2989 451.62765 81.25 450.21875 C 81.19634 448.67195 81.97002 445.92405 81.84375 444.15625 C 81.72396 442.47927 81.322389 440.15561 81.28125 439.90625 C 81.579244 438.84305 81.612226 437.86518 81.59375 437.09375 C 81.727403 436.23332 83.21875 426.53293 83.21875 423.625 C 83.21875 420.58749 86.08655 404.36751 86.65625 401.9375 C 87.22594 399.50749 85.5 395.375 85.5 395.375 C 85.5 395.375 85.51686 381.11002 86.65625 376.25 C 87.207547 373.89844 87.877586 370.24807 88.4375 366.4375 C 90.221402 368.79153 92.02778 370.4995 93.5625 370.71875 C 97.967291 371.34801 109.30899 374.13571 116.40625 375.78125 C 116.85048 386.35089 118.8125 403.375 118.8125 403.375 C 118.8125 403.375 118.70982 406.41072 117.28125 412.125 C 115.96834 417.37666 115.18657 439.84668 115.0625 443.59375 C 114.71819 443.63866 114.42687 443.66809 114.28125 443.75 C 112.85268 444.5536 110.70536 448.20985 109.8125 449.28125 C 108.91964 450.35265 105.09375 454.8125 105.09375 454.8125 C 105.09375 454.8125 97.63844 459.2012 96.59375 460.1875 C 95.549 461.1739 94.37501 462.14725 95.625 463.21875 C 96.23134 463.73845 96.43544 463.30515 98.40625 462.59375 C 100.37706 461.88225 108.03125 456.96875 108.03125 456.96875 C 108.03125 456.96875 98.62996 464.86745 97.40625 465.96875 C 96.5134 466.77235 96.82209 467.63765 97.5 468.21875 C 98.125 468.75445 98.58482 468.66515 99.65625 468.21875 C 100.82181 467.73305 113.5625 458.40625 113.5625 458.40625 C 113.5625 458.40625 104.31487 466.6687 103.46875 467.6875 C 102.84876 468.4339 102.94632 468.8725 103.65625 469.8125 C 104.3597 470.7439 106.2634 469.2768 107.15625 468.5625 C 108.04911 467.8482 117.6875 460.34375 117.6875 460.34375 C 117.6875 460.34375 113.03571 465.71875 110 468.21875 C 108.27952 469.63555 108.6443 470.61785 109.5625 471.53125 C 110.36015 472.32475 110.62951 471.5136 112.15625 470.625 C 113.68299 469.7364 118.5268 464.7094 122.59375 461.6875 C 125.06499 459.8513 127.75892 453.2947 129.1875 450.4375 C 130.03228 448.74796 130.16255 446.91383 130.125 445.6875 C 130.44699 443.72871 132.15625 433.24673 132.15625 430 C 132.15625 426.42855 135.72321 407.35714 136.4375 404.5 C 137.15178 401.64286 135 396.75 135 396.75 C 135 396.75 135.0119 395.7159 135.03125 394.1875 C 135.59497 394.9097 136.12225 395.54352 136.625 396.0625 C 136.92294 396.49489 137.23948 396.95942 137.53125 397.375 C 137.62816 397.29508 137.71553 397.20486 137.8125 397.125 C 137.82337 397.13239 137.83293 397.14904 137.84375 397.15625 C 142.12946 400.01339 147.15625 425 147.15625 425 C 147.15625 425 149.95626 425.15601 150.59375 425.1875 C 147.15602 434.01962 140.66054 453.53088 142.8125 459.25 C 145.34053 465.9686 147.70644 464.8037 158.65625 467.0625 C 160.52704 467.4484 162.34946 467.48923 164.0625 467.25 C 164.88421 467.97684 165.90625 468.65625 167.15625 469.28125 C 168.80545 470.10585 170.68418 470.34672 172.6875 470.15625 C 181.95032 470.90104 199.67672 472.15625 205.71875 472.15625 C 212.14732 472.15625 242.87054 459.99555 247.15625 459.28125 C 249.29911 458.9241 252.67411 458.9375 255.53125 458.3125 C 256.18355 460.12433 256.52416 462.49361 256.21875 463.5625 C 255.71368 465.3303 252.41894 464.3023 251.15625 465.3125 C 249.89356 466.3227 250.13595 468.8597 252.15625 470.375 C 254.17656 471.8902 256.20352 469.09375 257.71875 469.09375 C 259.23398 469.09375 267.05821 468.84375 270.59375 468.84375 C 274.12928 468.84375 276.17227 468.0904 277.6875 465.3125 C 279.20273 462.5346 271.35898 454.4528 269.84375 452.9375 C 268.32852 451.4223 269.58026 442.5955 267.8125 439.3125 C 266.04473 436.0295 264.29464 432.8482 256.4375 433.5625 C 251.03572 434.05358 248.69953 436.88898 247.75 438.625 C 242.60672 439.09601 233.977 443.5625 228.5625 443.5625 C 222.84821 443.5625 218.58036 440.01345 206.4375 442.15625 C 205.48884 442.32366 204.53097 442.48759 203.59375 442.6875 C 208.84692 432.80383 214.05003 423.07408 217.46875 416.6875 C 223.44141 414.15878 227.84375 412.15625 227.84375 412.15625 C 227.84375 412.15625 222.84821 379.27678 213.5625 373.5625 C 206.04751 368.93789 190.12932 369.47077 179.78125 367.1875 C 179.83399 367.1566 179.88473 367.12461 179.9375 367.09375 C 174.05917 365.59472 170.68815 362.32938 168.84375 357.46875 C 168.63643 357.65501 168.42701 357.84651 168.21875 358.03125 C 161.42826 345.17247 154.14348 319.62359 142.84375 312.84375 C 128.55804 304.27232 97.15625 310 97.15625 310 L 96.4375 310.71875 C 96.388061 306.24614 95.05357 302.95982 91.4375 302.15625 C 80.187502 299.65624 68.376955 296.60937 57.46875 296.84375 z "
       transform="translate(0,572.36218)"
       id="path3279" />
    <path
       style="fill:#ffffff;stroke:none;stroke-width:1px;stroke-linecap:butt;stroke-linejoin:miter;stroke-opacity:1"
       d="m 373.25137,368.88322 c 0,0 -4.04061,-1.76777 -7.57615,-0.25254 -3.53553,1.51523 -6.56599,6.56599 -6.31345,8.83884 0.25254,2.27284 1.76777,9.09137 1.76777,9.09137 0,0 1.51522,-6.81853 3.03045,-8.33376 1.51523,-1.51523 5.3033,-1.76777 7.07107,-2.0203 1.76777,-0.25254 6.06092,-0.50508 6.06092,-0.50508 z"
       id="path3464"
       inkscape:connector-curvature="0"
       transform="translate(0,572.36218)" />
    <path
       inkscape:connector-curvature="0"
       id="path3466"
       d="m 383.89645,960.32034 c 0,0 -3.24453,-1.52703 -6.08349,-0.21815 -2.83896,1.30888 -5.27235,5.6718 -5.06957,7.63513 0.20279,1.96331 1.41948,7.85327 1.41948,7.85327 0,0 1.21669,-5.88996 2.43339,-7.19884 1.2167,-1.30888 4.25844,-1.52702 5.67792,-1.74516 1.41948,-0.21815 4.86679,-0.4363 4.86679,-0.4363 z"
       style="fill:#ffffff;stroke:none" />
    <path
       style="fill:#ffffff;stroke:none"
       d="m 394.39602,976.44739 c 0,0 -2.84648,-1.45481 -5.33716,-0.20783 -2.49067,1.24697 -4.62553,5.40355 -4.44762,7.27401 0.1779,1.87046 1.24533,7.48184 1.24533,7.48184 0,0 1.06743,-5.61138 2.13486,-6.85835 1.06743,-1.24698 3.73601,-1.45481 4.98134,-1.66263 1.24534,-0.20783 4.26973,-0.41566 4.26973,-0.41566 z"
       id="path3468"
       inkscape:connector-curvature="0" />
    <path
       style="fill:#ff7f2a;stroke:none"
       d="m 438.4062,319.38575 c 0,0 27.27412,8.08121 9.09138,14.14213 -18.18275,6.06091 -30.30457,20.20305 -43.43656,24.24366 -4.82741,1.48536 -28.28427,7.07107 -28.28427,7.07107 0,0 -9.09137,6.06091 -6.06092,10.10152 3.03046,4.04061 34.34519,0 34.34519,0 0,0 -28.28426,12.12184 -24.24365,18.18275 4.04061,6.06092 28.28426,-5.05076 28.28426,-5.05076 0,0 -23.23351,14.14213 -18.18274,21.2132 5.05076,7.07107 36.36549,-8.08122 40.4061,-10.10153 4.04061,-2.0203 19.1929,-15.15229 27.27412,-20.20305 8.08122,-5.05076 1.01015,-15.15229 14.14213,-19.1929 13.13199,-4.04061 45.45687,-41.41624 59.599,-39.39594 14.14214,2.02031 48.85901,-9.99539 61.61931,-12.12183 35.20908,-5.86743 57.58168,-19.19456 50.50762,5.05076 l 2.02031,-98.99495 c 0,0 -19.1929,-6.06091 -44.44672,-8.08122 -25.25381,-2.0203 -87.88326,8.08122 -107.07616,6.06091 -19.1929,-2.0203 -112.12694,12.12184 -112.12694,12.12184 l 8.08122,69.70052 c 0,0 31.31473,18.18274 44.44671,16.16244 13.13199,-2.02031 4.04061,9.09138 4.04061,9.09138 z"
       id="path3460"
       inkscape:connector-curvature="0"
       transform="translate(0,572.36218)"
       sodipodi:nodetypes="csscscscssssssccssccsc" />
    <path
       style="fill:#ffffff;stroke:none;stroke-width:1px;stroke-linecap:butt;stroke-linejoin:miter;stroke-opacity:1"
       d="m 287.89348,313.07229 c 0,0 0,5.55584 2.52538,7.07107 2.52538,1.51523 9.09137,1.76777 9.09137,1.76777 0,0 -5.3033,-2.02031 -6.31345,-4.79823 -1.01016,-2.77792 -0.75762,-6.31345 -0.75762,-6.31345 l 3.03046,-1.26269 c 0,0 -1.76777,3.03046 0.50508,5.55584 2.27284,2.52538 7.57614,2.52538 7.57614,2.52538 0,0 -2.52538,-2.02031 -2.77792,-3.53554 -0.25254,-1.51522 -0.75761,-7.57614 -0.75761,-7.57614 0,0 2.0203,4.04061 4.04061,4.29315 2.0203,0.25254 6.06091,1.26269 6.06091,1.26269 0,0 -2.77792,-1.76777 -3.78807,-3.78807 -1.01015,-2.02031 -1.26269,-5.80838 -1.26269,-5.80838 0,0 2.27284,4.54569 4.54569,4.79822 2.27284,0.25254 6.56599,1.01016 6.56599,1.01016 0,0 -4.04061,1.01015 -4.54569,-3.283 -0.50508,-4.29315 0.50508,-9.34391 0.50508,-9.34391 0,0 0.25253,6.56599 4.29315,7.82868 4.04061,1.26269 5.3033,1.01016 5.3033,1.01016 0,0 -4.79823,-2.52539 -5.3033,-5.80838 -0.50508,-3.283 1.51522,-7.07107 1.51522,-7.07107 0,0 -1.51522,2.77792 1.01016,4.79822 2.52538,2.02031 6.81853,1.76777 6.81853,1.76777 0,0 -1.51523,1.51523 -1.76777,-3.03046 -0.25254,-4.54568 1.26269,-7.82868 1.26269,-7.82868 0,0 -1.01015,4.79823 1.51523,6.31346 2.52538,1.51522 6.31345,2.52538 6.31345,2.52538 0,0 -0.75761,-4.29315 -1.01015,-7.07107 -0.25254,-2.77792 0,-5.3033 0,-5.3033 l -6.81853,-1.76777 -32.82996,20.96067 z"
       id="path3470"
       inkscape:connector-curvature="0"
       transform="translate(0,572.36218)" />
    <path
       style="fill:#ffffff;stroke:none;stroke-width:1px;stroke-linecap:butt;stroke-linejoin:miter;stroke-opacity:1"
       d="m 312.89475,337.82103 c 0,0 -6.56599,-0.50508 -7.07107,-2.27284 -0.50507,-1.76777 -0.50507,-6.566 -0.50507,-6.566 0,0 2.27284,4.04061 4.79822,4.29315 2.52538,0.25254 6.81853,0.25254 6.81853,0.25254 0,0 -3.53553,0.50508 -4.04061,-2.77792 -0.50508,-3.28299 0.50508,-6.56599 0.50508,-6.56599 0,0 1.51523,3.283 3.53553,4.29315 2.02031,1.01015 5.55584,2.0203 5.55584,2.0203 0,0 -3.283,-2.0203 -2.77792,-4.29315 0.50508,-2.27284 2.02031,-6.31345 2.02031,-6.31345 0,0 1.01015,4.79823 2.27284,6.06092 1.26269,1.26269 5.3033,2.27284 5.3033,2.27284 0,0 -1.51523,-1.26269 -1.01015,-4.04061 0.50507,-2.77792 2.27284,-7.57614 2.27284,-7.57614 0,0 0,2.52538 2.77792,4.79822 2.77792,2.27284 5.3033,2.77792 5.3033,2.77792 0,0 -1.76777,-0.50508 -1.01015,-4.04061 0.75761,-3.53553 1.76777,-8.08122 1.76777,-8.08122 0,0 1.51522,3.78807 5.05076,5.3033 3.53553,1.51523 7.07107,3.53553 7.07107,3.53553 0,0 -2.02031,-4.04061 -2.52539,-6.06091 -0.50507,-2.02031 0.75762,-6.31345 0.75762,-6.31345 l 4.04061,4.54568 7.57614,6.06092 z"
       id="path3472"
       inkscape:connector-curvature="0"
       transform="translate(0,572.36218)" />
    <path
       style="fill:#ff6600;stroke:none"
       d="m 343.45187,204.22836 c -13.93054,9.1167 -20.20306,13.13198 -34.34519,27.27411 -14.14214,14.14214 -10.10153,52.52794 -10.10153,52.52794 l -25.25381,18.18274 c 0,0 5.05076,14.14214 12.12183,15.15229 7.07107,1.01015 32.32488,-30.30458 45.45686,-29.29442 13.13199,1.01015 33.33504,23.2335 21.21321,29.29442 -12.12183,6.06092 -40.4061,14.14214 -41.41626,18.18275 -1.01015,4.04061 13.13199,13.13198 13.13199,13.13198 0,0 50.50762,-21.2132 58.58884,-21.2132 8.08123,0 22.22336,14.14213 40.40611,16.16244 18.18274,2.0203 65.65991,-13.13199 65.65991,-13.13199 0,0 -55.55839,-13.13198 -50.50763,-16.16244 5.05077,-3.03046 38.3858,-7.07107 38.3858,-7.07107 0,0 -59.599,-14.14213 -49.49747,-18.18274 10.10152,-4.04061 49.49747,-12.12183 49.49747,-12.12183 0,0 -69.70052,-6.06092 -62.62946,-17.17259 7.07107,-11.11168 61.61931,-13.13199 61.61931,-13.13199 0,0 -67.68022,-8.08122 -65.65992,-18.18274 2.02031,-10.10153 62.62946,-8.08122 62.62946,-8.08122 0,0 -53.53808,-8.08122 -51.51778,-17.1726 2.02031,-9.09137 68.69037,4.04061 68.69037,4.04061 0,0 -81.82235,-36.36549 -96.97464,-29.29442 -15.15229,7.07107 -35.56694,17.14727 -49.49747,26.26397 z"
       id="path3458"
       inkscape:connector-curvature="0"
       transform="translate(0,572.36218)"
       sodipodi:nodetypes="zsccsssscsscscscscscscsz" />
    <path
       style="fill:#ff0000;stroke:none;stroke-width:1px;stroke-linecap:butt;stroke-linejoin:miter;stroke-opacity:1"
       d="m 305.31861,279.9898 c 0,0 1.26269,-2.02031 1.76776,-3.53554 0.50508,-1.51523 -3.03045,-5.05076 1.51523,-8.83883 4.54569,-3.78807 13.63706,-8.08122 14.64721,-10.10153 1.01016,-2.0203 3.283,-5.05076 3.283,-5.05076 0,0 -2.52538,11.86929 -3.53553,13.38452 -1.01016,1.51523 -1.01016,5.05076 -4.29315,7.07107 -3.283,2.0203 -13.38452,7.07107 -13.38452,7.07107 z"
       id="path3474"
       inkscape:connector-curvature="0"
       transform="translate(0,572.36218)" />
    <text
       xml:space="preserve"
       style="font-size:36px;font-style:normal;font-variant:normal;font-weight:normal;font-stretch:normal;line-height:125%;letter-spacing:0px;word-spacing:0px;fill:#000000;fill-opacity:1;stroke:none;font-family:Sans;-inkscape-font-specification:Helvetica"
       x="29.294424"
       y="47.654713"
       id="text3476"
       sodipodi:linespacing="125%"
       transform="translate(0,572.36218)"><tspan
         sodipodi:role="line"
         id="tspan3478"
         x="29.294424"
         y="47.654713">and she was sentenced to die</tspan></text>
    <text
       xml:space="preserve"
       style="font-size:36px;font-style:normal;font-variant:normal;font-weight:normal;font-stretch:normal;line-height:125%;letter-spacing:0px;word-spacing:0px;fill:#000000;fill-opacity:1;stroke:none;font-family:Sans;-inkscape-font-specification:Helvetica"
       x="263.64981"
       y="133.51768"
       id="text3480"
       sodipodi:linespacing="125%"
       transform="translate(0,572.36218)"><tspan
         sodipodi:role="line"
         id="tspan3482"
         x="263.64981"
         y="133.51768">in the Arena.</tspan></text>
  </g>
</svg>
