<?xml version="1.0" encoding="UTF-8" standalone="no"?>
<!-- Created with Inkscape (http://www.inkscape.org/) -->

<svg
   xmlns:dc="http://purl.org/dc/elements/1.1/"
   xmlns:cc="http://creativecommons.org/ns#"
   xmlns:rdf="http://www.w3.org/1999/02/22-rdf-syntax-ns#"
   xmlns:svg="http://www.w3.org/2000/svg"
   xmlns="http://www.w3.org/2000/svg"
   xmlns:sodipodi="http://sodipodi.sourceforge.net/DTD/sodipodi-0.dtd"
   xmlns:inkscape="http://www.inkscape.org/namespaces/inkscape"
   width="32"
   height="32"
   id="svg2"
   version="1.1"
   inkscape:version="0.48.4 r9939"
   sodipodi:docname="trapper-iteration.svg"
   inkscape:export-filename="C:\Users\colin\Dropbox\Iamagamer2013\art\trapper0.png"
   inkscape:export-xdpi="90"
   inkscape:export-ydpi="90">
  <defs
     id="defs4" />
  <sodipodi:namedview
     id="base"
     pagecolor="#ffffff"
     bordercolor="#666666"
     borderopacity="1.0"
     inkscape:pageopacity="0.0"
     inkscape:pageshadow="2"
     inkscape:zoom="11.2"
     inkscape:cx="26.815033"
     inkscape:cy="13.198445"
     inkscape:document-units="px"
     inkscape:current-layer="layer1"
     showgrid="false"
     inkscape:window-width="1218"
     inkscape:window-height="778"
     inkscape:window-x="54"
     inkscape:window-y="-8"
     inkscape:window-maximized="1" />
  <metadata
     id="metadata7">
    <rdf:RDF>
      <cc:Work
         rdf:about="">
        <dc:format>image/svg+xml</dc:format>
        <dc:type
           rdf:resource="http://purl.org/dc/dcmitype/StillImage" />
        <dc:title></dc:title>
      </cc:Work>
    </rdf:RDF>
  </metadata>
  <g
     inkscape:label="Layer 1"
     inkscape:groupmode="layer"
     id="layer1"
     transform="translate(0,-1020.3622)">
    <path
       sodipodi:type="arc"
       style="fill:#aa4400;stroke:#aa4400"
       id="path3021"
       sodipodi:cx="41.07143"
       sodipodi:cy="93.214287"
       sodipodi:rx="4.2857146"
       sodipodi:ry="2.5"
       d="m 45.357145,93.214287 a 4.2857146,2.5 0 1 1 -8.571429,0 4.2857146,2.5 0 1 1 8.571429,0 z"
       transform="matrix(0.64801111,0,0,0.37193441,-15.895621,1016.3114)" />
    <path
       transform="matrix(0.64801111,0,0,0.37193441,-5.5709259,1016.1759)"
       d="m 45.357145,93.214287 a 4.2857146,2.5 0 1 1 -8.571429,0 4.2857146,2.5 0 1 1 8.571429,0 z"
       sodipodi:ry="2.5"
       sodipodi:rx="4.2857146"
       sodipodi:cy="93.214287"
       sodipodi:cx="41.07143"
       id="path3008"
       style="fill:#aa4400;stroke:#aa4400"
       sodipodi:type="arc" />
    <path
       style="fill:#aa4400;stroke:#aa4400;stroke-width:0.36932376px;stroke-linecap:butt;stroke-linejoin:miter;stroke-opacity:1"
       d="m 8.408031,1041.4817 c 0,0 3.038614,-1.2183 3.038614,-1.7805 0,-0.5623 -3.5275735,-1.6867 -3.5275735,-1.6867 0,0 -1.2996327,-0.3749 -2.4136039,0.6559 -0.518789,0.4801 -0.2143931,2.0587 -0.5346047,3.1741 -0.367366,1.2796 -1.3220144,2.0979 -1.3220144,2.4484 0,0.656 0.8054271,2.5092 1.8566191,1.6867 1.4512818,-1.1355 2.9025634,-4.4979 2.9025634,-4.4979 z"
       id="path3007"
       inkscape:connector-curvature="0"
       sodipodi:nodetypes="cscssssc" />
    <path
       sodipodi:nodetypes="cscssssc"
       inkscape:connector-curvature="0"
       id="path3014"
       d="m 23.255609,1041.6042 c 0,0 -3.038613,-1.2183 -3.038613,-1.7807 0,-0.5621 3.527573,-1.6866 3.527573,-1.6866 0,0 1.299633,-0.3749 2.413603,0.656 0.51879,0.48 0.214394,2.0587 0.534606,3.1741 0.367366,1.2796 1.322014,2.0978 1.322014,2.4484 0,0.6559 -0.805428,2.5093 -1.85662,1.6866 -1.451281,-1.1355 -2.902563,-4.4978 -2.902563,-4.4978 z"
       style="fill:#aa4400;stroke:#aa4400;stroke-width:0.36932376px;stroke-linecap:butt;stroke-linejoin:miter;stroke-opacity:1" />
    <path
       style="fill:#c8b7b7;stroke:#ffffff;stroke-width:0.43009254px;stroke-linecap:butt;stroke-linejoin:miter;stroke-opacity:1"
       d="m 8.295401,1038.0333 15.026923,0 c 0,0 -1.023521,5.0095 -0.901506,7.1064 0.122006,2.097 1.672118,5.3246 1.672118,5.3246 l -7.801585,-0.2148 -8.3812557,0.2759 c 0,0 1.3372674,-3.7155 1.4296807,-5.8139 0.092422,-2.0984 -1.044375,-6.6782 -1.044375,-6.6782 z"
       id="path3010"
       inkscape:connector-curvature="0"
       sodipodi:nodetypes="cczccczc" />
    <path
       style="fill:#aa4400;stroke:#aa4400;stroke-width:0.52408469px;stroke-linecap:butt;stroke-linejoin:miter;stroke-opacity:1"
       d="m 25.473218,1023.8319 c 4.578357,2.3776 3.329157,11.5755 -2.875179,14.3537 -6.204334,2.7782 -8.24094,2.085 -14.2245716,-0.3472 -4.3857848,-1.7828 -5.0878976,-11.0387 -1.6645769,-13.5435 3.4804795,-2.5467 14.1859705,-2.8406 18.7643275,-0.463 z"
       id="path2987"
       inkscape:connector-curvature="0"
       sodipodi:nodetypes="zsssz" />
    <path
       style="fill:#000000;stroke:#000000;stroke-width:0.52408469px;stroke-linecap:butt;stroke-linejoin:miter;stroke-opacity:1"
       d="m 15.637078,1021.864 c 4.448874,1.8086 3.509447,6.9412 -0.47235,9.2882 -3.341291,1.9695 -10.9432188,2.6022 -11.6336686,2.8662 -2.87518036,-6.4823 3.3291551,-14.4695 12.1060186,-12.1544 z"
       id="path2985"
       inkscape:connector-curvature="0"
       sodipodi:nodetypes="cscc" />
    <path
       sodipodi:nodetypes="cscc"
       inkscape:connector-curvature="0"
       id="path2989"
       d="m 15.934647,1022.232 c -1.817559,2.2772 0.711812,7.5775 2.894778,8.9852 3.228369,2.0819 4.445763,1.9242 9.241975,2.6712 2.705405,-5.3282 -1.759598,-15.1799 -12.136753,-11.6564 z"
       style="fill:#000000;stroke:#000000;stroke-width:0.46090415px;stroke-linecap:butt;stroke-linejoin:miter;stroke-opacity:1" />
    <path
       sodipodi:type="arc"
       style="fill:#000000;stroke:#000000"
       id="path2991"
       sodipodi:cx="52.401665"
       sodipodi:cy="36.991734"
       sodipodi:rx="1.3889598"
       sodipodi:ry="4.6719556"
       d="m 53.790624,36.991734 a 1.3889598,4.6719556 0 1 1 -2.777919,0 1.3889598,4.6719556 0 1 1 2.777919,0 z"
       transform="matrix(0.63063534,0,0,0.3152532,-13.247818,1024.16)" />
    <path
       transform="matrix(0.63063534,0,0,0.3152532,-21.083061,1024.16)"
       d="m 53.790624,36.991734 a 1.3889598,4.6719556 0 1 1 -2.777919,0 1.3889598,4.6719556 0 1 1 2.777919,0 z"
       sodipodi:ry="4.6719556"
       sodipodi:rx="1.3889598"
       sodipodi:cy="36.991734"
       sodipodi:cx="52.401665"
       id="path3003"
       style="fill:#000000;stroke:#000000"
       sodipodi:type="arc" />
    <path
       style="fill:#ffff00;stroke:#ffffff;stroke-width:0.43009254px;stroke-linecap:butt;stroke-linejoin:miter;stroke-opacity:1"
       d="m 9.3549919,1044.5244 c 0,0 4.3676841,0.491 6.5501981,0.4899 2.182513,0 6.45387,-0.4899 6.45387,-0.4899 l 0,1.6533 c 0,0 -4.367683,0.4911 -6.550198,0.4899 -2.182513,-9e-4 -6.4538701,-0.4899 -6.4538701,-0.4899 z"
       id="path3012"
       inkscape:connector-curvature="0"
       sodipodi:nodetypes="czcczcc" />
  </g>
</svg>
