<?xml version="1.0" encoding="UTF-8" standalone="no"?>
<!-- Created with Inkscape (http://www.inkscape.org/) -->

<svg
   xmlns:dc="http://purl.org/dc/elements/1.1/"
   xmlns:cc="http://creativecommons.org/ns#"
   xmlns:rdf="http://www.w3.org/1999/02/22-rdf-syntax-ns#"
   xmlns:svg="http://www.w3.org/2000/svg"
   xmlns="http://www.w3.org/2000/svg"
   xmlns:sodipodi="http://sodipodi.sourceforge.net/DTD/sodipodi-0.dtd"
   xmlns:inkscape="http://www.inkscape.org/namespaces/inkscape"
   width="32"
   height="32"
   id="svg2"
   version="1.1"
   inkscape:version="0.48.2 r9819"
   sodipodi:docname="trapper-side.svg"
   inkscape:export-filename="C:\Users\colin\Dropbox\Iamagamer2013\art\trapper0.png"
   inkscape:export-xdpi="90"
   inkscape:export-ydpi="90">
  <defs
     id="defs4" />
  <sodipodi:namedview
     id="base"
     pagecolor="#ffffff"
     bordercolor="#666666"
     borderopacity="1.0"
     inkscape:pageopacity="0.0"
     inkscape:pageshadow="2"
     inkscape:zoom="11.2"
     inkscape:cx="26.815033"
     inkscape:cy="13.198445"
     inkscape:document-units="px"
     inkscape:current-layer="layer1"
     showgrid="true"
     inkscape:window-width="1280"
     inkscape:window-height="716"
     inkscape:window-x="0"
     inkscape:window-y="0"
     inkscape:window-maximized="0"
     inkscape:snap-global="false">
    <inkscape:grid
       type="xygrid"
       id="grid3109" />
  </sodipodi:namedview>
  <metadata
     id="metadata7">
    <rdf:RDF>
      <cc:Work
         rdf:about="">
        <dc:format>image/svg+xml</dc:format>
        <dc:type
           rdf:resource="http://purl.org/dc/dcmitype/StillImage" />
        <dc:title></dc:title>
      </cc:Work>
    </rdf:RDF>
  </metadata>
  <g
     inkscape:label="Layer 1"
     inkscape:groupmode="layer"
     id="layer1"
     transform="translate(0,-1020.3622)">
    <path
       sodipodi:type="arc"
       style="fill:#aa4400;stroke:#aa4400"
       id="path3107"
       sodipodi:cx="41.07143"
       sodipodi:cy="93.214287"
       sodipodi:rx="4.2857146"
       sodipodi:ry="2.5"
       d="m 45.357145,93.214287 a 4.2857146,2.5 0 1 1 -8.571429,0 4.2857146,2.5 0 1 1 8.571429,0 z"
       transform="matrix(0.64801111,0,0,0.37193441,-8.7265109,1015.628)" />
    <path
       sodipodi:nodetypes="ccszccczc"
       inkscape:connector-curvature="0"
       id="path3101"
       d="m 11.568388,1037.3068 12.34835,0.2678 c 0,0 0.753826,1.2867 0.939982,2.9369 0.156788,1.3899 -0.824106,3.5086 -0.770059,4.4374 0.05405,0.9288 1.404261,5.2353 1.404261,5.2353 l -7.533728,-0.1255 -8.3812539,0.2759 c 0,0 1.8729809,-3.8048 1.9653939,-5.9032 0.09242,-2.0984 0.02705,-7.1246 0.02705,-7.1246 z"
       style="fill:#c8b7b7;stroke:#ffffff;stroke-width:0.43009254px;stroke-linecap:butt;stroke-linejoin:miter;stroke-opacity:1" />
    <path
       sodipodi:type="arc"
       style="fill:#aa4400;stroke:#aa4400"
       id="path3021"
       sodipodi:cx="41.07143"
       sodipodi:cy="93.214287"
       sodipodi:rx="4.2857146"
       sodipodi:ry="2.5"
       d="m 45.357145,93.214287 a 4.2857146,2.5 0 1 1 -8.571429,0 4.2857146,2.5 0 1 1 8.571429,0 z"
       transform="matrix(0.64801111,0,0,0.37193441,15.890093,1015.7757)" />
    <path
       transform="matrix(0.64801111,0,0,0.37193441,26.214788,1015.6402)"
       d="m 45.357145,93.214287 a 4.2857146,2.5 0 1 1 -8.571429,0 4.2857146,2.5 0 1 1 8.571429,0 z"
       sodipodi:ry="2.5"
       sodipodi:rx="4.2857146"
       sodipodi:cy="93.214287"
       sodipodi:cx="41.07143"
       id="path3008"
       style="fill:#aa4400;stroke:#aa4400"
       sodipodi:type="arc" />
    <path
       style="fill:#aa4400;stroke:#aa4400;stroke-width:0.36932376px;stroke-linecap:butt;stroke-linejoin:miter;stroke-opacity:1"
       d="m 40.193745,1040.946 c 0,0 3.038614,-1.2183 3.038614,-1.7805 0,-0.5623 -3.527573,-1.6867 -3.527573,-1.6867 0,0 -1.299633,-0.3749 -2.413604,0.6559 -0.518789,0.4801 -0.214393,2.0587 -0.534605,3.1741 -0.367366,1.2796 -1.322014,2.0979 -1.322014,2.4484 0,0.656 0.805427,2.5092 1.856619,1.6867 1.451282,-1.1355 2.902563,-4.4979 2.902563,-4.4979 z"
       id="path3007"
       inkscape:connector-curvature="0"
       sodipodi:nodetypes="cscssssc" />
    <path
       sodipodi:nodetypes="cscssssc"
       inkscape:connector-curvature="0"
       id="path3014"
       d="m 55.041323,1041.0685 c 0,0 -3.038613,-1.2183 -3.038613,-1.7807 0,-0.5621 3.527573,-1.6866 3.527573,-1.6866 0,0 1.299633,-0.3749 2.413603,0.656 0.51879,0.48 0.214394,2.0587 0.534606,3.1741 0.367366,1.2796 1.322014,2.0978 1.322014,2.4484 0,0.6559 -0.805428,2.5093 -1.85662,1.6866 -1.451281,-1.1355 -2.902563,-4.4978 -2.902563,-4.4978 z"
       style="fill:#aa4400;stroke:#aa4400;stroke-width:0.36932376px;stroke-linecap:butt;stroke-linejoin:miter;stroke-opacity:1" />
    <path
       style="fill:#c8b7b7;stroke:#ffffff;stroke-width:0.43009254px;stroke-linecap:butt;stroke-linejoin:miter;stroke-opacity:1"
       d="m 40.081115,1037.4976 15.026923,0 c 0,0 -1.023521,5.0095 -0.901506,7.1064 0.122006,2.097 1.672118,5.3246 1.672118,5.3246 l -7.801585,-0.2148 -8.381255,0.2759 c 0,0 1.337267,-3.7155 1.42968,-5.8139 0.09242,-2.0984 -1.044375,-6.6782 -1.044375,-6.6782 z"
       id="path3010"
       inkscape:connector-curvature="0"
       sodipodi:nodetypes="cczccczc" />
    <path
       style="fill:#aa4400;stroke:#aa4400;stroke-width:0.52408469px;stroke-linecap:butt;stroke-linejoin:miter;stroke-opacity:1"
       d="m 57.258932,1023.2962 c 4.578357,2.3776 3.329157,11.5755 -2.875179,14.3537 -6.204334,2.7782 -8.24094,2.085 -14.224571,-0.3472 -4.385785,-1.7828 -5.087898,-11.0387 -1.664577,-13.5435 3.480479,-2.5467 14.18597,-2.8406 18.764327,-0.463 z"
       id="path2987"
       inkscape:connector-curvature="0"
       sodipodi:nodetypes="zsssz" />
    <path
       style="fill:#000000;stroke:#000000;stroke-width:0.52408469px;stroke-linecap:butt;stroke-linejoin:miter;stroke-opacity:1"
       d="m 47.422792,1021.3283 c 4.448874,1.8086 3.509447,6.9412 -0.47235,9.2882 -3.341291,1.9695 -10.943219,2.6022 -11.633668,2.8662 -2.875181,-6.4823 3.329155,-14.4695 12.106018,-12.1544 z"
       id="path2985"
       inkscape:connector-curvature="0"
       sodipodi:nodetypes="cscc" />
    <path
       sodipodi:nodetypes="cscc"
       inkscape:connector-curvature="0"
       id="path2989"
       d="m 47.720361,1021.6963 c -1.817559,2.2772 0.711812,7.5775 2.894778,8.9852 3.228369,2.0819 4.445763,1.9242 9.241975,2.6712 2.705405,-5.3282 -1.759598,-15.1799 -12.136753,-11.6564 z"
       style="fill:#000000;stroke:#000000;stroke-width:0.46090415px;stroke-linecap:butt;stroke-linejoin:miter;stroke-opacity:1" />
    <path
       sodipodi:type="arc"
       style="fill:#000000;stroke:#000000"
       id="path2991"
       sodipodi:cx="52.401665"
       sodipodi:cy="36.991734"
       sodipodi:rx="1.3889598"
       sodipodi:ry="4.6719556"
       d="m 53.790624,36.991734 a 1.3889598,4.6719556 0 1 1 -2.777919,0 1.3889598,4.6719556 0 1 1 2.777919,0 z"
       transform="matrix(0.63063534,0,0,0.3152532,18.537896,1023.6243)" />
    <path
       transform="matrix(0.63063534,0,0,0.3152532,10.702653,1023.6243)"
       d="m 53.790624,36.991734 a 1.3889598,4.6719556 0 1 1 -2.777919,0 1.3889598,4.6719556 0 1 1 2.777919,0 z"
       sodipodi:ry="4.6719556"
       sodipodi:rx="1.3889598"
       sodipodi:cy="36.991734"
       sodipodi:cx="52.401665"
       id="path3003"
       style="fill:#000000;stroke:#000000"
       sodipodi:type="arc" />
    <path
       style="fill:#ffff00;stroke:#ffffff;stroke-width:0.43009254px;stroke-linecap:butt;stroke-linejoin:miter;stroke-opacity:1"
       d="m 41.140706,1043.9887 c 0,0 4.367684,0.491 6.550198,0.4899 2.182513,0 6.45387,-0.4899 6.45387,-0.4899 l 0,1.6533 c 0,0 -4.367683,0.4911 -6.550198,0.4899 -2.182513,-9e-4 -6.45387,-0.4899 -6.45387,-0.4899 z"
       id="path3012"
       inkscape:connector-curvature="0"
       sodipodi:nodetypes="czcczcc" />
    <path
       sodipodi:nodetypes="zssssz"
       inkscape:connector-curvature="0"
       id="path3095"
       d="m 26.514061,1025.1129 c 2.69083,1.2395 1.589442,4.671 1.109671,7.3922 -0.336543,1.9089 0.757467,2.1933 -0.949136,3.8348 -2.41746,2.3252 -11.544511,2.4829 -17.5281409,0.3256 -4.385785,-1.5813 -4.820041,-8.9201 -1.39672,-11.1419 3.4804789,-2.2589 16.0734959,-1.6501 18.7643259,-0.4107 z"
       style="fill:#aa4400;stroke:#aa4400;stroke-width:0.49358463px;stroke-linecap:butt;stroke-linejoin:miter;stroke-opacity:1" />
    <path
       sodipodi:nodetypes="zscsz"
       inkscape:connector-curvature="0"
       id="path3097"
       d="m 26.462074,1022.2547 c 3.487855,2.0804 1.316062,5.3331 -4.837074,8.4646 -5.16335,2.6279 -15.1250159,5.7042 -16.1919779,6.0565 -3.029823,-5.8982 -1.120292,-11.578 5.8339789,-14.1169 3.243769,-1.1842 11.707217,-2.4845 15.195073,-0.4042 z"
       style="fill:#000000;stroke:#000000;stroke-width:0.75255048px;stroke-linecap:butt;stroke-linejoin:miter;stroke-opacity:1" />
    <path
       sodipodi:type="arc"
       style="fill:#000000;stroke:#000000"
       id="path3099"
       sodipodi:cx="52.401665"
       sodipodi:cy="36.991734"
       sodipodi:rx="1.3889598"
       sodipodi:ry="4.6719556"
       d="m 53.790624,36.991734 a 1.3889598,4.6719556 0 1 1 -2.777919,0 1.3889598,4.6719556 0 1 1 2.777919,0 z"
       transform="matrix(0.63063534,0,0,0.3152532,-8.2565039,1021.9156)" />
    <path
       sodipodi:nodetypes="czcczcc"
       inkscape:connector-curvature="0"
       id="path3103"
       d="m 11.199407,1043.9765 c 0,0 4.367684,0.491 6.550198,0.4899 2.182513,0 6.45387,-0.4899 6.45387,-0.4899 l 0,1.6533 c 0,0 -4.367683,0.4911 -6.550198,0.4899 -2.182513,-9e-4 -6.45387,-0.4899 -6.45387,-0.4899 z"
       style="fill:#ffff00;stroke:#ffffff;stroke-width:0.43009254px;stroke-linecap:butt;stroke-linejoin:miter;stroke-opacity:1" />
    <path
       style="fill:#aa4400;stroke:#aa4400;stroke-width:0.36932376px;stroke-linecap:butt;stroke-linejoin:miter;stroke-opacity:1"
       d="m 16.617881,1043.1098 c 0,0 -0.627899,-1.3969 -0.627899,-1.9593 0,-0.5621 1.116859,-1.508 1.116859,-1.508 0,0 1.299633,-0.3749 2.413603,0.656 0.51879,0.48 0.214394,2.0587 0.534606,3.1741 0.367366,1.2796 1.322014,2.0978 1.322014,2.4484 0,0.6559 -0.805428,2.5093 -1.85662,1.6866 -1.451281,-1.1355 -2.902563,-4.4978 -2.902563,-4.4978 z"
       id="path3105"
       inkscape:connector-curvature="0"
       sodipodi:nodetypes="cscssssc" />
  </g>
</svg>
