<?xml version="1.0" encoding="UTF-8" standalone="no"?>
<!-- Created with Inkscape (http://www.inkscape.org/) -->

<svg
   xmlns:dc="http://purl.org/dc/elements/1.1/"
   xmlns:cc="http://creativecommons.org/ns#"
   xmlns:rdf="http://www.w3.org/1999/02/22-rdf-syntax-ns#"
   xmlns:svg="http://www.w3.org/2000/svg"
   xmlns="http://www.w3.org/2000/svg"
   xmlns:xlink="http://www.w3.org/1999/xlink"
   xmlns:sodipodi="http://sodipodi.sourceforge.net/DTD/sodipodi-0.dtd"
   xmlns:inkscape="http://www.inkscape.org/namespaces/inkscape"
   width="640"
   height="480"
   id="svg4807"
   version="1.1"
   inkscape:version="0.48.2 r9819"
   sodipodi:docname="win.svg"
   inkscape:export-filename="/Users/e0/Dropbox/Iamagamer2013/art/win.png"
   inkscape:export-xdpi="90"
   inkscape:export-ydpi="90">
  <defs
     id="defs4809">
    <linearGradient
       id="linearGradient6854">
      <stop
         style="stop-color:#ff9307;stop-opacity:1;"
         offset="0"
         id="stop6858" />
      <stop
         id="stop6860"
         offset="1"
         style="stop-color:#0039c9;stop-opacity:1;" />
    </linearGradient>
    <linearGradient
       id="linearGradient5378">
      <stop
         style="stop-color:#e33a00;stop-opacity:1;"
         offset="0"
         id="stop5380" />
      <stop
         id="stop5388"
         offset="0.55789846"
         style="stop-color:#ff9307;stop-opacity:1;" />
      <stop
         style="stop-color:#00c1eb;stop-opacity:1;"
         offset="1"
         id="stop5382" />
    </linearGradient>
    <linearGradient
       inkscape:collect="always"
       xlink:href="#linearGradient5378"
       id="linearGradient5390"
       x1="327.14285"
       y1="810.93365"
       x2="324.28571"
       y2="572.36218"
       gradientUnits="userSpaceOnUse" />
    <radialGradient
       inkscape:collect="always"
       xlink:href="#linearGradient6854"
       id="radialGradient6852"
       cx="317.09415"
       cy="1089.575"
       fx="317.09415"
       fy="1089.575"
       r="321.73358"
       gradientTransform="matrix(-0.99951243,0.03122338,-0.01776092,-0.56855684,659.45356,1415.6479)"
       gradientUnits="userSpaceOnUse" />
  </defs>
  <sodipodi:namedview
     id="base"
     pagecolor="#ffffff"
     bordercolor="#666666"
     borderopacity="1.0"
     inkscape:pageopacity="0.0"
     inkscape:pageshadow="2"
     inkscape:zoom="0.98994949"
     inkscape:cx="338.25995"
     inkscape:cy="259.61326"
     inkscape:document-units="px"
     inkscape:current-layer="layer1"
     showgrid="false"
     inkscape:window-width="1280"
     inkscape:window-height="716"
     inkscape:window-x="0"
     inkscape:window-y="0"
     inkscape:window-maximized="1" />
  <metadata
     id="metadata4812">
    <rdf:RDF>
      <cc:Work
         rdf:about="">
        <dc:format>image/svg+xml</dc:format>
        <dc:type
           rdf:resource="http://purl.org/dc/dcmitype/StillImage" />
        <dc:title></dc:title>
      </cc:Work>
    </rdf:RDF>
  </metadata>
  <g
     inkscape:label="Layer 1"
     inkscape:groupmode="layer"
     id="layer1"
     transform="translate(0,-572.36218)">
    <rect
       style="fill:url(#linearGradient5390);fill-opacity:1;stroke:none"
       id="rect4815"
       width="640"
       height="480"
       x="0"
       y="572.36218" />
    <path
       style="fill:url(#radialGradient6852);stroke:none;fill-opacity:1.0"
       d="m 642.46176,801.84435 c 0,0 -74.4009,5.05076 -105.56884,6.06091 -31.16794,1.01016 -104.55394,0 -143.76522,-1.01015 -39.21128,-1.01015 -142.77875,2.02031 -179.9792,2.02031 -37.20044,0 -148.806518,-3.03046 -178.969043,-3.03046 -30.1625222,0 -33.1693044,-2.0203 -33.1693044,-2.0203 L 3.6055262e-8,1015.9967 643.46717,1002.8647 z"
       id="path5327"
       inkscape:connector-curvature="0"
       sodipodi:nodetypes="csssscccc" />
    <path
       style="fill:#321f36;stroke:none;stroke-width:1px;stroke-linecap:butt;stroke-linejoin:miter;stroke-opacity:1;fill-opacity:1"
       d="m 642.45702,340.59895 c 0,0 -105.05587,-30.30458 -154.55334,-28.28427 -49.49748,2.0203 -193.94929,11.11168 -220.21326,13.13198 -26.26396,2.02031 -53.53808,-5.05076 -103.03556,-10.10152 -49.49747,-5.05077 -165.6650125,15.15228 -165.6650125,15.15228 L 1.0101525,481.01015 641.44687,480 z"
       id="path4817"
       inkscape:connector-curvature="0"
       transform="translate(0,572.36218)" />
    <path
       sodipodi:type="arc"
       style="fill:#ffff00;fill-opacity:1;stroke:none"
       id="path5329"
       sodipodi:cx="312.64221"
       sodipodi:cy="164.32733"
       sodipodi:rx="35.860416"
       sodipodi:ry="32.829956"
       d="m 348.50263,164.32733 a 35.860416,32.829956 0 1 1 -71.72083,0 35.860416,32.829956 0 1 1 71.72083,0 z"
       transform="translate(8.0812204,594.58554)" />
    <path
       style="fill:#ffff00;fill-opacity:1;stroke:none"
       d="m 323.42613,854.20732 c -1.7566,-0.17287 -3.4599,-0.32633 -5.25001,-0.51589 -8.98086,-0.95106 -17.99794,-1.99365 -26.65625,-3.09534 -8.65831,-1.10169 -16.95243,-2.25488 -24.40625,-3.43067 -0.64738,-0.10212 -1.05282,-0.20716 -1.6875,-0.30953 -1.08154,2.52474 -1.84375,5.14222 -1.84375,7.9447 0,2.45077 0.56732,4.78457 1.375,7.04189 0.16944,2.1e-4 0.29802,0.0263 0.46875,0.0258 3.54934,-0.0114 7.36021,-0.17783 11.40625,-0.4901 4.04604,-0.31226 8.32269,-0.77458 12.75,-1.34131 4.42731,-0.56673 9.02559,-1.2372 13.71875,-2.01197 4.69316,-0.77477 9.4689,-1.64305 14.3125,-2.57945 1.93011,-0.37314 3.87131,-0.84448 5.81251,-1.23813 z"
       id="path5361"
       inkscape:connector-curvature="0" />
    <path
       style="fill:#ffff00;fill-opacity:1;stroke:none"
       d="m 309.33561,874.73368 c -0.60015,0.0798 -1.24957,0.18188 -1.84375,0.25794 -4.42731,0.56673 -8.70396,1.02905 -12.75,1.34132 -4.04604,0.31226 -7.85691,0.47869 -11.40625,0.49009 -0.17073,5.5e-4 -0.29931,-0.0256 -0.46875,-0.0258 0.82133,2.29549 2.12132,4.4355 3.65625,6.44862 5.03439,0.56731 10.25736,1.06924 15.875,1.3929 6.71298,0.38678 13.72692,0.60525 20.6875,0.69645 6.9606,0.0912 13.89776,0.0442 20.46866,-0.10317 1.1103,-0.0249 2.0053,-0.0982 3.0938,-0.12898 1.5173,-1.66582 2.8696,-3.4337 3.875,-5.33945 -4.5269,-0.26976 -9.0373,-0.52233 -13.875,-1.05758 -6.71206,-0.74261 -13.62915,-1.69469 -20.49996,-2.7858 -2.31397,-0.36747 -4.51925,-0.79388 -6.8125,-1.18655 z"
       id="path5366"
       inkscape:connector-curvature="0" />
    <path
       style="fill:#ffff00;fill-opacity:1;stroke:none"
       d="m 324.14048,870.74475 c 2.29325,0.39267 4.49853,0.81907 6.8125,1.18654 6.87078,1.09111 13.78798,2.0432 20.50008,2.78581 4.8377,0.53524 9.3481,0.78782 13.875,1.05757 1.5556,-2.9487 2.536,-6.1125 2.625,-9.46657 -3.9093,-0.36435 -7.8615,-0.74612 -11.8126,-1.13496 -1.9411,0.39365 -3.8823,0.86499 -5.8124,1.23813 -4.8437,0.93641 -9.6194,1.80469 -14.31258,2.57945 -4.06331,0.67079 -8.00332,1.23924 -11.875,1.75403 z"
       id="path5356"
       inkscape:connector-curvature="0" />
    <path
       style="fill:#ffff00;fill-opacity:1;stroke:none"
       d="m 315.4473,844.30103 c 0.63468,0.10237 1.04012,0.20741 1.6875,0.30954 7.45382,1.17579 15.74794,2.32897 24.40625,3.43066 8.65831,1.1017 17.67532,2.14428 26.65622,3.09534 5.8167,0.61597 11.4153,1.12452 17.0625,1.65085 0,-0.18416 0.062,-0.35663 0.062,-0.54169 0,-5.00522 -1.9314,-9.62177 -5.0625,-13.64528 -3.4593,0.0984 -6.749,0.21778 -10.2188,0.30954 -19.10313,0.50515 -35.65196,0.76942 -52.40617,1.08336 -0.91919,1.35935 -1.55794,2.83804 -2.1875,4.30768 z"
       id="path5336"
       inkscape:connector-curvature="0" />
    <path
       style="fill:#ffff00;fill-opacity:1;stroke:none"
       d="m 314.25202,823.94503 c -1.92754,-0.23466 -4.02286,-0.45864 -5.875,-0.69645 -4.75263,-0.61024 -8.86808,-1.18605 -12.875,-1.75403 -4.36091,2.49136 -7.99037,5.6778 -10.5,9.3892 4.4957,-0.0842 9.54306,-0.20105 14.0625,-0.28374 0.42284,-0.16951 0.89343,-0.31857 1.3125,-0.4901 3.96465,-1.62282 7.7596,-3.32297 11.46875,-5.05572 0.81801,-0.38214 1.59627,-0.7255 2.40625,-1.10916 z"
       id="path5348"
       inkscape:connector-curvature="0" />
    <path
       style="fill:#ffff00;fill-opacity:1;stroke:none"
       d="m 309.20125,827.21605 c -0.80998,0.38366 -1.58824,0.72702 -2.40625,1.10916 -3.70915,1.73274 -7.5041,3.43289 -11.46875,5.05572 -0.41907,0.17153 -0.88966,0.32058 -1.3125,0.49009 12.32326,-0.2255 24.36656,-0.43002 38.34372,-0.79963 3.4698,-0.0917 6.7594,-0.21113 10.2188,-0.30953 -0.6467,-0.83072 -1.3718,-1.6263 -2.125,-2.39889 -5.8392,-0.42862 -11.78677,-0.95605 -17.68752,-1.57346 -4.69094,-0.49082 -9.11463,-1.03199 -13.5625,-1.57346 z"
       id="path5341"
       inkscape:connector-curvature="0" />
    <path
       style="fill:#ffff00;fill-opacity:1;stroke:none"
       d="m 335.56447,810.84025 c -4.22181,-1.35924 -8.75849,-2.26991 -13.65621,-2.26991 -8.04376,0 -15.39229,2.0684 -21.34375,5.46843 4.00692,0.56797 8.12237,1.14379 12.875,1.75403 2.82718,0.363 5.97691,0.70428 8.96875,1.05757 3.7077,-1.76642 7.4393,-3.62397 11.18751,-5.23628 0.6433,-0.27672 1.3215,-0.50408 1.9687,-0.77384 z"
       id="path5351"
       inkscape:connector-curvature="0" />
    <path
       style="fill:#ffff00;fill-opacity:1;stroke:none"
       d="m 336.57467,814.88693 c -0.6472,0.26976 -1.3254,0.49712 -1.9687,0.77384 -3.74823,1.61231 -7.47985,3.46986 -11.18755,5.23628 3.49097,0.41223 6.84792,0.83349 10.46885,1.21234 5.9007,0.61741 11.8483,1.14484 17.6874,1.57346 -3.8101,-3.90735 -9.038,-6.87643 -15,-8.79592 z"
       id="path5331"
       inkscape:connector-curvature="0" />
    <path
       style="fill:#333333;stroke:none;stroke-width:1px;stroke-linecap:butt;stroke-linejoin:miter;stroke-opacity:1"
       d="m 642.45702,425.45176 c 0,0 -67.68022,-19.1929 -72.73098,-20.20305 -5.05077,-1.01015 -90.91373,22.22336 -90.91373,22.22336 l -81.82236,-3.03046 -46.46702,44.44671 2.02031,12.12183 288.90363,-3.03046 z"
       id="path6862"
       inkscape:connector-curvature="0"
       transform="translate(0,572.36218)" />
    <path
       style="fill:#1a1a1a;stroke:none"
       d="m 398.0001,422.92638 -2.0203,56.06347 -43.43656,2.0203 -3.03046,-13.13198 z"
       id="path6866"
       inkscape:connector-curvature="0"
       transform="translate(0,572.36218)"
       sodipodi:nodetypes="ccccc" />
    <path
       style="fill:#1a1a1a;stroke:none"
       d="m 477.80215,427.47207 4.54569,53.53808 83.33759,0 3.53553,-77.27666 z"
       id="path6868"
       inkscape:connector-curvature="0"
       transform="translate(0,572.36218)"
       sodipodi:nodetypes="ccccc" />
    <path
       style="fill:#000000;stroke:#000000;stroke-width:1px;stroke-linecap:butt;stroke-linejoin:miter;stroke-opacity:1"
       d="m 493.96459,956.90276 c 0,0 13.13199,-9.59645 14.64722,-19.69798 1.51523,-10.10152 2.52537,-24.74873 -7.57615,-31.8198 -9.65966,-6.76176 -29.7995,-5.55584 -35.86042,1.01015 -6.06091,6.56599 -8.46189,21.86603 -5.55583,28.78936 4.79091,11.41372 13.63705,17.17258 13.63705,19.69797 0,2.52538 16.16244,11.11167 16.16244,11.11167 z"
       id="path6870"
       inkscape:connector-curvature="0"
       sodipodi:nodetypes="cssssscc" />
    <path
       style="fill:#000000;stroke:none"
       d="m 476.792,948.82154 c 0,0 4.54569,12.12183 -5.05076,16.16245 -9.59645,4.04061 -18.56024,-1.54968 -25.25382,3.53553 -3.94889,3.00003 -5.79998,2.80239 -12.18552,3.69861 -7.60336,1.06715 -17.91259,2.42359 -21.40205,3.87753 -6.06091,2.52538 -9.84899,10.10153 -10.35406,13.13199 -0.50508,3.03045 4.04061,5.55584 9.59645,6.56599 5.55584,1.01015 17.67767,0.50507 25.25381,-1.51523 7.57614,-2.02031 16.66752,-5.05076 20.20305,-0.50508 3.53553,4.54569 1.51523,21.21317 1.01015,26.76907 -0.50507,5.5558 2.02031,20.7081 -2.52538,25.7589 -4.54568,5.0507 -8.08122,16.1624 -9.59645,22.2233 -1.51523,6.0609 -4.04061,12.6269 -4.04061,12.6269 l 94.44927,1.5153 c 0,0 -14.64722,-23.7386 -15.65737,-27.2742 -1.01015,-3.5355 -10.10152,-19.1929 -10.10152,-26.769 0,-7.5762 5.05076,-26.7691 8.08122,-31.81981 3.03045,-5.05076 12.12183,-13.63706 10.6066,-19.1929 -1.51523,-5.55584 -4.54569,-15.15229 -12.12183,-14.64721 -7.57615,0.50508 -21.21321,-1.01015 -21.21321,-1.01015 l -3.53553,-9.59645 z"
       id="path6872"
       inkscape:connector-curvature="0"
       sodipodi:nodetypes="csssssssssssccsssssccc" />
    <text
       xml:space="preserve"
       style="font-size:48px;font-style:normal;font-variant:normal;font-weight:normal;font-stretch:normal;line-height:125%;letter-spacing:0px;word-spacing:0px;fill:#000000;fill-opacity:1;stroke:none;font-family:Charcoal CY;-inkscape-font-specification:Charcoal CY"
       x="368.70569"
       y="664.46362"
       id="text6876"
       sodipodi:linespacing="125%"><tspan
         sodipodi:role="line"
         id="tspan6878"
         x="368.70569"
         y="664.46362">Freedom.</tspan></text>
  </g>
</svg>
