<?xml version="1.0" encoding="UTF-8" standalone="no"?>
<!-- Created with Inkscape (http://www.inkscape.org/) -->

<svg
   xmlns:dc="http://purl.org/dc/elements/1.1/"
   xmlns:cc="http://creativecommons.org/ns#"
   xmlns:rdf="http://www.w3.org/1999/02/22-rdf-syntax-ns#"
   xmlns:svg="http://www.w3.org/2000/svg"
   xmlns="http://www.w3.org/2000/svg"
   xmlns:sodipodi="http://sodipodi.sourceforge.net/DTD/sodipodi-0.dtd"
   xmlns:inkscape="http://www.inkscape.org/namespaces/inkscape"
   width="32"
   height="32"
   id="svg2993"
   version="1.1"
   inkscape:version="0.48.4 r9939"
   sodipodi:docname="deadrat.svg"
   inkscape:export-filename="C:\Users\colin\Dropbox\Iamagamer2013\art\rat-dead.png"
   inkscape:export-xdpi="90"
   inkscape:export-ydpi="90">
  <defs
     id="defs2995" />
  <sodipodi:namedview
     id="base"
     pagecolor="#ffffff"
     bordercolor="#666666"
     borderopacity="1.0"
     inkscape:pageopacity="0.0"
     inkscape:pageshadow="2"
     inkscape:zoom="15.386644"
     inkscape:cx="20.848813"
     inkscape:cy="8.6976046"
     inkscape:document-units="px"
     inkscape:current-layer="layer1"
     showgrid="false"
     inkscape:window-width="1218"
     inkscape:window-height="778"
     inkscape:window-x="54"
     inkscape:window-y="-8"
     inkscape:window-maximized="1" />
  <metadata
     id="metadata2998">
    <rdf:RDF>
      <cc:Work
         rdf:about="">
        <dc:format>image/svg+xml</dc:format>
        <dc:type
           rdf:resource="http://purl.org/dc/dcmitype/StillImage" />
        <dc:title></dc:title>
      </cc:Work>
    </rdf:RDF>
  </metadata>
  <g
     inkscape:label="Layer 1"
     inkscape:groupmode="layer"
     id="layer1"
     transform="translate(0,-1020.3622)">
    <path
       style="fill:#800000;stroke:none"
       d="m 5.5892632,22.413764 c 0.9911193,-0.649915 7.8964588,-3.672016 9.1312958,-3.444546 1.234838,0.22747 4.841862,1.397316 6.921588,1.462307 2.079726,0.06499 3.86699,-0.584923 5.069332,-0.389949 1.202341,0.194975 2.599657,0.129983 3.444545,1.559795 0.844889,1.429811 0.259966,4.354426 -1.689777,5.394289 -1.949743,1.039863 -5.91422,-0.389949 -8.903826,0.129983 -2.989606,0.519931 -6.8241,2.599657 -8.708852,2.469674 C 8.9688176,29.465334 4.1594517,28.490463 3.5745288,26.99566 2.9896059,25.500857 4.5981439,23.063679 5.5892632,22.413764 z"
       id="path4955"
       inkscape:connector-curvature="0"
       transform="translate(0,1020.3622)"
       sodipodi:nodetypes="zssssssssz" />
    <path
       sodipodi:nodetypes="cc"
       style="fill:none;stroke:#552200;stroke-width:0.73062921;stroke-linecap:butt;stroke-linejoin:miter;stroke-miterlimit:4;stroke-opacity:1;stroke-dasharray:none"
       d="m 19.846411,1044.4354 c -0.340811,0.339 -1.678673,0.9195 -0.682693,1.9947"
       id="path3035"
       inkscape:connector-curvature="0" />
    <path
       inkscape:connector-curvature="0"
       id="path3810"
       d="m 19.846411,1044.4354 c -0.340811,0.339 -2.57937,0.9921 -1.58339,2.0673"
       style="fill:none;stroke:#552200;stroke-width:0.73062921;stroke-linecap:butt;stroke-linejoin:miter;stroke-miterlimit:4;stroke-opacity:1;stroke-dasharray:none"
       sodipodi:nodetypes="cc" />
    <path
       sodipodi:nodetypes="cc"
       style="fill:none;stroke:#552200;stroke-width:0.73062921;stroke-linecap:butt;stroke-linejoin:miter;stroke-miterlimit:4;stroke-opacity:1;stroke-dasharray:none"
       d="m 20.125938,1044.6169 c -0.340811,0.339 -1.057505,0.6291 -0.06153,1.7043"
       id="path3812"
       inkscape:connector-curvature="0" />
    <path
       inkscape:connector-curvature="0"
       id="path3814"
       d="m 9.9554399,1046.0198 c -0.340811,0.339 -1.181738,0.2298 -0.185761,1.305"
       style="fill:none;stroke:#552200;stroke-width:0.73062921;stroke-linecap:butt;stroke-linejoin:miter;stroke-miterlimit:4;stroke-opacity:1;stroke-dasharray:none"
       sodipodi:nodetypes="cc" />
    <path
       sodipodi:nodetypes="cc"
       style="fill:none;stroke:#552200;stroke-width:0.73062921;stroke-linecap:butt;stroke-linejoin:miter;stroke-miterlimit:4;stroke-opacity:1;stroke-dasharray:none"
       d="m 9.9554399,1046.0198 c -0.340811,0.339 -2.268785,0.3387 -1.272808,1.4139"
       id="path3820"
       inkscape:connector-curvature="0" />
    <path
       inkscape:connector-curvature="0"
       id="path3822"
       d="m 9.7069719,1045.9109 c -0.34081,0.339 -3.0141883,0.1935 -2.018212,1.2687"
       style="fill:none;stroke:#552200;stroke-width:0.73062921;stroke-linecap:butt;stroke-linejoin:miter;stroke-miterlimit:4;stroke-opacity:1;stroke-dasharray:none"
       sodipodi:nodetypes="cc" />
    <path
       style="fill:#552200;stroke:none"
       d="m 12.925294,1042.9276 c 0,0 -2.366278,3.8023 -3.5504704,3.9137 -1.184192,0.1113 2.0800924,-3.7125 2.0800924,-3.7125 z"
       id="path3818"
       inkscape:connector-curvature="0"
       sodipodi:nodetypes="cscc" />
    <path
       inkscape:connector-curvature="0"
       id="path4947"
       d="m 20.244831,1038.4865 -1.169846,-0.2924 -0.584923,0.4549 1.722273,0.4549 z"
       style="fill:#c8b7b7;stroke:none"
       sodipodi:nodetypes="ccccc" />
    <path
       sodipodi:nodetypes="csscccsssc"
       inkscape:connector-curvature="0"
       id="path4429"
       d="m 19.404396,1037.5767 c 0,0 0.357453,1.3973 0.357453,1.5598 0,0.1625 -0.552427,0.4874 -0.68241,0.7799 -0.129983,0.2924 -0.162479,1.2673 -0.162479,1.2673 l 0.324957,0.5849 -0.812393,0.7799 c 0,0 5.426785,0.7149 6.401657,0.455 0.974871,-0.26 2.632153,-1.7872 2.469674,-2.5022 -0.145809,-0.6416 -0.684763,-1.4995 -1.852256,-2.1447 -1.234837,-0.6824 -6.044203,-0.7799 -6.044203,-0.7799 z"
       style="fill:#552200;stroke:none" />
    <g
       id="g3834"
       style="fill:#ff8080;stroke:none"
       transform="matrix(0.67583267,0,0,0.7898686,-1.8816908,219.66849)">
      <path
         transform="translate(0,1002.3622)"
         inkscape:connector-curvature="0"
         id="path3832"
         d="m 40.992647,34.926471 c 0,0 6.525735,-0.919118 6.525735,2.849264 0,3.768383 -3.400735,8.731618 -8.455882,9.191177 -5.498919,0.499902 -11.725129,1.969513 -14.298659,0.315102 -2.517168,-1.618179 -4.145622,-1.948562 -4.145622,-1.948562 0,0 3.729892,0.560255 4.740922,1.571284 1.011029,1.01103 11.956754,-0.359402 13.532295,-0.772044 3.860294,-1.01103 6.595084,-4.150897 6.962731,-6.081045 0.367647,-1.930147 -0.17402,-2.459737 -1.460785,-2.827384 -1.286764,-0.367647 -2.573529,0 -2.573529,0 0,0 -0.735294,-0.367647 -0.827206,-1.01103 -0.09191,-0.643382 0,-1.286764 0,-1.286762 z"
         style="fill:#ff8080;stroke:none"
         sodipodi:nodetypes="cssscsssscsc" />
    </g>
    <path
       style="fill:#c8b7b7;stroke:none;stroke-width:1px;stroke-linecap:butt;stroke-linejoin:miter;stroke-opacity:1"
       d="m 15.467961,18.319304 1.722273,-0.519932 -0.45494,0.747402 -1.234837,0.389948 z"
       id="path4945"
       inkscape:connector-curvature="0"
       transform="translate(0,1020.3622)" />
    <path
       sodipodi:nodetypes="cscc"
       inkscape:connector-curvature="0"
       id="path4431"
       d="m 24.023207,1041.8205 c 0,0 -3.401118,3.5218 -4.623376,3.2958 -1.22223,-0.226 3.088892,-3.5066 3.088892,-3.5066 z"
       style="fill:#552200;stroke:none" />
    <path
       style="fill:none;stroke:#ff0000;stroke-width:0.2;stroke-linecap:round;stroke-linejoin:miter;stroke-miterlimit:4;stroke-opacity:1;stroke-dasharray:none"
       d="m 16.280354,17.604398 c 0,0 -0.259966,1.462307 -0.324957,1.657281 -0.06499,0.194975 0.552427,0.552427 0.649914,0.714906 0.09749,0.162479 0.259966,1.13735 0.09749,1.299828 -0.162478,0.162479 -0.292461,0.617419 -0.292461,0.617419 l 0.747401,0.714906"
       id="path4433"
       inkscape:connector-curvature="0"
       transform="translate(0,1020.3622)"
       sodipodi:nodetypes="cscscc" />
    <path
       style="fill:#552200;stroke:none"
       d="m 16.247858,17.636893 c 0,0 -0.357453,1.397316 -0.357453,1.559795 0,0.162478 0.552427,0.487436 0.68241,0.779897 0.129983,0.292461 0.162479,1.267333 0.162479,1.267333 l -0.324957,0.584923 0.812393,0.779897 c 0,0 -5.426785,0.714906 -6.401657,0.45494 -0.974871,-0.259966 -3.0221011,-2.144717 -2.469674,-2.50217 0.5524272,-0.357453 0.7822503,-0.947098 1.949743,-1.59229 1.234837,-0.682409 5.946716,-1.332325 5.946716,-1.332325 z"
       id="path4427"
       inkscape:connector-curvature="0"
       sodipodi:nodetypes="csscccsssc"
       transform="translate(0,1020.3622)" />
    <path
       transform="translate(0,1020.3622)"
       inkscape:connector-curvature="0"
       id="path4943"
       d="m 19.399943,17.279441 c 0,0 0.552427,1.462307 0.487436,1.657281 -0.06499,0.194975 -0.779898,0.357453 -0.682411,0.519932 0.09749,0.162479 -0.292461,0.974871 -0.259966,1.267332 0.02538,0.228374 0.324958,0.714906 0.324958,0.714906 l -0.68241,0.779897"
       style="fill:none;stroke:#ff0000;stroke-width:0.2;stroke-linecap:round;stroke-linejoin:miter;stroke-miterlimit:4;stroke-opacity:1;stroke-dasharray:none"
       sodipodi:nodetypes="cscscc" />
    <path
       sodipodi:nodetypes="ccccc"
       style="fill:#c8b7b7;stroke:none"
       d="m 16.345345,1038.9414 0.324957,1.1699 0.259966,0.325 -0.259966,-1.5924 z"
       id="path4949"
       inkscape:connector-curvature="0" />
    <path
       inkscape:connector-curvature="0"
       id="path4951"
       d="m 15.735442,1044.3191 1.209253,-0.1094 0.333934,-0.3923 -1.580697,0.164 z"
       style="fill:#c8b7b7;stroke:none"
       sodipodi:nodetypes="ccccc" />
    <path
       sodipodi:nodetypes="ccccc"
       style="fill:#c8b7b7;stroke:none"
       d="m 17.816604,1043.4226 1.140429,0.4167 0.643049,-0.4444 -1.250943,-0.2612 z"
       id="path4953"
       inkscape:connector-curvature="0" />
    <path
       style="fill:#552200;stroke:#552200;stroke-width:0.73062921px;stroke-linecap:butt;stroke-linejoin:miter;stroke-opacity:1"
       d="m 2.7178638,1043.2556 c -0.5454403,-1.0639 1.0087485,-1.6216 2.3149851,-2.0695 1.3063268,-0.4482 1.4393441,-2.5919 3.0689494,-2.877 1.629694,-0.2852 3.3355627,0.889 3.1517027,2.0598 -0.18377,1.1706 -0.487974,3.386 -1.2616513,3.3126 -0.7735877,-0.074 -6.4639982,0.748 -6.9206365,0.045 -0.4566384,-0.7035 -0.3533494,-0.4705 -0.3533494,-0.4705 z"
       id="path3001"
       inkscape:connector-curvature="0"
       sodipodi:nodetypes="csssssc" />
    <path
       sodipodi:type="arc"
       style="fill:#ff0000;stroke:none"
       id="path3012"
       sodipodi:cx="14.363107"
       sodipodi:cy="33.553455"
       sodipodi:rx="0.78918165"
       sodipodi:ry="0.78918165"
       d="m 15.152288,33.553455 a 0.78918165,0.78918165 0 1 1 -1.578363,0 0.78918165,0.78918165 0 1 1 1.578363,0 z"
       transform="matrix(0.40342982,-0.02282757,0.67170254,0.47237319,-19.757824,1025.6922)" />
    <path
       style="fill:#552200;stroke:none"
       d="m 10.26856,1039.3794 c 0.439411,-0.1138 2.797949,-0.4343 2.797949,-0.4343 0,0 0.396932,2.1538 -0.67018,2.5658 -1.067114,0.412 -2.055909,-0.7555 -2.055909,-0.7555 z"
       id="path3018"
       inkscape:connector-curvature="0" />
    <path
       inkscape:connector-curvature="0"
       id="path3020"
       d="m 9.7138503,1039.8824 c 0.089277,-0.4835 0.3026417,-3.0688 0.3026417,-3.0688 0,0 -1.9840961,-0.3606 -2.3250865,0.8183 -0.3409855,1.1789 0.7609086,2.2186 0.7609086,2.2186 z"
       style="fill:#552200;stroke:none" />
    <path
       style="fill:#ffaaaa;stroke:none"
       d="m 2.6624846,1042.1457 c 0,0 0.1533469,-0.1666 0.4307839,-0.027 0.2774375,0.1396 0.5809738,0.7801 0.5809738,0.7801 0,0 -0.5579863,0.6943 -0.9594707,0.2485 -0.4015295,-0.4458 -0.052287,-1.0016 -0.052287,-1.0016 z"
       id="path3837"
       inkscape:connector-curvature="0" />
    <path
       transform="matrix(0.40342982,-0.02282757,0.67170254,0.47237319,-21.805054,1024.5223)"
       d="m 15.152288,33.553455 a 0.78918165,0.78918165 0 1 1 -1.578363,0 0.78918165,0.78918165 0 1 1 1.578363,0 z"
       sodipodi:ry="0.78918165"
       sodipodi:rx="0.78918165"
       sodipodi:cy="33.553455"
       sodipodi:cx="14.363107"
       id="path4425"
       style="fill:#ff0000;stroke:none"
       sodipodi:type="arc" />
  </g>
</svg>
